<svg width="176" height="196" viewBox="0 0 176 196" fill="none" xmlns="http://www.w3.org/2000/svg">
<path d="M100.617 129.729C118.456 129.729 132.917 115.432 132.917 97.7958C132.917 80.1596 118.456 65.8626 100.617 65.8626C82.7781 65.8626 68.3168 80.1596 68.3168 97.7958C68.3168 115.432 82.7781 129.729 100.617 129.729Z" fill="white" fill-opacity="0.05"/>
<path d="M137.46 137.712C127.366 145.695 113.235 151.683 99.1034 151.683C66.8032 151.683 44.5967 127.733 44.5967 95.7996C44.5967 63.8664 66.8032 41.9123 99.1034 41.9123C113.235 41.9123 127.366 45.904 137.46 55.8831L143.516 61.8706L175.816 31.9332L167.741 25.9457C149.573 9.97909 125.347 0 99.1034 0C42.578 0 0.183838 41.9123 0.183838 97.7955C0.183838 153.679 42.578 195.591 99.1034 195.591C125.347 195.591 149.573 185.612 167.741 169.645L175.816 163.658L143.516 131.724L137.46 137.712Z" fill="white" fill-opacity="0.05"/>
</svg>
