<svg width="115" height="12" viewBox="0 0 115 12" fill="none" xmlns="http://www.w3.org/2000/svg">
<mask id="path-1-outside-1_1753_38" maskUnits="userSpaceOnUse" x="0" y="0" width="115" height="12" fill="black">
<rect fill="white" width="115" height="12"/>
<path d="M2.17338 2V10.8H1V1.2H2.95564L8.4253 9.6L13.895 1.2H15.7651V10.8H14.5917V2.13125L9.01811 10.8H7.8325L2.17338 2Z"/>
<path d="M17.2551 10.8V1.2H26.6421V2.2H18.4284V5.4H26.251V6.4H18.4284V9.8H26.6421V10.8H17.2551Z"/>
<path d="M38.5871 10.8H37.4138V9C37.4138 8.70833 37.4076 8.45833 37.3954 8.25C37.3873 8.0375 37.3526 7.85625 37.2915 7.70625C37.2345 7.55625 37.1428 7.43542 37.0165 7.34375C36.8902 7.25208 36.7109 7.18125 36.4787 7.13125C36.2465 7.08125 35.9511 7.04792 35.5926 7.03125C35.2381 7.01042 34.8001 7 34.2786 7H29.0045V10.8H27.8311V1.2H34.4742C35.1913 1.2 35.7942 1.22708 36.2831 1.28125C36.7761 1.33125 37.1815 1.40833 37.4993 1.5125C37.8212 1.61667 38.0677 1.74583 38.2388 1.9C38.414 2.05417 38.5403 2.23542 38.6177 2.44375C38.6992 2.65208 38.746 2.88542 38.7583 3.14375C38.7745 3.40208 38.7827 3.6875 38.7827 4C38.7827 4.4 38.7542 4.75208 38.6971 5.05625C38.6442 5.35625 38.5525 5.6125 38.4221 5.825C38.2918 6.0375 38.1186 6.20833 37.9027 6.3375C37.6867 6.4625 37.4158 6.55 37.0898 6.6C37.4158 6.65 37.6765 6.7375 37.8721 6.8625C38.0677 6.9875 38.2184 7.15 38.3243 7.35C38.4303 7.55 38.4995 7.7875 38.5321 8.0625C38.5688 8.3375 38.5871 8.65 38.5871 9V10.8ZM29.0045 6H34.4742C34.9957 6 35.4337 5.99167 35.7881 5.975C36.1467 5.95417 36.442 5.91875 36.6743 5.86875C36.9065 5.81875 37.0858 5.74792 37.2121 5.65625C37.3384 5.56458 37.43 5.44375 37.4871 5.29375C37.5482 5.14375 37.5828 4.96458 37.591 4.75625C37.6032 4.54375 37.6093 4.29167 37.6093 4C37.6093 3.72917 37.6032 3.49583 37.591 3.3C37.5828 3.10417 37.5482 2.93958 37.4871 2.80625C37.43 2.67292 37.3384 2.56667 37.2121 2.4875C37.0858 2.40833 36.9065 2.34792 36.6743 2.30625C36.442 2.26042 36.1467 2.23125 35.7881 2.21875C35.4337 2.20625 34.9957 2.2 34.4742 2.2H29.0045V6Z"/>
<path d="M50.5383 4.2C50.5383 3.7 50.4853 3.30417 50.3794 3.0125C50.2734 2.72083 50.0983 2.5 49.8538 2.35C49.6093 2.2 49.2875 2.10417 48.8882 2.0625C48.4889 2.02083 47.9959 2 47.4093 2H44.268C43.7465 2 43.3065 2.01667 42.948 2.05C42.5935 2.07917 42.3002 2.14167 42.0679 2.2375C41.8357 2.33333 41.6564 2.47083 41.5301 2.65C41.4038 2.82917 41.3122 3.06667 41.2551 3.3625C41.1981 3.65833 41.1655 4.02292 41.1573 4.45625C41.1492 4.88542 41.1451 5.4 41.1451 6C41.1451 6.6 41.1492 7.11667 41.1573 7.55C41.1695 7.97917 41.2042 8.34167 41.2612 8.6375C41.3183 8.93333 41.4079 9.17083 41.5301 9.35C41.6564 9.52917 41.8357 9.66667 42.0679 9.7625C42.3002 9.85833 42.5935 9.92292 42.948 9.95625C43.3065 9.98542 43.7465 10 44.268 10H47.4154C47.8717 10 48.2648 9.9875 48.5949 9.9625C48.9249 9.9375 49.206 9.89167 49.4382 9.825C49.6705 9.75833 49.8579 9.66667 50.0005 9.55C50.1431 9.43333 50.2531 9.2875 50.3305 9.1125C50.412 8.93333 50.467 8.72083 50.4955 8.475C50.524 8.225 50.5383 7.93333 50.5383 7.6V7H45.8325V6H51.7117V7.6C51.7117 8 51.6872 8.3625 51.6383 8.6875C51.5894 9.00833 51.5018 9.29583 51.3755 9.55C51.2533 9.8 51.0883 10.0167 50.8805 10.2C50.6727 10.3833 50.4099 10.5354 50.0921 10.6562C49.7743 10.7729 49.3954 10.8583 48.9554 10.9125C48.5154 10.9708 48.0021 11 47.4154 11H44.268C43.5509 11 42.9459 10.9542 42.4529 10.8625C41.964 10.775 41.5607 10.6417 41.2429 10.4625C40.9251 10.2792 40.6786 10.05 40.5034 9.775C40.3323 9.5 40.206 9.17708 40.1245 8.80625C40.0471 8.43542 40.0023 8.01667 39.9901 7.55C39.9778 7.08333 39.9717 6.56667 39.9717 6C39.9717 5.43333 39.9778 4.91667 39.9901 4.45C40.0023 3.98333 40.0471 3.56458 40.1245 3.19375C40.206 2.82292 40.3323 2.5 40.5034 2.225C40.6786 1.95 40.9251 1.72292 41.2429 1.54375C41.5607 1.36042 41.964 1.225 42.4529 1.1375C42.9459 1.04583 43.5509 1 44.268 1H47.4093C47.9959 1 48.5093 1.02917 48.9493 1.0875C49.3893 1.14167 49.7682 1.22708 50.086 1.34375C50.4038 1.45625 50.6666 1.6 50.8744 1.775C51.0863 1.95 51.2533 2.15625 51.3755 2.39375C51.5018 2.63125 51.5894 2.9 51.6383 3.2C51.6872 3.5 51.7117 3.83333 51.7117 4.2H50.5383Z"/>
<path d="M52.8336 10.8V1.2H62.2207V2.2H54.007V5.4H61.8295V6.4H54.007V9.8H62.2207V10.8H52.8336Z"/>
<path d="M72.7143 1.2H74.0832L77.8967 9.8L81.6124 1.2H82.9814L78.679 10.8H77.1144L73.3987 2.4L69.683 10.8H68.1185L63.425 1.2H64.7939L68.9008 9.8L72.7143 1.2Z"/>
<path d="M90.4092 8.6H82.9777L81.8043 10.8H80.4354L85.9112 1.2H87.4757L92.9515 10.8H91.5825L90.4092 8.6ZM89.8225 7.6L86.6934 2L83.5644 7.6H89.8225Z"/>
<path d="M100.75 1.2H102.119L97.034 10.8H95.4695L90.3849 1.2H91.7538L96.2518 10L100.75 1.2Z"/>
<path d="M2.17338 2V10.8H1V1.2H2.95564L8.4253 9.6L13.895 1.2H15.7651V10.8H14.5917V2.13125L9.01811 10.8H7.8325L2.17338 2Z"/>
<path d="M17.2551 10.8V1.2H26.6421V2.2H18.4284V5.4H26.251V6.4H18.4284V9.8H26.6421V10.8H17.2551Z"/>
<path d="M38.5871 10.8H37.4138V9C37.4138 8.70833 37.4076 8.45833 37.3954 8.25C37.3873 8.0375 37.3526 7.85625 37.2915 7.70625C37.2345 7.55625 37.1428 7.43542 37.0165 7.34375C36.8902 7.25208 36.7109 7.18125 36.4787 7.13125C36.2465 7.08125 35.9511 7.04792 35.5926 7.03125C35.2381 7.01042 34.8001 7 34.2786 7H29.0045V10.8H27.8311V1.2H34.4742C35.1913 1.2 35.7942 1.22708 36.2831 1.28125C36.7761 1.33125 37.1815 1.40833 37.4993 1.5125C37.8212 1.61667 38.0677 1.74583 38.2388 1.9C38.414 2.05417 38.5403 2.23542 38.6177 2.44375C38.6992 2.65208 38.746 2.88542 38.7583 3.14375C38.7745 3.40208 38.7827 3.6875 38.7827 4C38.7827 4.4 38.7542 4.75208 38.6971 5.05625C38.6442 5.35625 38.5525 5.6125 38.4221 5.825C38.2918 6.0375 38.1186 6.20833 37.9027 6.3375C37.6867 6.4625 37.4158 6.55 37.0898 6.6C37.4158 6.65 37.6765 6.7375 37.8721 6.8625C38.0677 6.9875 38.2184 7.15 38.3243 7.35C38.4303 7.55 38.4995 7.7875 38.5321 8.0625C38.5688 8.3375 38.5871 8.65 38.5871 9V10.8ZM29.0045 6H34.4742C34.9957 6 35.4337 5.99167 35.7881 5.975C36.1467 5.95417 36.442 5.91875 36.6743 5.86875C36.9065 5.81875 37.0858 5.74792 37.2121 5.65625C37.3384 5.56458 37.43 5.44375 37.4871 5.29375C37.5482 5.14375 37.5828 4.96458 37.591 4.75625C37.6032 4.54375 37.6093 4.29167 37.6093 4C37.6093 3.72917 37.6032 3.49583 37.591 3.3C37.5828 3.10417 37.5482 2.93958 37.4871 2.80625C37.43 2.67292 37.3384 2.56667 37.2121 2.4875C37.0858 2.40833 36.9065 2.34792 36.6743 2.30625C36.442 2.26042 36.1467 2.23125 35.7881 2.21875C35.4337 2.20625 34.9957 2.2 34.4742 2.2H29.0045V6Z"/>
<path d="M50.5383 4.2C50.5383 3.7 50.4853 3.30417 50.3794 3.0125C50.2734 2.72083 50.0983 2.5 49.8538 2.35C49.6093 2.2 49.2875 2.10417 48.8882 2.0625C48.4889 2.02083 47.9959 2 47.4093 2H44.268C43.7465 2 43.3065 2.01667 42.948 2.05C42.5935 2.07917 42.3002 2.14167 42.0679 2.2375C41.8357 2.33333 41.6564 2.47083 41.5301 2.65C41.4038 2.82917 41.3122 3.06667 41.2551 3.3625C41.1981 3.65833 41.1655 4.02292 41.1573 4.45625C41.1492 4.88542 41.1451 5.4 41.1451 6C41.1451 6.6 41.1492 7.11667 41.1573 7.55C41.1695 7.97917 41.2042 8.34167 41.2612 8.6375C41.3183 8.93333 41.4079 9.17083 41.5301 9.35C41.6564 9.52917 41.8357 9.66667 42.0679 9.7625C42.3002 9.85833 42.5935 9.92292 42.948 9.95625C43.3065 9.98542 43.7465 10 44.268 10H47.4154C47.8717 10 48.2648 9.9875 48.5949 9.9625C48.9249 9.9375 49.206 9.89167 49.4382 9.825C49.6705 9.75833 49.8579 9.66667 50.0005 9.55C50.1431 9.43333 50.2531 9.2875 50.3305 9.1125C50.412 8.93333 50.467 8.72083 50.4955 8.475C50.524 8.225 50.5383 7.93333 50.5383 7.6V7H45.8325V6H51.7117V7.6C51.7117 8 51.6872 8.3625 51.6383 8.6875C51.5894 9.00833 51.5018 9.29583 51.3755 9.55C51.2533 9.8 51.0883 10.0167 50.8805 10.2C50.6727 10.3833 50.4099 10.5354 50.0921 10.6562C49.7743 10.7729 49.3954 10.8583 48.9554 10.9125C48.5154 10.9708 48.0021 11 47.4154 11H44.268C43.5509 11 42.9459 10.9542 42.4529 10.8625C41.964 10.775 41.5607 10.6417 41.2429 10.4625C40.9251 10.2792 40.6786 10.05 40.5034 9.775C40.3323 9.5 40.206 9.17708 40.1245 8.80625C40.0471 8.43542 40.0023 8.01667 39.9901 7.55C39.9778 7.08333 39.9717 6.56667 39.9717 6C39.9717 5.43333 39.9778 4.91667 39.9901 4.45C40.0023 3.98333 40.0471 3.56458 40.1245 3.19375C40.206 2.82292 40.3323 2.5 40.5034 2.225C40.6786 1.95 40.9251 1.72292 41.2429 1.54375C41.5607 1.36042 41.964 1.225 42.4529 1.1375C42.9459 1.04583 43.5509 1 44.268 1H47.4093C47.9959 1 48.5093 1.02917 48.9493 1.0875C49.3893 1.14167 49.7682 1.22708 50.086 1.34375C50.4038 1.45625 50.6666 1.6 50.8744 1.775C51.0863 1.95 51.2533 2.15625 51.3755 2.39375C51.5018 2.63125 51.5894 2.9 51.6383 3.2C51.6872 3.5 51.7117 3.83333 51.7117 4.2H50.5383Z"/>
<path d="M52.8336 10.8V1.2H62.2207V2.2H54.007V5.4H61.8295V6.4H54.007V9.8H62.2207V10.8H52.8336Z"/>
<path d="M72.7143 1.2H74.0832L77.8967 9.8L81.6124 1.2H82.9814L78.679 10.8H77.1144L73.3987 2.4L69.683 10.8H68.1185L63.425 1.2H64.7939L68.9008 9.8L72.7143 1.2Z"/>
<path d="M90.4092 8.6H82.9777L81.8043 10.8H80.4354L85.9112 1.2H87.4757L92.9515 10.8H91.5825L90.4092 8.6ZM89.8225 7.6L86.6934 2L83.5644 7.6H89.8225Z"/>
<path d="M100.75 1.2H102.119L97.034 10.8H95.4695L90.3849 1.2H91.7538L96.2518 10L100.75 1.2Z"/>
<path d="M114 10.025L106.556 10C106.035 10 105.595 9.98333 105.236 9.95C104.882 9.92083 104.589 9.85833 104.356 9.7625C104.124 9.66667 103.945 9.52917 103.818 9.35C103.692 9.17083 103.601 8.93333 103.543 8.6375C103.486 8.34167 103.454 7.97708 103.446 7.54375C103.438 7.11458 103.433 6.6 103.433 6C103.433 5.4 103.438 4.88333 103.446 4.45C103.458 4.02083 103.493 3.65833 103.55 3.3625C103.607 3.06667 103.696 2.82917 103.818 2.65C103.945 2.47083 104.124 2.33333 104.356 2.2375C104.589 2.14167 104.882 2.07708 105.236 2.04375C105.595 2.01458 106.035 2 106.556 2H109.704C110.16 2 110.553 2.0125 110.883 2.0375C111.213 2.0625 111.494 2.10833 111.727 2.175C111.959 2.24167 112.146 2.33333 112.289 2.45C112.431 2.56667 112.541 2.7125 112.619 2.8875C112.7 3.06667 112.755 3.27917 112.784 3.525C112.812 3.775 112.827 4.06667 112.827 4.4V5.19355H107.074V6.19355H111.06H114V4.4C114 4 113.976 3.6375 113.927 3.3125C113.878 2.99167 113.79 2.70417 113.664 2.45C113.542 2.2 113.377 1.98333 113.169 1.8C112.961 1.61667 112.698 1.46458 112.38 1.34375C112.063 1.22708 111.684 1.14167 111.244 1.0875C110.804 1.02917 110.29 1 109.704 1H106.556C105.839 1 105.234 1.04583 104.741 1.1375C104.252 1.225 103.849 1.35833 103.531 1.5375C103.213 1.72083 102.967 1.95 102.792 2.225C102.621 2.5 102.494 2.82292 102.413 3.19375C102.335 3.56458 102.291 3.98333 102.278 4.45C102.266 4.91667 102.26 5.43333 102.26 6C102.26 6.56667 102.266 7.08333 102.278 7.55C102.291 8.01667 102.335 8.43542 102.413 8.80625C102.494 9.17708 102.621 9.5 102.792 9.775C102.967 10.05 103.213 10.2771 103.531 10.4562C103.849 10.6396 104.252 10.775 104.741 10.8625C105.234 10.9542 105.839 11 106.556 11H114V10.025Z"/>
<path d="M114 10.025L106.556 10C106.035 10 105.595 9.98333 105.236 9.95C104.882 9.92083 104.589 9.85833 104.356 9.7625C104.124 9.66667 103.945 9.52917 103.818 9.35C103.692 9.17083 103.601 8.93333 103.543 8.6375C103.486 8.34167 103.454 7.97708 103.446 7.54375C103.438 7.11458 103.433 6.6 103.433 6C103.433 5.4 103.438 4.88333 103.446 4.45C103.458 4.02083 103.493 3.65833 103.55 3.3625C103.607 3.06667 103.696 2.82917 103.818 2.65C103.945 2.47083 104.124 2.33333 104.356 2.2375C104.589 2.14167 104.882 2.07708 105.236 2.04375C105.595 2.01458 106.035 2 106.556 2H109.704C110.16 2 110.553 2.0125 110.883 2.0375C111.213 2.0625 111.494 2.10833 111.727 2.175C111.959 2.24167 112.146 2.33333 112.289 2.45C112.431 2.56667 112.541 2.7125 112.619 2.8875C112.7 3.06667 112.755 3.27917 112.784 3.525C112.812 3.775 112.827 4.06667 112.827 4.4V5.19355H107.074V6.19355H111.06H114V4.4C114 4 113.976 3.6375 113.927 3.3125C113.878 2.99167 113.79 2.70417 113.664 2.45C113.542 2.2 113.377 1.98333 113.169 1.8C112.961 1.61667 112.698 1.46458 112.38 1.34375C112.063 1.22708 111.684 1.14167 111.244 1.0875C110.804 1.02917 110.29 1 109.704 1H106.556C105.839 1 105.234 1.04583 104.741 1.1375C104.252 1.225 103.849 1.35833 103.531 1.5375C103.213 1.72083 102.967 1.95 102.792 2.225C102.621 2.5 102.494 2.82292 102.413 3.19375C102.335 3.56458 102.291 3.98333 102.278 4.45C102.266 4.91667 102.26 5.43333 102.26 6C102.26 6.56667 102.266 7.08333 102.278 7.55C102.291 8.01667 102.335 8.43542 102.413 8.80625C102.494 9.17708 102.621 9.5 102.792 9.775C102.967 10.05 103.213 10.2771 103.531 10.4562C103.849 10.6396 104.252 10.775 104.741 10.8625C105.234 10.9542 105.839 11 106.556 11H114V10.025Z"/>
</mask>
<path d="M2.17338 2V10.8H1V1.2H2.95564L8.4253 9.6L13.895 1.2H15.7651V10.8H14.5917V2.13125L9.01811 10.8H7.8325L2.17338 2Z" fill="url(#paint0_radial_1753_38)"/>
<path d="M17.2551 10.8V1.2H26.6421V2.2H18.4284V5.4H26.251V6.4H18.4284V9.8H26.6421V10.8H17.2551Z" fill="url(#paint1_radial_1753_38)"/>
<path d="M38.5871 10.8H37.4138V9C37.4138 8.70833 37.4076 8.45833 37.3954 8.25C37.3873 8.0375 37.3526 7.85625 37.2915 7.70625C37.2345 7.55625 37.1428 7.43542 37.0165 7.34375C36.8902 7.25208 36.7109 7.18125 36.4787 7.13125C36.2465 7.08125 35.9511 7.04792 35.5926 7.03125C35.2381 7.01042 34.8001 7 34.2786 7H29.0045V10.8H27.8311V1.2H34.4742C35.1913 1.2 35.7942 1.22708 36.2831 1.28125C36.7761 1.33125 37.1815 1.40833 37.4993 1.5125C37.8212 1.61667 38.0677 1.74583 38.2388 1.9C38.414 2.05417 38.5403 2.23542 38.6177 2.44375C38.6992 2.65208 38.746 2.88542 38.7583 3.14375C38.7745 3.40208 38.7827 3.6875 38.7827 4C38.7827 4.4 38.7542 4.75208 38.6971 5.05625C38.6442 5.35625 38.5525 5.6125 38.4221 5.825C38.2918 6.0375 38.1186 6.20833 37.9027 6.3375C37.6867 6.4625 37.4158 6.55 37.0898 6.6C37.4158 6.65 37.6765 6.7375 37.8721 6.8625C38.0677 6.9875 38.2184 7.15 38.3243 7.35C38.4303 7.55 38.4995 7.7875 38.5321 8.0625C38.5688 8.3375 38.5871 8.65 38.5871 9V10.8ZM29.0045 6H34.4742C34.9957 6 35.4337 5.99167 35.7881 5.975C36.1467 5.95417 36.442 5.91875 36.6743 5.86875C36.9065 5.81875 37.0858 5.74792 37.2121 5.65625C37.3384 5.56458 37.43 5.44375 37.4871 5.29375C37.5482 5.14375 37.5828 4.96458 37.591 4.75625C37.6032 4.54375 37.6093 4.29167 37.6093 4C37.6093 3.72917 37.6032 3.49583 37.591 3.3C37.5828 3.10417 37.5482 2.93958 37.4871 2.80625C37.43 2.67292 37.3384 2.56667 37.2121 2.4875C37.0858 2.40833 36.9065 2.34792 36.6743 2.30625C36.442 2.26042 36.1467 2.23125 35.7881 2.21875C35.4337 2.20625 34.9957 2.2 34.4742 2.2H29.0045V6Z" fill="url(#paint2_radial_1753_38)"/>
<path d="M50.5383 4.2C50.5383 3.7 50.4853 3.30417 50.3794 3.0125C50.2734 2.72083 50.0983 2.5 49.8538 2.35C49.6093 2.2 49.2875 2.10417 48.8882 2.0625C48.4889 2.02083 47.9959 2 47.4093 2H44.268C43.7465 2 43.3065 2.01667 42.948 2.05C42.5935 2.07917 42.3002 2.14167 42.0679 2.2375C41.8357 2.33333 41.6564 2.47083 41.5301 2.65C41.4038 2.82917 41.3122 3.06667 41.2551 3.3625C41.1981 3.65833 41.1655 4.02292 41.1573 4.45625C41.1492 4.88542 41.1451 5.4 41.1451 6C41.1451 6.6 41.1492 7.11667 41.1573 7.55C41.1695 7.97917 41.2042 8.34167 41.2612 8.6375C41.3183 8.93333 41.4079 9.17083 41.5301 9.35C41.6564 9.52917 41.8357 9.66667 42.0679 9.7625C42.3002 9.85833 42.5935 9.92292 42.948 9.95625C43.3065 9.98542 43.7465 10 44.268 10H47.4154C47.8717 10 48.2648 9.9875 48.5949 9.9625C48.9249 9.9375 49.206 9.89167 49.4382 9.825C49.6705 9.75833 49.8579 9.66667 50.0005 9.55C50.1431 9.43333 50.2531 9.2875 50.3305 9.1125C50.412 8.93333 50.467 8.72083 50.4955 8.475C50.524 8.225 50.5383 7.93333 50.5383 7.6V7H45.8325V6H51.7117V7.6C51.7117 8 51.6872 8.3625 51.6383 8.6875C51.5894 9.00833 51.5018 9.29583 51.3755 9.55C51.2533 9.8 51.0883 10.0167 50.8805 10.2C50.6727 10.3833 50.4099 10.5354 50.0921 10.6562C49.7743 10.7729 49.3954 10.8583 48.9554 10.9125C48.5154 10.9708 48.0021 11 47.4154 11H44.268C43.5509 11 42.9459 10.9542 42.4529 10.8625C41.964 10.775 41.5607 10.6417 41.2429 10.4625C40.9251 10.2792 40.6786 10.05 40.5034 9.775C40.3323 9.5 40.206 9.17708 40.1245 8.80625C40.0471 8.43542 40.0023 8.01667 39.9901 7.55C39.9778 7.08333 39.9717 6.56667 39.9717 6C39.9717 5.43333 39.9778 4.91667 39.9901 4.45C40.0023 3.98333 40.0471 3.56458 40.1245 3.19375C40.206 2.82292 40.3323 2.5 40.5034 2.225C40.6786 1.95 40.9251 1.72292 41.2429 1.54375C41.5607 1.36042 41.964 1.225 42.4529 1.1375C42.9459 1.04583 43.5509 1 44.268 1H47.4093C47.9959 1 48.5093 1.02917 48.9493 1.0875C49.3893 1.14167 49.7682 1.22708 50.086 1.34375C50.4038 1.45625 50.6666 1.6 50.8744 1.775C51.0863 1.95 51.2533 2.15625 51.3755 2.39375C51.5018 2.63125 51.5894 2.9 51.6383 3.2C51.6872 3.5 51.7117 3.83333 51.7117 4.2H50.5383Z" fill="url(#paint3_radial_1753_38)"/>
<path d="M52.8336 10.8V1.2H62.2207V2.2H54.007V5.4H61.8295V6.4H54.007V9.8H62.2207V10.8H52.8336Z" fill="url(#paint4_radial_1753_38)"/>
<path d="M72.7143 1.2H74.0832L77.8967 9.8L81.6124 1.2H82.9814L78.679 10.8H77.1144L73.3987 2.4L69.683 10.8H68.1185L63.425 1.2H64.7939L68.9008 9.8L72.7143 1.2Z" fill="url(#paint5_radial_1753_38)"/>
<path d="M90.4092 8.6H82.9777L81.8043 10.8H80.4354L85.9112 1.2H87.4757L92.9515 10.8H91.5825L90.4092 8.6ZM89.8225 7.6L86.6934 2L83.5644 7.6H89.8225Z" fill="url(#paint6_radial_1753_38)"/>
<path d="M100.75 1.2H102.119L97.034 10.8H95.4695L90.3849 1.2H91.7538L96.2518 10L100.75 1.2Z" fill="url(#paint7_radial_1753_38)"/>
<path d="M2.17338 2V10.8H1V1.2H2.95564L8.4253 9.6L13.895 1.2H15.7651V10.8H14.5917V2.13125L9.01811 10.8H7.8325L2.17338 2Z" fill="url(#paint8_radial_1753_38)"/>
<path d="M17.2551 10.8V1.2H26.6421V2.2H18.4284V5.4H26.251V6.4H18.4284V9.8H26.6421V10.8H17.2551Z" fill="url(#paint9_radial_1753_38)"/>
<path d="M38.5871 10.8H37.4138V9C37.4138 8.70833 37.4076 8.45833 37.3954 8.25C37.3873 8.0375 37.3526 7.85625 37.2915 7.70625C37.2345 7.55625 37.1428 7.43542 37.0165 7.34375C36.8902 7.25208 36.7109 7.18125 36.4787 7.13125C36.2465 7.08125 35.9511 7.04792 35.5926 7.03125C35.2381 7.01042 34.8001 7 34.2786 7H29.0045V10.8H27.8311V1.2H34.4742C35.1913 1.2 35.7942 1.22708 36.2831 1.28125C36.7761 1.33125 37.1815 1.40833 37.4993 1.5125C37.8212 1.61667 38.0677 1.74583 38.2388 1.9C38.414 2.05417 38.5403 2.23542 38.6177 2.44375C38.6992 2.65208 38.746 2.88542 38.7583 3.14375C38.7745 3.40208 38.7827 3.6875 38.7827 4C38.7827 4.4 38.7542 4.75208 38.6971 5.05625C38.6442 5.35625 38.5525 5.6125 38.4221 5.825C38.2918 6.0375 38.1186 6.20833 37.9027 6.3375C37.6867 6.4625 37.4158 6.55 37.0898 6.6C37.4158 6.65 37.6765 6.7375 37.8721 6.8625C38.0677 6.9875 38.2184 7.15 38.3243 7.35C38.4303 7.55 38.4995 7.7875 38.5321 8.0625C38.5688 8.3375 38.5871 8.65 38.5871 9V10.8ZM29.0045 6H34.4742C34.9957 6 35.4337 5.99167 35.7881 5.975C36.1467 5.95417 36.442 5.91875 36.6743 5.86875C36.9065 5.81875 37.0858 5.74792 37.2121 5.65625C37.3384 5.56458 37.43 5.44375 37.4871 5.29375C37.5482 5.14375 37.5828 4.96458 37.591 4.75625C37.6032 4.54375 37.6093 4.29167 37.6093 4C37.6093 3.72917 37.6032 3.49583 37.591 3.3C37.5828 3.10417 37.5482 2.93958 37.4871 2.80625C37.43 2.67292 37.3384 2.56667 37.2121 2.4875C37.0858 2.40833 36.9065 2.34792 36.6743 2.30625C36.442 2.26042 36.1467 2.23125 35.7881 2.21875C35.4337 2.20625 34.9957 2.2 34.4742 2.2H29.0045V6Z" fill="url(#paint10_radial_1753_38)"/>
<path d="M50.5383 4.2C50.5383 3.7 50.4853 3.30417 50.3794 3.0125C50.2734 2.72083 50.0983 2.5 49.8538 2.35C49.6093 2.2 49.2875 2.10417 48.8882 2.0625C48.4889 2.02083 47.9959 2 47.4093 2H44.268C43.7465 2 43.3065 2.01667 42.948 2.05C42.5935 2.07917 42.3002 2.14167 42.0679 2.2375C41.8357 2.33333 41.6564 2.47083 41.5301 2.65C41.4038 2.82917 41.3122 3.06667 41.2551 3.3625C41.1981 3.65833 41.1655 4.02292 41.1573 4.45625C41.1492 4.88542 41.1451 5.4 41.1451 6C41.1451 6.6 41.1492 7.11667 41.1573 7.55C41.1695 7.97917 41.2042 8.34167 41.2612 8.6375C41.3183 8.93333 41.4079 9.17083 41.5301 9.35C41.6564 9.52917 41.8357 9.66667 42.0679 9.7625C42.3002 9.85833 42.5935 9.92292 42.948 9.95625C43.3065 9.98542 43.7465 10 44.268 10H47.4154C47.8717 10 48.2648 9.9875 48.5949 9.9625C48.9249 9.9375 49.206 9.89167 49.4382 9.825C49.6705 9.75833 49.8579 9.66667 50.0005 9.55C50.1431 9.43333 50.2531 9.2875 50.3305 9.1125C50.412 8.93333 50.467 8.72083 50.4955 8.475C50.524 8.225 50.5383 7.93333 50.5383 7.6V7H45.8325V6H51.7117V7.6C51.7117 8 51.6872 8.3625 51.6383 8.6875C51.5894 9.00833 51.5018 9.29583 51.3755 9.55C51.2533 9.8 51.0883 10.0167 50.8805 10.2C50.6727 10.3833 50.4099 10.5354 50.0921 10.6562C49.7743 10.7729 49.3954 10.8583 48.9554 10.9125C48.5154 10.9708 48.0021 11 47.4154 11H44.268C43.5509 11 42.9459 10.9542 42.4529 10.8625C41.964 10.775 41.5607 10.6417 41.2429 10.4625C40.9251 10.2792 40.6786 10.05 40.5034 9.775C40.3323 9.5 40.206 9.17708 40.1245 8.80625C40.0471 8.43542 40.0023 8.01667 39.9901 7.55C39.9778 7.08333 39.9717 6.56667 39.9717 6C39.9717 5.43333 39.9778 4.91667 39.9901 4.45C40.0023 3.98333 40.0471 3.56458 40.1245 3.19375C40.206 2.82292 40.3323 2.5 40.5034 2.225C40.6786 1.95 40.9251 1.72292 41.2429 1.54375C41.5607 1.36042 41.964 1.225 42.4529 1.1375C42.9459 1.04583 43.5509 1 44.268 1H47.4093C47.9959 1 48.5093 1.02917 48.9493 1.0875C49.3893 1.14167 49.7682 1.22708 50.086 1.34375C50.4038 1.45625 50.6666 1.6 50.8744 1.775C51.0863 1.95 51.2533 2.15625 51.3755 2.39375C51.5018 2.63125 51.5894 2.9 51.6383 3.2C51.6872 3.5 51.7117 3.83333 51.7117 4.2H50.5383Z" fill="url(#paint11_radial_1753_38)"/>
<path d="M52.8336 10.8V1.2H62.2207V2.2H54.007V5.4H61.8295V6.4H54.007V9.8H62.2207V10.8H52.8336Z" fill="url(#paint12_radial_1753_38)"/>
<path d="M72.7143 1.2H74.0832L77.8967 9.8L81.6124 1.2H82.9814L78.679 10.8H77.1144L73.3987 2.4L69.683 10.8H68.1185L63.425 1.2H64.7939L68.9008 9.8L72.7143 1.2Z" fill="url(#paint13_radial_1753_38)"/>
<path d="M90.4092 8.6H82.9777L81.8043 10.8H80.4354L85.9112 1.2H87.4757L92.9515 10.8H91.5825L90.4092 8.6ZM89.8225 7.6L86.6934 2L83.5644 7.6H89.8225Z" fill="url(#paint14_radial_1753_38)"/>
<path d="M100.75 1.2H102.119L97.034 10.8H95.4695L90.3849 1.2H91.7538L96.2518 10L100.75 1.2Z" fill="url(#paint15_radial_1753_38)"/>
<path d="M114 10.025L106.556 10C106.035 10 105.595 9.98333 105.236 9.95C104.882 9.92083 104.589 9.85833 104.356 9.7625C104.124 9.66667 103.945 9.52917 103.818 9.35C103.692 9.17083 103.601 8.93333 103.543 8.6375C103.486 8.34167 103.454 7.97708 103.446 7.54375C103.438 7.11458 103.433 6.6 103.433 6C103.433 5.4 103.438 4.88333 103.446 4.45C103.458 4.02083 103.493 3.65833 103.55 3.3625C103.607 3.06667 103.696 2.82917 103.818 2.65C103.945 2.47083 104.124 2.33333 104.356 2.2375C104.589 2.14167 104.882 2.07708 105.236 2.04375C105.595 2.01458 106.035 2 106.556 2H109.704C110.16 2 110.553 2.0125 110.883 2.0375C111.213 2.0625 111.494 2.10833 111.727 2.175C111.959 2.24167 112.146 2.33333 112.289 2.45C112.431 2.56667 112.541 2.7125 112.619 2.8875C112.7 3.06667 112.755 3.27917 112.784 3.525C112.812 3.775 112.827 4.06667 112.827 4.4V5.19355H107.074V6.19355H111.06H114V4.4C114 4 113.976 3.6375 113.927 3.3125C113.878 2.99167 113.79 2.70417 113.664 2.45C113.542 2.2 113.377 1.98333 113.169 1.8C112.961 1.61667 112.698 1.46458 112.38 1.34375C112.063 1.22708 111.684 1.14167 111.244 1.0875C110.804 1.02917 110.29 1 109.704 1H106.556C105.839 1 105.234 1.04583 104.741 1.1375C104.252 1.225 103.849 1.35833 103.531 1.5375C103.213 1.72083 102.967 1.95 102.792 2.225C102.621 2.5 102.494 2.82292 102.413 3.19375C102.335 3.56458 102.291 3.98333 102.278 4.45C102.266 4.91667 102.26 5.43333 102.26 6C102.26 6.56667 102.266 7.08333 102.278 7.55C102.291 8.01667 102.335 8.43542 102.413 8.80625C102.494 9.17708 102.621 9.5 102.792 9.775C102.967 10.05 103.213 10.2771 103.531 10.4562C103.849 10.6396 104.252 10.775 104.741 10.8625C105.234 10.9542 105.839 11 106.556 11H114V10.025Z" fill="url(#paint16_radial_1753_38)"/>
<path d="M114 10.025L106.556 10C106.035 10 105.595 9.98333 105.236 9.95C104.882 9.92083 104.589 9.85833 104.356 9.7625C104.124 9.66667 103.945 9.52917 103.818 9.35C103.692 9.17083 103.601 8.93333 103.543 8.6375C103.486 8.34167 103.454 7.97708 103.446 7.54375C103.438 7.11458 103.433 6.6 103.433 6C103.433 5.4 103.438 4.88333 103.446 4.45C103.458 4.02083 103.493 3.65833 103.55 3.3625C103.607 3.06667 103.696 2.82917 103.818 2.65C103.945 2.47083 104.124 2.33333 104.356 2.2375C104.589 2.14167 104.882 2.07708 105.236 2.04375C105.595 2.01458 106.035 2 106.556 2H109.704C110.16 2 110.553 2.0125 110.883 2.0375C111.213 2.0625 111.494 2.10833 111.727 2.175C111.959 2.24167 112.146 2.33333 112.289 2.45C112.431 2.56667 112.541 2.7125 112.619 2.8875C112.7 3.06667 112.755 3.27917 112.784 3.525C112.812 3.775 112.827 4.06667 112.827 4.4V5.19355H107.074V6.19355H111.06H114V4.4C114 4 113.976 3.6375 113.927 3.3125C113.878 2.99167 113.79 2.70417 113.664 2.45C113.542 2.2 113.377 1.98333 113.169 1.8C112.961 1.61667 112.698 1.46458 112.38 1.34375C112.063 1.22708 111.684 1.14167 111.244 1.0875C110.804 1.02917 110.29 1 109.704 1H106.556C105.839 1 105.234 1.04583 104.741 1.1375C104.252 1.225 103.849 1.35833 103.531 1.5375C103.213 1.72083 102.967 1.95 102.792 2.225C102.621 2.5 102.494 2.82292 102.413 3.19375C102.335 3.56458 102.291 3.98333 102.278 4.45C102.266 4.91667 102.26 5.43333 102.26 6C102.26 6.56667 102.266 7.08333 102.278 7.55C102.291 8.01667 102.335 8.43542 102.413 8.80625C102.494 9.17708 102.621 9.5 102.792 9.775C102.967 10.05 103.213 10.2771 103.531 10.4562C103.849 10.6396 104.252 10.775 104.741 10.8625C105.234 10.9542 105.839 11 106.556 11H114V10.025Z" fill="url(#paint17_radial_1753_38)"/>
<path d="M2.17338 2V10.8H1V1.2H2.95564L8.4253 9.6L13.895 1.2H15.7651V10.8H14.5917V2.13125L9.01811 10.8H7.8325L2.17338 2Z" stroke="url(#paint18_radial_1753_38)" stroke-width="0.189786" mask="url(#path-1-outside-1_1753_38)"/>
<path d="M17.2551 10.8V1.2H26.6421V2.2H18.4284V5.4H26.251V6.4H18.4284V9.8H26.6421V10.8H17.2551Z" stroke="url(#paint19_radial_1753_38)" stroke-width="0.189786" mask="url(#path-1-outside-1_1753_38)"/>
<path d="M38.5871 10.8H37.4138V9C37.4138 8.70833 37.4076 8.45833 37.3954 8.25C37.3873 8.0375 37.3526 7.85625 37.2915 7.70625C37.2345 7.55625 37.1428 7.43542 37.0165 7.34375C36.8902 7.25208 36.7109 7.18125 36.4787 7.13125C36.2465 7.08125 35.9511 7.04792 35.5926 7.03125C35.2381 7.01042 34.8001 7 34.2786 7H29.0045V10.8H27.8311V1.2H34.4742C35.1913 1.2 35.7942 1.22708 36.2831 1.28125C36.7761 1.33125 37.1815 1.40833 37.4993 1.5125C37.8212 1.61667 38.0677 1.74583 38.2388 1.9C38.414 2.05417 38.5403 2.23542 38.6177 2.44375C38.6992 2.65208 38.746 2.88542 38.7583 3.14375C38.7745 3.40208 38.7827 3.6875 38.7827 4C38.7827 4.4 38.7542 4.75208 38.6971 5.05625C38.6442 5.35625 38.5525 5.6125 38.4221 5.825C38.2918 6.0375 38.1186 6.20833 37.9027 6.3375C37.6867 6.4625 37.4158 6.55 37.0898 6.6C37.4158 6.65 37.6765 6.7375 37.8721 6.8625C38.0677 6.9875 38.2184 7.15 38.3243 7.35C38.4303 7.55 38.4995 7.7875 38.5321 8.0625C38.5688 8.3375 38.5871 8.65 38.5871 9V10.8ZM29.0045 6H34.4742C34.9957 6 35.4337 5.99167 35.7881 5.975C36.1467 5.95417 36.442 5.91875 36.6743 5.86875C36.9065 5.81875 37.0858 5.74792 37.2121 5.65625C37.3384 5.56458 37.43 5.44375 37.4871 5.29375C37.5482 5.14375 37.5828 4.96458 37.591 4.75625C37.6032 4.54375 37.6093 4.29167 37.6093 4C37.6093 3.72917 37.6032 3.49583 37.591 3.3C37.5828 3.10417 37.5482 2.93958 37.4871 2.80625C37.43 2.67292 37.3384 2.56667 37.2121 2.4875C37.0858 2.40833 36.9065 2.34792 36.6743 2.30625C36.442 2.26042 36.1467 2.23125 35.7881 2.21875C35.4337 2.20625 34.9957 2.2 34.4742 2.2H29.0045V6Z" stroke="url(#paint20_radial_1753_38)" stroke-width="0.189786" mask="url(#path-1-outside-1_1753_38)"/>
<path d="M50.5383 4.2C50.5383 3.7 50.4853 3.30417 50.3794 3.0125C50.2734 2.72083 50.0983 2.5 49.8538 2.35C49.6093 2.2 49.2875 2.10417 48.8882 2.0625C48.4889 2.02083 47.9959 2 47.4093 2H44.268C43.7465 2 43.3065 2.01667 42.948 2.05C42.5935 2.07917 42.3002 2.14167 42.0679 2.2375C41.8357 2.33333 41.6564 2.47083 41.5301 2.65C41.4038 2.82917 41.3122 3.06667 41.2551 3.3625C41.1981 3.65833 41.1655 4.02292 41.1573 4.45625C41.1492 4.88542 41.1451 5.4 41.1451 6C41.1451 6.6 41.1492 7.11667 41.1573 7.55C41.1695 7.97917 41.2042 8.34167 41.2612 8.6375C41.3183 8.93333 41.4079 9.17083 41.5301 9.35C41.6564 9.52917 41.8357 9.66667 42.0679 9.7625C42.3002 9.85833 42.5935 9.92292 42.948 9.95625C43.3065 9.98542 43.7465 10 44.268 10H47.4154C47.8717 10 48.2648 9.9875 48.5949 9.9625C48.9249 9.9375 49.206 9.89167 49.4382 9.825C49.6705 9.75833 49.8579 9.66667 50.0005 9.55C50.1431 9.43333 50.2531 9.2875 50.3305 9.1125C50.412 8.93333 50.467 8.72083 50.4955 8.475C50.524 8.225 50.5383 7.93333 50.5383 7.6V7H45.8325V6H51.7117V7.6C51.7117 8 51.6872 8.3625 51.6383 8.6875C51.5894 9.00833 51.5018 9.29583 51.3755 9.55C51.2533 9.8 51.0883 10.0167 50.8805 10.2C50.6727 10.3833 50.4099 10.5354 50.0921 10.6562C49.7743 10.7729 49.3954 10.8583 48.9554 10.9125C48.5154 10.9708 48.0021 11 47.4154 11H44.268C43.5509 11 42.9459 10.9542 42.4529 10.8625C41.964 10.775 41.5607 10.6417 41.2429 10.4625C40.9251 10.2792 40.6786 10.05 40.5034 9.775C40.3323 9.5 40.206 9.17708 40.1245 8.80625C40.0471 8.43542 40.0023 8.01667 39.9901 7.55C39.9778 7.08333 39.9717 6.56667 39.9717 6C39.9717 5.43333 39.9778 4.91667 39.9901 4.45C40.0023 3.98333 40.0471 3.56458 40.1245 3.19375C40.206 2.82292 40.3323 2.5 40.5034 2.225C40.6786 1.95 40.9251 1.72292 41.2429 1.54375C41.5607 1.36042 41.964 1.225 42.4529 1.1375C42.9459 1.04583 43.5509 1 44.268 1H47.4093C47.9959 1 48.5093 1.02917 48.9493 1.0875C49.3893 1.14167 49.7682 1.22708 50.086 1.34375C50.4038 1.45625 50.6666 1.6 50.8744 1.775C51.0863 1.95 51.2533 2.15625 51.3755 2.39375C51.5018 2.63125 51.5894 2.9 51.6383 3.2C51.6872 3.5 51.7117 3.83333 51.7117 4.2H50.5383Z" stroke="url(#paint21_radial_1753_38)" stroke-width="0.189786" mask="url(#path-1-outside-1_1753_38)"/>
<path d="M52.8336 10.8V1.2H62.2207V2.2H54.007V5.4H61.8295V6.4H54.007V9.8H62.2207V10.8H52.8336Z" stroke="url(#paint22_radial_1753_38)" stroke-width="0.189786" mask="url(#path-1-outside-1_1753_38)"/>
<path d="M72.7143 1.2H74.0832L77.8967 9.8L81.6124 1.2H82.9814L78.679 10.8H77.1144L73.3987 2.4L69.683 10.8H68.1185L63.425 1.2H64.7939L68.9008 9.8L72.7143 1.2Z" stroke="url(#paint23_radial_1753_38)" stroke-width="0.189786" mask="url(#path-1-outside-1_1753_38)"/>
<path d="M90.4092 8.6H82.9777L81.8043 10.8H80.4354L85.9112 1.2H87.4757L92.9515 10.8H91.5825L90.4092 8.6ZM89.8225 7.6L86.6934 2L83.5644 7.6H89.8225Z" stroke="url(#paint24_radial_1753_38)" stroke-width="0.189786" mask="url(#path-1-outside-1_1753_38)"/>
<path d="M100.75 1.2H102.119L97.034 10.8H95.4695L90.3849 1.2H91.7538L96.2518 10L100.75 1.2Z" stroke="url(#paint25_radial_1753_38)" stroke-width="0.189786" mask="url(#path-1-outside-1_1753_38)"/>
<path d="M2.17338 2V10.8H1V1.2H2.95564L8.4253 9.6L13.895 1.2H15.7651V10.8H14.5917V2.13125L9.01811 10.8H7.8325L2.17338 2Z" stroke="url(#paint26_radial_1753_38)" stroke-width="0.189786" mask="url(#path-1-outside-1_1753_38)"/>
<path d="M17.2551 10.8V1.2H26.6421V2.2H18.4284V5.4H26.251V6.4H18.4284V9.8H26.6421V10.8H17.2551Z" stroke="url(#paint27_radial_1753_38)" stroke-width="0.189786" mask="url(#path-1-outside-1_1753_38)"/>
<path d="M38.5871 10.8H37.4138V9C37.4138 8.70833 37.4076 8.45833 37.3954 8.25C37.3873 8.0375 37.3526 7.85625 37.2915 7.70625C37.2345 7.55625 37.1428 7.43542 37.0165 7.34375C36.8902 7.25208 36.7109 7.18125 36.4787 7.13125C36.2465 7.08125 35.9511 7.04792 35.5926 7.03125C35.2381 7.01042 34.8001 7 34.2786 7H29.0045V10.8H27.8311V1.2H34.4742C35.1913 1.2 35.7942 1.22708 36.2831 1.28125C36.7761 1.33125 37.1815 1.40833 37.4993 1.5125C37.8212 1.61667 38.0677 1.74583 38.2388 1.9C38.414 2.05417 38.5403 2.23542 38.6177 2.44375C38.6992 2.65208 38.746 2.88542 38.7583 3.14375C38.7745 3.40208 38.7827 3.6875 38.7827 4C38.7827 4.4 38.7542 4.75208 38.6971 5.05625C38.6442 5.35625 38.5525 5.6125 38.4221 5.825C38.2918 6.0375 38.1186 6.20833 37.9027 6.3375C37.6867 6.4625 37.4158 6.55 37.0898 6.6C37.4158 6.65 37.6765 6.7375 37.8721 6.8625C38.0677 6.9875 38.2184 7.15 38.3243 7.35C38.4303 7.55 38.4995 7.7875 38.5321 8.0625C38.5688 8.3375 38.5871 8.65 38.5871 9V10.8ZM29.0045 6H34.4742C34.9957 6 35.4337 5.99167 35.7881 5.975C36.1467 5.95417 36.442 5.91875 36.6743 5.86875C36.9065 5.81875 37.0858 5.74792 37.2121 5.65625C37.3384 5.56458 37.43 5.44375 37.4871 5.29375C37.5482 5.14375 37.5828 4.96458 37.591 4.75625C37.6032 4.54375 37.6093 4.29167 37.6093 4C37.6093 3.72917 37.6032 3.49583 37.591 3.3C37.5828 3.10417 37.5482 2.93958 37.4871 2.80625C37.43 2.67292 37.3384 2.56667 37.2121 2.4875C37.0858 2.40833 36.9065 2.34792 36.6743 2.30625C36.442 2.26042 36.1467 2.23125 35.7881 2.21875C35.4337 2.20625 34.9957 2.2 34.4742 2.2H29.0045V6Z" stroke="url(#paint28_radial_1753_38)" stroke-width="0.189786" mask="url(#path-1-outside-1_1753_38)"/>
<path d="M50.5383 4.2C50.5383 3.7 50.4853 3.30417 50.3794 3.0125C50.2734 2.72083 50.0983 2.5 49.8538 2.35C49.6093 2.2 49.2875 2.10417 48.8882 2.0625C48.4889 2.02083 47.9959 2 47.4093 2H44.268C43.7465 2 43.3065 2.01667 42.948 2.05C42.5935 2.07917 42.3002 2.14167 42.0679 2.2375C41.8357 2.33333 41.6564 2.47083 41.5301 2.65C41.4038 2.82917 41.3122 3.06667 41.2551 3.3625C41.1981 3.65833 41.1655 4.02292 41.1573 4.45625C41.1492 4.88542 41.1451 5.4 41.1451 6C41.1451 6.6 41.1492 7.11667 41.1573 7.55C41.1695 7.97917 41.2042 8.34167 41.2612 8.6375C41.3183 8.93333 41.4079 9.17083 41.5301 9.35C41.6564 9.52917 41.8357 9.66667 42.0679 9.7625C42.3002 9.85833 42.5935 9.92292 42.948 9.95625C43.3065 9.98542 43.7465 10 44.268 10H47.4154C47.8717 10 48.2648 9.9875 48.5949 9.9625C48.9249 9.9375 49.206 9.89167 49.4382 9.825C49.6705 9.75833 49.8579 9.66667 50.0005 9.55C50.1431 9.43333 50.2531 9.2875 50.3305 9.1125C50.412 8.93333 50.467 8.72083 50.4955 8.475C50.524 8.225 50.5383 7.93333 50.5383 7.6V7H45.8325V6H51.7117V7.6C51.7117 8 51.6872 8.3625 51.6383 8.6875C51.5894 9.00833 51.5018 9.29583 51.3755 9.55C51.2533 9.8 51.0883 10.0167 50.8805 10.2C50.6727 10.3833 50.4099 10.5354 50.0921 10.6562C49.7743 10.7729 49.3954 10.8583 48.9554 10.9125C48.5154 10.9708 48.0021 11 47.4154 11H44.268C43.5509 11 42.9459 10.9542 42.4529 10.8625C41.964 10.775 41.5607 10.6417 41.2429 10.4625C40.9251 10.2792 40.6786 10.05 40.5034 9.775C40.3323 9.5 40.206 9.17708 40.1245 8.80625C40.0471 8.43542 40.0023 8.01667 39.9901 7.55C39.9778 7.08333 39.9717 6.56667 39.9717 6C39.9717 5.43333 39.9778 4.91667 39.9901 4.45C40.0023 3.98333 40.0471 3.56458 40.1245 3.19375C40.206 2.82292 40.3323 2.5 40.5034 2.225C40.6786 1.95 40.9251 1.72292 41.2429 1.54375C41.5607 1.36042 41.964 1.225 42.4529 1.1375C42.9459 1.04583 43.5509 1 44.268 1H47.4093C47.9959 1 48.5093 1.02917 48.9493 1.0875C49.3893 1.14167 49.7682 1.22708 50.086 1.34375C50.4038 1.45625 50.6666 1.6 50.8744 1.775C51.0863 1.95 51.2533 2.15625 51.3755 2.39375C51.5018 2.63125 51.5894 2.9 51.6383 3.2C51.6872 3.5 51.7117 3.83333 51.7117 4.2H50.5383Z" stroke="url(#paint29_radial_1753_38)" stroke-width="0.189786" mask="url(#path-1-outside-1_1753_38)"/>
<path d="M52.8336 10.8V1.2H62.2207V2.2H54.007V5.4H61.8295V6.4H54.007V9.8H62.2207V10.8H52.8336Z" stroke="url(#paint30_radial_1753_38)" stroke-width="0.189786" mask="url(#path-1-outside-1_1753_38)"/>
<path d="M72.7143 1.2H74.0832L77.8967 9.8L81.6124 1.2H82.9814L78.679 10.8H77.1144L73.3987 2.4L69.683 10.8H68.1185L63.425 1.2H64.7939L68.9008 9.8L72.7143 1.2Z" stroke="url(#paint31_radial_1753_38)" stroke-width="0.189786" mask="url(#path-1-outside-1_1753_38)"/>
<path d="M90.4092 8.6H82.9777L81.8043 10.8H80.4354L85.9112 1.2H87.4757L92.9515 10.8H91.5825L90.4092 8.6ZM89.8225 7.6L86.6934 2L83.5644 7.6H89.8225Z" stroke="url(#paint32_radial_1753_38)" stroke-width="0.189786" mask="url(#path-1-outside-1_1753_38)"/>
<path d="M100.75 1.2H102.119L97.034 10.8H95.4695L90.3849 1.2H91.7538L96.2518 10L100.75 1.2Z" stroke="url(#paint33_radial_1753_38)" stroke-width="0.189786" mask="url(#path-1-outside-1_1753_38)"/>
<path d="M114 10.025L106.556 10C106.035 10 105.595 9.98333 105.236 9.95C104.882 9.92083 104.589 9.85833 104.356 9.7625C104.124 9.66667 103.945 9.52917 103.818 9.35C103.692 9.17083 103.601 8.93333 103.543 8.6375C103.486 8.34167 103.454 7.97708 103.446 7.54375C103.438 7.11458 103.433 6.6 103.433 6C103.433 5.4 103.438 4.88333 103.446 4.45C103.458 4.02083 103.493 3.65833 103.55 3.3625C103.607 3.06667 103.696 2.82917 103.818 2.65C103.945 2.47083 104.124 2.33333 104.356 2.2375C104.589 2.14167 104.882 2.07708 105.236 2.04375C105.595 2.01458 106.035 2 106.556 2H109.704C110.16 2 110.553 2.0125 110.883 2.0375C111.213 2.0625 111.494 2.10833 111.727 2.175C111.959 2.24167 112.146 2.33333 112.289 2.45C112.431 2.56667 112.541 2.7125 112.619 2.8875C112.7 3.06667 112.755 3.27917 112.784 3.525C112.812 3.775 112.827 4.06667 112.827 4.4V5.19355H107.074V6.19355H111.06H114V4.4C114 4 113.976 3.6375 113.927 3.3125C113.878 2.99167 113.79 2.70417 113.664 2.45C113.542 2.2 113.377 1.98333 113.169 1.8C112.961 1.61667 112.698 1.46458 112.38 1.34375C112.063 1.22708 111.684 1.14167 111.244 1.0875C110.804 1.02917 110.29 1 109.704 1H106.556C105.839 1 105.234 1.04583 104.741 1.1375C104.252 1.225 103.849 1.35833 103.531 1.5375C103.213 1.72083 102.967 1.95 102.792 2.225C102.621 2.5 102.494 2.82292 102.413 3.19375C102.335 3.56458 102.291 3.98333 102.278 4.45C102.266 4.91667 102.26 5.43333 102.26 6C102.26 6.56667 102.266 7.08333 102.278 7.55C102.291 8.01667 102.335 8.43542 102.413 8.80625C102.494 9.17708 102.621 9.5 102.792 9.775C102.967 10.05 103.213 10.2771 103.531 10.4562C103.849 10.6396 104.252 10.775 104.741 10.8625C105.234 10.9542 105.839 11 106.556 11H114V10.025Z" stroke="url(#paint34_radial_1753_38)" stroke-width="0.189786" mask="url(#path-1-outside-1_1753_38)"/>
<path d="M114 10.025L106.556 10C106.035 10 105.595 9.98333 105.236 9.95C104.882 9.92083 104.589 9.85833 104.356 9.7625C104.124 9.66667 103.945 9.52917 103.818 9.35C103.692 9.17083 103.601 8.93333 103.543 8.6375C103.486 8.34167 103.454 7.97708 103.446 7.54375C103.438 7.11458 103.433 6.6 103.433 6C103.433 5.4 103.438 4.88333 103.446 4.45C103.458 4.02083 103.493 3.65833 103.55 3.3625C103.607 3.06667 103.696 2.82917 103.818 2.65C103.945 2.47083 104.124 2.33333 104.356 2.2375C104.589 2.14167 104.882 2.07708 105.236 2.04375C105.595 2.01458 106.035 2 106.556 2H109.704C110.16 2 110.553 2.0125 110.883 2.0375C111.213 2.0625 111.494 2.10833 111.727 2.175C111.959 2.24167 112.146 2.33333 112.289 2.45C112.431 2.56667 112.541 2.7125 112.619 2.8875C112.7 3.06667 112.755 3.27917 112.784 3.525C112.812 3.775 112.827 4.06667 112.827 4.4V5.19355H107.074V6.19355H111.06H114V4.4C114 4 113.976 3.6375 113.927 3.3125C113.878 2.99167 113.79 2.70417 113.664 2.45C113.542 2.2 113.377 1.98333 113.169 1.8C112.961 1.61667 112.698 1.46458 112.38 1.34375C112.063 1.22708 111.684 1.14167 111.244 1.0875C110.804 1.02917 110.29 1 109.704 1H106.556C105.839 1 105.234 1.04583 104.741 1.1375C104.252 1.225 103.849 1.35833 103.531 1.5375C103.213 1.72083 102.967 1.95 102.792 2.225C102.621 2.5 102.494 2.82292 102.413 3.19375C102.335 3.56458 102.291 3.98333 102.278 4.45C102.266 4.91667 102.26 5.43333 102.26 6C102.26 6.56667 102.266 7.08333 102.278 7.55C102.291 8.01667 102.335 8.43542 102.413 8.80625C102.494 9.17708 102.621 9.5 102.792 9.775C102.967 10.05 103.213 10.2771 103.531 10.4562C103.849 10.6396 104.252 10.775 104.741 10.8625C105.234 10.9542 105.839 11 106.556 11H114V10.025Z" stroke="url(#paint35_radial_1753_38)" stroke-width="0.189786" mask="url(#path-1-outside-1_1753_38)"/>
<defs>
<radialGradient id="paint0_radial_1753_38" cx="0" cy="0" r="1" gradientUnits="userSpaceOnUse" gradientTransform="translate(111.728 3.74197) rotate(144.109) scale(9.90435 112.883)">
<stop stop-color="#40AEDD"/>
<stop offset="1" stop-color="white"/>
</radialGradient>
<radialGradient id="paint1_radial_1753_38" cx="0" cy="0" r="1" gradientUnits="userSpaceOnUse" gradientTransform="translate(111.728 3.74197) rotate(144.109) scale(9.90435 112.883)">
<stop stop-color="#40AEDD"/>
<stop offset="1" stop-color="white"/>
</radialGradient>
<radialGradient id="paint2_radial_1753_38" cx="0" cy="0" r="1" gradientUnits="userSpaceOnUse" gradientTransform="translate(111.728 3.74197) rotate(144.109) scale(9.90435 112.883)">
<stop stop-color="#40AEDD"/>
<stop offset="1" stop-color="white"/>
</radialGradient>
<radialGradient id="paint3_radial_1753_38" cx="0" cy="0" r="1" gradientUnits="userSpaceOnUse" gradientTransform="translate(111.728 3.74197) rotate(144.109) scale(9.90435 112.883)">
<stop stop-color="#40AEDD"/>
<stop offset="1" stop-color="white"/>
</radialGradient>
<radialGradient id="paint4_radial_1753_38" cx="0" cy="0" r="1" gradientUnits="userSpaceOnUse" gradientTransform="translate(111.728 3.74197) rotate(144.109) scale(9.90435 112.883)">
<stop stop-color="#40AEDD"/>
<stop offset="1" stop-color="white"/>
</radialGradient>
<radialGradient id="paint5_radial_1753_38" cx="0" cy="0" r="1" gradientUnits="userSpaceOnUse" gradientTransform="translate(111.728 3.74197) rotate(144.109) scale(9.90435 112.883)">
<stop stop-color="#40AEDD"/>
<stop offset="1" stop-color="white"/>
</radialGradient>
<radialGradient id="paint6_radial_1753_38" cx="0" cy="0" r="1" gradientUnits="userSpaceOnUse" gradientTransform="translate(111.728 3.74197) rotate(144.109) scale(9.90435 112.883)">
<stop stop-color="#40AEDD"/>
<stop offset="1" stop-color="white"/>
</radialGradient>
<radialGradient id="paint7_radial_1753_38" cx="0" cy="0" r="1" gradientUnits="userSpaceOnUse" gradientTransform="translate(111.728 3.74197) rotate(144.109) scale(9.90435 112.883)">
<stop stop-color="#40AEDD"/>
<stop offset="1" stop-color="white"/>
</radialGradient>
<radialGradient id="paint8_radial_1753_38" cx="0" cy="0" r="1" gradientUnits="userSpaceOnUse" gradientTransform="translate(111.728 3.74197) rotate(144.109) scale(9.90435 112.883)">
<stop stop-color="#40AEDD"/>
<stop offset="1" stop-color="white"/>
</radialGradient>
<radialGradient id="paint9_radial_1753_38" cx="0" cy="0" r="1" gradientUnits="userSpaceOnUse" gradientTransform="translate(111.728 3.74197) rotate(144.109) scale(9.90435 112.883)">
<stop stop-color="#40AEDD"/>
<stop offset="1" stop-color="white"/>
</radialGradient>
<radialGradient id="paint10_radial_1753_38" cx="0" cy="0" r="1" gradientUnits="userSpaceOnUse" gradientTransform="translate(111.728 3.74197) rotate(144.109) scale(9.90435 112.883)">
<stop stop-color="#40AEDD"/>
<stop offset="1" stop-color="white"/>
</radialGradient>
<radialGradient id="paint11_radial_1753_38" cx="0" cy="0" r="1" gradientUnits="userSpaceOnUse" gradientTransform="translate(111.728 3.74197) rotate(144.109) scale(9.90435 112.883)">
<stop stop-color="#40AEDD"/>
<stop offset="1" stop-color="white"/>
</radialGradient>
<radialGradient id="paint12_radial_1753_38" cx="0" cy="0" r="1" gradientUnits="userSpaceOnUse" gradientTransform="translate(111.728 3.74197) rotate(144.109) scale(9.90435 112.883)">
<stop stop-color="#40AEDD"/>
<stop offset="1" stop-color="white"/>
</radialGradient>
<radialGradient id="paint13_radial_1753_38" cx="0" cy="0" r="1" gradientUnits="userSpaceOnUse" gradientTransform="translate(111.728 3.74197) rotate(144.109) scale(9.90435 112.883)">
<stop stop-color="#40AEDD"/>
<stop offset="1" stop-color="white"/>
</radialGradient>
<radialGradient id="paint14_radial_1753_38" cx="0" cy="0" r="1" gradientUnits="userSpaceOnUse" gradientTransform="translate(111.728 3.74197) rotate(144.109) scale(9.90435 112.883)">
<stop stop-color="#40AEDD"/>
<stop offset="1" stop-color="white"/>
</radialGradient>
<radialGradient id="paint15_radial_1753_38" cx="0" cy="0" r="1" gradientUnits="userSpaceOnUse" gradientTransform="translate(111.728 3.74197) rotate(144.109) scale(9.90435 112.883)">
<stop stop-color="#40AEDD"/>
<stop offset="1" stop-color="white"/>
</radialGradient>
<radialGradient id="paint16_radial_1753_38" cx="0" cy="0" r="1" gradientUnits="userSpaceOnUse" gradientTransform="translate(111.728 3.74197) rotate(144.109) scale(9.90435 112.883)">
<stop stop-color="#40AEDD"/>
<stop offset="1" stop-color="white"/>
</radialGradient>
<radialGradient id="paint17_radial_1753_38" cx="0" cy="0" r="1" gradientUnits="userSpaceOnUse" gradientTransform="translate(111.728 3.74197) rotate(144.109) scale(9.90435 112.883)">
<stop stop-color="#40AEDD"/>
<stop offset="1" stop-color="white"/>
</radialGradient>
<radialGradient id="paint18_radial_1753_38" cx="0" cy="0" r="1" gradientUnits="userSpaceOnUse" gradientTransform="translate(111.568 3.41946) rotate(142.991) scale(9.64616 109.919)">
<stop stop-color="#40AEDD"/>
<stop offset="1" stop-color="white"/>
</radialGradient>
<radialGradient id="paint19_radial_1753_38" cx="0" cy="0" r="1" gradientUnits="userSpaceOnUse" gradientTransform="translate(111.568 3.41946) rotate(142.991) scale(9.64616 109.919)">
<stop stop-color="#40AEDD"/>
<stop offset="1" stop-color="white"/>
</radialGradient>
<radialGradient id="paint20_radial_1753_38" cx="0" cy="0" r="1" gradientUnits="userSpaceOnUse" gradientTransform="translate(111.568 3.41946) rotate(142.991) scale(9.64616 109.919)">
<stop stop-color="#40AEDD"/>
<stop offset="1" stop-color="white"/>
</radialGradient>
<radialGradient id="paint21_radial_1753_38" cx="0" cy="0" r="1" gradientUnits="userSpaceOnUse" gradientTransform="translate(111.568 3.41946) rotate(142.991) scale(9.64616 109.919)">
<stop stop-color="#40AEDD"/>
<stop offset="1" stop-color="white"/>
</radialGradient>
<radialGradient id="paint22_radial_1753_38" cx="0" cy="0" r="1" gradientUnits="userSpaceOnUse" gradientTransform="translate(111.568 3.41946) rotate(142.991) scale(9.64616 109.919)">
<stop stop-color="#40AEDD"/>
<stop offset="1" stop-color="white"/>
</radialGradient>
<radialGradient id="paint23_radial_1753_38" cx="0" cy="0" r="1" gradientUnits="userSpaceOnUse" gradientTransform="translate(111.568 3.41946) rotate(142.991) scale(9.64616 109.919)">
<stop stop-color="#40AEDD"/>
<stop offset="1" stop-color="white"/>
</radialGradient>
<radialGradient id="paint24_radial_1753_38" cx="0" cy="0" r="1" gradientUnits="userSpaceOnUse" gradientTransform="translate(111.568 3.41946) rotate(142.991) scale(9.64616 109.919)">
<stop stop-color="#40AEDD"/>
<stop offset="1" stop-color="white"/>
</radialGradient>
<radialGradient id="paint25_radial_1753_38" cx="0" cy="0" r="1" gradientUnits="userSpaceOnUse" gradientTransform="translate(111.568 3.41946) rotate(142.991) scale(9.64616 109.919)">
<stop stop-color="#40AEDD"/>
<stop offset="1" stop-color="white"/>
</radialGradient>
<radialGradient id="paint26_radial_1753_38" cx="0" cy="0" r="1" gradientUnits="userSpaceOnUse" gradientTransform="translate(111.568 3.41946) rotate(142.991) scale(9.64616 109.919)">
<stop stop-color="#40AEDD"/>
<stop offset="1" stop-color="white"/>
</radialGradient>
<radialGradient id="paint27_radial_1753_38" cx="0" cy="0" r="1" gradientUnits="userSpaceOnUse" gradientTransform="translate(111.568 3.41946) rotate(142.991) scale(9.64616 109.919)">
<stop stop-color="#40AEDD"/>
<stop offset="1" stop-color="white"/>
</radialGradient>
<radialGradient id="paint28_radial_1753_38" cx="0" cy="0" r="1" gradientUnits="userSpaceOnUse" gradientTransform="translate(111.568 3.41946) rotate(142.991) scale(9.64616 109.919)">
<stop stop-color="#40AEDD"/>
<stop offset="1" stop-color="white"/>
</radialGradient>
<radialGradient id="paint29_radial_1753_38" cx="0" cy="0" r="1" gradientUnits="userSpaceOnUse" gradientTransform="translate(111.568 3.41946) rotate(142.991) scale(9.64616 109.919)">
<stop stop-color="#40AEDD"/>
<stop offset="1" stop-color="white"/>
</radialGradient>
<radialGradient id="paint30_radial_1753_38" cx="0" cy="0" r="1" gradientUnits="userSpaceOnUse" gradientTransform="translate(111.568 3.41946) rotate(142.991) scale(9.64616 109.919)">
<stop stop-color="#40AEDD"/>
<stop offset="1" stop-color="white"/>
</radialGradient>
<radialGradient id="paint31_radial_1753_38" cx="0" cy="0" r="1" gradientUnits="userSpaceOnUse" gradientTransform="translate(111.568 3.41946) rotate(142.991) scale(9.64616 109.919)">
<stop stop-color="#40AEDD"/>
<stop offset="1" stop-color="white"/>
</radialGradient>
<radialGradient id="paint32_radial_1753_38" cx="0" cy="0" r="1" gradientUnits="userSpaceOnUse" gradientTransform="translate(111.568 3.41946) rotate(142.991) scale(9.64616 109.919)">
<stop stop-color="#40AEDD"/>
<stop offset="1" stop-color="white"/>
</radialGradient>
<radialGradient id="paint33_radial_1753_38" cx="0" cy="0" r="1" gradientUnits="userSpaceOnUse" gradientTransform="translate(111.568 3.41946) rotate(142.991) scale(9.64616 109.919)">
<stop stop-color="#40AEDD"/>
<stop offset="1" stop-color="white"/>
</radialGradient>
<radialGradient id="paint34_radial_1753_38" cx="0" cy="0" r="1" gradientUnits="userSpaceOnUse" gradientTransform="translate(111.568 3.41946) rotate(142.991) scale(9.64616 109.919)">
<stop stop-color="#40AEDD"/>
<stop offset="1" stop-color="white"/>
</radialGradient>
<radialGradient id="paint35_radial_1753_38" cx="0" cy="0" r="1" gradientUnits="userSpaceOnUse" gradientTransform="translate(111.568 3.41946) rotate(142.991) scale(9.64616 109.919)">
<stop stop-color="#40AEDD"/>
<stop offset="1" stop-color="white"/>
</radialGradient>
</defs>
</svg>
