<svg width="126" height="24" viewBox="0 0 126 24" fill="none" xmlns="http://www.w3.org/2000/svg">
<path d="M29.3628 5.23226C30.2555 5.23226 31.1205 5.44181 31.9569 5.86179C32.7949 6.28264 33.4326 6.8266 33.8707 7.49454C34.2334 8.03937 34.4919 8.66191 34.6472 9.36303L34.7166 9.72101C34.8416 10.3016 34.904 11.228 34.904 12.5011H25.6877C25.7268 13.7811 26.0287 14.8079 26.5917 15.5814C27.1557 16.355 28.0276 16.7418 29.2101 16.7418C30.3128 16.7418 31.1934 16.3769 31.851 15.6461C32.2267 15.2217 32.493 14.731 32.6492 14.1731H34.727C34.6724 14.6367 34.4902 15.1536 34.1805 15.7229C33.8716 16.2922 33.5254 16.7575 33.142 17.119C32.5 17.7477 31.7061 18.1711 30.7596 18.3912C30.1937 18.5233 29.614 18.5867 29.0331 18.5798C27.4689 18.5798 26.1423 18.0079 25.0544 16.8649C23.9673 15.7238 23.4233 14.1224 23.4233 12.0654C23.4233 10.0397 23.9708 8.39386 25.0665 7.12957C26.1623 5.86528 27.5947 5.23314 29.3628 5.23314V5.23226ZM29.2344 7.08155C28.2636 7.08155 27.4498 7.43255 26.7922 8.13629C26.1354 8.83915 25.7866 9.73236 25.7476 10.8168H32.7316C32.6466 9.89739 32.4462 9.16308 32.133 8.61301C31.5543 7.59145 30.5887 7.08155 29.2344 7.08155ZM36.3008 5.51428H39.0363L41.9236 9.95588L44.8474 5.51428L47.4171 5.57366L43.1799 11.6646L47.6054 18.1319H44.9055L41.7822 13.396L38.7543 18.1319H36.0779L40.5034 11.6646L36.3008 5.51428ZM54.3673 5.14932C55.7832 5.14932 56.9353 5.49508 57.8237 6.18659C58.7121 6.87724 59.2466 8.06731 59.4262 9.75594H57.3717C57.2468 8.97886 56.9614 8.33274 56.5154 7.8176C56.0686 7.30332 55.3529 7.04575 54.3673 7.04575C53.0208 7.04575 52.0587 7.70583 51.4791 9.02513C51.1035 9.8808 50.9152 10.9373 50.9152 12.1946C50.9152 13.4589 51.1815 14.5232 51.7134 15.3867C52.2461 16.2511 53.0842 16.6825 54.2259 16.6825C55.1021 16.6825 55.7971 16.4135 56.3098 15.8757C56.8217 15.3378 57.1765 14.6009 57.3717 13.6667H59.4262C59.1919 15.3396 58.6046 16.5628 57.665 17.3364C56.7262 18.11 55.5255 18.4977 54.0619 18.4977C52.4178 18.4977 51.1078 17.8944 50.1292 16.6886C49.1505 15.4837 48.6621 13.9775 48.6621 12.171C48.6621 9.95588 49.1983 8.23233 50.2697 6.99947C51.3421 5.76574 52.7076 5.14932 54.3673 5.14932ZM61.5396 0.76709H63.6521V7.223C64.1536 6.58649 64.603 6.13944 65.0021 5.88013C65.6831 5.43221 66.5325 5.20782 67.5493 5.20782C69.373 5.20782 70.6093 5.84869 71.2591 7.1287C71.6113 7.8272 71.7874 8.79724 71.7874 10.0388V18.1319H69.6159V10.1794C69.6159 9.25389 69.4979 8.57372 69.2636 8.14153C68.8802 7.45088 68.1601 7.10512 67.1034 7.10512C66.2271 7.10512 65.4324 7.40723 64.721 8.0123C64.0087 8.61651 63.6521 9.75943 63.6521 11.4402V18.1319H61.5396V0.76709ZM79.8403 5.20869C81.3195 5.20869 82.5211 5.49071 83.4442 6.0565C84.3595 6.62228 84.8176 7.50152 84.8176 8.69509V15.9639C84.8176 16.1839 84.8627 16.3611 84.9521 16.4939C85.0423 16.6275 85.2323 16.6947 85.5221 16.6947C85.6158 16.6947 85.7216 16.6886 85.8388 16.6772C85.9559 16.665 86.0817 16.6475 86.2144 16.624V18.1904L85.8578 18.2864C85.7277 18.3202 85.596 18.3473 85.4631 18.3676C85.2913 18.3912 85.0553 18.4025 84.7586 18.4025C84.0307 18.4025 83.5024 18.1432 83.1744 17.6254C83.0018 17.3504 82.8803 16.9619 82.81 16.4589C82.3797 17.0247 81.7611 17.5154 80.9551 17.9319C80.1492 18.3475 79.2608 18.5562 78.2908 18.5562C77.1248 18.5562 76.1722 18.2008 75.4321 17.4901C74.693 16.7794 74.3234 15.8897 74.3234 14.8218C74.3234 13.6518 74.6869 12.7438 75.4148 12.1003C76.1427 11.4559 77.0979 11.0595 78.2787 10.9102L81.6483 10.4859C82.1333 10.423 82.4578 10.2187 82.6226 9.87381C82.7163 9.68521 82.7632 9.41367 82.7632 9.06093C82.7632 8.33798 82.5072 7.8141 81.9945 7.48755C81.4818 7.16188 80.7478 6.9986 79.7935 6.9986C78.6899 6.9986 77.9073 7.29721 77.4458 7.89443C77.1872 8.22447 77.0189 8.71517 76.9408 9.3674H74.9688C75.0079 7.81148 75.5102 6.73055 76.4767 6.12111C77.4432 5.51254 78.565 5.20869 79.8403 5.20869ZM82.7042 11.7117C82.4465 11.8759 82.1142 12.0138 81.7065 12.1239C81.2996 12.2339 80.9005 12.3125 80.5092 12.3596L79.2295 12.5238C78.4626 12.6259 77.8874 12.7874 77.5039 13.0075C76.855 13.3759 76.5296 13.9653 76.5296 14.7747C76.5296 15.3867 76.7526 15.8696 77.1985 16.2241C77.6453 16.5768 78.1737 16.7532 78.7836 16.7532C79.5271 16.7532 80.2472 16.5803 80.9439 16.2354C82.1177 15.6618 82.7051 14.7232 82.7051 13.4196V11.7117H82.7042ZM88.2801 5.51428H90.2877V7.30507C90.8829 6.56728 91.5127 6.03729 92.1773 5.7151C92.8427 5.39292 93.5828 5.23226 94.3966 5.23226C96.1803 5.23226 97.3862 5.85655 98.0118 7.10512C98.3562 7.78878 98.5288 8.76581 98.5288 10.0388V18.1319H96.3798V10.1794C96.3798 9.41018 96.2671 8.78939 96.0397 8.31877C95.6641 7.53296 94.983 7.14005 93.9975 7.14005C93.496 7.14005 93.0856 7.19156 92.7646 7.29372C92.1851 7.4666 91.6767 7.81148 91.2386 8.33012C90.8863 8.7466 90.6573 9.17706 90.5514 9.6206C90.4465 10.0642 90.3935 10.698 90.3935 11.5231V18.1319H88.2801V5.51516V5.51428ZM106.088 5.29076C107.074 5.29076 107.935 5.53437 108.671 6.02157C109.07 6.29573 109.477 6.6965 109.892 7.223V5.63216H111.84V17.1068C111.84 18.709 111.606 19.9733 111.136 20.9005C110.259 22.6119 108.604 23.4684 106.17 23.4684C104.817 23.4684 103.678 23.1637 102.755 22.5551C101.831 21.9465 101.315 20.9948 101.204 19.6982H103.353C103.455 20.264 103.658 20.6997 103.963 21.0062C104.441 21.4777 105.192 21.7134 106.217 21.7134C107.837 21.7134 108.898 21.1398 109.399 19.9934C109.696 19.3176 109.833 18.1118 109.809 16.3769C109.387 17.0204 108.878 17.4997 108.283 17.814C107.689 18.1284 106.902 18.2855 105.923 18.2855C104.562 18.2855 103.371 17.8001 102.349 16.83C101.329 15.8608 100.818 14.256 100.818 12.0173C100.818 9.90437 101.332 8.25591 102.362 7.06932C103.39 5.88362 104.632 5.29076 106.088 5.29076ZM106.476 7.16362C104.989 7.16362 103.971 7.863 103.424 9.26087C103.134 10.0074 102.99 10.9844 102.99 12.1946C102.99 13.616 103.276 14.6978 103.852 15.44C104.428 16.1822 105.2 16.5532 106.17 16.5532C107.689 16.5532 108.757 15.8661 109.375 14.4918C109.72 13.7147 109.892 12.8066 109.892 11.7702C109.892 10.2073 109.571 9.04871 108.929 8.2952C108.287 7.54081 107.469 7.16362 106.476 7.16362ZM120.257 5.23226C121.149 5.23226 122.014 5.44181 122.851 5.86179C123.689 6.28264 124.326 6.8266 124.764 7.49454C125.127 8.03937 125.386 8.66191 125.541 9.36303L125.61 9.72101C125.735 10.3016 125.798 11.228 125.798 12.5011H116.583C116.622 13.7811 116.923 14.8079 117.486 15.5814C118.05 16.355 118.923 16.7418 120.105 16.7418C121.208 16.7418 122.088 16.3769 122.746 15.6461C123.121 15.2217 123.388 14.731 123.544 14.1731H125.622C125.567 14.6367 125.385 15.1536 125.075 15.7229C124.767 16.2922 124.42 16.7575 124.037 17.119C123.395 17.7477 122.601 18.1711 121.654 18.3912C121.088 18.5233 120.509 18.5867 119.928 18.5798C118.363 18.5798 117.037 18.0079 115.949 16.8649C114.861 15.7229 114.318 14.1224 114.318 12.0645C114.318 10.0388 114.864 8.39299 115.96 7.1287C117.056 5.86441 118.488 5.23226 120.257 5.23226ZM120.127 7.08155C119.157 7.08155 118.343 7.43255 117.686 8.13629C117.029 8.83915 116.68 9.73236 116.641 10.8168H123.625C123.54 9.89739 123.341 9.16308 123.027 8.61301C122.448 7.59145 121.482 7.08155 120.128 7.08155H120.127Z" fill="black"/>
<path d="M29.3628 5.23226C30.2555 5.23226 31.1205 5.44181 31.9569 5.86179C32.7949 6.28264 33.4326 6.8266 33.8707 7.49454C34.2334 8.03937 34.4919 8.66191 34.6472 9.36303L34.7166 9.72101C34.8416 10.3016 34.904 11.228 34.904 12.5011H25.6877C25.7268 13.7811 26.0287 14.8079 26.5917 15.5814C27.1557 16.355 28.0276 16.7418 29.2101 16.7418C30.3128 16.7418 31.1934 16.3769 31.851 15.6461C32.2267 15.2217 32.493 14.731 32.6492 14.1731H34.727C34.6724 14.6367 34.4902 15.1536 34.1805 15.7229C33.8716 16.2922 33.5254 16.7575 33.142 17.119C32.5 17.7477 31.7061 18.1711 30.7596 18.3912C30.1937 18.5233 29.614 18.5867 29.0331 18.5798C27.4689 18.5798 26.1423 18.0079 25.0544 16.8649C23.9673 15.7238 23.4233 14.1224 23.4233 12.0654C23.4233 10.0397 23.9708 8.39386 25.0665 7.12957C26.1623 5.86528 27.5947 5.23314 29.3628 5.23314V5.23226ZM29.2344 7.08155C28.2636 7.08155 27.4498 7.43255 26.7922 8.13629C26.1354 8.83915 25.7866 9.73236 25.7476 10.8168H32.7316C32.6466 9.89739 32.4462 9.16308 32.133 8.61301C31.5543 7.59145 30.5887 7.08155 29.2344 7.08155ZM36.3008 5.51428H39.0363L41.9236 9.95588L44.8474 5.51428L47.4171 5.57366L43.1799 11.6646L47.6054 18.1319H44.9055L41.7822 13.396L38.7543 18.1319H36.0779L40.5034 11.6646L36.3008 5.51428ZM54.3673 5.14932C55.7832 5.14932 56.9353 5.49508 57.8237 6.18659C58.7121 6.87724 59.2466 8.06731 59.4262 9.75594H57.3717C57.2468 8.97886 56.9614 8.33274 56.5154 7.8176C56.0686 7.30332 55.3529 7.04575 54.3673 7.04575C53.0208 7.04575 52.0587 7.70583 51.4791 9.02513C51.1035 9.8808 50.9152 10.9373 50.9152 12.1946C50.9152 13.4589 51.1815 14.5232 51.7134 15.3867C52.2461 16.2511 53.0842 16.6825 54.2259 16.6825C55.1021 16.6825 55.7971 16.4135 56.3098 15.8757C56.8217 15.3378 57.1765 14.6009 57.3717 13.6667H59.4262C59.1919 15.3396 58.6046 16.5628 57.665 17.3364C56.7262 18.11 55.5255 18.4977 54.0619 18.4977C52.4178 18.4977 51.1078 17.8944 50.1292 16.6886C49.1505 15.4837 48.6621 13.9775 48.6621 12.171C48.6621 9.95588 49.1983 8.23233 50.2697 6.99947C51.3421 5.76574 52.7076 5.14932 54.3673 5.14932ZM61.5396 0.76709H63.6521V7.223C64.1536 6.58649 64.603 6.13944 65.0021 5.88013C65.6831 5.43221 66.5325 5.20782 67.5493 5.20782C69.373 5.20782 70.6093 5.84869 71.2591 7.1287C71.6113 7.8272 71.7874 8.79724 71.7874 10.0388V18.1319H69.6159V10.1794C69.6159 9.25389 69.4979 8.57372 69.2636 8.14153C68.8802 7.45088 68.1601 7.10512 67.1034 7.10512C66.2271 7.10512 65.4324 7.40723 64.721 8.0123C64.0087 8.61651 63.6521 9.75943 63.6521 11.4402V18.1319H61.5396V0.76709ZM79.8403 5.20869C81.3195 5.20869 82.5211 5.49071 83.4442 6.0565C84.3595 6.62228 84.8176 7.50152 84.8176 8.69509V15.9639C84.8176 16.1839 84.8627 16.3611 84.9521 16.4939C85.0423 16.6275 85.2323 16.6947 85.5221 16.6947C85.6158 16.6947 85.7216 16.6886 85.8388 16.6772C85.9559 16.665 86.0817 16.6475 86.2144 16.624V18.1904L85.8578 18.2864C85.7277 18.3202 85.596 18.3473 85.4631 18.3676C85.2913 18.3912 85.0553 18.4025 84.7586 18.4025C84.0307 18.4025 83.5024 18.1432 83.1744 17.6254C83.0018 17.3504 82.8803 16.9619 82.81 16.4589C82.3797 17.0247 81.7611 17.5154 80.9551 17.9319C80.1492 18.3475 79.2608 18.5562 78.2908 18.5562C77.1248 18.5562 76.1722 18.2008 75.4321 17.4901C74.693 16.7794 74.3234 15.8897 74.3234 14.8218C74.3234 13.6518 74.6869 12.7438 75.4148 12.1003C76.1427 11.4559 77.0979 11.0595 78.2787 10.9102L81.6483 10.4859C82.1333 10.423 82.4578 10.2187 82.6226 9.87381C82.7163 9.68521 82.7632 9.41367 82.7632 9.06093C82.7632 8.33798 82.5072 7.8141 81.9945 7.48755C81.4818 7.16188 80.7478 6.9986 79.7935 6.9986C78.6899 6.9986 77.9073 7.29721 77.4458 7.89443C77.1872 8.22447 77.0189 8.71517 76.9408 9.3674H74.9688C75.0079 7.81148 75.5102 6.73055 76.4767 6.12111C77.4432 5.51254 78.565 5.20869 79.8403 5.20869ZM82.7042 11.7117C82.4465 11.8759 82.1142 12.0138 81.7065 12.1239C81.2996 12.2339 80.9005 12.3125 80.5092 12.3596L79.2295 12.5238C78.4626 12.6259 77.8874 12.7874 77.5039 13.0075C76.855 13.3759 76.5296 13.9653 76.5296 14.7747C76.5296 15.3867 76.7526 15.8696 77.1985 16.2241C77.6453 16.5768 78.1737 16.7532 78.7836 16.7532C79.5271 16.7532 80.2472 16.5803 80.9439 16.2354C82.1177 15.6618 82.7051 14.7232 82.7051 13.4196V11.7117H82.7042ZM88.2801 5.51428H90.2877V7.30507C90.8829 6.56728 91.5127 6.03729 92.1773 5.7151C92.8427 5.39292 93.5828 5.23226 94.3966 5.23226C96.1803 5.23226 97.3862 5.85655 98.0118 7.10512C98.3562 7.78878 98.5288 8.76581 98.5288 10.0388V18.1319H96.3798V10.1794C96.3798 9.41018 96.2671 8.78939 96.0397 8.31877C95.6641 7.53296 94.983 7.14005 93.9975 7.14005C93.496 7.14005 93.0856 7.19156 92.7646 7.29372C92.1851 7.4666 91.6767 7.81148 91.2386 8.33012C90.8863 8.7466 90.6573 9.17706 90.5514 9.6206C90.4465 10.0642 90.3935 10.698 90.3935 11.5231V18.1319H88.2801V5.51516V5.51428ZM106.088 5.29076C107.074 5.29076 107.935 5.53437 108.671 6.02157C109.07 6.29573 109.477 6.6965 109.892 7.223V5.63216H111.84V17.1068C111.84 18.709 111.606 19.9733 111.136 20.9005C110.259 22.6119 108.604 23.4684 106.17 23.4684C104.817 23.4684 103.678 23.1637 102.755 22.5551C101.831 21.9465 101.315 20.9948 101.204 19.6982H103.353C103.455 20.264 103.658 20.6997 103.963 21.0062C104.441 21.4777 105.192 21.7134 106.217 21.7134C107.837 21.7134 108.898 21.1398 109.399 19.9934C109.696 19.3176 109.833 18.1118 109.809 16.3769C109.387 17.0204 108.878 17.4997 108.283 17.814C107.689 18.1284 106.902 18.2855 105.923 18.2855C104.562 18.2855 103.371 17.8001 102.349 16.83C101.329 15.8608 100.818 14.256 100.818 12.0173C100.818 9.90437 101.332 8.25591 102.362 7.06932C103.39 5.88362 104.632 5.29076 106.088 5.29076ZM106.476 7.16362C104.989 7.16362 103.971 7.863 103.424 9.26087C103.134 10.0074 102.99 10.9844 102.99 12.1946C102.99 13.616 103.276 14.6978 103.852 15.44C104.428 16.1822 105.2 16.5532 106.17 16.5532C107.689 16.5532 108.757 15.8661 109.375 14.4918C109.72 13.7147 109.892 12.8066 109.892 11.7702C109.892 10.2073 109.571 9.04871 108.929 8.2952C108.287 7.54081 107.469 7.16362 106.476 7.16362ZM120.257 5.23226C121.149 5.23226 122.014 5.44181 122.851 5.86179C123.689 6.28264 124.326 6.8266 124.764 7.49454C125.127 8.03937 125.386 8.66191 125.541 9.36303L125.61 9.72101C125.735 10.3016 125.798 11.228 125.798 12.5011H116.583C116.622 13.7811 116.923 14.8079 117.486 15.5814C118.05 16.355 118.923 16.7418 120.105 16.7418C121.208 16.7418 122.088 16.3769 122.746 15.6461C123.121 15.2217 123.388 14.731 123.544 14.1731H125.622C125.567 14.6367 125.385 15.1536 125.075 15.7229C124.767 16.2922 124.42 16.7575 124.037 17.119C123.395 17.7477 122.601 18.1711 121.654 18.3912C121.088 18.5233 120.509 18.5867 119.928 18.5798C118.363 18.5798 117.037 18.0079 115.949 16.8649C114.861 15.7229 114.318 14.1224 114.318 12.0645C114.318 10.0388 114.864 8.39299 115.96 7.1287C117.056 5.86441 118.488 5.23226 120.257 5.23226ZM120.127 7.08155C119.157 7.08155 118.343 7.43255 117.686 8.13629C117.029 8.83915 116.68 9.73236 116.641 10.8168H123.625C123.54 9.89739 123.341 9.16308 123.027 8.61301C122.448 7.59145 121.482 7.08155 120.128 7.08155H120.127Z" fill="white"/>
<path fill-rule="evenodd" clip-rule="evenodd" d="M9.54338 12.1177L19.0868 21.7221H0L9.54338 12.1177Z" fill="#5A81EA"/>
<path fill-rule="evenodd" clip-rule="evenodd" d="M9.54338 12.1171L19.0868 2.5127H0L9.54338 12.1171Z" fill="#E14B51"/>
</svg>
