<svg width="108" height="23" viewBox="0 0 108 23" fill="none" xmlns="http://www.w3.org/2000/svg">
<path d="M18.1413 6.20721C18.2091 6.29055 18.2514 6.39163 18.2635 6.49876C18.2756 6.6059 18.2569 6.71472 18.2096 6.81266L18.1513 6.93451L10.6649 22.4364C10.6261 22.5148 10.5701 22.584 10.5013 22.6386C10.4343 22.6923 10.3563 22.7307 10.273 22.7509C10.1897 22.7711 10.1033 22.7728 10.0199 22.7556C9.93647 22.7385 9.85825 22.703 9.79088 22.6518C9.72351 22.6006 9.66868 22.535 9.63037 22.4596L6.99668 16.9861L16.5997 7.44915L5.25777 14.8248L0.457268 11.1031C0.372074 11.0368 0.307796 10.9476 0.271828 10.8459C0.235859 10.7441 0.225122 10.6313 0.249408 10.5253C0.273695 10.4192 0.332018 10.3243 0.409112 10.2465C0.486206 10.1687 0.583479 10.1137 0.689741 10.088L17.4311 6.04404L17.5628 6.01284C17.6687 5.98817 17.7789 5.9933 17.8811 6.02764C17.9834 6.06198 18.0735 6.12417 18.1413 6.20721Z" fill="url(#paint0_linear_1753_29)"/>
<path d="M32.9337 21.4474C31.8996 21.4622 30.8677 21.3484 29.8615 21.1087C29.0201 20.8961 28.1975 20.6145 27.402 20.2668V16.6329H27.7493C28.4975 17.2749 29.3506 17.7822 30.2709 18.1324C31.1261 18.4687 32.0351 18.646 32.9535 18.6554C33.2428 18.6497 33.5314 18.6256 33.8176 18.5831C34.1153 18.5523 34.4066 18.4763 34.6816 18.3577C34.9395 18.2475 35.1695 18.081 35.3551 17.8702C35.5495 17.6403 35.6503 17.3452 35.6375 17.0439C35.6419 16.8635 35.6033 16.6846 35.525 16.5222C35.4466 16.3597 35.3308 16.2184 35.1871 16.1099C34.8693 15.863 34.5039 15.6849 34.1141 15.587C33.5954 15.449 33.042 15.3191 32.4537 15.1972C31.8939 15.0825 31.3421 14.9315 30.8018 14.7451C29.6224 14.3284 28.7753 13.7676 28.2604 13.0628C27.7455 12.3579 27.49 11.4731 27.4938 10.4082C27.4938 8.97958 28.0971 7.82213 29.3038 6.93586C30.5105 6.04958 32.0165 5.60645 33.8218 5.60645C34.7308 5.60822 35.6372 5.7032 36.527 5.8899C37.3536 6.05256 38.1606 6.30343 38.9342 6.63823V10.1247H38.601C37.9805 9.60662 37.2818 9.19088 36.5312 8.89312C35.7353 8.56198 34.8824 8.39103 34.0209 8.38999C33.7195 8.38732 33.4186 8.41151 33.1215 8.46227C32.831 8.52017 32.5491 8.61544 32.2828 8.74573C32.0416 8.8569 31.8298 9.02342 31.6644 9.23185C31.4945 9.43358 31.401 9.68907 31.4004 9.95325C31.3931 10.1298 31.4266 10.3056 31.4984 10.467C31.5701 10.6283 31.6782 10.7707 31.8141 10.883C32.0899 11.1107 32.6231 11.3176 33.4138 11.5038C33.9249 11.619 34.4171 11.7315 34.8906 11.8411C35.4047 11.9625 35.9115 12.1135 36.4084 12.2932C37.4654 12.6711 38.2509 13.1856 38.7648 13.8366C39.2787 14.4876 39.5361 15.3413 39.5371 16.3976C39.5371 17.917 38.9427 19.1382 37.7539 20.0613C36.5651 20.9844 34.9584 21.4465 32.9337 21.4474Z" fill="white"/>
<path d="M55.353 13.535C55.353 16.004 54.6941 17.9471 53.3764 19.3643C52.0586 20.7816 50.2561 21.4903 47.9689 21.4903C45.6722 21.4903 43.8692 20.7731 42.56 19.3388C41.2507 17.9045 40.5965 15.9704 40.5974 13.5365C40.5974 11.0798 41.2516 9.13864 42.56 7.71285C43.8683 6.28707 45.6713 5.5737 47.9689 5.57275C50.2589 5.57275 52.0614 6.2814 53.3764 7.69868C54.6913 9.11596 55.3502 11.0614 55.353 13.535ZM51.4068 13.5265C51.4217 12.7418 51.3266 11.9589 51.1244 11.2008C50.9715 10.6342 50.7164 10.1005 50.3719 9.62618C50.0822 9.23923 49.7014 8.93048 49.2636 8.72763C48.8599 8.55262 48.4254 8.46069 47.9857 8.45728C47.546 8.45387 47.1101 8.53906 46.7038 8.70778C46.2709 8.91655 45.8927 9.22431 45.5997 9.60634C45.248 10.0795 44.9896 10.6159 44.8387 11.1866C44.6298 11.9518 44.5313 12.7432 44.5465 13.5365C44.5293 14.3241 44.6244 15.1101 44.8288 15.8707C44.9826 16.4327 45.2387 16.9613 45.5842 17.4297C45.8727 17.8231 46.2567 18.1359 46.6996 18.3382C47.1053 18.5177 47.5438 18.6103 47.9872 18.6103C48.4396 18.6097 48.8864 18.5096 49.296 18.317C49.7307 18.112 50.1067 17.8 50.3888 17.4099C50.7293 16.9383 50.9854 16.4107 51.1456 15.8509C51.3197 15.2575 51.4068 14.4827 51.4068 13.5265Z" fill="white"/>
<path d="M67.7734 21.1699H57.6078V5.89014H61.4312V18.2559H67.7691L67.7734 21.1699Z" fill="white"/>
<path d="M75.7476 21.4888C73.7032 21.4888 72.1304 20.9922 71.0291 19.9992C69.9278 19.0061 69.3781 17.5572 69.38 15.6524V5.89014H73.2034V15.4228C73.2034 16.4829 73.4025 17.2733 73.8006 17.7939C74.1988 18.3145 74.8482 18.5743 75.749 18.5734C76.6272 18.5734 77.2729 18.3235 77.6861 17.8237C78.0993 17.3238 78.3055 16.5235 78.3045 15.4228V5.89014H82.1279V15.6382C82.1279 17.5204 81.5914 18.966 80.5183 19.9751C79.4453 20.9842 77.8551 21.4888 75.7476 21.4888Z" fill="white"/>
<path d="M89.7633 21.4474C88.7292 21.4621 87.6973 21.3484 86.6911 21.1087C85.8501 20.8961 85.028 20.6145 84.233 20.2668V16.6329H84.5803C85.3292 17.2753 86.1833 17.7826 87.1047 18.1324C87.9599 18.4687 88.8689 18.646 89.7873 18.6554C90.0766 18.6498 90.3652 18.6256 90.6514 18.5831C90.9492 18.5527 91.2406 18.4767 91.5155 18.3577C91.7737 18.2476 92.0042 18.081 92.1903 17.8702C92.3847 17.6403 92.4856 17.3452 92.4727 17.0439C92.4764 16.8636 92.4375 16.685 92.3593 16.5226C92.281 16.3603 92.1655 16.2189 92.0223 16.1099C91.7045 15.863 91.3392 15.6849 90.9493 15.5869C90.4307 15.449 89.8767 15.3191 89.2875 15.1972C88.7282 15.0825 88.1769 14.9315 87.637 14.7451C86.4576 14.3284 85.6105 13.7676 85.0956 13.0628C84.5808 12.3579 84.3238 11.473 84.3247 10.4082C84.3247 8.97958 84.9281 7.82213 86.1348 6.93586C87.3415 6.04958 88.8475 5.60645 90.6528 5.60645C91.5613 5.60829 92.4673 5.70327 93.3565 5.8899C94.1809 6.05284 94.9855 6.30371 95.7567 6.63823V10.1247H95.4193C94.7992 9.60602 94.1004 9.19023 93.3495 8.89312C92.5539 8.56299 91.7015 8.393 90.8406 8.39282C90.5392 8.39021 90.2383 8.4144 89.9412 8.4651C89.6511 8.5228 89.3696 8.61808 89.104 8.74856C88.8624 8.85919 88.6505 9.0258 88.4856 9.23469C88.3161 9.43762 88.2236 9.69414 88.2244 9.95892C88.2173 10.1354 88.251 10.3111 88.3227 10.4724C88.3945 10.6337 88.5024 10.7761 88.638 10.8887C88.9129 11.1164 89.4461 11.3233 90.2377 11.5094C90.7488 11.6247 91.2415 11.7371 91.7159 11.8467C92.2322 11.9665 92.7413 12.1155 93.2408 12.2932C94.2969 12.6711 95.0823 13.1856 95.5972 13.8366C96.1121 14.4876 96.3695 15.3413 96.3695 16.3976C96.3695 17.917 95.7746 19.1382 94.5849 20.0613C93.3951 20.9844 91.7879 21.4465 89.7633 21.4474Z" fill="white"/>
<path d="M100.621 21.5166H97.8533V18.4506H100.621V21.5166Z" fill="url(#paint1_linear_1753_29)"/>
<path d="M105.827 21.6883C104.712 21.6883 103.899 21.4594 103.388 21.0017C102.883 20.544 102.63 19.795 102.63 18.7548V14.6589H101.582V12.7553H102.63V10.251H105.366V12.7553H108V14.6589H105.366V17.764C105.366 18.0709 105.368 18.3387 105.374 18.5676C105.379 18.7964 105.42 19.0019 105.499 19.1839C105.572 19.366 105.699 19.5116 105.882 19.6208C106.069 19.7248 106.34 19.7768 106.695 19.7768C106.84 19.7768 107.031 19.7456 107.265 19.6832C107.505 19.6208 107.672 19.5636 107.765 19.5116H108V21.4386C107.703 21.5166 107.388 21.5764 107.054 21.618C106.721 21.6648 106.312 21.6883 105.827 21.6883Z" fill="url(#paint2_linear_1753_29)"/>
<defs>
<linearGradient id="paint0_linear_1753_29" x1="17.5" y1="6" x2="0.00112717" y2="5.85954" gradientUnits="userSpaceOnUse">
<stop stop-color="#15C0D8"/>
<stop offset="1" stop-color="#231071"/>
</linearGradient>
<linearGradient id="paint1_linear_1753_29" x1="102.927" y1="10.251" x2="109" y2="22" gradientUnits="userSpaceOnUse">
<stop stop-color="#15C0D8"/>
<stop offset="1" stop-color="#231071"/>
</linearGradient>
<linearGradient id="paint2_linear_1753_29" x1="102.927" y1="10.251" x2="109" y2="22" gradientUnits="userSpaceOnUse">
<stop stop-color="#15C0D8"/>
<stop offset="1" stop-color="#231071"/>
</linearGradient>
</defs>
</svg>
