<svg width="116" height="27" viewBox="0 0 116 27" fill="none" xmlns="http://www.w3.org/2000/svg">
<path d="M102.546 8.57227L98.1484 12.9775L110.616 25.525C110.888 25.7982 111.257 25.9517 111.642 25.9517C112.026 25.9517 112.395 25.7982 112.667 25.525L115.003 23.174C115.274 22.9001 115.427 22.529 115.427 22.1421C115.427 21.7552 115.274 21.384 115.003 21.1101L102.545 8.57227H102.546Z" fill="#15A2EE"/>
<path fill-rule="evenodd" clip-rule="evenodd" d="M45.0077 6.71669C48.8988 6.71669 51.9261 9.80025 51.9261 13.436C51.9261 17.0717 48.9042 20.1539 45.0077 20.1539V20.1553H34.6506C33.8493 20.1553 33.2001 20.8086 33.2001 21.6164V24.9378C33.2001 25.7442 33.8493 26.4003 34.6506 26.4003H45.0091V26.3989C52.1841 26.3989 58.126 20.6638 58.126 13.436C58.126 6.2055 52.176 0.47168 45.0077 0.47168H34.6492C33.8479 0.47168 33.1987 1.12639 33.1987 1.93418V5.25556C33.1987 6.06198 33.8479 6.71806 34.6492 6.71806H45.0077V6.71669Z" fill="#15A2EE"/>
<path d="M98.1528 12.9653L102.531 17.3897L114.999 4.84225C115.271 4.56851 115.424 4.19733 115.424 3.8103C115.424 3.42327 115.271 3.05209 114.999 2.77835L112.662 0.427414C112.39 0.15373 112.021 0 111.636 0C111.251 0 110.882 0.15373 110.61 0.427414L98.1528 12.9653ZM23.439 1.94595C23.439 1.13953 24.0868 0.487554 24.8867 0.48482L28.187 0.476619C28.3779 0.4759 28.5671 0.513072 28.7437 0.586008C28.9203 0.658944 29.0808 0.766212 29.2162 0.901672C29.3515 1.03713 29.459 1.19813 29.5325 1.37544C29.6059 1.55276 29.6439 1.74291 29.6443 1.93502V24.9386C29.6443 25.7451 28.9951 26.3984 28.1938 26.3984H24.8908C24.0895 26.3984 23.4403 25.7451 23.4403 24.9386V1.94595H23.439ZM80.148 20.1671C80.9493 20.1671 81.5985 20.819 81.5998 21.6241L81.6053 24.9482C81.6053 25.3359 81.4524 25.7076 81.1801 25.9819C80.9079 26.2561 80.5386 26.4103 80.1534 26.4107H63.117C62.3157 26.4107 61.6651 25.7574 61.6651 24.9496V21.6282C61.6651 20.8218 62.3157 20.1657 63.117 20.1657H80.148V20.1671Z" fill="#15A2EE"/>
<path d="M87.9002 10.3192C88.7015 10.3192 89.3494 10.9698 89.3521 11.7763L89.3602 15.0976C89.3608 15.2898 89.3237 15.4801 89.251 15.6577C89.1784 15.8354 89.0716 15.9969 88.9369 16.133C88.8022 16.2691 88.6421 16.3771 88.4659 16.4509C88.2896 16.5246 88.1006 16.5627 87.9097 16.5629H63.1115C62.3102 16.5629 61.6597 15.9095 61.6597 15.1018V11.7804C61.6597 10.9739 62.3102 10.3179 63.1129 10.3179H87.9002V10.3192Z" fill="#6748E5"/>
<path fill-rule="evenodd" clip-rule="evenodd" d="M19.9334 1.91016C19.9323 1.52359 19.7791 1.1532 19.5072 0.880113C19.2353 0.607022 18.867 0.453485 18.4829 0.453125H1.45185C1.06691 0.453487 0.697831 0.607543 0.425634 0.881481C0.153437 1.15542 0.000359593 1.52685 0 1.91426V5.23564C0 6.04343 0.650548 6.69814 1.45185 6.69814H6.86675V24.9384C6.86675 25.7448 7.51729 26.3982 8.31859 26.3982H11.6202C12.4215 26.3982 13.0721 25.7448 13.0721 24.9384V6.69814H18.4897C19.291 6.69814 19.9429 6.04206 19.9402 5.23427L19.9334 1.91016Z" fill="#15A2EE"/>
<path d="M80.1466 0.472656C80.9479 0.472656 81.5958 1.12463 81.5971 1.93106L81.6039 5.25244C81.6041 5.44449 81.5667 5.63471 81.4938 5.81221C81.421 5.98972 81.3141 6.15105 81.1792 6.28698C81.0444 6.42291 80.8843 6.53079 80.7081 6.60445C80.5318 6.67812 80.3429 6.71612 80.1521 6.7163H63.1115C62.3102 6.7163 61.6597 6.06296 61.6597 5.25654V1.93379C61.6597 1.12736 62.3102 0.472656 63.1129 0.472656H80.1466Z" fill="#15A2EE"/>
<path d="M102.532 8.57227L106.928 12.9775L94.4618 25.525C94.1896 25.7982 93.8208 25.9517 93.4364 25.9517C93.0519 25.9517 92.6831 25.7982 92.411 25.525L90.075 23.174C89.8031 22.9003 89.6504 22.5291 89.6504 22.1421C89.6504 21.7551 89.8031 21.3839 90.075 21.1101L102.532 8.57227Z" fill="#6748E5"/>
<path d="M106.919 12.9656L102.541 17.39L90.0744 4.84255C89.8029 4.56863 89.6504 4.19751 89.6504 3.81059C89.6504 3.42368 89.8029 3.05256 90.0744 2.77864L92.4104 0.427708C92.6826 0.154442 93.0513 0.000976562 93.4358 0.000976562C93.8203 0.000976562 94.189 0.154442 94.4612 0.427708L106.919 12.9656Z" fill="#6748E5"/>
</svg>
