<svg width="113" height="10" viewBox="0 0 113 10" fill="none" xmlns="http://www.w3.org/2000/svg">
<path d="M1.17338 1V9.8H0V0.2H1.95564L7.4253 8.6L12.895 0.2H14.7651V9.8H13.5917V1.13125L8.01811 9.8H6.8325L1.17338 1Z" fill="url(#paint0_linear_1592_61)"/>
<path d="M16.2551 9.8V0.2H25.6421V1.2H17.4284V4.4H25.251V5.4H17.4284V8.8H25.6421V9.8H16.2551Z" fill="url(#paint1_linear_1592_61)"/>
<path d="M37.5871 9.8H36.4138V8C36.4138 7.70833 36.4076 7.45833 36.3954 7.25C36.3873 7.0375 36.3526 6.85625 36.2915 6.70625C36.2345 6.55625 36.1428 6.43542 36.0165 6.34375C35.8902 6.25208 35.7109 6.18125 35.4787 6.13125C35.2465 6.08125 34.9511 6.04792 34.5926 6.03125C34.2381 6.01042 33.8001 6 33.2786 6H28.0045V9.8H26.8311V0.2H33.4742C34.1913 0.2 34.7942 0.227083 35.2831 0.28125C35.7761 0.33125 36.1815 0.408333 36.4993 0.5125C36.8212 0.616667 37.0677 0.745833 37.2388 0.9C37.414 1.05417 37.5403 1.23542 37.6177 1.44375C37.6992 1.65208 37.746 1.88542 37.7583 2.14375C37.7745 2.40208 37.7827 2.6875 37.7827 3C37.7827 3.4 37.7542 3.75208 37.6971 4.05625C37.6442 4.35625 37.5525 4.6125 37.4221 4.825C37.2918 5.0375 37.1186 5.20833 36.9027 5.3375C36.6867 5.4625 36.4158 5.55 36.0898 5.6C36.4158 5.65 36.6765 5.7375 36.8721 5.8625C37.0677 5.9875 37.2184 6.15 37.3243 6.35C37.4303 6.55 37.4995 6.7875 37.5321 7.0625C37.5688 7.3375 37.5871 7.65 37.5871 8V9.8ZM28.0045 5H33.4742C33.9957 5 34.4337 4.99167 34.7881 4.975C35.1467 4.95417 35.442 4.91875 35.6743 4.86875C35.9065 4.81875 36.0858 4.74792 36.2121 4.65625C36.3384 4.56458 36.43 4.44375 36.4871 4.29375C36.5482 4.14375 36.5828 3.96458 36.591 3.75625C36.6032 3.54375 36.6093 3.29167 36.6093 3C36.6093 2.72917 36.6032 2.49583 36.591 2.3C36.5828 2.10417 36.5482 1.93958 36.4871 1.80625C36.43 1.67292 36.3384 1.56667 36.2121 1.4875C36.0858 1.40833 35.9065 1.34792 35.6743 1.30625C35.442 1.26042 35.1467 1.23125 34.7881 1.21875C34.4337 1.20625 33.9957 1.2 33.4742 1.2H28.0045V5Z" fill="url(#paint2_linear_1592_61)"/>
<path d="M49.5383 3.2C49.5383 2.7 49.4853 2.30417 49.3794 2.0125C49.2734 1.72083 49.0983 1.5 48.8538 1.35C48.6093 1.2 48.2875 1.10417 47.8882 1.0625C47.4889 1.02083 46.9959 1 46.4093 1H43.268C42.7465 1 42.3065 1.01667 41.948 1.05C41.5935 1.07917 41.3002 1.14167 41.0679 1.2375C40.8357 1.33333 40.6564 1.47083 40.5301 1.65C40.4038 1.82917 40.3122 2.06667 40.2551 2.3625C40.1981 2.65833 40.1655 3.02292 40.1573 3.45625C40.1492 3.88542 40.1451 4.4 40.1451 5C40.1451 5.6 40.1492 6.11667 40.1573 6.55C40.1695 6.97917 40.2042 7.34167 40.2612 7.6375C40.3183 7.93333 40.4079 8.17083 40.5301 8.35C40.6564 8.52917 40.8357 8.66667 41.0679 8.7625C41.3002 8.85833 41.5935 8.92292 41.948 8.95625C42.3065 8.98542 42.7465 9 43.268 9H46.4154C46.8717 9 47.2648 8.9875 47.5949 8.9625C47.9249 8.9375 48.206 8.89167 48.4382 8.825C48.6705 8.75833 48.8579 8.66667 49.0005 8.55C49.1431 8.43333 49.2531 8.2875 49.3305 8.1125C49.412 7.93333 49.467 7.72083 49.4955 7.475C49.524 7.225 49.5383 6.93333 49.5383 6.6V6H44.8325V5H50.7117V6.6C50.7117 7 50.6872 7.3625 50.6383 7.6875C50.5894 8.00833 50.5018 8.29583 50.3755 8.55C50.2533 8.8 50.0883 9.01667 49.8805 9.2C49.6727 9.38333 49.4099 9.53542 49.0921 9.65625C48.7743 9.77292 48.3954 9.85833 47.9554 9.9125C47.5154 9.97083 47.0021 10 46.4154 10H43.268C42.5509 10 41.9459 9.95417 41.4529 9.8625C40.964 9.775 40.5607 9.64167 40.2429 9.4625C39.9251 9.27917 39.6786 9.05 39.5034 8.775C39.3323 8.5 39.206 8.17708 39.1245 7.80625C39.0471 7.43542 39.0023 7.01667 38.9901 6.55C38.9778 6.08333 38.9717 5.56667 38.9717 5C38.9717 4.43333 38.9778 3.91667 38.9901 3.45C39.0023 2.98333 39.0471 2.56458 39.1245 2.19375C39.206 1.82292 39.3323 1.5 39.5034 1.225C39.6786 0.95 39.9251 0.722917 40.2429 0.54375C40.5607 0.360417 40.964 0.225 41.4529 0.1375C41.9459 0.0458333 42.5509 0 43.268 0H46.4093C46.9959 0 47.5093 0.0291666 47.9493 0.0875C48.3893 0.141667 48.7682 0.227083 49.086 0.34375C49.4038 0.45625 49.6666 0.6 49.8744 0.775C50.0863 0.95 50.2533 1.15625 50.3755 1.39375C50.5018 1.63125 50.5894 1.9 50.6383 2.2C50.6872 2.5 50.7117 2.83333 50.7117 3.2H49.5383Z" fill="url(#paint3_linear_1592_61)"/>
<path d="M51.8336 9.8V0.2H61.2207V1.2H53.007V4.4H60.8295V5.4H53.007V8.8H61.2207V9.8H51.8336Z" fill="url(#paint4_linear_1592_61)"/>
<path d="M71.7143 0.2H73.0832L76.8967 8.8L80.6124 0.2H81.9814L77.679 9.8H76.1144L72.3987 1.4L68.683 9.8H67.1185L62.425 0.2H63.7939L67.9008 8.8L71.7143 0.2Z" fill="url(#paint5_linear_1592_61)"/>
<path d="M89.4092 7.6H81.9777L80.8043 9.8H79.4354L84.9112 0.2H86.4757L91.9515 9.8H90.5825L89.4092 7.6ZM88.8225 6.6L85.6934 1L82.5644 6.6H88.8225Z" fill="url(#paint6_linear_1592_61)"/>
<path d="M99.7497 0.2H101.119L96.034 9.8H94.4695L89.3849 0.2H90.7538L95.2518 9L99.7497 0.2Z" fill="url(#paint7_linear_1592_61)"/>
<path d="M1.17338 1V9.8H0V0.2H1.95564L7.4253 8.6L12.895 0.2H14.7651V9.8H13.5917V1.13125L8.01811 9.8H6.8325L1.17338 1Z" fill="url(#paint8_linear_1592_61)"/>
<path d="M16.2551 9.8V0.2H25.6421V1.2H17.4284V4.4H25.251V5.4H17.4284V8.8H25.6421V9.8H16.2551Z" fill="url(#paint9_linear_1592_61)"/>
<path d="M37.5871 9.8H36.4138V8C36.4138 7.70833 36.4076 7.45833 36.3954 7.25C36.3873 7.0375 36.3526 6.85625 36.2915 6.70625C36.2345 6.55625 36.1428 6.43542 36.0165 6.34375C35.8902 6.25208 35.7109 6.18125 35.4787 6.13125C35.2465 6.08125 34.9511 6.04792 34.5926 6.03125C34.2381 6.01042 33.8001 6 33.2786 6H28.0045V9.8H26.8311V0.2H33.4742C34.1913 0.2 34.7942 0.227083 35.2831 0.28125C35.7761 0.33125 36.1815 0.408333 36.4993 0.5125C36.8212 0.616667 37.0677 0.745833 37.2388 0.9C37.414 1.05417 37.5403 1.23542 37.6177 1.44375C37.6992 1.65208 37.746 1.88542 37.7583 2.14375C37.7745 2.40208 37.7827 2.6875 37.7827 3C37.7827 3.4 37.7542 3.75208 37.6971 4.05625C37.6442 4.35625 37.5525 4.6125 37.4221 4.825C37.2918 5.0375 37.1186 5.20833 36.9027 5.3375C36.6867 5.4625 36.4158 5.55 36.0898 5.6C36.4158 5.65 36.6765 5.7375 36.8721 5.8625C37.0677 5.9875 37.2184 6.15 37.3243 6.35C37.4303 6.55 37.4995 6.7875 37.5321 7.0625C37.5688 7.3375 37.5871 7.65 37.5871 8V9.8ZM28.0045 5H33.4742C33.9957 5 34.4337 4.99167 34.7881 4.975C35.1467 4.95417 35.442 4.91875 35.6743 4.86875C35.9065 4.81875 36.0858 4.74792 36.2121 4.65625C36.3384 4.56458 36.43 4.44375 36.4871 4.29375C36.5482 4.14375 36.5828 3.96458 36.591 3.75625C36.6032 3.54375 36.6093 3.29167 36.6093 3C36.6093 2.72917 36.6032 2.49583 36.591 2.3C36.5828 2.10417 36.5482 1.93958 36.4871 1.80625C36.43 1.67292 36.3384 1.56667 36.2121 1.4875C36.0858 1.40833 35.9065 1.34792 35.6743 1.30625C35.442 1.26042 35.1467 1.23125 34.7881 1.21875C34.4337 1.20625 33.9957 1.2 33.4742 1.2H28.0045V5Z" fill="url(#paint10_linear_1592_61)"/>
<path d="M49.5383 3.2C49.5383 2.7 49.4853 2.30417 49.3794 2.0125C49.2734 1.72083 49.0983 1.5 48.8538 1.35C48.6093 1.2 48.2875 1.10417 47.8882 1.0625C47.4889 1.02083 46.9959 1 46.4093 1H43.268C42.7465 1 42.3065 1.01667 41.948 1.05C41.5935 1.07917 41.3002 1.14167 41.0679 1.2375C40.8357 1.33333 40.6564 1.47083 40.5301 1.65C40.4038 1.82917 40.3122 2.06667 40.2551 2.3625C40.1981 2.65833 40.1655 3.02292 40.1573 3.45625C40.1492 3.88542 40.1451 4.4 40.1451 5C40.1451 5.6 40.1492 6.11667 40.1573 6.55C40.1695 6.97917 40.2042 7.34167 40.2612 7.6375C40.3183 7.93333 40.4079 8.17083 40.5301 8.35C40.6564 8.52917 40.8357 8.66667 41.0679 8.7625C41.3002 8.85833 41.5935 8.92292 41.948 8.95625C42.3065 8.98542 42.7465 9 43.268 9H46.4154C46.8717 9 47.2648 8.9875 47.5949 8.9625C47.9249 8.9375 48.206 8.89167 48.4382 8.825C48.6705 8.75833 48.8579 8.66667 49.0005 8.55C49.1431 8.43333 49.2531 8.2875 49.3305 8.1125C49.412 7.93333 49.467 7.72083 49.4955 7.475C49.524 7.225 49.5383 6.93333 49.5383 6.6V6H44.8325V5H50.7117V6.6C50.7117 7 50.6872 7.3625 50.6383 7.6875C50.5894 8.00833 50.5018 8.29583 50.3755 8.55C50.2533 8.8 50.0883 9.01667 49.8805 9.2C49.6727 9.38333 49.4099 9.53542 49.0921 9.65625C48.7743 9.77292 48.3954 9.85833 47.9554 9.9125C47.5154 9.97083 47.0021 10 46.4154 10H43.268C42.5509 10 41.9459 9.95417 41.4529 9.8625C40.964 9.775 40.5607 9.64167 40.2429 9.4625C39.9251 9.27917 39.6786 9.05 39.5034 8.775C39.3323 8.5 39.206 8.17708 39.1245 7.80625C39.0471 7.43542 39.0023 7.01667 38.9901 6.55C38.9778 6.08333 38.9717 5.56667 38.9717 5C38.9717 4.43333 38.9778 3.91667 38.9901 3.45C39.0023 2.98333 39.0471 2.56458 39.1245 2.19375C39.206 1.82292 39.3323 1.5 39.5034 1.225C39.6786 0.95 39.9251 0.722917 40.2429 0.54375C40.5607 0.360417 40.964 0.225 41.4529 0.1375C41.9459 0.0458333 42.5509 0 43.268 0H46.4093C46.9959 0 47.5093 0.0291666 47.9493 0.0875C48.3893 0.141667 48.7682 0.227083 49.086 0.34375C49.4038 0.45625 49.6666 0.6 49.8744 0.775C50.0863 0.95 50.2533 1.15625 50.3755 1.39375C50.5018 1.63125 50.5894 1.9 50.6383 2.2C50.6872 2.5 50.7117 2.83333 50.7117 3.2H49.5383Z" fill="url(#paint11_linear_1592_61)"/>
<path d="M51.8336 9.8V0.2H61.2207V1.2H53.007V4.4H60.8295V5.4H53.007V8.8H61.2207V9.8H51.8336Z" fill="url(#paint12_linear_1592_61)"/>
<path d="M71.7143 0.2H73.0832L76.8967 8.8L80.6124 0.2H81.9814L77.679 9.8H76.1144L72.3987 1.4L68.683 9.8H67.1185L62.425 0.2H63.7939L67.9008 8.8L71.7143 0.2Z" fill="url(#paint13_linear_1592_61)"/>
<path d="M89.4092 7.6H81.9777L80.8043 9.8H79.4354L84.9112 0.2H86.4757L91.9515 9.8H90.5825L89.4092 7.6ZM88.8225 6.6L85.6934 1L82.5644 6.6H88.8225Z" fill="url(#paint14_linear_1592_61)"/>
<path d="M99.7497 0.2H101.119L96.034 9.8H94.4695L89.3849 0.2H90.7538L95.2518 9L99.7497 0.2Z" fill="url(#paint15_linear_1592_61)"/>
<path d="M113 9.025L105.556 9C105.035 9 104.595 8.98333 104.236 8.95C103.882 8.92083 103.589 8.85833 103.356 8.7625C103.124 8.66667 102.945 8.52917 102.818 8.35C102.692 8.17083 102.601 7.93333 102.543 7.6375C102.486 7.34167 102.454 6.97708 102.446 6.54375C102.438 6.11458 102.433 5.6 102.433 5C102.433 4.4 102.438 3.88333 102.446 3.45C102.458 3.02083 102.493 2.65833 102.55 2.3625C102.607 2.06667 102.696 1.82917 102.818 1.65C102.945 1.47083 103.124 1.33333 103.356 1.2375C103.589 1.14167 103.882 1.07708 104.236 1.04375C104.595 1.01458 105.035 1 105.556 1H108.704C109.16 1 109.553 1.0125 109.883 1.0375C110.213 1.0625 110.494 1.10833 110.727 1.175C110.959 1.24167 111.146 1.33333 111.289 1.45C111.431 1.56667 111.541 1.7125 111.619 1.8875C111.7 2.06667 111.755 2.27917 111.784 2.525C111.812 2.775 111.827 3.06667 111.827 3.4V4.19355H106.074V5.19355H110.06H113V3.4C113 3 112.976 2.6375 112.927 2.3125C112.878 1.99167 112.79 1.70417 112.664 1.45C112.542 1.2 112.377 0.983334 112.169 0.8C111.961 0.616667 111.698 0.464584 111.38 0.34375C111.063 0.227084 110.684 0.141667 110.244 0.0875005C109.804 0.0291672 109.29 0 108.704 0H105.556C104.839 0 104.234 0.0458335 103.741 0.1375C103.252 0.225 102.849 0.358334 102.531 0.537501C102.213 0.720834 101.967 0.95 101.792 1.225C101.621 1.5 101.494 1.82292 101.413 2.19375C101.335 2.56458 101.291 2.98333 101.278 3.45C101.266 3.91667 101.26 4.43333 101.26 5C101.26 5.56667 101.266 6.08333 101.278 6.55C101.291 7.01667 101.335 7.43542 101.413 7.80625C101.494 8.17708 101.621 8.5 101.792 8.775C101.967 9.05 102.213 9.27708 102.531 9.45625C102.849 9.63958 103.252 9.775 103.741 9.8625C104.234 9.95417 104.839 10 105.556 10H113V9.025Z" fill="url(#paint16_linear_1592_61)"/>
<path d="M113 9.025L105.556 9C105.035 9 104.595 8.98333 104.236 8.95C103.882 8.92083 103.589 8.85833 103.356 8.7625C103.124 8.66667 102.945 8.52917 102.818 8.35C102.692 8.17083 102.601 7.93333 102.543 7.6375C102.486 7.34167 102.454 6.97708 102.446 6.54375C102.438 6.11458 102.433 5.6 102.433 5C102.433 4.4 102.438 3.88333 102.446 3.45C102.458 3.02083 102.493 2.65833 102.55 2.3625C102.607 2.06667 102.696 1.82917 102.818 1.65C102.945 1.47083 103.124 1.33333 103.356 1.2375C103.589 1.14167 103.882 1.07708 104.236 1.04375C104.595 1.01458 105.035 1 105.556 1H108.704C109.16 1 109.553 1.0125 109.883 1.0375C110.213 1.0625 110.494 1.10833 110.727 1.175C110.959 1.24167 111.146 1.33333 111.289 1.45C111.431 1.56667 111.541 1.7125 111.619 1.8875C111.7 2.06667 111.755 2.27917 111.784 2.525C111.812 2.775 111.827 3.06667 111.827 3.4V4.19355H106.074V5.19355H110.06H113V3.4C113 3 112.976 2.6375 112.927 2.3125C112.878 1.99167 112.79 1.70417 112.664 1.45C112.542 1.2 112.377 0.983334 112.169 0.8C111.961 0.616667 111.698 0.464584 111.38 0.34375C111.063 0.227084 110.684 0.141667 110.244 0.0875005C109.804 0.0291672 109.29 0 108.704 0H105.556C104.839 0 104.234 0.0458335 103.741 0.1375C103.252 0.225 102.849 0.358334 102.531 0.537501C102.213 0.720834 101.967 0.95 101.792 1.225C101.621 1.5 101.494 1.82292 101.413 2.19375C101.335 2.56458 101.291 2.98333 101.278 3.45C101.266 3.91667 101.26 4.43333 101.26 5C101.26 5.56667 101.266 6.08333 101.278 6.55C101.291 7.01667 101.335 7.43542 101.413 7.80625C101.494 8.17708 101.621 8.5 101.792 8.775C101.967 9.05 102.213 9.27708 102.531 9.45625C102.849 9.63958 103.252 9.775 103.741 9.8625C104.234 9.95417 104.839 10 105.556 10H113V9.025Z" fill="url(#paint17_linear_1592_61)"/>
<defs>
<linearGradient id="paint0_linear_1592_61" x1="56.5" y1="0" x2="56.5" y2="10" gradientUnits="userSpaceOnUse">
<stop stop-color="#42526B"/>
<stop offset="1" stop-color="#42526B" stop-opacity="0.2"/>
</linearGradient>
<linearGradient id="paint1_linear_1592_61" x1="56.5" y1="0" x2="56.5" y2="10" gradientUnits="userSpaceOnUse">
<stop stop-color="#42526B"/>
<stop offset="1" stop-color="#42526B" stop-opacity="0.2"/>
</linearGradient>
<linearGradient id="paint2_linear_1592_61" x1="56.5" y1="0" x2="56.5" y2="10" gradientUnits="userSpaceOnUse">
<stop stop-color="#42526B"/>
<stop offset="1" stop-color="#42526B" stop-opacity="0.2"/>
</linearGradient>
<linearGradient id="paint3_linear_1592_61" x1="56.5" y1="0" x2="56.5" y2="10" gradientUnits="userSpaceOnUse">
<stop stop-color="#42526B"/>
<stop offset="1" stop-color="#42526B" stop-opacity="0.2"/>
</linearGradient>
<linearGradient id="paint4_linear_1592_61" x1="56.5" y1="0" x2="56.5" y2="10" gradientUnits="userSpaceOnUse">
<stop stop-color="#42526B"/>
<stop offset="1" stop-color="#42526B" stop-opacity="0.2"/>
</linearGradient>
<linearGradient id="paint5_linear_1592_61" x1="56.5" y1="0" x2="56.5" y2="10" gradientUnits="userSpaceOnUse">
<stop stop-color="#42526B"/>
<stop offset="1" stop-color="#42526B" stop-opacity="0.2"/>
</linearGradient>
<linearGradient id="paint6_linear_1592_61" x1="56.5" y1="0" x2="56.5" y2="10" gradientUnits="userSpaceOnUse">
<stop stop-color="#42526B"/>
<stop offset="1" stop-color="#42526B" stop-opacity="0.2"/>
</linearGradient>
<linearGradient id="paint7_linear_1592_61" x1="56.5" y1="0" x2="56.5" y2="10" gradientUnits="userSpaceOnUse">
<stop stop-color="#42526B"/>
<stop offset="1" stop-color="#42526B" stop-opacity="0.2"/>
</linearGradient>
<linearGradient id="paint8_linear_1592_61" x1="56.5" y1="0" x2="56.5" y2="10" gradientUnits="userSpaceOnUse">
<stop stop-color="#42526B"/>
<stop offset="1" stop-color="#42526B" stop-opacity="0.2"/>
</linearGradient>
<linearGradient id="paint9_linear_1592_61" x1="56.5" y1="0" x2="56.5" y2="10" gradientUnits="userSpaceOnUse">
<stop stop-color="#42526B"/>
<stop offset="1" stop-color="#42526B" stop-opacity="0.2"/>
</linearGradient>
<linearGradient id="paint10_linear_1592_61" x1="56.5" y1="0" x2="56.5" y2="10" gradientUnits="userSpaceOnUse">
<stop stop-color="#42526B"/>
<stop offset="1" stop-color="#42526B" stop-opacity="0.2"/>
</linearGradient>
<linearGradient id="paint11_linear_1592_61" x1="56.5" y1="0" x2="56.5" y2="10" gradientUnits="userSpaceOnUse">
<stop stop-color="#42526B"/>
<stop offset="1" stop-color="#42526B" stop-opacity="0.2"/>
</linearGradient>
<linearGradient id="paint12_linear_1592_61" x1="56.5" y1="0" x2="56.5" y2="10" gradientUnits="userSpaceOnUse">
<stop stop-color="#42526B"/>
<stop offset="1" stop-color="#42526B" stop-opacity="0.2"/>
</linearGradient>
<linearGradient id="paint13_linear_1592_61" x1="56.5" y1="0" x2="56.5" y2="10" gradientUnits="userSpaceOnUse">
<stop stop-color="#42526B"/>
<stop offset="1" stop-color="#42526B" stop-opacity="0.2"/>
</linearGradient>
<linearGradient id="paint14_linear_1592_61" x1="56.5" y1="0" x2="56.5" y2="10" gradientUnits="userSpaceOnUse">
<stop stop-color="#42526B"/>
<stop offset="1" stop-color="#42526B" stop-opacity="0.2"/>
</linearGradient>
<linearGradient id="paint15_linear_1592_61" x1="56.5" y1="0" x2="56.5" y2="10" gradientUnits="userSpaceOnUse">
<stop stop-color="#42526B"/>
<stop offset="1" stop-color="#42526B" stop-opacity="0.2"/>
</linearGradient>
<linearGradient id="paint16_linear_1592_61" x1="56.5" y1="0" x2="56.5" y2="10" gradientUnits="userSpaceOnUse">
<stop stop-color="#42526B"/>
<stop offset="1" stop-color="#42526B" stop-opacity="0.2"/>
</linearGradient>
<linearGradient id="paint17_linear_1592_61" x1="56.5" y1="0" x2="56.5" y2="10" gradientUnits="userSpaceOnUse">
<stop stop-color="#42526B"/>
<stop offset="1" stop-color="#42526B" stop-opacity="0.2"/>
</linearGradient>
</defs>
</svg>
