<svg width="142" height="36" viewBox="0 0 142 36" fill="none" xmlns="http://www.w3.org/2000/svg">
<path d="M20.943 1.45643C20.1496 1.19325 19.3562 0.930071 18.5848 0.666893C17.6151 0.315989 16.6675 1.3029 16.7115 2.59686C16.7997 5.05319 16.8878 7.48759 16.976 9.94392C16.998 10.7554 16.6013 11.5011 15.9843 11.8081C14.7501 12.4003 13.4939 12.9705 12.2377 13.5407C10.9815 12.9924 9.72529 12.4003 8.49113 11.8081C7.852 11.5011 7.47735 10.7554 7.49939 9.94392C7.58754 7.48759 7.67569 5.05319 7.76385 2.59686C7.80793 1.28097 6.86027 0.315989 5.89056 0.666893C5.09717 0.930071 4.32582 1.21518 3.53243 1.45643C2.89331 1.67574 2.40846 2.37755 2.34235 3.23288C2.12196 6.12784 1.87953 9.0228 1.65915 11.8958C1.59303 12.7073 1.96769 13.453 2.58477 13.7819C3.9732 14.5057 3.84097 16.8743 2.32031 17.4226C1.63711 17.6638 1.13022 18.3437 1.0641 19.1552C0.711485 23.5634 0.358866 27.9936 0.00624768 32.4018C-0.0598683 33.2571 0.402942 34.0467 1.19633 34.3537C2.144 34.7265 3.1137 35.0994 4.0834 35.4722C5.29552 35.9328 6.5958 35.0336 6.63988 33.7177C6.77211 29.7481 6.92638 25.7785 7.05861 21.7869C7.08065 20.9755 7.5655 20.2737 8.2487 20.0105C9.59306 19.4841 10.9154 18.9578 12.2377 18.3876C13.56 18.9358 14.8823 19.4841 16.2267 20.0105C16.9099 20.2737 17.3947 20.9755 17.4168 21.7869C17.549 25.7565 17.7033 29.7261 17.8355 33.7177C17.8796 35.0336 19.1799 35.9108 20.392 35.4722C21.3617 35.0994 22.3314 34.7265 23.2791 34.3537C24.0504 34.0467 24.5353 33.2571 24.4691 32.4018C24.1165 27.9936 23.7639 23.5634 23.4113 19.1552C23.3452 18.3437 22.8603 17.6638 22.1551 17.4226C20.6344 16.8962 20.5022 14.5057 21.8906 13.7819C22.5297 13.453 22.8824 12.6854 22.8162 11.8958C22.5959 9.00086 22.3534 6.10591 22.133 3.23288C22.0669 2.37755 21.5821 1.65381 20.943 1.45643Z" fill="white"/>
<path d="M40.9532 8.21143H45.3169V14.8786H52.3252V8.21143H56.6888V25.1864H52.3252V18.278H45.3169V25.1864H40.9532V8.21143Z" fill="white"/>
<path d="M62.4189 8.21143H66.7606V18.3657C66.7606 19.3746 67.0471 20.1641 67.598 20.7343C68.149 21.3045 68.9424 21.5897 69.9562 21.5897C70.9479 21.5897 71.7413 21.3045 72.3143 20.7563C72.8873 20.208 73.1738 19.3965 73.1738 18.3657V8.21143H77.5374V18.6289C77.5374 20.7563 76.8543 22.423 75.4658 23.6293C74.0774 24.8355 72.2482 25.4277 69.9341 25.4277C68.6559 25.4277 67.5319 25.2741 66.5842 24.9452C65.6145 24.6162 64.8212 24.1556 64.2261 23.5416C63.6311 22.9275 63.1683 22.2257 62.8818 21.4142C62.5952 20.6027 62.441 19.6597 62.441 18.6289V8.21143H62.4189Z" fill="white"/>
<path d="M83.2423 8.21143H88.5977L92.3222 16.677H92.4985L96.157 8.21143H101.534V25.1864H97.303V18.7824L97.5454 14.1987H97.3691L92.4104 24.9452L87.4517 14.1987H87.2533L87.4958 18.8263V25.1864H83.2423V8.21143Z" fill="white"/>
<path d="M111.612 8.21143H116.703L122.873 25.1864H118.069L117.254 22.6204H111.105L110.267 25.1864H105.749L111.612 8.21143ZM116.196 19.2868L115.689 17.7078L114.322 12.7732H114.168L112.692 17.7078L112.185 19.2868H116.196Z" fill="white"/>
<path d="M126.639 8.21143H131.642L137.725 19.0017H137.901L137.659 14.2207V8.21143H142V25.1864H137.019L130.981 14.5058H130.805L131.025 19.1333V25.1864H126.661V8.21143H126.639Z" fill="white"/>
</svg>
