<svg width="161" height="18" viewBox="0 0 161 18" fill="none" xmlns="http://www.w3.org/2000/svg">
<path d="M18.3582 0.594238V6.60995H4.58961V0.594238H0V17.1375H4.58961V11.1217H18.3582V17.1375H22.9478V0.594238H18.3582Z" fill="white"/>
<path d="M105.558 11.1221H100.968V17.1377H105.558V11.1221Z" fill="white"/>
<path d="M105.557 0.594238H100.968V6.60995H87.1994V0.594238H82.6097V17.1375H87.1994V11.1217H100.968L105.557 6.60995V0.594238Z" fill="white"/>
<path d="M47.4246 0.594238H27.5364V17.1375H32.126V11.1217H45.8947V17.1375H50.4842V0.594238H47.4246ZM32.126 6.60995V5.10602H45.8947V6.60995H32.126Z" fill="white"/>
<path d="M78.0208 5.10602V0.594238H59.663H58.1331H55.0734V17.1375H58.1331H59.663H78.0208V12.6257H59.663V5.10602H78.0208Z" fill="white"/>
<path d="M133.094 5.10602V0.594238H114.736H113.206H110.147V17.1375H113.206H114.736H133.094V12.6257H114.736V11.1217H133.094V6.60995H114.736V5.10602H133.094Z" fill="white"/>
<path d="M156.042 0.594238V11.1217L142.272 0.594238H137.684V17.1375H142.272V6.60995L156.042 17.1375H160.631V0.594238H156.042Z" fill="white"/>
</svg>
