<svg width="56" height="64" viewBox="0 0 56 64" fill="none" xmlns="http://www.w3.org/2000/svg">
<path d="M33.7247 52.7241C29.8077 52.7241 26.3603 52.3482 23.3825 51.5965C20.4275 50.8447 17.6788 49.9108 15.1362 48.7945V36.6984H16.3044C18.8699 38.8625 21.6988 40.5254 24.7912 41.6872C27.8836 42.849 30.8843 43.4299 33.7934 43.4299C34.5264 43.4299 35.4885 43.3501 36.6796 43.1907C37.8936 43.0312 38.8671 42.7807 39.6001 42.439C40.4935 42.0517 41.2494 41.5164 41.8679 40.833C42.4863 40.1268 42.7956 39.2042 42.7956 38.0652C42.7956 36.7895 42.2916 35.7531 41.2838 34.9558C40.2759 34.1585 39.0733 33.5776 37.676 33.2131C35.9351 32.7575 34.0683 32.3247 32.0754 31.9146C30.1055 31.5046 28.2615 31.0034 26.5435 30.4112C22.5807 29.0216 19.7403 27.1536 18.0224 24.8073C16.3044 22.461 15.4454 19.5224 15.4454 15.9915C15.4454 11.2305 17.4726 7.38069 21.527 4.44208C25.5815 1.48069 30.6438 0 36.7139 0C39.7605 0 42.7841 0.307529 45.7849 0.922586C48.8085 1.53764 53.2693 2.62065 55.6516 3.66853V15.2561H53.859C51.9578 13.6387 48.5336 12.0506 45.7849 10.9344C43.059 9.81814 40.253 9.26003 37.3668 9.26003C36.2444 9.26003 35.2365 9.33976 34.3431 9.49922C33.4498 9.65868 32.5106 9.9662 31.5257 10.4218C30.7239 10.7863 30.0253 11.333 29.4297 12.062C28.8571 12.7681 28.5707 13.5654 28.5707 14.4538C28.5707 15.7523 29.0289 16.7888 29.9451 17.5633C30.8843 18.315 32.6824 18.9984 35.3396 19.6135C37.0575 20.0008 38.7068 20.3766 40.2873 20.7411C41.8908 21.1056 43.5973 21.6067 45.4069 22.2446C48.9574 23.5202 51.5916 25.2401 53.3096 27.4042C55.0505 29.5455 55.9209 32.3816 55.9209 35.9125C55.9209 40.9696 53.9166 45.0359 49.908 48.1111C45.9223 51.1864 40.5279 52.7241 33.7247 52.7241Z" fill="url(#paint0_linear_1530_725)"/>
<path d="M8.83221 0V62.9441" stroke="url(#paint1_linear_1530_725)" stroke-width="1.45821"/>
<path d="M1 0.190918V63.0395" stroke="url(#paint2_linear_1530_725)" stroke-width="1.45821"/>
<path d="M4.91611 0V62.9441" stroke="url(#paint3_linear_1530_725)" stroke-width="1.45821"/>
<path d="M14.8151 60.9C14.8151 60.544 14.8791 60.224 15.0071 59.94C15.1351 59.656 15.3071 59.428 15.5231 59.256C15.7391 59.08 15.9791 58.948 16.2431 58.86C16.5071 58.768 16.7831 58.722 17.0711 58.722C17.5311 58.722 17.9551 58.814 18.3431 58.998V59.664C18.0191 59.456 17.6271 59.352 17.1671 59.352C16.7111 59.352 16.3211 59.482 15.9971 59.742C15.6771 60.002 15.5171 60.388 15.5171 60.9C15.5171 61.188 15.5651 61.438 15.6611 61.65C15.7571 61.858 15.8871 62.018 16.0511 62.13C16.2151 62.242 16.3871 62.324 16.5671 62.376C16.7511 62.428 16.9451 62.454 17.1491 62.454C17.3971 62.454 17.6071 62.414 17.7791 62.334V60.744H18.4451V62.796C18.0251 62.984 17.5791 63.078 17.1071 63.078C16.8031 63.078 16.5191 63.038 16.2551 62.958C15.9911 62.874 15.7491 62.748 15.5291 62.58C15.3091 62.412 15.1351 62.184 15.0071 61.896C14.8791 61.608 14.8151 61.276 14.8151 60.9ZM24.7817 63H24.0977V58.8H25.7777C25.9857 58.8 26.1797 58.822 26.3597 58.866C26.5437 58.91 26.7157 58.982 26.8757 59.082C27.0357 59.178 27.1617 59.314 27.2537 59.49C27.3457 59.666 27.3917 59.874 27.3917 60.114C27.3917 60.466 27.2977 60.744 27.1097 60.948C26.9217 61.148 26.6757 61.284 26.3717 61.356L27.7157 63H26.8937L25.6337 61.428H24.7817V63ZM24.7817 59.424V60.822H25.8077C26.0637 60.822 26.2757 60.768 26.4437 60.66C26.6117 60.552 26.6957 60.374 26.6957 60.126C26.6957 59.878 26.6117 59.7 26.4437 59.592C26.2757 59.48 26.0637 59.424 25.8077 59.424H24.7817ZM32.92 61.71C32.828 61.454 32.782 61.184 32.782 60.9C32.782 60.616 32.828 60.346 32.92 60.09C33.016 59.834 33.152 59.604 33.328 59.4C33.504 59.192 33.736 59.028 34.024 58.908C34.312 58.784 34.634 58.722 34.99 58.722C35.346 58.722 35.666 58.784 35.95 58.908C36.238 59.028 36.47 59.192 36.646 59.4C36.826 59.604 36.962 59.834 37.054 60.09C37.15 60.346 37.198 60.616 37.198 60.9C37.198 61.184 37.15 61.454 37.054 61.71C36.962 61.966 36.826 62.198 36.646 62.406C36.47 62.61 36.238 62.774 35.95 62.898C35.666 63.018 35.346 63.078 34.99 63.078C34.634 63.078 34.312 63.018 34.024 62.898C33.736 62.774 33.504 62.61 33.328 62.406C33.152 62.198 33.016 61.966 32.92 61.71ZM36.106 61.992C36.37 61.696 36.502 61.332 36.502 60.9C36.502 60.468 36.37 60.104 36.106 59.808C35.846 59.512 35.474 59.364 34.99 59.364C34.51 59.364 34.138 59.512 33.874 59.808C33.61 60.104 33.478 60.468 33.478 60.9C33.478 61.332 33.61 61.696 33.874 61.992C34.138 62.288 34.51 62.436 34.99 62.436C35.474 62.436 35.846 62.288 36.106 61.992ZM45.6124 58.8H46.2964V61.446C46.2964 61.738 46.2464 61.994 46.1464 62.214C46.0504 62.43 45.9164 62.6 45.7444 62.724C45.5764 62.844 45.3884 62.934 45.1804 62.994C44.9764 63.05 44.7524 63.078 44.5084 63.078C44.2644 63.078 44.0384 63.05 43.8304 62.994C43.6224 62.934 43.4324 62.844 43.2604 62.724C43.0884 62.6 42.9524 62.43 42.8524 62.214C42.7564 61.994 42.7084 61.738 42.7084 61.446V58.8H43.3924V61.41C43.3924 62.098 43.7644 62.442 44.5084 62.442C45.2444 62.442 45.6124 62.098 45.6124 61.41V58.8ZM52.0739 58.8H53.5739C54.7699 58.8 55.3679 59.26 55.3679 60.18C55.3679 61.1 54.7699 61.56 53.5739 61.56H52.7579V63H52.0739V58.8ZM54.3839 60.774C54.5759 60.662 54.6719 60.464 54.6719 60.18C54.6719 59.896 54.5759 59.7 54.3839 59.592C54.1959 59.48 53.9379 59.424 53.6099 59.424H52.7579V60.936H53.6099C53.9379 60.936 54.1959 60.882 54.3839 60.774Z" fill="#42526B"/>
<defs>
<linearGradient id="paint0_linear_1530_725" x1="35.5285" y1="0" x2="35.5285" y2="52.7241" gradientUnits="userSpaceOnUse">
<stop stop-color="#42526B"/>
<stop offset="1" stop-color="#42526B" stop-opacity="0"/>
<stop offset="1" stop-color="#42526B" stop-opacity="0.2"/>
</linearGradient>
<linearGradient id="paint1_linear_1530_725" x1="-77074.1" y1="64.0294" x2="-77074.1" y2="9.76033e-08" gradientUnits="userSpaceOnUse">
<stop stop-color="#42526B"/>
<stop offset="1" stop-color="#42526B" stop-opacity="0.2"/>
</linearGradient>
<linearGradient id="paint2_linear_1530_725" x1="-247101" y1="64.1231" x2="-247101" y2="0.190919" gradientUnits="userSpaceOnUse">
<stop stop-color="#42526B"/>
<stop offset="1" stop-color="#42526B" stop-opacity="0.2"/>
</linearGradient>
<linearGradient id="paint3_linear_1530_725" x1="-247097" y1="62.9441" x2="-247097" y2="7.31234e-07" gradientUnits="userSpaceOnUse">
<stop stop-color="#42526B"/>
<stop offset="1" stop-color="#42526B" stop-opacity="0.2"/>
</linearGradient>
</defs>
</svg>
