<svg width="117" height="48" viewBox="0 0 117 48" fill="none" xmlns="http://www.w3.org/2000/svg">
<path d="M3.88284 0.134241L9.02425 14.5517L14.1121 0.134241H17.9949L10.5774 19.1964H7.47112L0 0.134241H3.88284Z" fill="white"/>
<path d="M19.9993 19.1964V0.161088H23.6947V19.1964H19.9993Z" fill="white"/>
<path d="M27.6615 19.1964V0.134241H36.0698C36.9446 0.134241 37.7479 0.322178 38.4798 0.698053C39.2296 1.05603 39.8723 1.53929 40.4079 2.14785C40.9434 2.73851 41.363 3.41867 41.6665 4.18831C41.9699 4.94006 42.1217 5.70076 42.1217 6.47041C42.1217 7.70542 41.8093 8.83305 41.1844 9.85328C40.5775 10.8556 39.7473 11.5805 38.6941 12.028L43.166 19.1964H38.9886L34.9987 12.8066H31.3568V19.1964H27.6615ZM31.3568 9.55795H35.9895C36.3287 9.55795 36.6411 9.4774 36.9267 9.31631C37.2302 9.15522 37.4891 8.94044 37.7033 8.67196C37.9175 8.38558 38.0871 8.05445 38.2121 7.67857C38.337 7.3027 38.3995 6.89998 38.3995 6.47041C38.3995 6.02294 38.3281 5.61127 38.1853 5.23539C38.0425 4.85952 37.8461 4.53734 37.5962 4.26886C37.3641 3.98248 37.0874 3.76769 36.766 3.6245C36.4626 3.46341 36.1501 3.38287 35.8288 3.38287H31.3568V9.55795Z" fill="white"/>
<path d="M58.907 15.9478V19.1964H45.7054V0.134241H58.666V3.38287H49.4007V7.9739H57.4074V10.9809H49.4007V15.9478H58.907Z" fill="white"/>
<path d="M72.985 5.128C72.8601 5.00271 72.628 4.83267 72.2888 4.61788C71.9675 4.4031 71.5658 4.19726 71.0838 4.00038C70.6196 3.78559 70.1108 3.6066 69.5574 3.46341C69.004 3.32022 68.4417 3.24863 67.8704 3.24863C66.8528 3.24863 66.0941 3.43656 65.5942 3.81244C65.0944 4.18831 64.8444 4.71633 64.8444 5.39648C64.8444 5.79025 64.9337 6.12138 65.1122 6.38986C65.3086 6.64045 65.5853 6.86418 65.9424 7.06107C66.2994 7.25795 66.7457 7.43694 67.2813 7.59803C67.8347 7.75912 68.4684 7.92916 69.1825 8.10814C70.1108 8.35873 70.9499 8.62721 71.6997 8.91359C72.4673 9.19997 73.11 9.55795 73.6277 9.98752C74.1633 10.4171 74.5739 10.9362 74.8595 11.5447C75.1451 12.1354 75.2879 12.8692 75.2879 13.7463C75.2879 14.7665 75.0916 15.6435 74.6988 16.3774C74.3239 17.0933 73.8151 17.675 73.1725 18.1225C72.5298 18.57 71.78 18.9011 70.9231 19.1159C70.0662 19.3128 69.1736 19.4112 68.2453 19.4112C66.8171 19.4112 65.4068 19.1964 64.0143 18.7669C62.6219 18.3373 61.3722 17.7287 60.2654 16.9412L61.8988 13.7463C62.0595 13.9073 62.3451 14.1221 62.7557 14.3906C63.1842 14.6412 63.6841 14.9007 64.2553 15.1692C64.8266 15.4198 65.4603 15.6346 66.1566 15.8136C66.8528 15.9926 67.5669 16.0821 68.2988 16.0821C70.334 16.0821 71.3515 15.4287 71.3515 14.1221C71.3515 13.6926 71.2355 13.3346 71.0034 13.0482C70.7714 12.7618 70.4411 12.5112 70.0126 12.2965C69.5842 12.0817 69.0665 11.8848 68.4595 11.7058C67.8525 11.5268 67.1741 11.3389 66.4244 11.142C65.5139 10.8914 64.7195 10.6229 64.0411 10.3365C63.3806 10.0323 62.8272 9.68324 62.3809 9.28946C61.9345 8.89569 61.5954 8.43032 61.3633 7.89336C61.1491 7.3564 61.0419 6.72099 61.0419 5.98714C61.0419 5.02061 61.2205 4.16147 61.5775 3.40972C61.9345 2.65797 62.4255 2.03151 63.0503 1.53034C63.693 1.02918 64.4338 0.653305 65.2729 0.402722C66.1119 0.134241 67.0135 0 67.9775 0C69.3164 0 70.5482 0.214785 71.6729 0.644356C72.7976 1.05603 73.7794 1.54824 74.6185 2.121L72.985 5.128Z" fill="white"/>
<path d="M78.5937 15.8404C78.5937 13.7222 80.3064 12.005 82.4192 12.005C84.5319 12.005 86.2446 13.7222 86.2446 15.8404C86.2446 17.9587 84.5319 19.6759 82.4192 19.6759C80.3064 19.6759 78.5937 17.9587 78.5937 15.8404Z" fill="#7EE989"/>
<path d="M3.98159 47.8389V28.7767H16.7548V32.0253H7.67698V36.9386H15.2284V39.9456H7.67698V47.8389H3.98159Z" fill="white"/>
<path d="M19.2797 47.8389V28.8036H22.9751V47.8389H19.2797Z" fill="white"/>
<path d="M30.6372 35.623V47.8389H26.9418V28.7767H29.8071L39.715 41.288V28.8036H43.4104V47.8389H40.4112L30.6372 35.623Z" fill="white"/>
<path d="M45.4374 47.8389L52.9353 28.7767H55.9344L63.4055 47.8389H59.4959L57.7553 43.0868H51.0876L49.347 47.8389H45.4374ZM54.4348 32.7771L51.7035 40.4825H57.0859L54.4348 32.7771Z" fill="white"/>
<path d="M69.1308 35.623V47.8389H65.4355V28.7767H68.3007L78.2086 41.288V28.8036H81.904V47.8389H78.9049L69.1308 35.623Z" fill="white"/>
<path d="M84.7344 38.1736C84.7344 37.0102 84.9397 35.8646 85.3503 34.737C85.7609 33.5915 86.35 32.5713 87.1176 31.6763C87.9031 30.7814 88.8582 30.0565 89.9829 29.5016C91.1076 28.9468 92.3929 28.6693 93.839 28.6693C95.5349 28.6693 96.9988 29.0541 98.2306 29.8238C99.4802 30.5934 100.4 31.5958 100.989 32.8308L98.1502 34.7907C97.936 34.2537 97.6593 33.8063 97.3201 33.4483C96.9809 33.0724 96.606 32.7771 96.1954 32.5623C95.8027 32.3475 95.3921 32.1954 94.9636 32.1059C94.5352 31.9985 94.1246 31.9448 93.7318 31.9448C92.8571 31.9448 92.0895 32.1327 91.4289 32.5086C90.7684 32.8845 90.215 33.3767 89.7687 33.9853C89.3402 34.5759 89.01 35.2561 88.7779 36.0257C88.5637 36.7775 88.4565 37.5292 88.4565 38.281C88.4565 39.1222 88.5815 39.9366 88.8314 40.7242C89.0992 41.4938 89.4652 42.174 89.9293 42.7646C90.4114 43.3553 90.9826 43.8296 91.6432 44.1876C92.3037 44.5455 93.0267 44.7245 93.8122 44.7245C94.2228 44.7245 94.6423 44.6708 95.0708 44.5634C95.4992 44.456 95.9098 44.286 96.3026 44.0533C96.7132 43.8206 97.088 43.5253 97.4272 43.1673C97.7664 42.7915 98.0431 42.344 98.2574 41.8249L101.283 43.5701C100.998 44.286 100.578 44.9214 100.025 45.4763C99.4892 46.0132 98.8733 46.4697 98.177 46.8455C97.4808 47.2214 96.7488 47.5078 95.9812 47.7047C95.2136 47.9016 94.4548 48 93.7051 48C92.384 48 91.1701 47.7136 90.0632 47.1409C88.9743 46.5681 88.0281 45.8253 87.2247 44.9125C86.4392 43.9817 85.8233 42.9347 85.377 41.7712C84.9486 40.5899 84.7344 39.3907 84.7344 38.1736Z" fill="white"/>
<path d="M117 44.5903V47.8389H103.798V28.7767H116.759V32.0253H107.494V36.6164H115.5V39.6234H107.494V44.5903H117Z" fill="white"/>
</svg>
