<svg width="119" height="32" viewBox="0 0 119 32" fill="none" xmlns="http://www.w3.org/2000/svg">
<path d="M53.7745 8.02392V25.1059H48.9683V8.02392H43.2334V3.76074H59.5152V8.02392H53.7745Z" fill="url(#paint0_linear_2052_1089)"/>
<path d="M68.7424 25.1062L68.4212 24.1134C66.6284 25.1062 65.0224 25.4274 63.9653 25.4274C61.0804 25.4274 59.8949 23.3425 59.8949 20.6853C59.8949 17.5434 61.3373 16.2937 64.5435 16.2937H67.9073V15.1082C67.9073 13.5022 67.6212 12.9591 65.1509 12.9591C63.7726 12.9591 62.3944 13.1167 60.9169 13.4087L60.3095 9.94564C61.7812 9.49604 64.123 9.1748 65.9159 9.1748C71.3354 9.1748 72.5209 10.8099 72.5209 15.1374V25.1062H68.7424ZM67.9132 19.4998H65.6998C64.707 19.4998 64.3216 19.7568 64.3216 20.6211C64.3216 21.4854 64.672 21.8358 65.5713 21.8358C66.5349 21.8358 67.2065 21.6139 67.9132 21.2927V19.4998Z" fill="url(#paint1_linear_2052_1089)"/>
<path d="M80.0253 19.1436C80.0253 20.7437 80.6969 21.4854 82.5599 21.4854C83.7454 21.4854 84.6447 21.3569 85.766 21.1L86.3441 24.9485C84.7732 25.2989 83.6519 25.4274 82.5599 25.4274C77.4966 25.4274 75.4117 23.5352 75.4117 19.0793V15.5228C75.4117 11.0669 77.4966 9.1748 82.5599 9.1748C83.6519 9.1748 84.7732 9.30328 86.3441 9.65364L85.766 13.5022C84.8024 13.2803 83.4592 13.1167 82.5599 13.1167C80.7027 13.1167 80.0253 13.8526 80.0253 15.4586V19.1436Z" fill="url(#paint2_linear_2052_1089)"/>
<path d="M93.0425 18.9217V19.3714C93.0425 21.1642 93.7491 21.6489 95.8632 21.6489C97.3057 21.6489 99.227 21.392 100.605 20.9774L101.277 24.4405C99.8636 24.9544 97.5919 25.4333 95.4136 25.4333C90.3503 25.4333 88.4231 22.9337 88.4231 19.0852V15.4294C88.4231 12.0656 89.9298 9.18066 95.1216 9.18066C100.313 9.18066 101.435 12.2583 101.435 15.6571V18.9275H93.0425V18.9217ZM97.0779 14.787C97.0779 13.6949 96.7567 12.8014 95.1566 12.8014C93.5564 12.8014 93.0425 13.7007 93.0425 14.787V15.4586H97.0838V14.787H97.0779Z" fill="url(#paint3_linear_2052_1089)"/>
<path d="M113.909 25.1062V14.787C113.909 14.0803 113.588 13.6657 112.787 13.6657C111.952 13.6657 110.416 14.2438 109.424 14.787V25.1062H104.81V9.49605H108.238L108.717 10.6815C110.638 9.75294 113.138 9.1748 114.937 9.1748C117.6 9.1748 118.528 11.1603 118.528 14.1738V25.1062H113.909Z" fill="url(#paint4_linear_2052_1089)"/>
<path d="M10.2774 17.6305L9.20337 17.013V17.0098L10.2774 17.6305Z" fill="url(#paint5_linear_2052_1089)"/>
<path d="M22.7096 9.21231V27.6311L15.9533 31.5297L9.20349 27.6311V17.7681L9.95236 18.1984L13.5063 20.2544V25.1481L15.9533 26.5604L18.4036 25.1481V11.6986L16.6135 10.664L20.9162 8.17773L22.7096 9.21231Z" fill="url(#paint6_linear_2052_1089)"/>
<path d="M10.2774 17.6305L9.20337 17.013V17.0098L10.2774 17.6305Z" fill="url(#paint7_linear_2052_1089)"/>
<path d="M10.2774 17.6305L9.20337 17.013V17.0098L10.2774 17.6305Z" fill="url(#paint8_linear_2052_1089)"/>
<path d="M10.2774 17.6305L9.20337 17.013V17.0098L10.2774 17.6305Z" fill="url(#paint9_linear_2052_1089)"/>
<path d="M17.7465 14.9045V19.8737L15.9531 20.9083L14.1631 19.8737L13.5061 19.4928L11.6537 18.422L10.2807 17.6305L10.2774 17.6305L9.20337 17.0098L8.54645 16.6321L6.75307 15.5975L5.67574 14.9734L0 11.6989V3.90184L6.75307 0L15.2995 4.93642L11.4763 7.14352H11.473L10.9935 7.4227L10.2774 7.00886L9.20336 6.38483L6.75307 4.97255L4.30606 6.38483V9.21268L7.82713 11.249L8.54645 11.6628L9.20336 12.0438L11.0559 13.1112L13.5061 14.5268L14.1631 14.9045L15.9531 15.9391L17.7465 14.9045Z" fill="url(#paint10_linear_2052_1089)"/>
<path d="M31.9096 3.90184V11.6989L26.2306 14.9734L25.1565 15.5975L23.3664 16.6321V11.6595L25.1565 10.6282L27.6068 9.21268V6.38483L25.1565 4.97255L22.7095 6.38483L21.6322 7.00886L20.9161 7.4227L18.4034 8.86782L15.9564 10.2834H15.9531L13.5061 11.6989V13.7681L12.7573 13.3345L11.3843 12.543L9.20337 11.2818V9.21268L10.9935 8.1781L11.6504 7.8004H11.6537L15.9531 5.31412L16.6101 4.93642L25.1565 0L31.9096 3.90184Z" fill="url(#paint11_linear_2052_1089)"/>
<defs>
<linearGradient id="paint0_linear_2052_1089" x1="59.264" y1="0" x2="59.264" y2="34" gradientUnits="userSpaceOnUse">
<stop stop-color="#43536D"/>
<stop offset="1" stop-color="#43536D" stop-opacity="0"/>
</linearGradient>
<linearGradient id="paint1_linear_2052_1089" x1="59.264" y1="0" x2="59.264" y2="34" gradientUnits="userSpaceOnUse">
<stop stop-color="#43536D"/>
<stop offset="1" stop-color="#43536D" stop-opacity="0"/>
</linearGradient>
<linearGradient id="paint2_linear_2052_1089" x1="59.264" y1="0" x2="59.264" y2="34" gradientUnits="userSpaceOnUse">
<stop stop-color="#43536D"/>
<stop offset="1" stop-color="#43536D" stop-opacity="0"/>
</linearGradient>
<linearGradient id="paint3_linear_2052_1089" x1="59.264" y1="0" x2="59.264" y2="34" gradientUnits="userSpaceOnUse">
<stop stop-color="#43536D"/>
<stop offset="1" stop-color="#43536D" stop-opacity="0"/>
</linearGradient>
<linearGradient id="paint4_linear_2052_1089" x1="59.264" y1="0" x2="59.264" y2="34" gradientUnits="userSpaceOnUse">
<stop stop-color="#43536D"/>
<stop offset="1" stop-color="#43536D" stop-opacity="0"/>
</linearGradient>
<linearGradient id="paint5_linear_2052_1089" x1="59.264" y1="0" x2="59.264" y2="34" gradientUnits="userSpaceOnUse">
<stop stop-color="#43536D"/>
<stop offset="1" stop-color="#43536D" stop-opacity="0"/>
</linearGradient>
<linearGradient id="paint6_linear_2052_1089" x1="59.264" y1="0" x2="59.264" y2="34" gradientUnits="userSpaceOnUse">
<stop stop-color="#43536D"/>
<stop offset="1" stop-color="#43536D" stop-opacity="0"/>
</linearGradient>
<linearGradient id="paint7_linear_2052_1089" x1="59.264" y1="0" x2="59.264" y2="34" gradientUnits="userSpaceOnUse">
<stop stop-color="#43536D"/>
<stop offset="1" stop-color="#43536D" stop-opacity="0"/>
</linearGradient>
<linearGradient id="paint8_linear_2052_1089" x1="59.264" y1="0" x2="59.264" y2="34" gradientUnits="userSpaceOnUse">
<stop stop-color="#43536D"/>
<stop offset="1" stop-color="#43536D" stop-opacity="0"/>
</linearGradient>
<linearGradient id="paint9_linear_2052_1089" x1="59.264" y1="0" x2="59.264" y2="34" gradientUnits="userSpaceOnUse">
<stop stop-color="#43536D"/>
<stop offset="1" stop-color="#43536D" stop-opacity="0"/>
</linearGradient>
<linearGradient id="paint10_linear_2052_1089" x1="59.264" y1="0" x2="59.264" y2="34" gradientUnits="userSpaceOnUse">
<stop stop-color="#43536D"/>
<stop offset="1" stop-color="#43536D" stop-opacity="0"/>
</linearGradient>
<linearGradient id="paint11_linear_2052_1089" x1="59.264" y1="0" x2="59.264" y2="34" gradientUnits="userSpaceOnUse">
<stop stop-color="#43536D"/>
<stop offset="1" stop-color="#43536D" stop-opacity="0"/>
</linearGradient>
</defs>
</svg>
