<svg width="145" height="42" viewBox="0 0 145 42" fill="none" xmlns="http://www.w3.org/2000/svg">
<path d="M83.742 13.474H78.6176V31.3396H83.742V13.474Z" fill="url(#paint0_linear_2023_695)"/>
<path d="M75.3078 20.7716C74.7495 19.7547 73.9718 18.8973 73.0147 18.2393C74.1911 16.9033 74.889 15.1287 74.8093 13.1747C74.6298 9.32641 71.3398 6.33552 67.4915 6.33552H56.8041V31.3195H69.0269C72.9749 31.3195 76.1851 28.1092 76.1851 24.1612C76.1851 22.9449 75.8661 21.7885 75.3078 20.7716ZM68.2293 27.0923H61.9285V20.971H68.2094C69.8643 20.971 71.2601 22.287 71.2601 24.0416C71.2202 25.7763 69.8444 27.0923 68.2293 27.0923ZM66.8734 16.7239H61.9085V10.6025H66.8535C68.5084 10.6025 69.9042 11.9185 69.9042 13.6732C69.8843 15.4079 68.4885 16.7239 66.8734 16.7239Z" fill="url(#paint1_linear_2023_695)"/>
<path d="M144.417 7.09356H138.515L133.909 14.491L129.303 7.09356H123.401L130.958 19.2166L123.401 31.3397H129.303L133.909 23.9423L138.515 31.3397H144.417L136.86 19.2166L144.417 7.09356Z" fill="url(#paint2_linear_2023_695)"/>
<path d="M102.026 21.4098V31.3396H96.9019V20.5125C96.9019 18.9373 95.6059 17.6612 94.0107 17.721C92.4754 17.7609 91.299 19.0968 91.299 20.6322V31.3396H86.1746V13.474H91.299V14.3313C92.4555 13.793 93.7316 13.474 95.1074 13.474C95.7853 13.474 96.4433 13.5537 97.0814 13.6933C99.9327 14.3314 101.927 16.8836 102.006 19.7947C102.026 20.3131 102.026 20.8515 102.026 21.4098Z" fill="url(#paint3_linear_2023_695)"/>
<path d="M83.742 6.35549H78.6176V11.4799H83.742V6.35549Z" fill="url(#paint4_linear_2023_695)"/>
<path d="M113.172 13.474C113.152 13.474 113.113 13.474 113.093 13.474C108.168 13.474 104.16 17.4818 104.16 22.4068C104.16 27.3118 108.128 31.2997 113.013 31.3396C113.033 31.3396 113.053 31.3396 113.093 31.3396C114.987 31.3396 116.901 31.8979 116.901 33.5528C116.901 35.2277 115.186 36.6634 113.093 36.6634C110.999 36.6634 109.284 34.9685 109.284 32.855H104.16C104.16 37.78 108.168 41.7878 113.093 41.7878C118.018 41.7878 122.025 37.78 122.025 32.855C122.025 32.855 122.125 30.1831 119.872 28.229C121.228 26.6738 122.045 24.64 122.045 22.4068C122.045 20.692 121.567 19.0769 120.709 17.721H122.045V13.474H113.172ZM113.093 26.2152C110.999 26.2152 109.284 24.5203 109.284 22.4068C109.284 20.3131 110.979 18.5984 113.093 18.5984C115.186 18.5984 116.901 20.2932 116.901 22.4068C116.901 24.5004 115.186 26.2152 113.093 26.2152Z" fill="url(#paint5_linear_2023_695)"/>
<path d="M32.6775 4.18211C37.463 1.57006 42.8864 0.174316 48.3698 0.174316V10.5826C41.4657 10.5826 35.1179 13.6714 30.8696 19.0961C35.1179 24.5027 41.4656 27.6106 48.3697 27.6106V37.9989C42.8864 37.9989 37.4629 36.6231 32.6775 33.9911C30.1252 32.5954 27.7724 30.8407 25.6588 28.8069C25.2951 28.4577 24.9419 28.0978 24.5993 27.7351C24.2648 28.0959 23.9201 28.4466 23.5653 28.7872C21.4717 30.821 19.0989 32.5757 16.5467 33.9714C11.7612 36.5835 6.33774 37.9792 0.854431 37.9792V27.5908C7.7501 27.5908 14.0908 24.5096 18.339 19.0972C14.0908 13.7027 7.75007 10.6024 0.85437 10.6024V0.213979C6.33767 0.213979 11.7612 1.58979 16.5466 4.22178C19.0988 5.61753 21.4716 7.37219 23.5652 9.40599C23.9192 9.74582 24.2631 10.0957 24.597 10.4485C24.9403 10.0771 25.2943 9.71638 25.6589 9.36633C27.7525 7.33252 30.1253 5.5978 32.6775 4.18211Z" fill="url(#paint6_linear_2023_695)"/>
<defs>
<linearGradient id="paint0_linear_2023_695" x1="24.6121" y1="0.174316" x2="24.6121" y2="43.265" gradientUnits="userSpaceOnUse">
<stop stop-color="#43536D"/>
<stop offset="1" stop-color="#43536D" stop-opacity="0"/>
</linearGradient>
<linearGradient id="paint1_linear_2023_695" x1="24.6121" y1="0.174316" x2="24.6121" y2="43.265" gradientUnits="userSpaceOnUse">
<stop stop-color="#43536D"/>
<stop offset="1" stop-color="#43536D" stop-opacity="0"/>
</linearGradient>
<linearGradient id="paint2_linear_2023_695" x1="24.6121" y1="0.174316" x2="24.6121" y2="43.265" gradientUnits="userSpaceOnUse">
<stop stop-color="#43536D"/>
<stop offset="1" stop-color="#43536D" stop-opacity="0"/>
</linearGradient>
<linearGradient id="paint3_linear_2023_695" x1="24.6121" y1="0.174316" x2="24.6121" y2="43.265" gradientUnits="userSpaceOnUse">
<stop stop-color="#43536D"/>
<stop offset="1" stop-color="#43536D" stop-opacity="0"/>
</linearGradient>
<linearGradient id="paint4_linear_2023_695" x1="24.6121" y1="0.174316" x2="24.6121" y2="43.265" gradientUnits="userSpaceOnUse">
<stop stop-color="#43536D"/>
<stop offset="1" stop-color="#43536D" stop-opacity="0"/>
</linearGradient>
<linearGradient id="paint5_linear_2023_695" x1="24.6121" y1="0.174316" x2="24.6121" y2="43.265" gradientUnits="userSpaceOnUse">
<stop stop-color="#43536D"/>
<stop offset="1" stop-color="#43536D" stop-opacity="0"/>
</linearGradient>
<linearGradient id="paint6_linear_2023_695" x1="24.6121" y1="0.174316" x2="24.6121" y2="43.265" gradientUnits="userSpaceOnUse">
<stop stop-color="#43536D"/>
<stop offset="1" stop-color="#43536D" stop-opacity="0"/>
</linearGradient>
</defs>
</svg>
