<svg width="174" height="44" viewBox="0 0 174 44" fill="none" xmlns="http://www.w3.org/2000/svg">
<path fill-rule="evenodd" clip-rule="evenodd" d="M18.8952 0.543128L36.5244 11.0155C36.6321 11.0793 36.7213 11.1711 36.7827 11.2816C36.8442 11.3922 36.8757 11.5174 36.874 11.6444V14.8921L15.7407 27.497C15.6703 27.5391 15.612 27.5994 15.5715 27.6717C15.5311 27.7441 15.5099 27.826 15.5102 27.9093V30.9614C15.5099 31.0447 15.5311 31.1266 15.5715 31.1989C15.612 31.2713 15.6703 31.3315 15.7407 31.3736L18.3306 32.9169C18.4016 32.9584 18.4819 32.9802 18.5637 32.9802C18.6455 32.9802 18.7258 32.9584 18.7968 32.9169L36.8663 22.1512V32.5945C36.8664 32.7195 36.8344 32.8424 36.7735 32.9508C36.7126 33.0593 36.6249 33.1496 36.5192 33.2128L18.8952 43.6958C18.7897 43.7595 18.6694 43.7931 18.5469 43.7931C18.4243 43.7931 18.304 43.7595 18.1985 43.6958L0.566729 33.2128C0.462008 33.1512 0.374897 33.0626 0.314026 32.956C0.253154 32.8494 0.220635 32.7284 0.219687 32.6051V29.434L21.3892 16.8291C21.4583 16.785 21.515 16.7233 21.5536 16.6501C21.5922 16.5769 21.6114 16.4947 21.6094 16.4116V13.3251C21.6097 13.2418 21.5886 13.1599 21.5481 13.0875C21.5077 13.0152 21.4493 12.955 21.3789 12.9129L18.789 11.3749C18.7181 11.3334 18.6377 11.3116 18.5559 11.3116C18.4741 11.3116 18.3938 11.3334 18.3228 11.3749L0.219687 22.1565V11.6444C0.21777 11.5173 0.24917 11.392 0.310639 11.2814C0.372109 11.1709 0.461415 11.0791 0.569319 11.0155L18.1985 0.543128C18.304 0.479416 18.4243 0.445801 18.5469 0.445801C18.6694 0.445801 18.7897 0.479416 18.8952 0.543128ZM128.495 17.4435C128.067 17.2706 127.608 17.1909 127.149 17.2096C125.885 17.2078 124.961 17.6765 124.378 18.6154V13.8007H122.448V26.5642H124.378V21.6781C124.378 20.7903 124.585 20.1323 125.004 19.6989C125.22 19.4816 125.477 19.312 125.759 19.2006C126.042 19.0893 126.344 19.0385 126.646 19.0515C126.914 19.0366 127.182 19.0774 127.434 19.1715C127.686 19.2655 127.917 19.4108 128.112 19.5985C128.301 19.8096 128.446 20.0575 128.538 20.3273C128.63 20.5971 128.667 20.8831 128.648 21.1681V26.5642H130.578V20.9673C130.578 19.8011 130.263 18.8832 129.632 18.2138C129.31 17.8788 128.922 17.6164 128.495 17.4435ZM58.7513 26.5862H56.5913L54.0533 22.3317L51.4997 26.5862H49.3397L52.9655 20.5295L49.5547 14.811H51.6991L54.03 18.7299L56.3608 14.811H58.5208L55.1255 20.5295L58.7513 26.5862ZM61.2402 22.8442C61.3535 23.4833 61.7066 24.0521 62.2244 24.4297C62.776 24.813 63.4324 25.0082 64.0994 24.9873C65.125 24.9873 65.8934 24.6103 66.4044 23.8563L67.9946 24.805C67.114 26.1298 65.8096 26.7922 64.0813 26.7922C62.6293 26.7922 61.4561 26.3394 60.5617 25.4339C60.1199 24.9853 59.7732 24.4489 59.5429 23.858C59.3126 23.2671 59.2036 22.6342 59.2227 21.9986C59.2064 21.3673 59.3149 20.7391 59.5419 20.1516C59.7688 19.5641 60.1095 19.0293 60.5436 18.5792C60.9855 18.1226 61.5153 17.7645 62.0998 17.5276C62.6842 17.2906 63.3104 17.1799 63.9389 17.2024C64.5445 17.1839 65.1468 17.3001 65.704 17.5429C66.2613 17.7856 66.7601 18.1491 67.1658 18.6082C68.002 19.5355 68.4532 20.7574 68.4245 22.0171C68.4193 22.2916 68.395 22.5653 68.352 22.8363L61.2402 22.8442ZM61.2221 21.2402H66.4769C66.4046 20.6081 66.1022 20.0268 65.6298 19.6113C65.1574 19.1958 64.5493 18.9765 63.9259 18.9967C63.2789 18.9734 62.645 19.1871 62.1389 19.5992C61.6511 20.017 61.3259 20.5991 61.2221 21.2402ZM75.8064 17.4428C75.3786 17.2698 74.92 17.1903 74.4602 17.2094C73.1981 17.2076 72.2753 17.6762 71.6917 18.6152V17.4472H69.7596V26.564H71.6917V21.6779C71.6917 20.7927 71.8989 20.132 72.3158 19.6987C72.5318 19.4815 72.7893 19.3119 73.0722 19.2005C73.3551 19.0892 73.6574 19.0383 73.9604 19.0512C74.2283 19.0364 74.4964 19.0772 74.7484 19.1712C75.0003 19.2653 75.231 19.4105 75.4263 19.5982C75.6149 19.8093 75.7597 20.0573 75.8519 20.327C75.944 20.5968 75.9816 20.8829 75.9624 21.1679V26.564H77.8918V20.9671C77.8918 19.8008 77.5759 18.883 76.9439 18.2135C76.6217 17.8783 76.2342 17.6158 75.8064 17.4428ZM86.6918 17.4478H88.6212V26.5646H86.6918V25.2433C85.9632 26.2756 84.9203 26.7927 83.5632 26.7945C82.9723 26.8014 82.3867 26.6807 81.8448 26.4402C81.3029 26.1997 80.817 25.8449 80.4191 25.3992C79.9945 24.9472 79.6616 24.4141 79.4394 23.8304C79.2171 23.2468 79.11 22.6242 79.1242 21.9982C79.1073 21.3708 79.2131 20.7461 79.4354 20.1608C79.6578 19.5755 79.9922 19.0413 80.4191 18.5894C80.8182 18.1456 81.3044 17.7927 81.8462 17.5536C82.3879 17.3146 82.973 17.1948 83.5632 17.202C84.9238 17.202 85.9666 17.7129 86.6918 18.7347V17.4478ZM81.8487 24.0938C82.3914 24.6259 83.1149 24.9231 83.8675 24.9231C84.6202 24.9231 85.3436 24.6259 85.8863 24.0938C86.4039 23.5269 86.6917 22.7809 86.6917 22.0062C86.6917 21.2314 86.4039 20.4855 85.8863 19.9186C85.3436 19.3865 84.6202 19.0893 83.8675 19.0893C83.1149 19.0893 82.3914 19.3865 81.8487 19.9186C81.3312 20.4855 81.0434 21.2314 81.0434 22.0062C81.0434 22.7809 81.3312 23.5269 81.8487 24.0938ZM110.287 26.5653H112.506L109.165 21.8985L112.359 17.4485H110.095L108.039 20.3289L105.985 17.4485H103.752L106.938 21.8695L103.571 26.5547H105.824L108.057 23.4365L110.287 26.5653ZM117.212 26.8027C116.59 26.8149 115.973 26.6992 115.396 26.4627C114.82 26.2262 114.296 25.8736 113.856 25.426C113.416 24.9784 113.068 24.445 112.835 23.8575C112.601 23.27 112.486 22.6405 112.495 22.0065C112.483 21.3719 112.597 20.7412 112.829 20.1525C113.062 19.5639 113.409 19.0294 113.85 18.5813C114.291 18.1331 114.816 17.7807 115.393 17.545C115.971 17.3094 116.59 17.1956 117.212 17.2103C118.046 17.2011 118.867 17.4221 119.589 17.8498C120.278 18.2477 120.837 18.8431 121.197 19.5622L119.535 20.5478C119.339 20.1161 119.018 19.7563 118.615 19.5173C118.183 19.2634 117.692 19.1346 117.193 19.1447C116.827 19.1352 116.462 19.2031 116.123 19.3441C115.783 19.485 115.476 19.696 115.22 19.9639C114.709 20.5165 114.425 21.2472 114.425 22.0065C114.425 22.7659 114.709 23.4966 115.22 24.0492C115.476 24.317 115.783 24.528 116.123 24.669C116.462 24.81 116.827 24.8779 117.193 24.8684C117.692 24.8781 118.184 24.7483 118.615 24.4932C119.023 24.2541 119.355 23.8999 119.571 23.4731L121.234 24.4403C120.856 25.1638 120.286 25.7638 119.589 26.1712C118.867 26.5961 118.045 26.8143 117.212 26.8027ZM139.553 17.4478H141.482V26.5646H139.553V25.2433C138.824 26.2756 137.782 26.7927 136.427 26.7945C135.835 26.8014 135.249 26.6807 134.707 26.4403C134.165 26.1998 133.678 25.845 133.28 25.3992C132.855 24.9477 132.521 24.4147 132.299 23.8309C132.077 23.2472 131.97 22.6243 131.985 21.9983C131.968 21.3708 132.074 20.7461 132.296 20.1608C132.519 19.5755 132.853 19.0413 133.28 18.5894C133.68 18.1455 134.166 17.7926 134.708 17.5535C135.251 17.3145 135.836 17.1947 136.427 17.202C137.784 17.202 138.826 17.7129 139.553 18.7347V17.4478ZM134.71 24.0938C135.253 24.6261 135.977 24.9233 136.73 24.9233C137.483 24.9233 138.207 24.6261 138.75 24.0938C139.266 23.526 139.552 22.7804 139.552 22.0062C139.552 21.232 139.266 20.4863 138.75 19.9186C138.207 19.3863 137.483 19.089 136.73 19.089C135.977 19.089 135.253 19.3863 134.71 19.9186C134.194 20.4863 133.907 21.232 133.907 22.0062C133.907 22.7804 134.194 23.526 134.71 24.0938ZM149.601 17.4426C149.173 17.2697 148.715 17.1902 148.255 17.2094C146.993 17.2077 146.07 17.6763 145.486 18.6153V17.4473H143.557V26.564H145.486V21.678C145.486 20.7901 145.694 20.1321 146.111 19.6987C146.327 19.4815 146.584 19.312 146.867 19.2006C147.15 19.0892 147.452 19.0384 147.755 19.0513C148.023 19.0364 148.291 19.0773 148.543 19.1713C148.795 19.2653 149.026 19.4106 149.221 19.5983C149.41 19.8094 149.554 20.0573 149.647 20.3271C149.739 20.5969 149.776 20.8829 149.757 21.1679V26.564H151.687V20.9671C151.687 19.8009 151.371 18.883 150.739 18.2136C150.417 17.8782 150.029 17.6156 149.601 17.4426ZM160.686 17.4486H162.58V26.1452C162.58 27.5334 162.133 28.5975 161.241 29.3374C160.319 30.088 159.167 30.482 157.988 30.4499C155.926 30.4499 154.515 29.7144 153.753 28.2434L155.413 27.2577C155.88 28.1932 156.747 28.6609 158.024 28.6609C158.735 28.7034 159.435 28.466 159.979 27.9976C160.22 27.7587 160.408 27.47 160.529 27.1509C160.651 26.8319 160.705 26.4898 160.686 26.1478V25.0221C159.958 26.0791 158.922 26.6076 157.579 26.6076C156.981 26.6186 156.387 26.5018 155.837 26.2647C155.286 26.0275 154.79 25.6754 154.38 25.2309C153.542 24.3336 153.075 23.1419 153.075 21.9026C153.075 20.6633 153.542 19.4716 154.38 18.5743C154.79 18.1298 155.286 17.7776 155.837 17.5405C156.387 17.3034 156.981 17.1866 157.579 17.1976C158.925 17.1976 159.961 17.7261 160.686 18.7831V17.4486ZM155.817 23.9651C156.366 24.493 157.091 24.7871 157.845 24.7871C158.599 24.7871 159.325 24.493 159.873 23.9651C160.395 23.4189 160.687 22.6864 160.687 21.9237C160.687 21.1611 160.395 20.4286 159.873 19.8824C159.325 19.3544 158.599 19.0604 157.845 19.0604C157.091 19.0604 156.366 19.3544 155.817 19.8824C155.296 20.4286 155.004 21.1611 155.004 21.9237C155.004 22.6864 155.296 23.4189 155.817 23.9651ZM167.156 24.4297C166.64 24.051 166.288 23.4826 166.175 22.8442L173.287 22.8363C173.33 22.5653 173.354 22.2916 173.359 22.0171C173.388 20.7569 172.936 19.5345 172.098 18.6082C171.693 18.1491 171.194 17.7854 170.638 17.5427C170.081 17.2999 169.479 17.1838 168.873 17.2024C168.245 17.1799 167.619 17.2906 167.034 17.5276C166.45 17.7645 165.92 18.1226 165.478 18.5792C165.043 19.0288 164.702 19.5635 164.474 20.1511C164.247 20.7387 164.138 21.3671 164.155 21.9986C164.136 22.6344 164.246 23.2673 164.476 23.8582C164.707 24.4491 165.054 24.9854 165.496 25.4339C166.391 26.3394 167.564 26.7922 169.016 26.7922C170.744 26.7922 172.049 26.1298 172.929 24.805L171.339 23.8563C170.828 24.6103 170.06 24.9873 169.034 24.9873C168.366 25.0078 167.709 24.8127 167.156 24.4297ZM171.412 21.2402H166.157C166.259 20.5998 166.582 20.0178 167.068 19.5992C167.574 19.1871 168.208 18.9734 168.855 18.9967C169.48 18.9751 170.089 19.1939 170.563 19.6095C171.036 20.0251 171.339 20.6072 171.412 21.2402ZM97.0491 24.7039H102.187V26.5537H95.1429V14.7151H102.104V16.5649H97.0491V19.6646H101.69V21.5144H97.0491V24.7039Z" fill="url(#paint0_linear_1458_827)"/>
<defs>
<linearGradient id="paint0_linear_1458_827" x1="18.5468" y1="0.438757" x2="18.5468" y2="46.4904" gradientUnits="userSpaceOnUse">
<stop stop-color="#43536D"/>
<stop offset="1" stop-color="#43536D" stop-opacity="0.2"/>
</linearGradient>
</defs>
</svg>
