<svg width="122" height="40" viewBox="0 0 122 40" fill="none" xmlns="http://www.w3.org/2000/svg">
<path fill-rule="evenodd" clip-rule="evenodd" d="M66.5655 5.17436C66.5655 2.70365 68.5494 0.668945 71.017 0.668945C73.5331 0.668945 75.5895 2.70365 75.5895 5.17436C75.5895 7.64509 73.5331 9.67979 71.017 9.67979C68.5736 9.67979 66.5655 7.64509 66.5655 5.17436ZM64.6296 20.8461C63.686 20.6524 62.8393 20.6281 62.2587 20.6281C60.3958 20.6281 56.0169 21.3306 56.0169 27.8464V39.0858H48.3719V13.3129H55.775V17.4065L56.0653 16.7525C57.3233 14.0396 60.42 13.0707 62.6942 13.0707C63.3716 13.0707 64.0974 13.1433 64.6296 13.2887V20.8461ZM118.581 16.6076C121.049 19.2479 122.161 23.3173 121.823 28.4283L121.847 28.4525H103.485L103.533 28.6463C104.428 31.7226 106.872 33.5392 110.041 33.5392C112.46 33.5392 114.758 32.5704 116.5 30.8263L116.524 30.8021L120.419 34.7504L120.395 34.7747C117.734 37.7299 113.936 39.3043 109.436 39.3043C101.283 39.3043 96.0331 34.1933 96.0331 26.2725C96.0331 18.4001 101.356 13.0953 109.242 13.0953C113.259 13.0953 116.404 14.2822 118.581 16.6076ZM103.339 23.8744L103.315 24.0682H114.879V23.8986C114.71 20.6528 112.509 18.5454 109.267 18.5454C106.194 18.5454 103.993 20.5317 103.339 23.8744ZM74.888 13.3133H67.243V39.0863H74.888V13.3133ZM90.5395 39.5701C92.8137 39.5701 94.0958 39.0856 94.5313 38.8919V32.5697C94.0233 32.6667 93.3217 32.7877 92.596 32.7877C91.1685 32.7877 89.5476 32.4486 89.5476 29.9052V19.9739H94.6281V13.3127H89.5476V5.70675H82.7252V8.90415C82.7252 11.6171 81.1285 13.3127 78.5398 13.3127H77.3544V19.9739H81.9752V31.3101C81.9752 36.4211 85.2654 39.5701 90.5395 39.5701ZM46.1464 26.2237C46.1464 33.4421 40.2675 39.3282 33.0581 39.3282C29.5501 39.3282 26.2599 37.9475 23.7679 35.4525L23.5502 35.2346L23.3325 35.4525C20.8647 37.9475 17.5503 39.3282 13.994 39.3282C6.78452 39.3282 0.90564 33.4421 0.90564 26.2237C0.90564 19.0053 6.78452 13.1192 13.994 13.1192C16.0988 13.1192 18.4697 13.6521 20.647 14.9601C18.9294 16.8495 17.8406 18.86 17.1149 21.1369C16.1714 20.5072 14.8891 20.2407 13.994 20.2407C10.7038 20.2407 8.01836 22.9294 8.01836 26.2237C8.01836 29.518 10.7038 32.2067 13.994 32.2067C17.1875 32.2067 19.5826 29.1305 19.9697 26.2722C21.0584 18.3998 26.3082 13.1192 33.0581 13.1192C40.2675 13.1192 46.1464 19.0053 46.1464 26.2237ZM39.0337 26.2237C39.0337 22.9294 36.3483 20.2407 33.0581 20.2407C29.7437 20.2407 27.0823 22.9294 27.0823 26.2237C27.0823 29.518 29.7678 32.2067 33.0581 32.2067C36.3483 32.2067 39.0337 29.518 39.0337 26.2237Z" fill="url(#paint0_linear_1458_908)"/>
<defs>
<linearGradient id="paint0_linear_1458_908" x1="23.526" y1="0.658109" x2="23.526" y2="39.4968" gradientUnits="userSpaceOnUse">
<stop stop-color="#43536D"/>
<stop offset="1" stop-color="#43536D" stop-opacity="0.2"/>
</linearGradient>
</defs>
</svg>
