<svg width="35" height="35" viewBox="0 0 35 35" fill="none" xmlns="http://www.w3.org/2000/svg">
<g clip-path="url(#clip0_1_3)">
<circle cx="17.5" cy="17.5" r="17.5" fill="#FFC500"/>
<path d="M9.33333 8.5C8.04463 8.5 7 9.55 7 10.8333V27.1667C7 28.45 8.04463 29.5 9.33333 29.5H16.3333H18.6667H25.6667C26.9558 29.5 28 28.45 28 27.1667V10.8333C28 9.55 26.9558 8.5 25.6667 8.5H18.6667H16.3333H9.33333Z" fill="#080B11"/>
<path d="M9.33333 7.33334C8.04463 7.33334 7 8.37798 7 9.66668V26C7 27.2892 8.04463 28.3333 9.33333 28.3333H16.3333H18.6667H25.6667C26.9558 28.3333 28 27.2892 28 26V9.66668C28 8.37798 26.9558 7.33334 25.6667 7.33334H18.6667H16.3333H9.33333Z" fill="#ECF0F1"/>
<path d="M9.33333 7.33334C8.04463 7.33334 7 8.38334 7 9.66668V13.1667H28V9.66668C28 8.38334 26.9558 7.33334 25.6667 7.33334H18.6667H16.3333H9.33333Z" fill="#080B11"/>
<path d="M12.25 10.25C12.25 10.4798 12.2047 10.7074 12.1168 10.9197C12.0288 11.132 11.8999 11.3249 11.7374 11.4874C11.5749 11.6499 11.382 11.7788 11.1697 11.8668C10.9574 11.9547 10.7298 12 10.5 12C10.2702 12 10.0426 11.9547 9.8303 11.8668C9.61798 11.7788 9.42507 11.6499 9.26256 11.4874C9.10006 11.3249 8.97116 11.132 8.88321 10.9197C8.79526 10.7074 8.75 10.4798 8.75 10.25C8.75 10.0202 8.79526 9.79262 8.88321 9.5803C8.97116 9.36798 9.10006 9.17507 9.26256 9.01256C9.42507 8.85006 9.61798 8.72116 9.8303 8.63321C10.0426 8.54526 10.2702 8.5 10.5 8.5C10.7298 8.5 10.9574 8.54526 11.1697 8.63321C11.382 8.72116 11.5749 8.85006 11.7374 9.01256C11.8999 9.17507 12.0288 9.36798 12.1168 9.5803C12.2047 9.79262 12.25 10.0202 12.25 10.25Z" fill="#DFAC00"/>
<path d="M10.5 5C9.85564 5 9.33333 5.52232 9.33333 6.16667V9.66667C9.33333 10.311 9.85564 10.8333 10.5 10.8333C11.1443 10.8333 11.6667 10.311 11.6667 9.66667V6.16667C11.6667 5.52232 11.1443 5 10.5 5Z" fill="#080B11"/>
<path d="M26.25 10.25C26.25 10.4798 26.2047 10.7074 26.1168 10.9197C26.0288 11.132 25.8999 11.3249 25.7374 11.4874C25.5749 11.6499 25.382 11.7788 25.1697 11.8668C24.9574 11.9547 24.7298 12 24.5 12C24.2702 12 24.0426 11.9547 23.8303 11.8668C23.618 11.7788 23.4251 11.6499 23.2626 11.4874C23.1001 11.3249 22.9712 11.132 22.8832 10.9197C22.7953 10.7074 22.75 10.4798 22.75 10.25C22.75 10.0202 22.7953 9.79262 22.8832 9.5803C22.9712 9.36798 23.1001 9.17507 23.2626 9.01256C23.4251 8.85006 23.618 8.72116 23.8303 8.63321C24.0426 8.54526 24.2702 8.5 24.5 8.5C24.7298 8.5 24.9574 8.54526 25.1697 8.63321C25.382 8.72116 25.5749 8.85006 25.7374 9.01256C25.8999 9.17507 26.0288 9.36798 26.1168 9.5803C26.2047 9.79262 26.25 10.0202 26.25 10.25Z" fill="#DFAC00"/>
<path d="M24.5 5C23.856 5 23.3333 5.46667 23.3333 6.16667V9.66667C23.3333 10.25 23.856 10.8333 24.5 10.8333C25.144 10.8333 25.6667 10.25 25.6667 9.66667V6.16667C25.6667 5.46667 25.144 5 24.5 5Z" fill="#080B11"/>
<path d="M9.33333 16.6667V19H11.6667V16.6667H9.33333ZM12.8333 16.6667V19H15.1667V16.6667H12.8333ZM16.3333 16.6667V19H18.6667V16.6667H16.3333ZM19.8333 16.6667V19H22.1667V16.6667H19.8333ZM23.3333 16.6667V19H25.6667V16.6667H23.3333Z" fill="#080B11"/>
<path d="M9.33333 20.1667V22.5H11.6667V20.1667H9.33333ZM12.8333 20.1667V22.5H15.1667V20.1667H12.8333ZM16.3333 20.1667V22.5H18.6667V20.1667H16.3333ZM19.8333 20.1667V22.5H22.1667V20.1667H19.8333ZM23.3333 20.1667V22.5H25.6667V20.1667H23.3333Z" fill="#080B11"/>
<path d="M9.33333 23.6667V26H11.6667V23.6667H9.33333ZM12.8333 23.6667V26H15.1667V23.6667H12.8333ZM16.3333 23.6667V26H18.6667V23.6667H16.3333ZM19.8333 23.6667V26H22.1667V23.6667H19.8333ZM23.3333 23.6667V26H25.6667V23.6667H23.3333Z" fill="#080B11"/>
<path d="M28 13.1667H7V14.3333H28V13.1667Z" fill="#DFAC00"/>
</g>
<defs>
<clipPath id="clip0_1_3">
<rect width="35" height="35" fill="white"/>
</clipPath>
</defs>
</svg>
