<svg width="134" height="25" viewBox="0 0 134 25" fill="none" xmlns="http://www.w3.org/2000/svg">
<path d="M0 7.3287C0 4.61766 2.18442 2.41992 4.87905 2.41992H24.3952C24.3952 5.13096 22.2108 7.3287 19.5162 7.3287H0Z" fill="#6B5CEA"/>
<path d="M0 16.1645C0 13.4534 2.16936 11.2557 4.8454 11.2557H12.1135C12.1135 13.9668 9.94414 16.1645 7.2681 16.1645H0Z" fill="#6B5CEA"/>
<path d="M0 25.0003C0 22.2892 2.18442 20.0915 4.87905 20.0915H24.3952C24.3952 22.8025 22.2108 25.0003 19.5162 25.0003H0Z" fill="#6B5CEA"/>
<path d="M131.405 22.6081C130.634 22.6081 130 22.3636 129.503 21.8745C129.024 21.3666 128.784 20.7458 128.784 20.0122C128.784 19.2598 129.024 18.6296 129.503 18.1217C130 17.6138 130.634 17.3599 131.405 17.3599C132.159 17.3599 132.775 17.6138 133.255 18.1217C133.752 18.6296 134 19.2598 134 20.0122C134 20.7458 133.752 21.3666 133.255 21.8745C132.775 22.3636 132.159 22.6081 131.405 22.6081Z" fill="#6B5CEA"/>
<path d="M52.5877 13.6858C52.5877 14.1703 52.5576 14.6749 52.4974 15.1998H40.8507C40.9309 16.2494 41.262 17.0568 41.8438 17.622C42.4457 18.167 43.178 18.4395 44.0407 18.4395C45.3248 18.4395 46.2176 17.8945 46.7192 16.8045H52.1965C51.9156 17.9147 51.404 18.9139 50.6616 19.8021C49.9394 20.6902 49.0265 21.3866 47.923 21.8913C46.8195 22.3959 45.5856 22.6482 44.2213 22.6482C42.5761 22.6482 41.1115 22.295 39.8274 21.5885C38.5434 20.882 37.5402 19.8727 36.8179 18.5607C36.0956 17.2486 35.7345 15.7145 35.7345 13.9583C35.7345 12.2022 36.0856 10.6681 36.7878 9.35603C37.5101 8.04396 38.5133 7.03468 39.7973 6.32818C41.0814 5.62169 42.556 5.26844 44.2213 5.26844C45.8464 5.26844 47.291 5.61159 48.555 6.29791C49.819 6.98422 50.8021 7.96322 51.5043 9.23491C52.2266 10.5066 52.5877 11.9902 52.5877 13.6858ZM47.3211 12.3233C47.3211 11.4351 47.0201 10.7286 46.4182 10.2038C45.8163 9.67899 45.064 9.41658 44.1611 9.41658C43.2984 9.41658 42.5661 9.6689 41.9642 10.1735C41.3823 10.6782 41.0212 11.3948 40.8808 12.3233H47.3211Z" fill="white"/>
<path d="M77.6332 5.329C79.7197 5.329 81.375 5.96484 82.5988 7.23653C83.8428 8.50823 84.4647 10.2745 84.4647 12.5353V22.406H79.3486V13.2317C79.3486 12.1416 79.0577 11.3039 78.4758 10.7186C77.914 10.113 77.1316 9.8102 76.1284 9.8102C75.1252 9.8102 74.3327 10.113 73.7509 10.7186C73.1891 11.3039 72.9082 12.1416 72.9082 13.2317V22.406H67.7921V13.2317C67.7921 12.1416 67.5012 11.3039 66.9193 10.7186C66.3575 10.113 65.5751 9.8102 64.5719 9.8102C63.5687 9.8102 62.7762 10.113 62.1944 10.7186C61.6326 11.3039 61.3517 12.1416 61.3517 13.2317V22.406H56.2055V5.51067H61.3517V7.63015C61.8734 6.92366 62.5555 6.36856 63.3982 5.96484C64.2409 5.54095 65.1939 5.329 66.2572 5.329C67.5212 5.329 68.6448 5.6015 69.6279 6.14651C70.631 6.69152 71.4135 7.46867 71.9753 8.47795C72.5571 7.54941 73.3496 6.79245 74.3528 6.20707C75.356 5.62169 76.4494 5.329 77.6332 5.329Z" fill="white"/>
<path d="M87.9435 13.9583C87.9435 12.2022 88.2946 10.6681 88.9969 9.35603C89.7191 8.04396 90.7123 7.03468 91.9763 6.32818C93.2603 5.62169 94.7249 5.26844 96.3701 5.26844C98.4768 5.26844 100.232 5.82354 101.637 6.93375C103.061 8.04396 103.994 9.60835 104.436 11.6269H98.9583C98.4969 10.335 97.604 9.68909 96.2799 9.68909C95.3369 9.68909 94.5845 10.0625 94.0227 10.8094C93.461 11.5361 93.1801 12.5857 93.1801 13.9583C93.1801 15.331 93.461 16.3907 94.0227 17.1376C94.5845 17.8643 95.3369 18.2276 96.2799 18.2276C97.604 18.2276 98.4969 17.5817 98.9583 16.2898H104.436C103.994 18.268 103.061 19.8223 101.637 20.9527C100.212 22.083 98.4567 22.6482 96.3701 22.6482C94.7249 22.6482 93.2603 22.295 91.9763 21.5885C90.7123 20.882 89.7191 19.8727 88.9969 18.5607C88.2946 17.2486 87.9435 15.7145 87.9435 13.9583Z" fill="white"/>
<path d="M107.068 13.9281C107.068 12.1921 107.389 10.6681 108.031 9.35603C108.693 8.04396 109.586 7.03468 110.709 6.32818C111.833 5.62169 113.087 5.26844 114.471 5.26844C115.575 5.26844 116.578 5.50057 117.481 5.96484C118.404 6.42911 119.126 7.05486 119.648 7.8421V0H124.794V22.406H119.648V19.9837C119.166 20.7912 118.474 21.4371 117.571 21.9216C116.688 22.406 115.655 22.6482 114.471 22.6482C113.087 22.6482 111.833 22.295 110.709 21.5885C109.586 20.8618 108.693 19.8424 108.031 18.5304C107.389 17.1981 107.068 15.664 107.068 13.9281ZM119.648 13.9583C119.648 12.6665 119.287 11.6471 118.564 10.9002C117.862 10.1534 116.999 9.77992 115.976 9.77992C114.953 9.77992 114.08 10.1534 113.358 10.9002C112.656 11.6269 112.305 12.6362 112.305 13.9281C112.305 15.2199 112.656 16.2494 113.358 17.0165C114.08 17.7633 114.953 18.1368 115.976 18.1368C116.999 18.1368 117.862 17.7633 118.564 17.0165C119.287 16.2696 119.648 15.2502 119.648 13.9583Z" fill="white"/>
</svg>
