<svg width="97" height="25" viewBox="0 0 97 25" fill="none" xmlns="http://www.w3.org/2000/svg">
<path d="M0 0H4.92249V24.5318H0V0Z" fill="white"/>
<path d="M7.21562 12.2328C7.48535 7.654 11.5987 6.28369 15.6445 6.28369C19.2184 6.28369 23.5002 7.08582 23.5002 11.3304V20.555C23.5002 22.1592 23.6689 23.7968 24.1072 24.4987H19.1173C18.9486 23.964 18.8139 23.3624 18.7801 22.7942C17.2292 24.3985 14.9365 25.0001 12.745 25.0001C9.33971 25.0001 6.64246 23.329 6.64246 19.686C6.64246 15.6753 9.67687 14.706 12.745 14.305C15.7456 13.8705 18.5778 13.9708 18.5778 11.9654C18.5778 9.85986 17.128 9.55906 15.3748 9.55906C13.5204 9.55906 12.3067 10.3278 12.1044 12.2328H7.21562ZM18.5778 15.8424C17.7349 16.5777 16.0154 16.6111 14.4982 16.8785C12.981 17.1794 11.5987 17.714 11.5987 19.4854C11.5987 21.2902 13.0147 21.7581 14.5993 21.7581C18.4429 21.7581 18.5778 18.7502 18.5778 17.6806V15.8424Z" fill="white"/>
<path d="M25.8927 0H30.8152V8.92371H30.8826C32.0964 7.11891 34.3216 6.28337 36.5131 6.28337C40.0869 6.28337 43.9305 9.12424 43.9305 15.6082C43.9305 22.1254 40.0869 24.9664 36.5131 24.9664C33.8833 24.9664 31.6918 24.1642 30.6129 22.2258H30.5454V24.4985H25.8927V0ZM34.8273 9.95979C31.9278 9.95979 30.6466 12.6669 30.6466 15.6749C30.6466 18.6161 31.9278 21.3567 34.8273 21.3567C37.7269 21.3567 39.0081 18.6495 39.0081 15.6749C39.0418 12.6669 37.7606 9.95979 34.8273 9.95979Z" fill="white"/>
<path d="M54.3815 6.28369C60.012 6.28369 63.6533 9.99354 63.6533 15.6419C63.6533 21.2568 60.012 24.9666 54.3815 24.9666C48.7847 24.9666 45.1434 21.2568 45.1434 15.6419C45.1434 9.99354 48.751 6.28369 54.3815 6.28369ZM54.3815 21.3236C57.7531 21.3236 58.7308 18.4828 58.7308 15.6419C58.7308 12.801 57.7194 9.9267 54.3815 9.9267C51.0437 9.9267 50.0659 12.7676 50.0659 15.6419C50.0322 18.4828 51.0437 21.3236 54.3815 21.3236Z" fill="white"/>
<path d="M64.7694 6.7848H69.4559V10.0936H69.5233C70.4337 7.85432 72.8612 6.31689 75.255 6.31689C75.5921 6.31689 76.0304 6.38374 76.3339 6.48401V11.0294C75.8956 10.9292 75.1538 10.8623 74.5807 10.8623C70.9731 10.8623 69.7257 13.4358 69.7257 16.5775V24.5654H64.8032V6.7848H64.7694Z" fill="white"/>
<path d="M88.8748 10.1938L95.7864 0H89.7177L85.8403 5.71519L88.8748 10.1938Z" fill="white"/>
<path d="M79.129 24.5318L88.0636 11.3969L80.309 0H80.3427H74.2738L81.9948 11.3635L73.0601 24.5318H79.129Z" fill="white"/>
<path d="M88.8744 12.6001L85.8737 17.0453L90.931 24.5318H96.9998L88.8744 12.6001Z" fill="white"/>
</svg>
