<svg width="141" height="26" viewBox="0 0 141 26" fill="none" xmlns="http://www.w3.org/2000/svg">
<path fill-rule="evenodd" clip-rule="evenodd" d="M36.5217 6.02617C35.592 5.55324 34.6304 5.31727 33.638 5.31727V5.31825C31.6724 5.31825 30.0801 6.0301 28.862 7.45381C27.6439 8.87752 27.0353 10.7309 27.0353 13.012C27.0353 15.3284 27.64 17.1317 28.8485 18.4167C30.0579 19.7038 31.5326 20.3478 33.2715 20.3478C33.9173 20.3556 34.5616 20.2843 35.1908 20.1354C36.243 19.8877 37.1255 19.4108 37.8392 18.7029C38.2654 18.2958 38.6503 17.7718 38.9936 17.1307C39.3379 16.4896 39.5405 15.9076 39.6012 15.3855H37.2913C37.1177 16.0138 36.8217 16.5663 36.404 17.0442C35.673 17.8671 34.6941 18.2781 33.4682 18.2781C32.1537 18.2781 31.1844 17.8425 30.5575 16.9714C29.9316 16.1003 29.596 14.944 29.5526 13.5026H39.798C39.798 12.0691 39.7285 11.0259 39.5896 10.372L39.5125 9.9689C39.3399 9.17937 39.0524 8.47833 38.6493 7.8648C38.1623 7.11263 37.4534 6.50008 36.5217 6.02617ZM30.7803 8.58747C31.5114 7.79499 32.416 7.39973 33.4953 7.39973C35.0008 7.39973 36.0742 7.97394 36.7175 9.12431C37.0657 9.74374 37.2885 10.5706 37.383 11.606H29.6191C29.6625 10.3848 30.0502 9.37896 30.7803 8.58747ZM47.6014 10.6365L44.3917 5.63485H41.3507L46.0226 12.5607L41.1029 19.8434H44.0782L47.4442 14.5104L50.9162 19.8434H53.9176L48.9979 12.5607L53.7083 5.70171L50.8516 5.63485L47.6014 10.6365ZM65.277 6.39193C64.2894 5.61322 63.0086 5.22386 61.4346 5.22386C59.5896 5.22386 58.0715 5.91802 56.8794 7.30731C55.6883 8.69562 55.0923 10.6365 55.0923 13.1309C55.0923 15.1652 55.6353 16.8613 56.7232 18.2181C57.8111 19.576 59.2674 20.2554 61.0951 20.2554C62.7221 20.2554 64.0569 19.8188 65.1005 18.9477C66.145 18.0766 66.7979 16.6991 67.0583 14.8152H64.7745C64.5575 15.8673 64.163 16.6971 63.594 17.3028C63.024 17.9084 62.2515 18.2113 61.2774 18.2113C60.0081 18.2113 59.0765 17.7255 58.4843 16.7522C57.8931 15.7797 57.597 14.5812 57.597 13.1575C57.597 11.7416 57.8063 10.5519 58.2239 9.58839C58.8681 8.10274 59.9377 7.35942 61.4346 7.35942C62.5302 7.35942 63.3259 7.64947 63.8226 8.22859C64.3183 8.80869 64.6356 9.53628 64.7745 10.4113H67.0583C66.8587 8.50979 66.2646 7.16966 65.277 6.39193ZM73.2569 6.04682C72.8132 6.33884 72.3136 6.84225 71.7562 7.55902V0.289062H69.4077V19.8434H71.7562V12.308C71.7562 10.4153 72.1526 9.12824 72.9444 8.44785C73.7352 7.76648 74.6187 7.42628 75.5928 7.42628C76.7675 7.42628 77.568 7.81564 77.9943 8.59337C78.2547 9.08006 78.3858 9.84599 78.3858 10.8882V19.8434H80.7999V10.7299C80.7999 9.33177 80.6041 8.23941 80.2125 7.45283C79.4901 6.01142 78.1158 5.28974 76.0885 5.28974C74.9582 5.28974 74.014 5.54242 73.2569 6.04682ZM93.7583 6.24543C92.7321 5.6083 91.3963 5.29072 89.7519 5.29072C88.3342 5.29072 87.0872 5.63288 86.0128 6.31819C84.9383 7.00448 84.3799 8.22171 84.3365 9.97381H86.5287C86.6155 9.23934 86.8026 8.68677 87.09 8.31511C87.6031 7.64259 88.4731 7.30633 89.6999 7.30633C90.7608 7.30633 91.5767 7.49019 92.1467 7.85693C92.7167 8.22466 93.0012 8.81459 93.0012 9.6287C93.0012 10.0259 92.9491 10.3317 92.845 10.5441C92.6617 10.9325 92.301 11.1625 91.7619 11.2333L88.0159 11.7112C86.7033 11.8793 85.6414 12.3257 84.8323 13.0513C84.0231 13.7759 83.619 14.7985 83.619 16.116C83.619 17.3185 84.0298 18.3204 84.8515 19.1207C85.6742 19.9211 86.7332 20.3213 88.0294 20.3213C89.1077 20.3213 90.0953 20.0863 90.9913 19.6182C91.8873 19.1493 92.5749 18.5967 93.0533 17.9596C93.1314 18.5259 93.2664 18.9634 93.4584 19.2731C93.8229 19.8562 94.4103 20.1482 95.2194 20.1482C95.5493 20.1482 95.8116 20.1354 96.0026 20.1089C96.1503 20.0861 96.2968 20.0555 96.4414 20.0174L96.8378 19.9093V18.1454C96.6902 18.1719 96.5504 18.1916 96.4202 18.2054C96.29 18.2181 96.1723 18.225 96.0682 18.225C95.746 18.225 95.5348 18.1493 95.4345 17.9989C95.3352 17.8494 95.285 17.6498 95.285 17.4021V9.21673C95.285 7.87266 94.7758 6.88256 93.7583 6.24543ZM91.8265 13.0778C92.2798 12.954 92.6492 12.7986 92.9356 12.6138H92.9366V14.537C92.9366 16.0049 92.2836 17.0619 90.9787 17.7078C90.2043 18.0962 89.4038 18.2909 88.5772 18.2909C87.8992 18.2909 87.3119 18.0923 86.8152 17.6951C86.3195 17.2959 86.0716 16.7522 86.0716 16.0629C86.0716 15.1515 86.4333 14.4878 87.1547 14.0729C87.581 13.8251 88.2204 13.6432 89.073 13.5282L90.4955 13.3433C90.9305 13.2902 91.3742 13.2017 91.8265 13.0778ZM103.467 5.86099C102.728 6.2238 102.028 6.82061 101.366 7.65144V5.63485H99.1342V5.63583V19.8434H101.484V12.4014C101.484 11.4722 101.542 10.7584 101.659 10.2589C101.777 9.75947 102.031 9.27474 102.423 8.80574C102.91 8.22171 103.475 7.83333 104.119 7.63866C104.476 7.52362 104.932 7.46561 105.49 7.46561C106.586 7.46561 107.343 7.90806 107.76 8.79296C108.013 9.32292 108.138 10.022 108.138 10.8882V19.8434H110.527V10.7299C110.527 9.29637 110.335 8.19614 109.952 7.42628C109.257 6.02027 107.917 5.31727 105.934 5.31727C105.029 5.31727 104.206 5.49818 103.467 5.86099ZM121.802 6.2061C120.984 5.65746 120.027 5.38314 118.931 5.38314C117.312 5.38314 115.931 6.05075 114.788 7.38597C113.643 8.72217 113.072 10.5785 113.072 12.9579C113.072 15.4789 113.64 17.286 114.774 18.3774C115.91 19.4698 117.234 20.0165 118.747 20.0165C119.835 20.0165 120.71 19.8395 121.371 19.4855C122.032 19.1316 122.597 18.5918 123.067 17.8671C123.093 19.8208 122.942 21.1786 122.611 21.9396C122.054 23.2306 120.875 23.8766 119.074 23.8766C117.934 23.8766 117.099 23.6111 116.569 23.0802C116.229 22.7351 116.003 22.2444 115.891 21.6073H113.502C113.624 23.0674 114.198 24.1391 115.225 24.8244C116.251 25.5097 117.518 25.8529 119.022 25.8529C121.728 25.8529 123.568 24.8883 124.542 22.9612C125.065 21.917 125.325 20.4933 125.325 18.6891V5.76758H123.159V7.55902C122.698 6.96613 122.245 6.51483 121.802 6.2061ZM115.969 9.85386C116.577 8.27972 117.709 7.49216 119.362 7.49216C120.466 7.49216 121.375 7.91691 122.088 8.76641C122.802 9.61493 123.159 10.9197 123.159 12.6796C123.159 13.8467 122.968 14.8693 122.585 15.7443C121.897 17.2919 120.71 18.0657 119.022 18.0657C117.943 18.0657 117.085 17.6479 116.445 16.8121C115.805 15.9764 115.487 14.7582 115.487 13.1575C115.487 11.7947 115.647 10.6945 115.969 9.85386ZM137.566 6.02617C136.635 5.55324 135.674 5.31727 134.682 5.31727C132.716 5.31727 131.123 6.02912 129.905 7.45283C128.687 8.87653 128.079 10.7299 128.079 13.011C128.079 15.3284 128.683 17.1307 129.893 18.4167C131.102 19.7038 132.577 20.3478 134.316 20.3478C134.961 20.3556 135.606 20.2843 136.235 20.1354C137.287 19.8877 138.17 19.4108 138.883 18.7029C139.31 18.2958 139.695 17.7718 140.038 17.1307C140.382 16.4896 140.585 15.9076 140.645 15.3855H138.335C138.162 16.0138 137.866 16.5663 137.448 17.0442C136.717 17.8671 135.739 18.2781 134.512 18.2781C133.199 18.2781 132.229 17.8425 131.602 16.9714C130.976 16.1003 130.641 14.944 130.598 13.5026H140.841C140.841 12.0691 140.772 11.0259 140.633 10.372L140.556 9.9689C140.383 9.17937 140.096 8.47833 139.692 7.8648C139.205 7.11263 138.497 6.50008 137.566 6.02617ZM131.823 8.58747C132.554 7.79499 133.459 7.39973 134.537 7.39973H134.538C136.044 7.39973 137.117 7.97394 137.761 9.12431C138.11 9.74374 138.332 10.5706 138.426 11.606H130.662C130.706 10.3848 131.093 9.37896 131.823 8.58747ZM11.6055 13.0711L22.2145 23.8866H0.99646L11.6055 13.0711ZM22.2146 2.25546L11.6056 13.0709L0.996548 2.25546H22.2146Z" fill="url(#paint0_linear_1458_853)"/>
<defs>
<linearGradient id="paint0_linear_1458_853" x1="11.6055" y1="0.509589" x2="11.6055" y2="26.0322" gradientUnits="userSpaceOnUse">
<stop stop-color="#43536D"/>
<stop offset="1" stop-color="#43536D" stop-opacity="0.2"/>
</linearGradient>
</defs>
</svg>
