<svg width="166" height="32" viewBox="0 0 166 32" fill="none" xmlns="http://www.w3.org/2000/svg">
<path fill-rule="evenodd" clip-rule="evenodd" d="M133.951 12.1571C133.159 13.7904 132.763 15.6875 132.763 17.8486C132.763 20.0096 133.159 21.9193 133.951 23.5777C134.768 25.211 135.87 26.48 137.257 27.3846C138.643 28.2641 140.191 28.7038 141.899 28.7038C143.36 28.7038 144.635 28.4023 145.725 27.7992C146.839 27.1962 147.693 26.3921 148.287 25.3869V28.4023H154.639V0.510254H148.287V10.2725C147.644 9.29248 146.752 8.51351 145.613 7.93557C144.499 7.35762 143.261 7.06865 141.899 7.06865C140.191 7.06865 138.643 7.50839 137.257 8.38787C135.87 9.26735 134.768 10.5237 133.951 12.1571ZM146.95 14.0794C147.842 15.0091 148.287 16.2781 148.287 17.8862C148.287 19.4944 147.842 20.7634 146.95 21.6931C146.084 22.6229 145.019 23.0877 143.756 23.0877C142.493 23.0877 141.416 22.6229 140.525 21.6931C139.658 20.7383 139.225 19.4567 139.225 17.8486C139.225 16.2404 139.658 14.984 140.525 14.0794C141.416 13.1496 142.493 12.6848 143.756 12.6848C145.019 12.6848 146.084 13.1496 146.95 14.0794ZM65.4161 19.4316C65.4903 18.7783 65.5275 18.1501 65.5275 17.547C65.5275 15.4363 65.0818 13.5894 64.1904 12.0063C63.3238 10.4232 62.1105 9.20453 60.5506 8.35018C58.9907 7.49583 57.2079 7.06865 55.2023 7.06865C53.1472 7.06865 51.3273 7.50839 49.7426 8.38787C48.1579 9.26735 46.9199 10.5237 46.0285 12.1571C45.1619 13.7904 44.7286 15.7001 44.7286 17.8862C44.7286 20.0724 45.1743 21.9821 46.0657 23.6154C46.9571 25.2487 48.1951 26.5051 49.7798 27.3846C51.3644 28.2641 53.172 28.7038 55.2023 28.7038C56.886 28.7038 58.4088 28.3897 59.7706 27.7615C61.1325 27.1333 62.2591 26.2664 63.1505 25.1608C64.0666 24.0552 64.698 22.8113 65.0446 21.4293H58.285C57.666 22.7862 56.5642 23.4646 54.9795 23.4646C53.9148 23.4646 53.011 23.1254 52.2682 22.447C51.5501 21.7434 51.1416 20.7383 51.0425 19.4316H65.4161ZM57.9136 13.2124C58.6564 13.8658 59.0278 14.7452 59.0278 15.8509H51.0797C51.253 14.695 51.6987 13.8029 52.4168 13.1747C53.1596 12.5465 54.0633 12.2324 55.128 12.2324C56.2423 12.2324 57.1708 12.5591 57.9136 13.2124ZM102.565 9.51863C101.054 7.93557 99.0116 7.14404 96.4365 7.14404C94.9756 7.14404 93.6262 7.50839 92.3881 8.2371C91.1501 8.96581 90.1721 9.90811 89.454 11.064C88.7607 9.8076 87.7951 8.84017 86.557 8.16172C85.3438 7.48326 83.9572 7.14404 82.3973 7.14404C81.0849 7.14404 79.9088 7.40788 78.8689 7.93557C77.8289 8.43813 76.9871 9.12915 76.3433 10.0086V7.37019H69.9922V28.4023H76.3433V16.9816C76.3433 15.6247 76.6899 14.5819 77.3832 13.8532C78.1013 13.0994 79.0793 12.7224 80.3174 12.7224C81.5554 12.7224 82.5211 13.0994 83.2143 13.8532C83.9324 14.5819 84.2914 15.6247 84.2914 16.9816V28.4023H90.6054V16.9816C90.6054 15.6247 90.952 14.5819 91.6453 13.8532C92.3634 13.0994 93.3414 12.7224 94.5794 12.7224C95.8175 12.7224 96.7831 13.0994 97.4764 13.8532C98.1945 14.5819 98.5535 15.6247 98.5535 16.9816V28.4023H104.867V16.1147C104.867 13.3004 104.1 11.1017 102.565 9.51863ZM109.161 17.8862C109.161 15.7001 109.594 13.7904 110.461 12.1571C111.352 10.5237 112.578 9.26735 114.138 8.38787C115.722 7.50839 117.53 7.06865 119.56 7.06865C122.16 7.06865 124.327 7.75967 126.06 9.14171C127.818 10.5237 128.969 12.4712 129.514 14.984H122.754C122.185 13.3758 121.083 12.5717 119.449 12.5717C118.285 12.5717 117.356 13.0365 116.663 13.9663C115.97 14.8709 115.623 16.1775 115.623 17.8862C115.623 19.5949 115.97 20.9142 116.663 21.8439C117.356 22.7485 118.285 23.2008 119.449 23.2008C121.083 23.2008 122.185 22.3967 122.754 20.7885H129.514C128.969 23.2511 127.818 25.1859 126.06 26.5931C124.302 28.0002 122.135 28.7038 119.56 28.7038C117.53 28.7038 115.722 28.2641 114.138 27.3846C112.578 26.5051 111.352 25.2487 110.461 23.6154C109.594 21.9821 109.161 20.0724 109.161 17.8862ZM6.64962 3.52226C3.32413 3.52226 0.628296 6.2581 0.628296 9.63293H24.7136C28.0391 9.63293 30.7349 6.89709 30.7349 3.52226H6.64962ZM6.60809 14.5215C3.30554 14.5215 0.628296 17.2573 0.628296 20.6321H9.59799C12.9005 20.6321 15.5778 17.8963 15.5778 14.5215H6.60809ZM0.628296 31.6313C0.628296 28.2565 3.32413 25.5207 6.64962 25.5207H30.7349C30.7349 28.8955 28.0391 31.6313 24.7136 31.6313H0.628296ZM162.797 28.6537C161.846 28.6537 161.063 28.3493 160.45 27.7405C159.858 27.1082 159.562 26.3355 159.562 25.4222C159.562 24.4855 159.858 23.7011 160.45 23.0688C161.063 22.4366 161.846 22.1205 162.797 22.1205C163.727 22.1205 164.488 22.4366 165.08 23.0688C165.694 23.7011 166 24.4855 166 25.4222C166 26.3355 165.694 27.1082 165.08 27.7405C164.488 28.3493 163.727 28.6537 162.797 28.6537Z" fill="url(#paint0_linear_1458_927)"/>
<defs>
<linearGradient id="paint0_linear_1458_927" x1="99.6836" y1="0.180277" x2="99.6836" y2="31.2512" gradientUnits="userSpaceOnUse">
<stop stop-color="#43536D"/>
<stop offset="1" stop-color="#43536D" stop-opacity="0.2"/>
</linearGradient>
</defs>
</svg>
