<svg width="163" height="25" viewBox="0 0 163 25" fill="none" xmlns="http://www.w3.org/2000/svg">
<path d="M37.3206 18.8212H34.952L32.1688 14.2219L29.3686 18.8212H27L30.976 12.2737L27.2357 6.0918H29.5873L32.1433 10.3283L34.6993 6.0918H37.0679L33.3446 12.2737L37.3206 18.8212Z" fill="white"/>
<path d="M40.0499 14.7759C40.1741 15.4668 40.5613 16.0817 41.1291 16.4899C41.734 16.9042 42.4538 17.1152 43.1853 17.0927C44.31 17.0927 45.1525 16.6851 45.7129 15.87L47.4567 16.8956C46.4911 18.3277 45.0607 19.0438 43.1654 19.0438C41.5731 19.0438 40.2866 18.5544 39.3058 17.5755C38.8214 17.0905 38.4412 16.5107 38.1886 15.8719C37.9361 15.2331 37.8166 14.5489 37.8376 13.8618C37.8196 13.1794 37.9386 12.5003 38.1875 11.8652C38.4364 11.23 38.81 10.6519 39.286 10.1652C39.7705 9.67171 40.3516 9.28463 40.9925 9.02846C41.6333 8.77228 42.32 8.65258 43.0092 8.67692C43.6733 8.65695 44.3338 8.78254 44.9449 9.04497C45.5559 9.3074 46.1029 9.70038 46.5479 10.1967C47.4648 11.199 47.9596 12.52 47.9281 13.8818C47.9224 14.1785 47.8958 14.4744 47.8486 14.7674L40.0499 14.7759ZM40.0301 13.0419H45.7924C45.7131 12.3586 45.3816 11.7302 44.8635 11.2811C44.3454 10.8319 43.6786 10.5948 42.995 10.6166C42.2855 10.5914 41.5904 10.8225 41.0354 11.2679C40.5005 11.7196 40.1439 12.3488 40.0301 13.0419Z" fill="white"/>
<path d="M54.5461 8.68463C55.0503 8.66404 55.5532 8.75 56.0223 8.93698C56.4914 9.12396 56.9164 9.40779 57.2697 9.77017C57.9626 10.4939 58.3091 11.4861 58.3091 12.7468V18.7973H56.1933V12.9639C56.2144 12.6558 56.1732 12.3466 56.0721 12.0549C55.9711 11.7633 55.8123 11.4953 55.6054 11.2671C55.3913 11.0642 55.1384 10.9071 54.862 10.8055C54.5857 10.7038 54.2918 10.6597 53.998 10.6757C53.6657 10.6618 53.3342 10.7168 53.024 10.8372C52.7137 10.9576 52.4314 11.1408 52.1946 11.3756C51.7373 11.8441 51.5101 12.5583 51.5101 13.5153V18.7973H49.3915V8.94173H51.5101V10.2044C52.1501 9.18931 53.1621 8.68273 54.5461 8.68463Z" fill="white"/>
<path d="M67.9604 8.94228H70.0762V18.7978H67.9604V17.3695C67.1614 18.4855 66.0178 19.0445 64.5296 19.0464C63.8817 19.0539 63.2395 18.9233 62.6452 18.6634C62.051 18.4034 61.5182 18.0199 61.0818 17.538C60.6162 17.0494 60.2511 16.4731 60.0074 15.8422C59.7638 15.2112 59.6463 14.5382 59.6618 13.8615C59.6433 13.1832 59.7593 12.5079 60.0031 11.8752C60.2469 11.2425 60.6136 10.6649 61.0818 10.1764C61.5194 9.69663 62.0526 9.3151 62.6467 9.05668C63.2408 8.79826 63.8824 8.66875 64.5296 8.67661C66.0216 8.67661 67.1652 9.2289 67.9604 10.3335V8.94228ZM62.6495 16.1268C63.2446 16.7021 64.038 17.0233 64.8633 17.0233C65.6887 17.0233 66.482 16.7021 67.0771 16.1268C67.6447 15.514 67.9602 14.7076 67.9602 13.8701C67.9602 13.0325 67.6447 12.2261 67.0771 11.6133C66.482 11.038 65.6887 10.7168 64.8633 10.7168C64.038 10.7168 63.2446 11.038 62.6495 11.6133C62.082 12.2261 61.7664 13.0325 61.7664 13.8701C61.7664 14.7076 62.082 15.514 62.6495 16.1268Z" fill="white"/>
<path d="M96.2678 18.7984H93.8339L91.3886 15.4161L88.9405 18.787H86.4697L90.1617 13.7221L86.6685 8.94287H89.1166L91.3688 12.0567L93.6237 8.94287H96.1059L92.6042 13.7535L96.2678 18.7984Z" fill="white"/>
<path d="M101.428 19.0552C100.746 19.0683 100.07 18.9433 99.4373 18.6876C98.8051 18.4319 98.2305 18.0508 97.7479 17.5669C97.2653 17.083 96.8844 16.5064 96.6281 15.8713C96.3718 15.2362 96.2453 14.5557 96.2561 13.8703C96.2425 13.1842 96.3671 12.5025 96.6224 11.8661C96.8777 11.2297 97.2585 10.6519 97.7417 10.1675C98.2249 9.68305 98.8006 9.302 99.4341 9.0473C100.068 8.7926 100.746 8.66951 101.428 8.68545C102.343 8.67552 103.244 8.91437 104.035 9.37677C104.79 9.80685 105.404 10.4505 105.799 11.2279L103.975 12.2934C103.761 11.8267 103.409 11.4377 102.967 11.1793C102.493 10.9049 101.954 10.7657 101.408 10.7765C101.006 10.7663 100.606 10.8397 100.234 10.9921C99.8616 11.1445 99.5245 11.3726 99.2438 11.6621C98.684 12.2595 98.3723 13.0494 98.3723 13.8703C98.3723 14.6913 98.684 15.4812 99.2438 16.0785C99.5245 16.3681 99.8616 16.5962 100.234 16.7486C100.606 16.901 101.006 16.9743 101.408 16.9641C101.955 16.9746 102.494 16.8343 102.967 16.5585C103.415 16.3 103.779 15.9171 104.015 15.4558L105.838 16.5013C105.424 17.2835 104.799 17.9321 104.035 18.3725C103.243 18.8319 102.342 19.0677 101.428 19.0552Z" fill="white"/>
<path d="M112.324 8.68512C112.828 8.66488 113.331 8.75101 113.8 8.93797C114.269 9.12492 114.694 9.40857 115.048 9.77066C115.739 10.4944 116.084 11.4866 116.084 12.7473V18.7978H113.968V12.9644C113.99 12.6563 113.948 12.3471 113.847 12.0554C113.746 11.7638 113.587 11.4958 113.381 11.2676C113.166 11.0647 112.913 10.9076 112.637 10.806C112.361 10.7043 112.067 10.6602 111.773 10.6762C111.441 10.6622 111.11 10.7171 110.8 10.8375C110.491 10.9579 110.209 11.1413 109.973 11.3761C109.512 11.8446 109.285 12.5559 109.285 13.5158V18.7978H107.169V5H109.285V10.2049C109.925 9.1898 110.938 8.68322 112.324 8.68512Z" fill="white"/>
<path d="M125.926 8.94228H128.041V18.7978H125.926V17.3695C125.127 18.4855 123.984 19.0445 122.498 19.0464C121.849 19.0539 121.207 18.9234 120.612 18.6635C120.017 18.4035 119.484 18.02 119.047 17.538C118.581 17.0499 118.215 16.4737 117.971 15.8427C117.728 15.2116 117.611 14.5383 117.627 13.8615C117.608 13.1832 117.725 12.5079 117.968 11.8752C118.212 11.2425 118.579 10.6649 119.047 10.1764C119.485 9.69656 120.019 9.31501 120.613 9.0566C121.208 8.79819 121.85 8.66871 122.498 8.67661C123.986 8.67661 125.128 9.2289 125.926 10.3335V8.94228ZM120.615 16.1268C121.21 16.7023 122.004 17.0236 122.83 17.0236C123.656 17.0236 124.45 16.7023 125.045 16.1268C125.611 15.5131 125.925 14.707 125.925 13.8701C125.925 13.0331 125.611 12.227 125.045 11.6133C124.45 11.0379 123.656 10.7165 122.83 10.7165C122.004 10.7165 121.21 11.0379 120.615 11.6133C120.049 12.227 119.735 13.0331 119.735 13.8701C119.735 14.707 120.049 15.5131 120.615 16.1268Z" fill="white"/>
<path d="M135.469 8.68468C135.973 8.66391 136.476 8.74979 136.945 8.93678C137.414 9.12377 137.839 9.4077 138.192 9.77022C138.885 10.4939 139.232 11.4861 139.232 12.7469V18.7973H137.116V12.964C137.137 12.6559 137.096 12.3466 136.995 12.055C136.894 11.7634 136.735 11.4953 136.528 11.2671C136.314 11.0642 136.061 10.9072 135.785 10.8055C135.509 10.7039 135.215 10.6597 134.921 10.6758C134.589 10.6619 134.257 10.7168 133.947 10.8372C133.637 10.9576 133.354 11.1409 133.117 11.3757C132.66 11.8442 132.433 12.5555 132.433 13.5153V18.7973H130.317V8.94178H132.433V10.2044C133.073 9.18936 134.085 8.68278 135.469 8.68468Z" fill="white"/>
<path d="M149.101 8.94305H151.177V18.3444C151.177 19.8451 150.687 20.9954 149.709 21.7953C148.698 22.6067 147.434 23.0326 146.142 22.9979C143.881 22.9979 142.333 22.2028 141.498 20.6126L143.319 19.5471C143.83 20.5583 144.781 21.0639 146.181 21.0639C146.961 21.1099 147.728 20.8532 148.325 20.3469C148.589 20.0887 148.795 19.7766 148.929 19.4316C149.062 19.0867 149.121 18.7169 149.101 18.3472V17.1303C148.302 18.273 147.166 18.8443 145.693 18.8443C145.037 18.8562 144.387 18.7299 143.782 18.4735C143.178 18.2172 142.634 17.8365 142.185 17.356C141.267 16.386 140.754 15.0977 140.754 13.758C140.754 12.4183 141.267 11.13 142.185 10.16C142.634 9.67944 143.178 9.29876 143.782 9.04243C144.387 8.7861 145.037 8.6598 145.693 8.67166C147.17 8.67166 148.306 9.243 149.101 10.3857V8.94305ZM143.762 15.9876C144.363 16.5583 145.159 16.8762 145.985 16.8762C146.812 16.8762 147.608 16.5583 148.209 15.9876C148.781 15.3971 149.101 14.6053 149.101 13.7808C149.101 12.9564 148.781 12.1646 148.209 11.5741C147.608 11.0033 146.812 10.6854 145.985 10.6854C145.159 10.6854 144.363 11.0033 143.762 11.5741C143.19 12.1646 142.87 12.9564 142.87 13.7808C142.87 14.6053 143.19 15.3971 143.762 15.9876Z" fill="white"/>
<path d="M155.12 14.7759C155.245 15.466 155.63 16.0805 156.197 16.4899C156.803 16.9039 157.523 17.1149 158.256 17.0927C159.38 17.0927 160.223 16.6851 160.783 15.87L162.527 16.8956C161.561 18.3277 160.131 19.0438 158.236 19.0438C156.643 19.0438 155.357 18.5544 154.376 17.5755C153.891 17.0907 153.511 16.5109 153.258 15.8721C153.005 15.2333 152.884 14.5491 152.905 13.8618C152.887 13.1791 153.006 12.4998 153.256 11.8645C153.505 11.2293 153.879 10.6513 154.356 10.1652C154.841 9.67171 155.422 9.28463 156.063 9.02846C156.704 8.77228 157.39 8.65258 158.079 8.67692C158.743 8.65679 159.403 8.78232 160.014 9.04477C160.625 9.30722 161.171 9.7003 161.615 10.1967C162.534 11.198 163.03 12.5194 162.998 13.8818C162.993 14.1785 162.966 14.4744 162.919 14.7674L155.12 14.7759ZM155.1 13.0419H160.863C160.783 12.3576 160.451 11.7284 159.932 11.2791C159.412 10.8298 158.744 10.5933 158.06 10.6166C157.35 10.5914 156.655 10.8225 156.1 11.2679C155.567 11.7205 155.213 12.3496 155.1 13.0419Z" fill="white"/>
<path d="M79.3176 16.7865H84.9521V18.7862H77.2273V5.98828H84.8613V7.98796H79.3176V11.3388H84.4069V13.3385H79.3176V16.7865Z" fill="white"/>
<path d="M20.7997 6.09594L10.6996 0.0561323C10.6392 0.0193872 10.5702 0 10.5 0C10.4298 0 10.3609 0.0193872 10.3004 0.0561323L0.200358 6.09594C0.138537 6.13259 0.0873723 6.18554 0.0521555 6.24931C0.0169388 6.31308 -0.00105091 6.38536 4.74449e-05 6.45867V12.5213L10.3717 6.30321C10.4123 6.27928 10.4583 6.26669 10.5052 6.26669C10.5521 6.26669 10.5981 6.27928 10.6387 6.30321L12.1225 7.19021C12.1629 7.21449 12.1963 7.24924 12.2195 7.29096C12.2427 7.33268 12.2548 7.37993 12.2546 7.42796V9.20805C12.2557 9.25599 12.2447 9.30341 12.2226 9.34563C12.2005 9.38786 12.168 9.42344 12.1285 9.44885L4.74449e-05 16.7186V18.5474C0.000590171 18.6186 0.0192214 18.6884 0.0540956 18.7498C0.0889698 18.8113 0.138877 18.8624 0.198874 18.898L10.3004 24.9439C10.3609 24.9806 10.4298 25 10.5 25C10.5702 25 10.6392 24.9806 10.6996 24.9439L20.7967 18.898C20.8573 18.8615 20.9075 18.8094 20.9424 18.7469C20.9772 18.6843 20.9956 18.6134 20.9955 18.5413V12.5183L10.6432 18.7273C10.6025 18.7512 10.5565 18.7638 10.5097 18.7638C10.4628 18.7638 10.4168 18.7512 10.3761 18.7273L8.89233 17.8372C8.85198 17.8129 8.81855 17.7782 8.79537 17.7365C8.7722 17.6947 8.7601 17.6475 8.76028 17.5995V15.8392C8.7601 15.7912 8.7722 15.7439 8.79537 15.7022C8.81855 15.6605 8.85198 15.6257 8.89233 15.6014L21 8.33172V6.45867C21.0009 6.38539 20.9829 6.31317 20.9477 6.24943C20.9125 6.18569 20.8614 6.13271 20.7997 6.09594Z" fill="#33CC66"/>
</svg>
