<svg width="120" height="28" viewBox="0 0 120 28" fill="none" xmlns="http://www.w3.org/2000/svg">
<path d="M34.3872 25.9413L42.494 13.9507L34.6198 2.22361H39.5204L44.9691 10.5742L50.3681 2.22361H55.3019L47.4278 13.9507L55.5013 25.9413H50.6007L44.9691 17.3271L39.321 25.9413H34.3872ZM56.8228 25.9413V2.22361H64.4478C64.6472 2.22361 65.0404 2.22907 65.6272 2.24008C66.2253 2.25109 66.8013 2.28949 67.3549 2.35537C69.2487 2.59698 70.8489 3.26672 72.1559 4.36479C73.4736 5.45185 74.4704 6.84083 75.1461 8.53185C75.8218 10.2229 76.1594 12.073 76.1594 14.0824C76.1594 16.0918 75.8218 17.942 75.1461 19.633C74.4704 21.324 73.4736 22.7185 72.1559 23.8166C70.8489 24.9036 69.2487 25.5679 67.3549 25.8095C66.8121 25.8754 66.2419 25.9138 65.6438 25.9248C65.0458 25.9358 64.6472 25.9413 64.4478 25.9413H56.8228ZM60.8928 22.2024H64.4478C64.78 22.2024 65.2008 22.1914 65.7103 22.1695C66.2307 22.1476 66.6904 22.0982 67.0892 22.0213C68.2188 21.8126 69.1378 21.313 69.8467 20.5224C70.5557 19.7318 71.0761 18.7711 71.4083 17.6401C71.7518 16.5091 71.9233 15.3232 71.9233 14.0824C71.9233 12.7977 71.7518 11.5899 71.4083 10.4589C71.0648 9.32789 70.5333 8.37815 69.8135 7.60949C69.1047 6.84083 68.1968 6.35227 67.0892 6.14361C66.6904 6.0558 66.2307 6.00639 65.7103 5.99538C65.2008 5.97345 64.78 5.96243 64.4478 5.96243H60.8928V22.2024ZM76.4473 25.9413L83.9891 2.22361H89.8533L97.3953 25.9413H93.2754L86.4312 4.66126H87.3282L80.567 25.9413H76.4473ZM80.6501 20.8024V17.0966H93.2089V20.8024H80.6501ZM108.538 26.4354C106.145 26.4354 104.096 25.9193 102.391 24.8871C100.686 23.844 99.3735 22.3946 98.4538 20.5389C97.5457 18.6832 97.0917 16.5311 97.0917 14.0824C97.0917 11.6338 97.5457 9.48168 98.4538 7.62596C99.3735 5.77025 100.686 4.32639 102.391 3.2942C104.096 2.25109 106.145 1.72949 108.538 1.72949C110.93 1.72949 112.979 2.25109 114.683 3.2942C116.401 4.32639 117.713 5.77025 118.621 7.62596C119.54 9.48168 120 11.6338 120 14.0824C120 16.5311 119.54 18.6832 118.621 20.5389C117.713 22.3946 116.401 23.844 114.683 24.8871C112.979 25.9193 110.93 26.4354 108.538 26.4354ZM108.538 22.6966C110.143 22.7076 111.478 22.3561 112.541 21.6424C113.615 20.9287 114.418 19.924 114.949 18.6283C115.493 17.3326 115.763 15.8173 115.763 14.0824C115.763 12.3476 115.493 10.8432 114.949 9.56949C114.418 8.28479 113.615 7.28554 112.541 6.57185C111.478 5.85815 110.143 5.49025 108.538 5.46832C106.932 5.4573 105.597 5.80874 104.534 6.52243C103.47 7.23613 102.668 8.24083 102.125 9.53655C101.593 10.8323 101.327 12.3476 101.327 14.0824C101.327 15.8173 101.593 17.3271 102.125 18.6118C102.656 19.8855 103.454 20.8793 104.517 21.593C105.591 22.3067 106.932 22.6746 108.538 22.6966Z" fill="white"/>
<path fill-rule="evenodd" clip-rule="evenodd" d="M7.77869 0.630524C8.21153 1.05971 8.42342 1.62498 8.41432 2.1874L14.1204 7.84476L16.5553 5.43048C16.5463 4.86808 16.7582 4.30282 17.191 3.87362C18.039 3.03286 19.4138 3.03286 20.2617 3.87362C21.1097 4.71439 21.1097 6.07743 20.2617 6.91819C19.8289 7.34729 19.2588 7.55739 18.6915 7.54838L16.2914 9.9281C16.3005 10.4905 16.0885 11.0558 15.6557 11.485C14.8078 12.3256 13.4329 12.3256 12.585 11.485C12.1521 11.0558 11.9402 10.4905 11.9494 9.9281L6.27824 4.30531C5.71093 4.31431 5.1408 4.10421 4.70797 3.67511C3.86002 2.83435 3.86002 1.47127 4.70797 0.630524C5.55594 -0.210175 6.93072 -0.210175 7.77869 0.630524ZM6.97766 7.91093C6.12969 7.07016 4.75491 7.07016 3.90695 7.91093C3.05898 8.7516 3.05898 10.1147 3.90695 10.9554C4.33981 11.3846 4.9099 11.5947 5.47717 11.5857L7.91222 14L2.20621 19.6573C1.63894 19.6483 1.06882 19.8584 0.635964 20.2876C-0.211988 21.1284 -0.211988 22.4914 0.635964 23.3322C1.48391 24.1729 2.85872 24.1729 3.70668 23.3322C4.13953 22.903 4.35139 22.3377 4.34234 21.7752L10.0134 16.1525C10.5807 16.1615 11.1508 15.9514 11.5837 15.5223C12.4316 14.6815 12.4316 13.3185 11.5837 12.4777C11.1508 12.0486 10.5807 11.8385 10.0134 11.8475L7.61332 9.46778C7.62237 8.90539 7.41048 8.34012 6.97766 7.91093ZM21.9625 23.6946L16.2914 18.0719C16.3005 17.5095 16.0886 16.9442 15.6557 16.5151C14.8078 15.6743 13.4329 15.6743 12.585 16.5151C12.1521 16.9442 11.9402 17.5095 11.9494 18.0719L9.54918 20.4516C8.98195 20.4426 8.41179 20.6527 7.97895 21.0818C7.13098 21.9225 7.13098 23.2857 7.97895 24.1263C8.82688 24.9671 10.2017 24.9671 11.0496 24.1263C11.4825 23.6972 11.6944 23.132 11.6854 22.5695L14.1204 20.1553L19.8263 25.8125C19.8173 26.375 20.0292 26.9403 20.462 27.3695C21.31 28.2102 22.6848 28.2102 23.5328 27.3695C24.3807 26.5287 24.3807 25.1657 23.5328 24.3249C23.0999 23.8957 22.5297 23.6857 21.9625 23.6946ZM27.6048 7.71242C27.1719 8.14161 26.6017 8.35161 26.0345 8.34261L20.3286 14L22.7635 16.4143C23.3308 16.4053 23.9009 16.6154 24.3338 17.0445C25.1817 17.8852 25.1817 19.2483 24.3338 20.089C23.4858 20.9298 22.1111 20.9298 21.2631 20.089C20.8302 19.6598 20.6183 19.0947 20.6274 18.5322L18.2273 16.1525C17.66 16.1615 17.0899 15.9514 16.657 15.5223C15.8091 14.6815 15.8091 13.3185 16.657 12.4777C17.0899 12.0486 17.66 11.8385 18.2273 11.8475L23.8983 6.2247C23.8893 5.66231 24.1012 5.09704 24.5341 4.66785C25.382 3.82718 26.7568 3.82718 27.6048 4.66785C28.4527 5.50862 28.4527 6.87165 27.6048 7.71242Z" fill="#005EFF"/>
</svg>
