<svg width="146" height="39" viewBox="0 0 146 39" fill="none" xmlns="http://www.w3.org/2000/svg">
<path fill-rule="evenodd" clip-rule="evenodd" d="M39.3127 0.589844H46.6347V14.0788H46.735C48.5404 11.3507 51.8503 10.0877 55.1101 10.0877C60.426 10.0877 66.1431 14.3819 66.1431 24.183C66.1431 34.0344 60.426 38.3288 55.1101 38.3288C51.1984 38.3288 47.9387 37.1162 46.3338 34.1861H46.2334V37.6215H39.3127V0.589844ZM52.6026 15.645C48.2896 15.645 46.3839 19.7371 46.3839 24.2839C46.3839 28.7297 48.2896 32.8724 52.6026 32.8724C56.9155 32.8724 58.8213 28.7803 58.8213 24.2839C58.8713 19.7371 56.9656 15.645 52.6026 15.645ZM8.12847 0.589962H0.806519V37.672H8.12847V0.589962ZM24.0701 10.0882C18.0522 10.0882 11.9338 12.1595 11.5326 19.0808H18.8044C19.1053 16.2011 20.9107 15.0392 23.669 15.0392C26.2767 15.0392 28.4333 15.4939 28.4333 18.6766C28.4333 21.1776 25.5657 21.512 22.0558 21.9212L22.0557 21.9212L22.0557 21.9212L22.0557 21.9212H22.0557L22.0551 21.9213C21.311 22.0081 20.538 22.0982 19.7573 22.2131C15.1936 22.8193 10.6801 24.2844 10.6801 30.347C10.6801 35.8537 14.6921 38.3796 19.7573 38.3796C23.017 38.3796 26.4273 37.4703 28.7342 35.0453C28.7844 35.9041 28.9849 36.8136 29.2357 37.6218H36.658C36.006 36.5609 35.7552 34.0855 35.7552 31.6605V17.7167C35.7552 11.3007 29.3862 10.0882 24.0701 10.0882ZM24.0308 25.8522C25.7816 25.6127 27.4825 25.3799 28.4333 24.537V27.3156C28.4333 28.9324 28.2327 33.4791 22.5155 33.4791C20.1584 33.4791 18.0522 32.7718 18.0522 30.0437C18.0522 27.3662 20.1084 26.5579 22.365 26.1032C22.9103 26.0056 23.4731 25.9285 24.0308 25.8522ZM95.4827 24.2339C95.4827 15.6959 90.0664 10.0882 81.6913 10.0882C73.3162 10.0882 67.9501 15.6959 67.9501 24.2339C67.9501 32.7214 73.3664 38.3291 81.6913 38.3291C90.0664 38.3291 95.4827 32.7214 95.4827 24.2339ZM88.1607 24.2339C88.1607 28.5282 86.7064 32.8224 81.6913 32.8224C76.7265 32.8224 75.2219 28.5282 75.2721 24.2339C75.2721 19.8892 76.7265 15.5949 81.6913 15.5949C86.6562 15.5949 88.1607 19.9397 88.1607 24.2339ZM97.1931 10.8453H104.114V15.8468H104.214C105.568 12.4619 109.179 10.138 112.74 10.138C113.241 10.138 113.893 10.239 114.345 10.3906V17.2613C113.693 17.1098 112.589 17.0087 111.737 17.0087C106.371 17.0087 104.515 20.8989 104.515 25.6478V37.7222H97.1931V10.8453ZM143.284 0.589895L133.004 15.9987L128.49 9.22892L134.257 0.589895H143.284ZM118.511 37.6718L131.801 17.8173L120.267 0.589844H111.29L122.774 17.7668L109.484 37.6718H118.511ZM128.541 26.3563L133.005 19.637L145.091 37.6729H136.064L128.541 26.3563Z" fill="url(#paint0_linear_1458_915)"/>
<defs>
<linearGradient id="paint0_linear_1458_915" x1="136.816" y1="0.419437" x2="136.816" y2="38.1484" gradientUnits="userSpaceOnUse">
<stop stop-color="#43536D"/>
<stop offset="1" stop-color="#43536D" stop-opacity="0.2"/>
</linearGradient>
</defs>
</svg>
