<svg width="157" height="39" viewBox="0 0 157 39" fill="none" xmlns="http://www.w3.org/2000/svg">
<path d="M52.8362 23.2741H50.8864L48.5953 19.4861L46.2902 23.2741H44.3405L47.6134 17.8815L44.5345 12.79H46.4702L48.5743 16.2792L50.6783 12.79H52.6281L49.5632 17.8815L52.8362 23.2741Z" fill="white"/>
<path d="M55.0821 19.9422C55.1844 20.5112 55.5031 21.0177 55.9705 21.3539C56.4685 21.6951 57.061 21.8689 57.6631 21.8504C58.5889 21.8504 59.2825 21.5147 59.7438 20.8434L61.1792 21.688C60.3844 22.8675 59.2069 23.4573 57.6468 23.4573C56.336 23.4573 55.277 23.0542 54.4696 22.248C54.0709 21.8486 53.7579 21.371 53.55 20.8449C53.3421 20.3188 53.2437 19.7553 53.261 19.1894C53.2462 18.6273 53.3442 18.068 53.549 17.5449C53.7539 17.0218 54.0614 16.5456 54.4533 16.1449C54.8522 15.7384 55.3305 15.4196 55.858 15.2086C56.3856 14.9976 56.9509 14.899 57.5182 14.919C58.0649 14.9026 58.6086 15.006 59.1116 15.2222C59.6146 15.4383 60.0648 15.762 60.4311 16.1707C61.1859 16.9963 61.5932 18.0843 61.5673 19.2058C61.5626 19.4502 61.5407 19.6939 61.5019 19.9352L55.0821 19.9422ZM55.0658 18.5141H59.8093C59.7439 17.9513 59.471 17.4338 59.0446 17.0638C58.6181 16.6939 58.0692 16.4986 57.5065 16.5166C56.9224 16.4958 56.3502 16.6861 55.8934 17.053C55.4531 17.425 55.1595 17.9433 55.0658 18.5141Z" fill="white"/>
<path d="M67.016 14.9253C67.431 14.9084 67.845 14.9792 68.2312 15.1331C68.6173 15.2871 68.9671 15.5209 69.258 15.8194C69.8284 16.4154 70.1136 17.2326 70.1136 18.271V23.2542H68.3719V18.4498C68.3893 18.196 68.3554 17.9413 68.2722 17.7011C68.189 17.4609 68.0583 17.2402 67.888 17.0522C67.7117 16.8851 67.5035 16.7558 67.2761 16.6721C67.0486 16.5883 66.8066 16.552 66.5648 16.5652C66.2913 16.5537 66.0184 16.599 65.763 16.6982C65.5076 16.7973 65.2752 16.9483 65.0803 17.1416C64.7039 17.5275 64.5169 18.1157 64.5169 18.9039V23.2542H62.7728V15.1371H64.5169V16.177C65.0436 15.341 65.8767 14.9237 67.016 14.9253Z" fill="white"/>
<path d="M78.0575 15.1375H79.7992V23.2547H78.0575V22.0783C77.3998 22.9974 76.4584 23.4578 75.2334 23.4594C74.7 23.4655 74.1713 23.358 73.6822 23.1439C73.193 22.9298 72.7544 22.6139 72.3952 22.2171C72.012 21.8146 71.7114 21.34 71.5108 20.8203C71.3102 20.3007 71.2135 19.7464 71.2263 19.189C71.211 18.6304 71.3066 18.0742 71.5073 17.5531C71.708 17.032 72.0098 16.5563 72.3952 16.1539C72.7554 15.7588 73.1944 15.4446 73.6834 15.2318C74.1725 15.0189 74.7006 14.9123 75.2334 14.9187C76.4615 14.9187 77.4029 15.3736 78.0575 16.2834V15.1375ZM73.6857 21.0548C74.1756 21.5286 74.8286 21.7932 75.5081 21.7932C76.1875 21.7932 76.8405 21.5286 77.3304 21.0548C77.7976 20.5501 78.0574 19.8859 78.0574 19.1961C78.0574 18.5063 77.7976 17.8421 77.3304 17.3374C76.8405 16.8636 76.1875 16.599 75.5081 16.599C74.8286 16.599 74.1756 16.8636 73.6857 17.3374C73.2185 17.8421 72.9587 18.5063 72.9587 19.1961C72.9587 19.8859 73.2185 20.5501 73.6857 21.0548Z" fill="white"/>
<path d="M101.359 23.2553H99.3558L97.343 20.4696L95.3277 23.2459H93.2938L96.333 19.0744L93.4575 15.1382H95.4727L97.3266 17.7027L99.1828 15.1382H101.226L98.3436 19.1003L101.359 23.2553Z" fill="white"/>
<path d="M105.607 23.4666C105.046 23.4774 104.489 23.3744 103.969 23.1638C103.448 22.9532 102.975 22.6393 102.578 22.2408C102.181 21.8423 101.867 21.3673 101.656 20.8442C101.445 20.3212 101.341 19.7607 101.35 19.1962C101.339 18.6312 101.441 18.0697 101.651 17.5455C101.862 17.0214 102.175 16.5455 102.573 16.1465C102.97 15.7476 103.444 15.4337 103.966 15.224C104.487 15.0142 105.046 14.9128 105.607 14.9259C106.36 14.9177 107.102 15.1145 107.753 15.4953C108.375 15.8495 108.88 16.3796 109.205 17.0199L107.704 17.8975C107.528 17.5131 107.238 17.1927 106.874 16.9799C106.484 16.7539 106.041 16.6392 105.591 16.6482C105.26 16.6398 104.931 16.7002 104.624 16.8257C104.318 16.9512 104.04 17.1391 103.809 17.3775C103.348 17.8696 103.092 18.5201 103.092 19.1962C103.092 19.8724 103.348 20.5229 103.809 21.015C104.04 21.2534 104.318 21.4413 104.624 21.5668C104.931 21.6923 105.26 21.7527 105.591 21.7443C106.041 21.7529 106.485 21.6374 106.874 21.4102C107.243 21.1974 107.542 20.882 107.737 20.502L109.238 21.3632C108.897 22.0074 108.382 22.5416 107.753 22.9042C107.101 23.2826 106.36 23.4769 105.607 23.4666Z" fill="white"/>
<path d="M114.577 14.9257C114.992 14.9091 115.406 14.98 115.792 15.134C116.178 15.2879 116.528 15.5216 116.819 15.8198C117.388 16.4158 117.672 17.233 117.672 18.2714V23.2546H115.931V18.4502C115.948 18.1964 115.914 17.9417 115.831 17.7015C115.748 17.4613 115.617 17.2406 115.447 17.0526C115.27 16.8855 115.062 16.7562 114.835 16.6725C114.607 16.5887 114.365 16.5524 114.123 16.5656C113.85 16.5541 113.578 16.5993 113.323 16.6984C113.068 16.7976 112.836 16.9486 112.641 17.142C112.262 17.5279 112.075 18.1137 112.075 18.9043V23.2546H110.334V11.8906H112.075V16.1774C112.602 15.3414 113.436 14.9242 114.577 14.9257Z" fill="white"/>
<path d="M125.774 15.1375H127.516V23.2547H125.774V22.0783C125.116 22.9974 124.176 23.4578 122.952 23.4594C122.419 23.4656 121.89 23.3581 121.4 23.144C120.91 22.9299 120.471 22.614 120.112 22.2171C119.728 21.8151 119.427 21.3405 119.226 20.8208C119.026 20.301 118.929 19.7465 118.943 19.189C118.928 18.6304 119.023 18.0742 119.224 17.5531C119.425 17.032 119.726 16.5563 120.112 16.154C120.472 15.7588 120.912 15.4445 121.401 15.2317C121.891 15.0189 122.419 14.9122 122.952 14.9187C124.177 14.9187 125.118 15.3736 125.774 16.2834V15.1375ZM121.402 21.0548C121.893 21.5287 122.546 21.7934 123.226 21.7934C123.906 21.7934 124.559 21.5287 125.049 21.0548C125.515 20.5493 125.774 19.8854 125.774 19.1961C125.774 18.5068 125.515 17.8429 125.049 17.3374C124.559 16.8635 123.906 16.5988 123.226 16.5988C122.546 16.5988 121.893 16.8635 121.402 17.3374C120.937 17.8429 120.678 18.5068 120.678 19.1961C120.678 19.8854 120.937 20.5493 121.402 21.0548Z" fill="white"/>
<path d="M133.629 14.9254C134.044 14.9082 134.458 14.979 134.845 15.133C135.231 15.287 135.581 15.5208 135.871 15.8194C136.442 16.4155 136.727 17.2327 136.727 18.271V23.2542H134.985V18.4498C135.003 18.1961 134.969 17.9414 134.886 17.7012C134.802 17.461 134.672 17.2402 134.501 17.0523C134.325 16.8852 134.117 16.7558 133.889 16.6721C133.662 16.5884 133.42 16.552 133.178 16.5652C132.905 16.5538 132.632 16.599 132.376 16.6982C132.121 16.7974 131.889 16.9483 131.694 17.1417C131.317 17.5275 131.13 18.1134 131.13 18.9039V23.2542H129.389V15.1371H131.13V16.177C131.657 15.341 132.49 14.9238 133.629 14.9254Z" fill="white"/>
<path d="M144.851 15.1382H146.56V22.8812C146.56 24.1172 146.157 25.0646 145.351 25.7234C144.519 26.3917 143.479 26.7425 142.415 26.7139C140.554 26.7139 139.28 26.0591 138.593 24.7493L140.091 23.8718C140.512 24.7046 141.295 25.1211 142.448 25.1211C143.09 25.1589 143.721 24.9475 144.213 24.5305C144.43 24.3178 144.599 24.0608 144.709 23.7767C144.82 23.4926 144.868 23.1881 144.851 22.8836V21.8813C144.193 22.8224 143.258 23.293 142.046 23.293C141.506 23.3027 140.97 23.1987 140.473 22.9876C139.976 22.7765 139.528 22.463 139.159 22.0672C138.402 21.2683 137.98 20.2072 137.98 19.1038C137.98 18.0005 138.402 16.9394 139.159 16.1405C139.528 15.7447 139.976 15.4312 140.473 15.2201C140.97 15.0089 141.506 14.9049 142.046 14.9147C143.261 14.9147 144.197 15.3852 144.851 16.3264V15.1382ZM140.456 20.9402C140.951 21.4102 141.606 21.6721 142.287 21.6721C142.967 21.6721 143.622 21.4102 144.117 20.9402C144.588 20.4538 144.851 19.8017 144.851 19.1227C144.851 18.4436 144.588 17.7915 144.117 17.3051C143.622 16.8351 142.967 16.5733 142.287 16.5733C141.606 16.5733 140.951 16.8351 140.456 17.3051C139.985 17.7915 139.722 18.4436 139.722 19.1227C139.722 19.8017 139.985 20.4538 140.456 20.9402Z" fill="white"/>
<path d="M149.806 19.9422C149.908 20.5106 150.226 21.0167 150.692 21.3539C151.191 21.6949 151.784 21.8686 152.387 21.8504C153.312 21.8504 154.006 21.5147 154.467 20.8434L155.903 21.688C155.108 22.8675 153.93 23.4573 152.37 23.4573C151.06 23.4573 150.001 23.0542 149.193 22.248C148.794 21.8487 148.481 21.3712 148.272 20.8451C148.064 20.319 147.965 19.7554 147.982 19.1894C147.967 18.6271 148.065 18.0676 148.271 17.5444C148.476 17.0212 148.784 16.5452 149.177 16.1449C149.576 15.7384 150.054 15.4196 150.582 15.2086C151.109 14.9976 151.674 14.899 152.242 14.919C152.788 14.9025 153.331 15.0059 153.834 15.222C154.337 15.4382 154.787 15.7619 155.152 16.1707C155.909 16.9954 156.317 18.0838 156.291 19.2058C156.286 19.4502 156.264 19.6939 156.225 19.9352L149.806 19.9422ZM149.789 18.5141H154.533C154.467 17.9505 154.194 17.4322 153.766 17.0622C153.339 16.6922 152.789 16.4974 152.225 16.5166C151.641 16.4958 151.069 16.6861 150.612 17.053C150.174 17.4258 149.882 17.9439 149.789 18.5141Z" fill="white"/>
<path d="M87.4066 21.5981H92.0448V23.2451H85.6859V12.7046H91.97V14.3515H87.4066V17.1114H91.596V18.7583H87.4066V21.5981Z" fill="white"/>
<path d="M32.7719 9.41075L16.8582 0.0866555C16.763 0.0299294 16.6544 0 16.5438 0C16.4331 0 16.3245 0.0299294 16.2293 0.0866555L0.315683 9.41075C0.218279 9.46733 0.137664 9.54907 0.0821761 9.64752C0.0266887 9.74597 -0.00165581 9.85755 7.47541e-05 9.97072V19.3301L16.3416 9.73073C16.4056 9.69379 16.4781 9.67436 16.552 9.67436C16.6258 9.67436 16.6983 9.69379 16.7624 9.73073L19.1002 11.1001C19.1638 11.1375 19.2165 11.1912 19.253 11.2556C19.2895 11.32 19.3086 11.3929 19.3083 11.4671V14.2151C19.3101 14.2891 19.2928 14.3624 19.2579 14.4275C19.2231 14.4927 19.1719 14.5476 19.1096 14.5869L7.47541e-05 25.8097V28.633C0.000929873 28.7429 0.0302852 28.8506 0.0852329 28.9455C0.140181 29.0404 0.218814 29.1193 0.313345 29.1742L16.2293 38.5077C16.3245 38.5644 16.4331 38.5943 16.5438 38.5943C16.6544 38.5943 16.763 38.5644 16.8582 38.5077L32.7672 29.1742C32.8626 29.1179 32.9418 29.0375 32.9967 28.9409C33.0517 28.8443 33.0806 28.7349 33.0805 28.6236V19.3254L16.7694 28.9107C16.7053 28.9476 16.6328 28.967 16.559 28.967C16.4852 28.967 16.4126 28.9476 16.3486 28.9107L14.0107 27.5366C13.9472 27.4991 13.8945 27.4455 13.858 27.3811C13.8215 27.3167 13.8024 27.2438 13.8027 27.1696V24.4521C13.8024 24.378 13.8215 24.305 13.858 24.2406C13.8945 24.1762 13.9472 24.1226 14.0107 24.0851L33.0875 12.8623V9.97072C33.089 9.85759 33.0605 9.74611 33.0051 9.64771C32.9496 9.5493 32.8691 9.46752 32.7719 9.41075Z" fill="#33CC66"/>
</svg>
