<svg width="555" height="22" viewBox="0 0 555 22" fill="none" xmlns="http://www.w3.org/2000/svg">
<g filter="url(#filter0_b_13743_2414)">
<path d="M12.6094 13.8623L13.8294 19.9953H15.8628L14.6427 13.8623H12.6094Z" fill="white"/>
<path fill-rule="evenodd" clip-rule="evenodd" d="M9.06385 3.75812L9.03843 3.78367C9.33327 2.7564 10.2737 2.00511 11.387 2C11.387 3.11937 10.6413 4.06146 9.62649 4.35727C9.03326 4.94478 8.22725 5.2758 7.39131 5.2758H1.83004C1.27086 5.2758 0.813349 5.73577 0.813349 6.29796C0.813349 6.86015 1.27086 7.32013 1.83004 7.32013H3.64482C3.51686 7.396 3.39525 7.48038 3.27726 7.57191C4.12235 6.92566 5.18148 6.61843 6.24496 6.72724L8.13091 6.91634H10.571C10.571 7.72896 10.7387 8.53647 11.0691 9.27754C11.0717 9.28009 11.0729 9.28393 11.0742 9.28776C11.0755 9.29159 11.0768 9.29543 11.0793 9.29798C11.1047 9.35931 11.1352 9.42064 11.1657 9.48197C11.5622 10.2793 12.1316 10.9743 12.8331 11.5161L13.0923 11.7154L13.1228 11.7358L17.4844 15.0885V18.3595H18.2978C18.7451 18.3595 19.1111 18.7274 19.106 19.1823V20H15.8526L14.6326 13.8671H11.3792L9.32315 13.4893L7.32024 15.9058L8.13359 18.359H8.94694C9.39428 18.359 9.76029 18.727 9.76029 19.1767V19.9944H6.50689L4.88019 16.3147V15.1443C5.67121 14.5784 6.36107 13.8752 6.90942 13.05L6.9058 13.0493C5.85353 14.6286 4.27767 15.7887 2.4578 16.31L2.43238 16.3202L2.83906 18.3646H3.65241C4.09975 18.3646 4.46576 18.7325 4.46576 19.1823V20H1.21236L0.399009 15.9114L1.61903 13.8671V10.9334C1.61903 9.92661 1.97996 8.95045 2.63064 8.18382C2.64361 8.16837 2.65672 8.15305 2.66996 8.13786H1.83004C0.818433 8.13786 0 7.31501 0 6.30307C0 5.28602 0.818433 4.46318 1.83004 4.46318H7.39131C8.02162 4.46318 8.62652 4.21278 9.06877 3.76307L9.06385 3.75812ZM23.3121 8.57695L23.3132 8.57697L22.9159 9.65687C22.8397 9.97374 22.5804 10.2139 22.2602 10.2651L20.7046 10.5257C20.4759 10.5666 20.2726 10.6995 20.1506 10.8937L17.497 15.0846L13.1303 11.7319L13.0998 11.7114L12.8406 11.5121C12.134 10.9703 11.5646 10.2753 11.1732 9.47799L11.1732 9.47795L11.1732 9.47794C11.1427 9.41663 11.1122 9.35531 11.0868 9.294C11.0843 9.29145 11.083 9.28762 11.0817 9.28379L11.0817 9.28378L11.0817 9.28377C11.0804 9.27994 11.0792 9.27611 11.0766 9.27356C10.7462 8.52738 10.5784 7.72498 10.5784 6.91236L14.5232 3.27346C15.123 2.72149 15.9059 2.41484 16.7192 2.41484H19.7337C20.3488 2.41484 20.9131 2.76749 21.1876 3.31946L21.5988 4.07664L21.5993 4.07679L22.3733 5.27548L24 6.50207L23.3135 8.57678L23.3121 8.57695Z" fill="white"/>
<path d="M20.9157 8.1377H19.4314C18.8417 8.1377 18.2927 8.43412 17.9673 8.92476L15.2731 12.901C15.2274 12.9674 15.207 13.0492 15.207 13.1259C15.207 13.3507 15.39 13.5347 15.6137 13.5347C15.751 13.5347 15.878 13.4683 15.9543 13.3507L18.6485 9.37451C18.8214 9.10875 19.1213 8.95031 19.4364 8.95031H21.1546C21.3783 8.95031 21.5613 8.76633 21.5613 8.54145H21.1546L20.9157 8.1377Z" fill="white"/>
<path d="M19.7512 6.09473H18.0279C17.306 6.09473 16.6249 6.43715 16.1826 7.00956L13.102 11.1595C13.0461 11.2311 13.0156 11.318 13.0156 11.41C13.0156 11.6349 13.1986 11.8188 13.4223 11.8188C13.5494 11.8188 13.6663 11.7575 13.7426 11.6604L16.8231 7.51042C17.1129 7.13733 17.5551 6.91757 18.0279 6.91246H19.9291C20.0206 6.91246 20.107 6.88179 20.1731 6.83068L19.7512 6.09473Z" fill="white"/>
<path d="M19.0874 3.91052C19.0314 3.75209 18.8789 3.63965 18.7061 3.63965H17.3793C16.5609 3.63965 15.773 3.96674 15.1935 4.54937L11.1013 8.66358C11.025 8.74024 10.9844 8.84246 10.9844 8.9549C10.9844 9.17977 11.1674 9.36376 11.391 9.36376C11.4978 9.36376 11.6046 9.32287 11.6808 9.24621L15.773 5.13201C16.2 4.7027 16.7795 4.46249 17.3844 4.46249H18.5129C18.5994 4.17628 18.823 3.98207 19.0874 3.91052Z" fill="white"/>
</g>
<path d="M34.1 4.7V13.576H38.58V14.5H33.12V4.7H34.1ZM42.4333 13.534L44.8833 7.5H45.8633L42.9933 14.5H41.8733L39.0033 7.5H39.9833L42.4333 13.534ZM48.114 5.344C48.114 5.53067 48.0487 5.68933 47.918 5.82C47.7873 5.95067 47.6287 6.016 47.442 6.016C47.2553 6.016 47.0967 5.95067 46.966 5.82C46.8353 5.68933 46.77 5.53067 46.77 5.344C46.77 5.15733 46.8353 4.99867 46.966 4.868C47.0967 4.73733 47.2553 4.672 47.442 4.672C47.6287 4.672 47.7873 4.73733 47.918 4.868C48.0487 4.99867 48.114 5.15733 48.114 5.344ZM47.904 14.5H46.98V7.5H47.904V14.5ZM52.4548 13.534L54.9048 7.5H55.8848L53.0148 14.5H51.8948L49.0248 7.5H50.0048L52.4548 13.534ZM56.1637 13.31H57.2837L56.4437 16.46H55.6037L56.1637 13.31ZM62.607 11.168V4.7H63.587V11.168C63.587 11.9613 63.8203 12.5867 64.287 13.044C64.763 13.492 65.4163 13.716 66.247 13.716C67.0776 13.716 67.7263 13.492 68.193 13.044C68.669 12.5867 68.907 11.9613 68.907 11.168V4.7H69.887V11.168C69.887 12.232 69.551 13.0813 68.879 13.716C68.1976 14.3507 67.3203 14.668 66.247 14.668C65.1736 14.668 64.2963 14.3507 63.615 13.716C62.943 13.0813 62.607 12.232 62.607 11.168ZM79.2757 14.5H78.2397L77.3297 12.092H72.6817L71.7717 14.5H70.7357L74.5017 4.7H75.5097L79.2757 14.5ZM75.0057 5.918L73.0317 11.168H76.9797L75.0057 5.918Z" fill="white"/>
<g filter="url(#filter1_b_13743_2414)">
<path d="M120 6.847L116.122 5.77859L110.787 12.5854L113.83 3.44648L110 0L106.165 3.44648L109.207 12.5854L103.878 5.77859L100 6.847V11.3102L108.921 14.2167H101.715L100.545 18.6684L104.703 19.9838L109.412 15.5206L108.867 22H111.133L110.583 15.5206L115.291 19.9838L119.45 18.6684L118.285 14.2167H111.079L120 11.3102V6.847Z" fill="white"/>
</g>
<path d="M131.136 9.46L135.98 14.5H134.692L130.1 9.754V14.5H129.12V4.7H130.1V9.18L134.552 4.7H135.84L131.136 9.46ZM139.176 13.366L141.444 7.5H142.424L139.428 15.144C139.148 15.8533 138.756 16.3993 138.252 16.782C137.757 17.174 137.206 17.3467 136.6 17.3V16.432C137.44 16.5347 138.079 16.0493 138.518 14.976L138.7 14.542L135.564 7.5H136.544L139.176 13.366ZM144.675 5.344C144.675 5.53067 144.609 5.68933 144.479 5.82C144.348 5.95067 144.189 6.016 144.003 6.016C143.816 6.016 143.657 5.95067 143.527 5.82C143.396 5.68933 143.331 5.53067 143.331 5.344C143.331 5.15733 143.396 4.99867 143.527 4.868C143.657 4.73733 143.816 4.672 144.003 4.672C144.189 4.672 144.348 4.73733 144.479 4.868C144.609 4.99867 144.675 5.15733 144.675 5.344ZM144.465 14.5H143.541V7.5H144.465V14.5ZM149.015 13.534L151.465 7.5H152.445L149.575 14.5H148.455L145.585 7.5H146.565L149.015 13.534ZM152.724 13.31H153.844L153.004 16.46H152.164L152.724 13.31ZM159.168 11.168V4.7H160.148V11.168C160.148 11.9613 160.381 12.5867 160.848 13.044C161.324 13.492 161.977 13.716 162.808 13.716C163.638 13.716 164.287 13.492 164.754 13.044C165.23 12.5867 165.468 11.9613 165.468 11.168V4.7H166.448V11.168C166.448 12.232 166.112 13.0813 165.44 13.716C164.758 14.3507 163.881 14.668 162.808 14.668C161.734 14.668 160.857 14.3507 160.176 13.716C159.504 13.0813 159.168 12.232 159.168 11.168ZM175.836 14.5H174.8L173.89 12.092H169.242L168.332 14.5H167.296L171.062 4.7H172.07L175.836 14.5ZM171.566 5.918L169.592 11.168H173.54L171.566 5.918Z" fill="white"/>
<g filter="url(#filter2_b_13743_2414)">
<path d="M212.096 13.1429C211.139 15.1544 209.05 15.5324 209.05 15.5324L208.551 5.28574H212.946V3.94922H203.05V5.28574H207.445L206.946 15.5324C206.946 15.5324 204.857 15.1544 203.9 13.1429C202.268 13.1429 200.098 13.1429 200.098 13.1429V14.3579H201.351C201.351 14.3579 202.16 19.1235 207.998 19.1235C213.836 19.1235 214.645 14.3579 214.645 14.3579H215.898V13.1429C215.898 13.1429 213.728 13.1429 212.096 13.1429Z" fill="white"/>
<path d="M202.66 7.5554L196 13.3335L198.063 14.805L198.75 12.942C198.845 12.672 199.087 12.483 199.384 12.4425C200.152 12.3615 201.662 12.1995 202.242 12.159C203.038 12.0915 203.846 11.511 203.846 10.4984C203.846 9.86394 203.846 9.48593 203.846 9.48593H205.734C205.923 9.48593 206.071 9.33743 206.071 9.14843C206.071 9.05392 206.03 8.95942 205.95 8.89192C205.613 8.60842 204.682 7.7984 204.48 7.6364C204.183 7.37989 203.213 7.20439 202.66 7.5554Z" fill="white"/>
<path d="M213.339 7.5554L219.999 13.3335L217.936 14.805L217.262 12.942C217.168 12.672 216.925 12.483 216.628 12.4425C215.86 12.3615 214.35 12.1995 213.77 12.159C212.975 12.0915 212.166 11.511 212.166 10.4984C212.166 9.86394 212.166 9.48593 212.166 9.48593H210.278C210.09 9.48593 209.941 9.33743 209.941 9.14843C209.941 9.05392 209.982 8.95942 210.063 8.89192C210.4 8.60842 211.33 7.7984 211.532 7.6364C211.829 7.37989 212.786 7.20439 213.339 7.5554Z" fill="white"/>
<path d="M206.789 0.5135V3.11905H210.308C210.564 3.11905 210.658 2.78154 210.443 2.64654L209.108 1.80952L210.443 0.972509C210.658 0.837506 210.564 0.5 210.308 0.5H206.789V0.5135Z" fill="white"/>
<path d="M214.146 19.8934C213.957 19.7044 213.66 19.7179 213.472 19.8934C213.04 20.3255 212.461 20.5685 211.854 20.5685C211.247 20.5685 210.667 20.3255 210.236 19.8934C210.223 19.8799 210.209 19.8664 210.182 19.8529C210.169 19.8529 210.169 19.8394 210.155 19.8394C210.142 19.8259 210.115 19.8124 210.088 19.8124C210.074 19.8124 210.074 19.7989 210.074 19.7989C210.047 19.7854 210.034 19.7854 210.007 19.7719H209.993C209.966 19.7719 209.939 19.7719 209.926 19.7584H209.912C209.886 19.7584 209.859 19.7584 209.845 19.7584H209.832C209.805 19.7584 209.791 19.7719 209.764 19.7854H209.751C209.724 19.7989 209.71 19.8124 209.683 19.8124C209.683 19.8124 209.67 19.8124 209.67 19.8259C209.656 19.8394 209.629 19.8529 209.616 19.8664L209.602 19.8799C209.171 20.312 208.591 20.555 207.985 20.555C207.378 20.555 206.798 20.312 206.367 19.8799C206.353 19.8664 206.326 19.8529 206.313 19.8394L206.299 19.8259C206.272 19.8124 206.259 19.7989 206.232 19.7854C206.232 19.7854 206.218 19.7854 206.218 19.7719C206.192 19.7584 206.178 19.7584 206.151 19.7449H206.138C206.111 19.7449 206.097 19.7449 206.07 19.7314H206.057C206.03 19.7314 206.003 19.7314 205.989 19.7314H205.976C205.949 19.7314 205.922 19.7449 205.908 19.7584H205.895C205.868 19.7719 205.854 19.7854 205.827 19.7989C205.827 19.7989 205.814 19.7989 205.814 19.8124C205.787 19.8259 205.774 19.8394 205.747 19.8664C205.747 19.8664 205.733 19.8664 205.733 19.8799C205.302 20.312 204.722 20.555 204.115 20.555C203.509 20.555 202.929 20.312 202.497 19.8799C202.309 19.6909 202.012 19.6909 201.837 19.8799C201.648 20.069 201.648 20.366 201.837 20.5415C202.444 21.1625 203.252 21.5 204.129 21.5C204.843 21.5 205.517 21.2705 206.084 20.8385C206.636 21.2705 207.324 21.5 208.039 21.5C208.753 21.5 209.427 21.2705 209.993 20.8385C210.546 21.2705 211.234 21.5 211.948 21.5C212.811 21.5 213.62 21.1625 214.24 20.5415C214.335 20.3795 214.335 20.0825 214.146 19.8934Z" fill="white"/>
</g>
<path d="M230.1 4.7V13.576H234.58V14.5H229.12V4.7H230.1ZM236.977 5.344C236.977 5.53067 236.912 5.68933 236.781 5.82C236.651 5.95067 236.492 6.016 236.305 6.016C236.119 6.016 235.96 5.95067 235.829 5.82C235.699 5.68933 235.633 5.53067 235.633 5.344C235.633 5.15733 235.699 4.99867 235.829 4.868C235.96 4.73733 236.119 4.672 236.305 4.672C236.492 4.672 236.651 4.73733 236.781 4.868C236.912 4.99867 236.977 5.15733 236.977 5.344ZM236.767 14.5H235.843V7.5H236.767V14.5ZM239.456 9.334C239.456 9.87533 239.937 10.272 240.898 10.524C241.169 10.5893 241.346 10.636 241.43 10.664C241.514 10.6827 241.677 10.734 241.92 10.818C242.172 10.8927 242.345 10.958 242.438 11.014C242.541 11.07 242.681 11.1587 242.858 11.28C243.035 11.392 243.161 11.5087 243.236 11.63C243.311 11.742 243.381 11.8913 243.446 12.078C243.511 12.2553 243.544 12.4467 243.544 12.652C243.544 13.2493 243.306 13.7347 242.83 14.108C242.373 14.4813 241.766 14.668 241.01 14.668C240.357 14.668 239.792 14.5233 239.316 14.234C238.84 13.9353 238.504 13.5433 238.308 13.058L239.092 12.596C239.223 12.96 239.456 13.2493 239.792 13.464C240.137 13.6693 240.543 13.772 241.01 13.772C241.486 13.772 241.873 13.6787 242.172 13.492C242.471 13.3053 242.62 13.0253 242.62 12.652C242.62 12.1107 242.139 11.714 241.178 11.462C240.907 11.3967 240.73 11.3547 240.646 11.336C240.562 11.308 240.394 11.2567 240.142 11.182C239.899 11.098 239.727 11.028 239.624 10.972C239.531 10.916 239.395 10.832 239.218 10.72C239.041 10.5987 238.915 10.482 238.84 10.37C238.765 10.2487 238.695 10.0993 238.63 9.922C238.565 9.73533 238.532 9.53933 238.532 9.334C238.532 8.76467 238.756 8.28867 239.204 7.906C239.671 7.52333 240.245 7.332 240.926 7.332C241.486 7.332 241.981 7.458 242.41 7.71C242.849 7.962 243.171 8.312 243.376 8.76L242.606 9.208C242.345 8.55467 241.785 8.228 240.926 8.228C240.506 8.228 240.156 8.326 239.876 8.522C239.596 8.718 239.456 8.98867 239.456 9.334ZM248.769 7.332C249.768 7.332 250.617 7.68667 251.317 8.396C252.026 9.10533 252.381 9.97333 252.381 11C252.381 12.0267 252.026 12.8947 251.317 13.604C250.617 14.3133 249.768 14.668 248.769 14.668C247.528 14.668 246.585 14.1547 245.941 13.128V14.5H245.017V4.7H245.941V8.872C246.585 7.84533 247.528 7.332 248.769 7.332ZM246.739 12.974C247.271 13.506 247.924 13.772 248.699 13.772C249.474 13.772 250.127 13.506 250.659 12.974C251.191 12.4233 251.457 11.7653 251.457 11C251.457 10.2253 251.191 9.572 250.659 9.04C250.127 8.49867 249.474 8.228 248.699 8.228C247.924 8.228 247.271 8.49867 246.739 9.04C246.207 9.572 245.941 10.2253 245.941 11C245.941 11.7653 246.207 12.4233 246.739 12.974ZM259.784 13.618C259.065 14.318 258.197 14.668 257.18 14.668C256.144 14.668 255.271 14.318 254.562 13.618C253.852 12.9087 253.498 12.036 253.498 11C253.498 9.964 253.852 9.096 254.562 8.396C255.271 7.68667 256.144 7.332 257.18 7.332C258.206 7.332 259.074 7.68667 259.784 8.396C260.502 9.096 260.862 9.964 260.862 11C260.862 12.0267 260.502 12.8993 259.784 13.618ZM255.22 12.974C255.752 13.506 256.405 13.772 257.18 13.772C257.954 13.772 258.608 13.506 259.14 12.974C259.672 12.4233 259.938 11.7653 259.938 11C259.938 10.2253 259.672 9.572 259.14 9.04C258.608 8.49867 257.954 8.228 257.18 8.228C256.405 8.228 255.752 8.49867 255.22 9.04C254.688 9.572 254.422 10.2253 254.422 11C254.422 11.7653 254.688 12.4233 255.22 12.974ZM265.684 7.332C266.524 7.332 267.191 7.59333 267.686 8.116C268.18 8.62933 268.428 9.32467 268.428 10.202V14.5H267.504V10.202C267.504 9.57667 267.336 9.09133 267 8.746C266.673 8.40067 266.206 8.228 265.6 8.228C264.9 8.228 264.344 8.44733 263.934 8.886C263.532 9.32467 263.332 9.97333 263.332 10.832V14.5H262.408V7.5H263.332V8.592C263.854 7.752 264.638 7.332 265.684 7.332ZM270.634 13.31H271.754L270.914 16.46H270.074L270.634 13.31ZM277.218 4.7H280.718C281.595 4.7 282.328 4.994 282.916 5.582C283.504 6.17 283.798 6.90267 283.798 7.78C283.798 8.65733 283.504 9.39 282.916 9.978C282.328 10.566 281.595 10.86 280.718 10.86H278.198V14.5H277.218V4.7ZM278.198 9.936H280.718C281.324 9.936 281.824 9.73533 282.216 9.334C282.617 8.93267 282.818 8.41467 282.818 7.78C282.818 7.15467 282.617 6.64133 282.216 6.24C281.824 5.82933 281.324 5.624 280.718 5.624H278.198V9.936ZM284.362 4.7H291.362V5.624H288.352V14.5H287.372V5.624H284.362V4.7Z" fill="white"/>
<path d="M330.696 10.986C330.82 10.7124 330.945 10.44 331.058 10.1921C331.71 8.77318 331.707 8.761 331.67 8.61206C331.167 6.60852 329.045 5.66831 328.509 5.46041C328.227 4.81419 327.7 4.08352 326.715 3.53177C325.09 2.62085 324.462 1.25865 324.456 1.24569C324.411 1.14492 324.317 1.07304 324.206 1.05481C324.17 1.04893 323.312 0.912433 322.305 1.09369C321.427 1.25178 320.708 1.60319 320.175 2.12699C319.602 1.67792 318.824 1.51304 318.27 1.45407C317.721 1.39554 317.181 1.4206 317.051 1.46353C316.942 1.49943 316.856 1.58932 316.83 1.69796C316.75 2.02655 316.501 2.3964 316.261 2.75411C315.88 3.31951 315.487 3.90309 315.573 4.52797C314.222 5.22119 312.789 6.53004 312.575 6.72913C312.536 6.76494 312.507 6.80921 312.49 6.85824C312.479 6.88999 312.214 7.64761 312.078 8.65659C311.893 10.0358 312.037 11.1716 312.504 12.0325C312.518 12.0581 312.533 12.0828 312.547 12.1079C312.12 12.8682 312.285 13.5615 312.431 14.1735C312.545 14.6502 312.643 15.0619 312.483 15.475C312.446 15.5694 312.458 15.6767 312.513 15.7622C312.632 15.9483 314.187 17.0282 315.825 17.1935C315.852 17.3012 315.887 17.4101 315.933 17.5194C316.306 18.4018 317.209 19.1054 318.618 19.6106C319.339 19.8692 319.848 20.1145 320.297 20.3309C320.854 20.5989 321.334 20.8303 321.964 20.9501C322.14 20.9835 322.319 21 322.5 21C323.355 21 324.26 20.633 325.1 19.9364C325.269 19.7968 325.509 19.6602 325.764 19.5156C326.64 19.0188 327.834 18.3402 327.766 16.6067C327.919 16.5246 328.069 16.4364 328.216 16.3391C328.237 16.3606 328.262 16.3796 328.29 16.3952C328.423 16.469 328.556 16.502 328.687 16.502C329.276 16.502 329.851 15.8421 330.411 15.2002C330.831 14.7189 331.306 14.1734 331.693 14.0231C331.792 13.9846 331.963 13.8758 331.995 13.5804C332.06 12.9761 331.498 11.6043 330.696 10.986ZM331.002 8.6899C330.931 8.88044 330.677 9.43387 330.45 9.92799C330.112 10.6644 329.817 11.3123 329.608 11.812C329.572 11.7012 329.534 11.5898 329.496 11.4777C329.31 10.9298 329.118 10.3631 329.044 9.80138C328.974 9.2718 328.825 8.81573 328.6 8.4353C328.848 7.80308 328.907 7.02494 328.766 6.29254C329.488 6.66239 330.649 7.43357 331.002 8.6899ZM326.673 16.4108C325.998 16.7196 325.232 17.0696 324.454 17.7334C323.45 18.5897 322.18 18.2959 321.352 17.6371C321.576 17.4794 321.786 17.2886 321.98 17.0659C322.761 16.9704 323.563 16.6979 324.318 16.2578C325.691 15.4576 326.738 14.1971 327.19 12.7997C327.774 10.9969 327.152 9.02177 326.169 7.76295C326.519 7.77115 327.038 7.84679 327.486 8.16744C327.977 8.51893 328.279 9.09646 328.383 9.88406C328.465 10.5071 328.667 11.1036 328.863 11.6804C329.166 12.5745 329.452 13.4191 329.171 14.1082C328.589 15.5352 327.744 15.9216 326.673 16.4108ZM316.064 14.5639C315.78 13.9644 315.427 13.5694 315.115 13.221C314.686 12.7413 314.347 12.3624 314.237 11.569C313.981 9.7314 315.171 7.95763 316.419 7.22165C316.763 7.01906 317.087 6.91107 317.354 6.90204C316.628 7.68947 315.82 8.99037 315.847 10.2674C315.863 11.0366 316.179 11.6704 316.786 12.1511C316.946 12.2779 317.112 12.3895 317.282 12.4861C317.092 13.058 317.179 13.902 317.523 14.6754C317.813 15.3271 318.541 16.4885 320.156 16.9436C320.426 17.0197 320.707 17.068 320.994 17.0903C320.517 17.4395 319.974 17.5862 319.393 17.5175C318.132 17.3684 316.857 16.2366 316.064 14.5639ZM317.82 4.18179C318.357 3.78689 319.467 3.24404 320.867 4.04495C321.881 4.62477 322.864 4.84486 323.654 5.02166C324.741 5.26507 325.319 5.42209 325.541 6.06615C325.69 6.49561 325.398 6.77807 325.262 6.88196C324.574 6.39898 323.838 6.25518 323.185 6.48567C322.849 6.18481 322.449 5.94425 321.994 5.77552C320.633 5.27069 319.07 5.5014 317.945 6.35677C317.531 6.18611 317.01 6.22675 316.451 6.47319C316.478 5.68045 317.125 4.69328 317.82 4.18179ZM320.341 16.3213C318.989 15.9401 318.379 14.9654 318.135 14.4183C317.845 13.7666 317.797 13.14 317.893 12.7611C318.041 12.811 318.19 12.8505 318.342 12.8793C318.692 13.7256 319.591 14.4064 320.633 14.597C320.836 14.6342 321.038 14.6526 321.24 14.6526C322.299 14.6526 323.317 14.1453 324.103 13.2081C325.012 12.1233 325.853 10.6329 324.335 8.69374C324.244 8.06601 324.019 7.50398 323.678 7.03284C324.29 6.96066 324.852 7.36135 325.158 7.635C326.303 8.66143 327.139 10.8011 326.554 12.605C326.15 13.8534 325.21 14.9822 323.975 15.7021C322.767 16.4061 321.443 16.6316 320.341 16.3213ZM318.205 6.98861C319.141 6.18429 320.568 5.94015 321.757 6.38088C322.232 6.55721 322.964 6.95703 323.386 7.8185C322.855 7.47271 322.242 7.2569 321.604 7.20213C320.762 7.13012 319.971 7.35712 319.431 7.82532C318.451 8.6753 318.092 9.71996 318.446 10.6914C318.696 11.3795 319.289 11.9294 319.939 12.118C319.267 12.3545 318.243 12.4686 317.207 11.6488C316.758 11.2938 316.525 10.8246 316.513 10.2545C316.495 9.39115 317.082 7.95323 318.205 6.98861ZM320.569 11.6118C320.37 11.4548 320.247 11.232 320.221 10.9845C320.195 10.7371 320.269 10.4946 320.431 10.3017C320.593 10.1088 320.822 9.98864 321.076 9.96333C321.11 9.96 321.143 9.9584 321.176 9.9584C321.395 9.9584 321.606 10.0311 321.779 10.1677C322.189 10.492 322.25 11.0797 321.917 11.4779C321.755 11.6707 321.526 11.7909 321.271 11.8162C321.017 11.8415 320.767 11.7689 320.569 11.6118ZM321.171 12.4691C321.227 12.4691 321.283 12.4664 321.339 12.4608C321.771 12.4178 322.16 12.2141 322.434 11.887C322.999 11.2118 322.895 10.2151 322.2 9.66523C321.863 9.39888 321.44 9.27573 321.009 9.31875C320.577 9.36169 320.188 9.56544 319.914 9.89253C319.64 10.2196 319.513 10.6308 319.558 11.0505C319.563 11.0991 319.57 11.1472 319.58 11.1946C319.359 11.0065 319.176 10.7554 319.074 10.4752C318.812 9.75382 319.096 8.98441 319.875 8.30865C320.278 7.9591 320.886 7.79107 321.545 7.84752C322.405 7.9213 323.21 8.34968 323.754 9.0229C324.975 10.533 324.57 11.6245 323.586 12.7989C322.524 14.0659 321.357 14.0704 320.756 13.9603C320.062 13.8332 319.452 13.4411 319.118 12.9341C319.222 12.9293 319.326 12.9202 319.431 12.9057C319.763 12.86 320.272 12.7402 320.816 12.4307C320.931 12.456 321.05 12.4691 321.171 12.4691ZM322.409 1.73416C323.06 1.61424 323.654 1.64703 323.931 1.67407C324.165 2.10681 324.895 3.25968 326.382 4.09307C327.482 4.70939 327.905 5.58352 328.066 6.20831C328.219 6.80243 328.193 7.37254 328.093 7.81625C328.026 7.75599 327.955 7.69889 327.881 7.64571C327.184 7.1464 326.377 7.10001 325.951 7.11798C326.185 6.82118 326.355 6.38662 326.173 5.85989C325.821 4.84214 324.886 4.63276 323.803 4.3903C323.019 4.21475 322.13 4.01579 321.205 3.48655C320.872 3.29592 320.552 3.16746 320.247 3.08698C320.685 2.3726 321.41 1.91796 322.409 1.73416ZM316.818 3.10884C317.044 2.77368 317.276 2.4291 317.41 2.07105C317.875 2.05036 319.063 2.08841 319.755 2.63044C319.68 2.74171 319.611 2.85813 319.548 2.9799C318.6 2.94102 317.856 3.34283 317.418 3.66521C317.241 3.79558 317.074 3.94201 316.92 4.10002C316.709 4.10771 316.479 4.15821 316.238 4.24024C316.288 3.89799 316.547 3.51238 316.818 3.10884ZM313.096 7.14226C313.283 6.97319 313.88 6.44382 314.589 5.92511C315.35 5.36805 315.903 5.06745 316.297 4.90952C315.911 5.55501 315.719 6.26006 315.809 6.83712C314.453 7.77349 313.298 9.65154 313.576 11.6558C313.627 12.0209 313.722 12.3208 313.843 12.579C313.532 12.3603 313.284 12.0795 313.094 11.7314C312.213 10.1105 312.949 7.6029 313.096 7.14226ZM313.081 14.0272C312.97 13.5624 312.871 13.149 313.003 12.7181C313.414 13.1456 313.946 13.4498 314.594 13.6259C314.6 13.6326 314.606 13.6394 314.612 13.6462C314.908 13.9773 315.214 14.3196 315.458 14.8349C315.608 15.1494 315.774 15.4485 315.955 15.7296C315.95 15.7373 315.946 15.7449 315.942 15.753C315.844 15.9553 315.769 16.2262 315.756 16.5328C314.622 16.3781 313.57 15.7469 313.179 15.4745C313.305 14.9653 313.191 14.4894 313.081 14.0272ZM325.429 18.956C325.147 19.1156 324.881 19.2664 324.668 19.4435C323.807 20.1571 322.893 20.4664 322.092 20.3143C321.55 20.2112 321.128 20.0079 320.593 19.7505C320.129 19.5268 319.603 19.2734 318.849 19.0029C317.639 18.5692 316.845 17.9712 316.55 17.2735C316.404 16.9286 316.402 16.6204 316.437 16.395C316.663 16.6702 316.904 16.9194 317.157 17.1378C317.831 17.72 318.577 18.0737 319.312 18.1607C319.431 18.1748 319.549 18.1818 319.666 18.1818C320.038 18.1818 320.398 18.1111 320.738 17.9738C320.742 17.978 320.746 17.9823 320.75 17.9863C321.273 18.4608 321.958 18.7873 322.631 18.882C322.774 18.902 322.915 18.912 323.054 18.912C323.729 18.912 324.359 18.6768 324.894 18.2204C325.601 17.617 326.29 17.3019 326.957 16.9972C327.004 16.9759 327.05 16.9547 327.096 16.9334C327.016 18.0553 326.21 18.5126 325.429 18.956ZM329.903 14.7813C329.603 15.1248 329.193 15.5957 328.896 15.7754C329.234 15.4218 329.538 14.9666 329.791 14.3468C329.981 13.8799 329.988 13.4011 329.903 12.9088C329.926 12.8756 329.944 12.8381 329.954 12.7964C330.002 12.586 330.189 12.1299 330.417 11.6091C330.978 12.1405 331.338 13.1491 331.336 13.4693C330.836 13.7108 330.362 14.2544 329.903 14.7813Z" fill="white"/>
<path d="M342.1 4.7V13.576H346.58V14.5H341.12V4.7H342.1ZM352.703 11.168V7.5H353.627V14.5H352.703V13.408C352.18 14.248 351.396 14.668 350.351 14.668C349.511 14.668 348.844 14.4113 348.349 13.898C347.854 13.3753 347.607 12.6753 347.607 11.798V7.5H348.531V11.798C348.531 12.4233 348.694 12.9087 349.021 13.254C349.357 13.5993 349.828 13.772 350.435 13.772C351.135 13.772 351.686 13.5527 352.087 13.114C352.498 12.6753 352.703 12.0267 352.703 11.168ZM358.732 10.874L361.462 14.5H360.356L358.172 11.616L355.988 14.5H354.882L357.626 10.874L355.064 7.5H356.17L358.172 10.146L360.174 7.5H361.28L358.732 10.874ZM365.46 7.332C366.505 7.332 367.341 7.70067 367.966 8.438C368.61 9.166 368.932 10.0293 368.932 11.028C368.932 11.0747 368.923 11.2193 368.904 11.462H362.758C362.851 12.162 363.15 12.722 363.654 13.142C364.158 13.562 364.788 13.772 365.544 13.772C366.608 13.772 367.359 13.3753 367.798 12.582L368.61 13.058C368.302 13.562 367.877 13.9587 367.336 14.248C366.804 14.528 366.202 14.668 365.53 14.668C364.429 14.668 363.533 14.3227 362.842 13.632C362.151 12.9413 361.806 12.064 361.806 11C361.806 9.94533 362.147 9.07267 362.828 8.382C363.509 7.682 364.387 7.332 365.46 7.332ZM365.46 8.228C364.732 8.228 364.121 8.44267 363.626 8.872C363.141 9.30133 362.851 9.866 362.758 10.566H367.98C367.877 9.81933 367.593 9.24533 367.126 8.844C366.641 8.43333 366.085 8.228 365.46 8.228ZM377.864 7.332C378.657 7.332 379.292 7.584 379.768 8.088C380.244 8.592 380.482 9.27333 380.482 10.132V14.5H379.558V10.132C379.558 9.53467 379.404 9.068 379.096 8.732C378.788 8.396 378.373 8.228 377.85 8.228C377.243 8.228 376.767 8.42867 376.422 8.83C376.077 9.23133 375.904 9.82867 375.904 10.622V14.5H374.98V10.132C374.98 9.52533 374.835 9.05867 374.546 8.732C374.257 8.396 373.855 8.228 373.342 8.228C372.754 8.228 372.269 8.43333 371.886 8.844C371.513 9.25467 371.326 9.84733 371.326 10.622V14.5H370.402V7.5H371.326V8.522C371.83 7.72867 372.544 7.332 373.468 7.332C374.485 7.332 375.195 7.75667 375.596 8.606C376.1 7.75667 376.856 7.332 377.864 7.332ZM386.021 7.332C387.02 7.332 387.869 7.68667 388.569 8.396C389.278 9.10533 389.633 9.97333 389.633 11C389.633 12.0267 389.278 12.8947 388.569 13.604C387.869 14.3133 387.02 14.668 386.021 14.668C384.78 14.668 383.837 14.1547 383.193 13.128V14.5H382.269V4.7H383.193V8.872C383.837 7.84533 384.78 7.332 386.021 7.332ZM383.991 12.974C384.523 13.506 385.176 13.772 385.951 13.772C386.726 13.772 387.379 13.506 387.911 12.974C388.443 12.4233 388.709 11.7653 388.709 11C388.709 10.2253 388.443 9.572 387.911 9.04C387.379 8.49867 386.726 8.228 385.951 8.228C385.176 8.228 384.523 8.49867 383.991 9.04C383.459 9.572 383.193 10.2253 383.193 11C383.193 11.7653 383.459 12.4233 383.991 12.974ZM397.035 13.618C396.317 14.318 395.449 14.668 394.431 14.668C393.395 14.668 392.523 14.318 391.813 13.618C391.104 12.9087 390.749 12.036 390.749 11C390.749 9.964 391.104 9.096 391.813 8.396C392.523 7.68667 393.395 7.332 394.431 7.332C395.458 7.332 396.326 7.68667 397.035 8.396C397.754 9.096 398.113 9.964 398.113 11C398.113 12.0267 397.754 12.8993 397.035 13.618ZM392.471 12.974C393.003 13.506 393.657 13.772 394.431 13.772C395.206 13.772 395.859 13.506 396.391 12.974C396.923 12.4233 397.189 11.7653 397.189 11C397.189 10.2253 396.923 9.572 396.391 9.04C395.859 8.49867 395.206 8.228 394.431 8.228C393.657 8.228 393.003 8.49867 392.471 9.04C391.939 9.572 391.673 10.2253 391.673 11C391.673 11.7653 391.939 12.4233 392.471 12.974ZM404.588 11.168V7.5H405.512V14.5H404.588V13.408C404.065 14.248 403.281 14.668 402.236 14.668C401.396 14.668 400.728 14.4113 400.234 13.898C399.739 13.3753 399.492 12.6753 399.492 11.798V7.5H400.416V11.798C400.416 12.4233 400.579 12.9087 400.906 13.254C401.242 13.5993 401.713 13.772 402.32 13.772C403.02 13.772 403.57 13.5527 403.972 13.114C404.382 12.6753 404.588 12.0267 404.588 11.168ZM408.39 7.5V8.662C408.82 7.81267 409.557 7.388 410.602 7.388V8.284C409.93 8.284 409.394 8.48 408.992 8.872C408.591 9.25467 408.39 9.83333 408.39 10.608V14.5H407.466V7.5H408.39ZM417.465 8.872V7.5H418.389V14.22C418.389 15.228 418.044 16.0213 417.353 16.6C416.662 17.1787 415.836 17.468 414.875 17.468C413.242 17.468 412.136 16.8987 411.557 15.76L412.369 15.298C412.789 16.1473 413.624 16.572 414.875 16.572C415.678 16.572 416.308 16.362 416.765 15.942C417.232 15.522 417.465 14.948 417.465 14.22V13.128C416.821 14.1547 415.878 14.668 414.637 14.668C413.638 14.668 412.784 14.3133 412.075 13.604C411.375 12.8947 411.025 12.0267 411.025 11C411.025 9.97333 411.375 9.10533 412.075 8.396C412.784 7.68667 413.638 7.332 414.637 7.332C415.878 7.332 416.821 7.84533 417.465 8.872ZM412.747 12.974C413.279 13.506 413.932 13.772 414.707 13.772C415.482 13.772 416.135 13.506 416.667 12.974C417.199 12.4233 417.465 11.7653 417.465 11C417.465 10.2253 417.199 9.572 416.667 9.04C416.135 8.49867 415.482 8.228 414.707 8.228C413.932 8.228 413.279 8.49867 412.747 9.04C412.215 9.572 411.949 10.2253 411.949 11C411.949 11.7653 412.215 12.4233 412.747 12.974ZM420.765 13.31H421.885L421.045 16.46H420.205L420.765 13.31ZM428.329 4.7V13.576H432.809V14.5H427.349V4.7H428.329ZM433.935 11.168V4.7H434.915V11.168C434.915 11.9613 435.148 12.5867 435.615 13.044C436.091 13.492 436.744 13.716 437.575 13.716C438.406 13.716 439.054 13.492 439.521 13.044C439.997 12.5867 440.235 11.9613 440.235 11.168V4.7H441.215V11.168C441.215 12.232 440.879 13.0813 440.207 13.716C439.526 14.3507 438.648 14.668 437.575 14.668C436.502 14.668 435.624 14.3507 434.943 13.716C434.271 13.0813 433.935 12.232 433.935 11.168Z" fill="white"/>
<path d="M469.223 9.24567C473.659 9.17946 474.453 10.9007 476.439 11.1655V9.44427C476.174 9.44427 474.188 9.31187 473.063 8.98086C471.54 8.78225 469.554 6.7962 463.066 7.65682V9.84148C464.125 9.70908 467.965 9.17946 469.223 9.24567Z" fill="white"/>
<path d="M474.188 11.2979C471.209 10.5696 463.265 12.1585 463 12.1585C463 12.1585 463 14.0121 463 14.4756C470.746 13.2839 473.923 12.5557 476.439 13.0191V12.2909C476.439 12.2247 475.512 11.5627 474.188 11.2979Z" fill="white"/>
<path d="M476.439 4.14807V2.29442C476.439 2.29442 473.725 1.5 469.753 1.5C465.78 1.5 463 2.29442 463 2.29442V2.95644C463.728 3.08884 475.711 4.08187 476.439 4.14807Z" fill="white"/>
<path d="M471.408 5.40597C467.634 5.33977 464.258 4.28054 463 4.21434V5.67078C466.707 5.40597 469.62 7.06102 472.003 7.25963C472.864 7.32583 475.777 7.52443 476.373 7.59064V5.86939C475.049 5.60458 472.202 5.47218 471.408 5.40597Z" fill="white"/>
<path d="M463.662 16.3955C463.794 16.5941 464.456 18.3815 469.753 20.5C469.951 20.4338 473.923 18.9774 475.38 17.0575C476.108 16.0645 476.373 15.0714 476.439 14.4756C476.108 14.5418 463.728 16.3955 463.662 16.3955Z" fill="white"/>
<path d="M484.718 4.7H491.718V5.624H488.708V14.5H487.728V5.624H484.718V4.7ZM497.74 8.872V7.5H498.664V14.5H497.74V13.128C497.096 14.1547 496.154 14.668 494.912 14.668C493.914 14.668 493.06 14.3133 492.35 13.604C491.65 12.8947 491.3 12.0267 491.3 11C491.3 9.97333 491.65 9.10533 492.35 8.396C493.06 7.68667 493.914 7.332 494.912 7.332C496.154 7.332 497.096 7.84533 497.74 8.872ZM493.022 12.974C493.554 13.506 494.208 13.772 494.982 13.772C495.757 13.772 496.41 13.506 496.942 12.974C497.474 12.4233 497.74 11.7653 497.74 11C497.74 10.2253 497.474 9.572 496.942 9.04C496.41 8.49867 495.757 8.228 494.982 8.228C494.208 8.228 493.554 8.49867 493.022 9.04C492.49 9.572 492.224 10.2253 492.224 11C492.224 11.7653 492.49 12.4233 493.022 12.974ZM501.545 14.5H500.621V4.28H501.545V14.5ZM504.429 14.5H503.505V4.28H504.429V14.5ZM507.524 5.344C507.524 5.53067 507.459 5.68933 507.328 5.82C507.197 5.95067 507.039 6.016 506.852 6.016C506.665 6.016 506.507 5.95067 506.376 5.82C506.245 5.68933 506.18 5.53067 506.18 5.344C506.18 5.15733 506.245 4.99867 506.376 4.868C506.507 4.73733 506.665 4.672 506.852 4.672C507.039 4.672 507.197 4.73733 507.328 4.868C507.459 4.99867 507.524 5.15733 507.524 5.344ZM507.314 14.5H506.39V7.5H507.314V14.5ZM512.551 7.332C513.391 7.332 514.058 7.59333 514.553 8.116C515.048 8.62933 515.295 9.32467 515.295 10.202V14.5H514.371V10.202C514.371 9.57667 514.203 9.09133 513.867 8.746C513.54 8.40067 513.074 8.228 512.467 8.228C511.767 8.228 511.212 8.44733 510.801 8.886C510.4 9.32467 510.199 9.97333 510.199 10.832V14.5H509.275V7.5H510.199V8.592C510.722 7.752 511.506 7.332 512.551 7.332ZM520.358 7.332C521.198 7.332 521.865 7.59333 522.36 8.116C522.854 8.62933 523.102 9.32467 523.102 10.202V14.5H522.178V10.202C522.178 9.57667 522.01 9.09133 521.674 8.746C521.347 8.40067 520.88 8.228 520.274 8.228C519.574 8.228 519.018 8.44733 518.608 8.886C518.206 9.32467 518.006 9.97333 518.006 10.832V14.5H517.082V7.5H518.006V8.592C518.528 7.752 519.312 7.332 520.358 7.332ZM525.308 13.31H526.428L525.588 16.46H524.748L525.308 13.31ZM532.871 10.02V13.576H537.631V14.5H531.891V4.7H537.561V5.624H532.871V9.096H537.211V10.02H532.871ZM542.395 14.668C541.499 14.668 540.729 14.458 540.085 14.038C539.451 13.6087 539.007 13.0207 538.755 12.274L539.595 11.784C539.773 12.4 540.099 12.876 540.575 13.212C541.061 13.548 541.672 13.716 542.409 13.716C543.128 13.716 543.693 13.5573 544.103 13.24C544.514 12.9227 544.719 12.4933 544.719 11.952C544.719 11.4387 544.533 11.0513 544.159 10.79C543.795 10.5287 543.179 10.258 542.311 9.978C541.275 9.63267 540.603 9.362 540.295 9.166C539.549 8.718 539.175 8.06933 539.175 7.22C539.175 6.38933 539.465 5.736 540.043 5.26C540.613 4.77467 541.327 4.532 542.185 4.532C542.923 4.532 543.576 4.728 544.145 5.12C544.715 5.50267 545.139 6.01133 545.419 6.646L544.593 7.108C544.145 6.02533 543.343 5.484 542.185 5.484C541.569 5.484 541.075 5.638 540.701 5.946C540.337 6.24467 540.155 6.65533 540.155 7.178C540.155 7.67267 540.323 8.03667 540.659 8.27C541.005 8.51267 541.56 8.76 542.325 9.012L543.081 9.278C543.24 9.32467 543.464 9.40867 543.753 9.53C544.071 9.65133 544.29 9.754 544.411 9.838C544.906 10.1367 545.219 10.412 545.349 10.664C545.583 11.0373 545.699 11.4573 545.699 11.924C545.699 12.7547 545.396 13.422 544.789 13.926C544.183 14.4207 543.385 14.668 542.395 14.668ZM546.186 4.7H553.186V5.624H550.176V14.5H549.196V5.624H546.186V4.7Z" fill="white"/>
<defs>
<filter id="filter0_b_13743_2414" x="-48.0079" y="-46.0079" width="120.016" height="114.016" filterUnits="userSpaceOnUse" color-interpolation-filters="sRGB">
<feFlood flood-opacity="0" result="BackgroundImageFix"/>
<feGaussianBlur in="BackgroundImageFix" stdDeviation="24.0039"/>
<feComposite in2="SourceAlpha" operator="in" result="effect1_backgroundBlur_13743_2414"/>
<feBlend mode="normal" in="SourceGraphic" in2="effect1_backgroundBlur_13743_2414" result="shape"/>
</filter>
<filter id="filter1_b_13743_2414" x="51.9921" y="-48.0079" width="116.016" height="118.016" filterUnits="userSpaceOnUse" color-interpolation-filters="sRGB">
<feFlood flood-opacity="0" result="BackgroundImageFix"/>
<feGaussianBlur in="BackgroundImageFix" stdDeviation="24.0039"/>
<feComposite in2="SourceAlpha" operator="in" result="effect1_backgroundBlur_13743_2414"/>
<feBlend mode="normal" in="SourceGraphic" in2="effect1_backgroundBlur_13743_2414" result="shape"/>
</filter>
<filter id="filter2_b_13743_2414" x="147.992" y="-47.5079" width="120.016" height="117.016" filterUnits="userSpaceOnUse" color-interpolation-filters="sRGB">
<feFlood flood-opacity="0" result="BackgroundImageFix"/>
<feGaussianBlur in="BackgroundImageFix" stdDeviation="24.0039"/>
<feComposite in2="SourceAlpha" operator="in" result="effect1_backgroundBlur_13743_2414"/>
<feBlend mode="normal" in="SourceGraphic" in2="effect1_backgroundBlur_13743_2414" result="shape"/>
</filter>
</defs>
</svg>
