<svg width="170" height="83" viewBox="0 0 170 83" fill="none" xmlns="http://www.w3.org/2000/svg">
<path d="M52.0593 0H44.2578V48.5467H52.0593V0Z" fill="#D9D9D9"/>
<path d="M79.1529 48.5468H86.9544V15.6602H79.1529V33.0281H79.2937C79.2937 40.2898 73.0532 40.9994 71.3515 40.9994C66.8126 40.9994 65.821 36.5852 65.821 33.882V15.6602H58.0195V34.1677C58.0195 38.7232 59.5804 42.4247 61.8483 45.131C63.9754 47.2659 67.3788 48.5468 71.2107 48.5468C73.9071 48.5468 77.4513 47.8342 79.1529 45.8406V48.5468Z" fill="#D9D9D9"/>
<path d="M94.4675 48.5468H102.269V23.4901H107.943V15.6601H102.269V3.9873H94.4675V15.6601H88.6523V23.4901H94.4675V48.5468Z" fill="#D9D9D9"/>
<path d="M126.101 48.4058C130.499 48.4058 134.612 46.8392 137.731 43.9916L138.867 42.852L133.477 37.4425L132.341 38.8648C130.64 40.4314 128.513 41.2854 126.101 41.2854C120.711 41.2854 116.739 37.4426 116.739 31.7474C116.739 26.0523 120.567 22.3508 126.101 22.3508C128.513 22.3508 130.64 23.0635 132.341 24.7714L133.477 25.7666L138.582 20.6429L137.447 19.5032C134.184 16.7969 130.355 15.089 126.098 15.089C116.454 14.9477 109.359 21.9238 109.359 31.7443C109.363 41.0028 116.598 48.4058 126.101 48.4058Z" fill="#D9D9D9"/>
<path d="M150.356 30.1802C150.356 22.9184 155.745 22.2089 157.447 22.2089C161.986 22.2089 161.986 26.6231 161.986 29.3262V48.5465H169.787V29.185C169.928 24.9152 168.936 21.0692 166.384 18.5074C164.257 16.3725 161.42 15.0916 157.872 15.0916C155.176 15.0916 152.342 15.8042 150.212 17.7978V0.00292969H142.41V48.5496H150.212V30.1833H150.356V30.1802Z" fill="#D9D9D9"/>
<path d="M120.141 31.747C120.141 34.8803 122.693 37.2977 125.671 37.2977C128.793 37.2977 131.202 34.7358 131.202 31.747C131.202 28.6137 128.649 26.1963 125.671 26.1963C122.693 26.1963 120.141 28.6169 120.141 31.747Z" fill="#E52421"/>
<path d="M22.2689 48.4051C28.5095 48.4051 34.4685 45.9845 38.438 41.5703L39.5735 40.4307L34.4685 35.0212L33.4769 36.4435C30.6397 39.291 26.3855 40.9989 22.272 40.9989C13.479 40.9989 7.23528 34.1641 7.23528 24.9119C7.23528 15.5153 13.4758 8.82491 22.1281 8.82491C26.2416 8.82491 30.0704 10.5328 33.333 13.3804L34.4685 14.52L39.5735 9.39631L38.438 8.25666C34.1838 3.70118 28.3656 1.42188 22.2689 1.42188C9.50315 1.56315 0 11.5312 0 24.9119C0 38.2926 9.50315 48.4051 22.2689 48.4051Z" fill="#D9D9D9"/>
<path d="M12.6272 73.3176H9.78997V75.8795H6.24271L11.9171 67.9082H8.79837L2.55469 76.3065V78.3001H9.64921V81.1476H12.6272V78.3001H14.7543V75.8795H12.6272V73.3176Z" fill="#D9D9D9"/>
<path d="M17.7292 77.5879C17.163 77.5879 16.7376 77.7292 16.4529 78.1562C16.1682 78.4419 15.8867 78.8688 15.8867 79.4371C15.8867 80.0053 16.0275 80.4323 16.4529 80.718C16.7376 81.0037 17.3037 81.2863 17.7292 81.2863C18.2954 81.2863 18.7208 81.145 19.0054 80.718C19.2901 80.4323 19.5716 79.8641 19.5716 79.4371C19.5716 78.8688 19.4309 78.4419 19.0054 78.1562C18.7239 77.7323 18.2985 77.5879 17.7292 77.5879Z" fill="#D9D9D9"/>
<path d="M29.9289 69.33C28.9373 68.1903 27.3764 67.6221 25.5308 67.6221C24.5392 67.6221 23.8292 67.7633 22.9783 68.1903C22.2682 68.6173 21.5613 69.0443 21.1359 69.757C20.7104 70.4696 20.4258 71.1792 20.4258 72.0363C20.4258 72.8902 20.5665 73.6029 20.992 74.1712C21.4174 74.7394 21.9836 75.3108 22.6937 75.5934C23.4037 75.8791 24.1107 76.1616 24.9647 76.1616C26.3817 76.1616 27.5172 75.7346 28.2273 75.022C28.2273 76.3029 27.8018 77.1569 27.2356 77.8695C26.5256 78.5822 25.6747 78.8648 24.5392 78.8648C23.5476 78.8648 22.6968 78.5791 22.1275 78.1521L20.992 80.4314C21.4174 80.7171 21.9836 80.9997 22.6937 81.1441C23.4037 81.2854 23.9699 81.4298 24.68 81.4298C25.9563 81.4298 27.2325 81.1441 28.2273 80.5758C29.2189 80.0076 30.0697 79.1536 30.639 78.1552C31.2052 77.0156 31.4899 75.7346 31.4899 74.3124C31.4899 72.0363 30.9205 70.4696 29.9289 69.33ZM27.5172 73.3172C27.0918 73.7442 26.5256 73.8855 25.9563 73.8855C25.2462 73.8855 24.68 73.7442 24.3953 73.3172C23.9699 72.8902 23.8292 72.4632 23.8292 71.895C23.8292 71.3267 23.9699 70.7553 24.3953 70.4728C24.8208 70.1871 25.3869 69.9045 25.9563 69.9045C26.6663 69.9045 27.2325 70.0458 27.6579 70.4728C28.0834 70.8998 28.2241 71.3267 28.2241 71.895C28.0865 72.4632 27.9426 72.8902 27.5172 73.3172Z" fill="#D9D9D9"/>
<path d="M37.4476 65.2021L31.207 83.0002H33.9035L40.0032 65.2021H37.4476Z" fill="#D9D9D9"/>
<path d="M44.541 72.8907H43.4055L43.5463 70.3288H49.0767V67.9082H40.9906L40.2805 75.3112H43.6839C44.8194 75.3112 45.6702 75.4525 46.0957 75.7382C46.5211 76.0239 46.8057 76.4509 46.8057 77.0191C46.8057 77.5874 46.5211 78.0144 46.0957 78.3001C45.6702 78.5858 45.1041 78.7271 44.2532 78.7271C43.5431 78.7271 42.8362 78.5858 42.2669 78.4414C41.5568 78.3001 40.9906 77.8731 40.5652 77.5874L39.4297 79.8667C39.9959 80.2937 40.8467 80.7207 41.7007 80.862C42.5515 81.1476 43.5431 81.2889 44.3971 81.2889C45.5326 81.2889 46.6681 81.1476 47.375 80.7207C48.2259 80.2937 48.7921 79.8667 49.2175 79.154C49.6429 78.4414 49.7837 77.7318 49.7837 77.0191C49.7837 75.7382 49.3583 74.7398 48.5074 74.0303C47.6597 73.1764 46.3834 72.8907 44.541 72.8907Z" fill="#D9D9D9"/>
<path d="M52.9088 77.5879C52.3427 77.5879 51.9172 77.7292 51.6326 78.1562C51.3479 78.4419 51.0664 78.8688 51.0664 79.4371C51.0664 80.0053 51.2072 80.4323 51.6326 80.718C51.9172 81.0037 52.4834 81.2863 52.9088 81.2863C53.475 81.2863 53.9005 81.145 54.1851 80.718C54.4698 80.4323 54.7513 79.8641 54.7513 79.4371C54.7513 78.8688 54.6105 78.4419 54.1851 78.1562C53.9005 77.7323 53.475 77.5879 52.9088 77.5879Z" fill="#D9D9D9"/>
<path d="M64.3984 68.476C63.5476 67.9078 62.556 67.6221 61.4205 67.6221C60.285 67.6221 59.2934 67.9078 58.4425 68.476C57.5917 69.0443 56.8816 69.757 56.4562 70.8966C56.0307 71.8918 55.7461 73.1759 55.7461 74.5981C55.7461 76.0203 56.0307 77.3044 56.4562 78.2997C56.8816 79.2949 57.5917 80.1488 58.4425 80.7202C59.2934 81.2916 60.285 81.5742 61.4205 81.5742C62.556 81.5742 63.5476 81.2885 64.3984 80.7202C65.2492 80.152 65.9593 79.4393 66.3847 78.2997C66.8102 77.3044 67.0948 76.0203 67.0948 74.5981C67.0948 73.1759 66.8102 71.8918 66.3847 70.8966C65.9593 69.757 65.2492 69.0474 64.3984 68.476ZM63.4068 77.7314C62.9814 78.4441 62.2713 78.7266 61.5644 78.7266C60.7135 78.7266 60.1473 78.4409 59.7219 77.7314C59.2965 77.0187 59.0118 76.0235 59.0118 74.4569C59.0118 72.8902 59.2965 71.895 59.7219 71.1823C60.1473 70.4696 60.8574 70.1871 61.5644 70.1871C62.4152 70.1871 62.9814 70.4728 63.4068 71.1823C63.8322 71.8918 64.1169 72.8902 64.1169 74.4569C64.1138 76.0235 63.8322 77.0187 63.4068 77.7314Z" fill="#D9D9D9"/>
<path d="M92.3386 70.6116H86.3796C86.2389 70.6116 85.9542 70.4703 85.9542 70.3259L84.1117 64.6308C83.971 64.2038 83.2609 64.2038 83.1201 64.6308L81.2777 70.3259C81.2777 70.4672 80.993 70.6116 80.8523 70.6116H74.8932C74.4678 70.6116 74.1832 71.1799 74.6086 71.4656L79.4321 75.0258C79.5729 75.1671 79.7168 75.3115 79.5729 75.5941L77.7304 81.2892C77.5897 81.7162 78.1559 82.1431 78.4405 81.8574L83.264 78.2972C83.4048 78.1559 83.6895 78.1559 83.8302 78.2972L88.6537 81.8574C89.0792 82.1431 89.5046 81.7162 89.3638 81.2892L87.5214 75.5941C87.5214 75.4528 87.5214 75.1671 87.6621 75.0258L92.4857 71.4656C93.0487 71.183 92.9048 70.6116 92.3386 70.6116Z" fill="#E52421"/>
<path d="M111.491 70.6116H105.532C105.391 70.6116 105.107 70.4703 105.107 70.3259L103.264 64.6308C103.123 64.2038 102.413 64.2038 102.272 64.6308L100.43 70.3259C100.43 70.4672 100.145 70.6116 100.005 70.6116H94.0456C93.6202 70.6116 93.3355 71.1799 93.7609 71.4656L98.5845 75.0258C98.7252 75.1671 98.8691 75.3115 98.7252 75.5941L96.8828 81.2892C96.742 81.7162 97.3082 82.1431 97.5929 81.8574L102.416 78.2972C102.557 78.1559 102.842 78.1559 102.983 78.2972L107.806 81.8574C108.232 82.1431 108.657 81.7162 108.516 81.2892L106.674 75.5941C106.674 75.4528 106.674 75.1671 106.814 75.0258L111.638 71.4656C112.057 71.183 111.916 70.6116 111.491 70.6116Z" fill="#E52421"/>
<path d="M131.065 70.6116H125.106C124.965 70.6116 124.681 70.4703 124.681 70.3259L122.838 64.6308C122.698 64.2038 121.987 64.2038 121.847 64.6308L120.004 70.3259C120.004 70.4672 119.72 70.6116 119.579 70.6116H113.62C113.194 70.6116 112.91 71.1799 113.335 71.4656L118.159 75.0258C118.299 75.1671 118.443 75.3115 118.299 75.5941L116.457 81.2892C116.316 81.7162 116.882 82.1431 117.167 81.8574L121.991 78.2972C122.131 78.1559 122.416 78.1559 122.557 78.2972L127.38 81.8574C127.806 82.1431 128.231 81.7162 128.09 81.2892L126.248 75.5941C126.248 75.4528 126.248 75.1671 126.389 75.0258L131.212 71.4656C131.635 71.183 131.491 70.6116 131.065 70.6116Z" fill="#E52421"/>
<path d="M150.499 70.6116H144.54C144.399 70.6116 144.114 70.4703 144.114 70.3259L142.272 64.6308C142.131 64.2038 141.421 64.2038 141.28 64.6308L139.438 70.3259C139.438 70.4672 139.153 70.6116 139.012 70.6116H133.053C132.628 70.6116 132.343 71.1799 132.769 71.4656L137.592 75.0258C137.733 75.1671 137.877 75.3115 137.733 75.5941L135.891 81.2892C135.75 81.7162 136.316 82.1431 136.601 81.8574L141.424 78.2972C141.565 78.1559 141.85 78.1559 141.99 78.2972L146.814 81.8574C147.239 82.1431 147.665 81.7162 147.524 81.2892L145.682 75.5941C145.682 75.4528 145.682 75.1671 145.822 75.0258L150.646 71.4656C151.065 71.183 150.924 70.6116 150.499 70.6116Z" fill="#E52421"/>
<path d="M169.791 71.4685C170.217 71.1828 169.932 70.6145 169.507 70.6145H163.548C163.407 70.6145 163.122 70.4732 163.122 70.3288L161.28 64.6337C161.139 64.2067 160.429 64.2067 160.288 64.6337L158.446 70.3288C158.446 70.4701 158.161 70.6145 158.02 70.6145H152.061C151.636 70.6145 151.351 71.1828 151.777 71.4685L156.6 75.0287C156.741 75.17 156.885 75.3144 156.741 75.597L154.898 81.2921C154.758 81.7191 155.324 82.1461 155.608 81.8604L160.432 78.3001C160.573 78.1588 160.857 78.1588 160.998 78.3001L165.822 81.8604C166.247 82.1461 166.673 81.7191 166.532 81.2921L164.689 75.597C164.689 75.4557 164.689 75.17 164.83 75.0287L169.791 71.4685Z" fill="#E52421"/>
</svg>
