<svg width="145" height="25" viewBox="0 0 145 25" fill="none" xmlns="http://www.w3.org/2000/svg">
<path d="M33.8449 4.91731C34.874 4.91731 35.871 5.14808 36.835 5.61058C37.801 6.07404 38.536 6.67308 39.041 7.40865C39.459 8.00865 39.757 8.69423 39.936 9.46635L40.016 9.86058C40.16 10.5 40.232 11.5202 40.232 12.9221H29.6089C29.6539 14.3317 30.0019 15.4625 30.6509 16.3144C31.3009 17.1663 32.3059 17.5923 33.6689 17.5923C34.94 17.5923 35.955 17.1904 36.713 16.3856C37.146 15.9183 37.453 15.3779 37.633 14.7635H40.028C39.965 15.274 39.755 15.8433 39.398 16.4702C39.042 17.0971 38.643 17.6096 38.201 18.0077C37.461 18.7 36.546 19.1663 35.455 19.4087C34.8027 19.5542 34.1345 19.6239 33.4649 19.6163C31.6619 19.6163 30.1329 18.9865 28.8789 17.7279C27.6259 16.4712 26.9989 14.7077 26.9989 12.4423C26.9989 10.2115 27.6299 8.39904 28.8929 7.00673C30.1559 5.61442 31.8069 4.91827 33.8449 4.91827V4.91731ZM33.6969 6.95385C32.5779 6.95385 31.6399 7.34038 30.8819 8.11538C30.1249 8.88942 29.7229 9.87308 29.6779 11.0673H37.728C37.63 10.0548 37.399 9.24615 37.038 8.64038C36.371 7.51538 35.258 6.95385 33.6969 6.95385ZM41.842 5.22788H44.9951L48.3231 10.1192L51.6931 5.22788L54.6552 5.29327L49.7711 12.001L54.8722 19.1231H51.7601L48.1601 13.9077L44.6701 19.1231H41.585L46.6861 12.001L41.842 5.22788ZM62.6662 4.82596C64.2983 4.82596 65.6263 5.20673 66.6503 5.96827C67.6743 6.72885 68.2903 8.03942 68.4973 9.89904H66.1293C65.9853 9.04327 65.6563 8.33173 65.1423 7.76442C64.6273 7.19808 63.8023 6.91442 62.6662 6.91442C61.1142 6.91442 60.0052 7.64135 59.3372 9.09423C58.9042 10.0365 58.6872 11.2 58.6872 12.5846C58.6872 13.9769 58.9942 15.149 59.6072 16.1C60.2212 17.0519 61.1872 17.5269 62.5032 17.5269C63.5133 17.5269 64.3143 17.2308 64.9053 16.6385C65.4953 16.0462 65.9043 15.2346 66.1293 14.2058H68.4973C68.2273 16.0481 67.5503 17.3952 66.4673 18.2471C65.3853 19.099 64.0013 19.526 62.3142 19.526C60.4192 19.526 58.9092 18.8615 57.7812 17.5337C56.6532 16.2067 56.0902 14.5481 56.0902 12.5587C56.0902 10.1192 56.7082 8.22115 57.9432 6.86346C59.1792 5.50481 60.7532 4.82596 62.6662 4.82596ZM70.9333 0H73.3684V7.10962C73.9464 6.40865 74.4644 5.91635 74.9244 5.63077C75.7094 5.1375 76.6884 4.89038 77.8604 4.89038C79.9624 4.89038 81.3874 5.59615 82.1364 7.00577C82.5424 7.775 82.7455 8.84327 82.7455 10.2106V19.1231H80.2424V10.3654C80.2424 9.34615 80.1064 8.59712 79.8364 8.12115C79.3944 7.36058 78.5644 6.97981 77.3464 6.97981C76.3364 6.97981 75.4204 7.3125 74.6004 7.97885C73.7794 8.64423 73.3684 9.90288 73.3684 11.7538V19.1231H70.9333V0ZM92.0275 4.89135C93.7326 4.89135 95.1176 5.20192 96.1816 5.825C97.2366 6.44808 97.7646 7.41635 97.7646 8.73077V16.7356C97.7646 16.9779 97.8166 17.1731 97.9196 17.3192C98.0236 17.4663 98.2426 17.5404 98.5766 17.5404C98.6846 17.5404 98.8066 17.5337 98.9416 17.5212C99.0766 17.5077 99.2216 17.4885 99.3746 17.4625V19.1875L98.9636 19.2933C98.8136 19.3305 98.6618 19.3604 98.5086 19.3827C98.3106 19.4087 98.0386 19.4212 97.6966 19.4212C96.8576 19.4212 96.2486 19.1356 95.8706 18.5654C95.6716 18.2625 95.5316 17.8346 95.4506 17.2808C94.9546 17.9038 94.2416 18.4442 93.3126 18.9029C92.3836 19.3606 91.3595 19.5904 90.2415 19.5904C88.8975 19.5904 87.7995 19.199 86.9465 18.4163C86.0945 17.6337 85.6685 16.6538 85.6685 15.4779C85.6685 14.1894 86.0875 13.1894 86.9265 12.4808C87.7655 11.7712 88.8665 11.3346 90.2275 11.1702L94.1116 10.7029C94.6706 10.6337 95.0446 10.4087 95.2346 10.0288C95.3426 9.82115 95.3966 9.52211 95.3966 9.13365C95.3966 8.3375 95.1016 7.76058 94.5106 7.40096C93.9196 7.04231 93.0736 6.8625 91.9735 6.8625C90.7015 6.8625 89.7995 7.19135 89.2675 7.84904C88.9695 8.2125 88.7755 8.75288 88.6855 9.47115H86.4125C86.4575 7.75769 87.0365 6.56731 88.1505 5.89615C89.2645 5.22596 90.5575 4.89135 92.0275 4.89135ZM95.3286 12.0529C95.0316 12.2337 94.6486 12.3856 94.1786 12.5067C93.7096 12.6279 93.2496 12.7144 92.7986 12.7663L91.3235 12.9471C90.4395 13.0596 89.7765 13.2375 89.3345 13.4798C88.5865 13.8856 88.2115 14.5346 88.2115 15.426C88.2115 16.1 88.4685 16.6317 88.9825 17.0221C89.4975 17.4106 90.1065 17.6048 90.8095 17.6048C91.6665 17.6048 92.4966 17.4144 93.2996 17.0346C94.6526 16.4029 95.3296 15.3692 95.3296 13.9337V12.0529H95.3286ZM101.756 5.22788H104.07V7.2C104.756 6.3875 105.482 5.80385 106.248 5.44904C107.015 5.09423 107.868 4.91731 108.806 4.91731C110.862 4.91731 112.252 5.60481 112.973 6.97981C113.37 7.73269 113.569 8.80865 113.569 10.2106V19.1231H111.092V10.3654C111.092 9.51827 110.962 8.83462 110.7 8.31635C110.267 7.45096 109.482 7.01827 108.346 7.01827C107.768 7.01827 107.295 7.075 106.925 7.1875C106.257 7.37788 105.671 7.75769 105.166 8.32885C104.76 8.7875 104.496 9.26154 104.374 9.75C104.253 10.2385 104.192 10.9365 104.192 11.8452V19.1231H101.756V5.22885V5.22788ZM122.282 4.98173C123.419 4.98173 124.411 5.25 125.259 5.78654C125.719 6.08846 126.188 6.52981 126.666 7.10962V5.35769H128.912V17.9942C128.912 19.7587 128.642 21.151 128.1 22.1721C127.09 24.0567 125.182 25 122.377 25C120.817 25 119.504 24.6644 118.44 23.9942C117.375 23.324 116.78 22.276 116.653 20.8481H119.13C119.247 21.4712 119.481 21.951 119.833 22.2885C120.383 22.8077 121.249 23.0673 122.431 23.0673C124.298 23.0673 125.521 22.4356 126.098 21.1731C126.441 20.4288 126.598 19.101 126.571 17.1904C126.084 17.899 125.498 18.4269 124.812 18.7731C124.127 19.1192 123.22 19.2923 122.092 19.2923C120.523 19.2923 119.15 18.7577 117.972 17.6894C116.796 16.6221 116.207 14.8548 116.207 12.3894C116.207 10.0625 116.8 8.24712 117.987 6.94038C119.172 5.63462 120.604 4.98173 122.282 4.98173ZM122.729 7.04423C121.015 7.04423 119.842 7.81442 119.211 9.35385C118.877 10.176 118.711 11.2519 118.711 12.5846C118.711 14.15 119.041 15.3413 119.705 16.1587C120.368 16.976 121.258 17.3846 122.377 17.3846C124.127 17.3846 125.358 16.6279 126.071 15.1144C126.468 14.2587 126.666 13.2587 126.666 12.1173C126.666 10.3962 126.296 9.12019 125.556 8.29038C124.816 7.45961 123.874 7.04423 122.729 7.04423ZM138.614 4.91731C139.642 4.91731 140.639 5.14808 141.604 5.61058C142.569 6.07404 143.304 6.67308 143.809 7.40865C144.227 8.00865 144.525 8.69423 144.704 9.46635L144.784 9.86058C144.928 10.5 145 11.5202 145 12.9221H134.379C134.424 14.3317 134.771 15.4625 135.42 16.3144C136.07 17.1663 137.076 17.5923 138.438 17.5923C139.71 17.5923 140.724 17.1904 141.482 16.3856C141.915 15.9183 142.222 15.3779 142.402 14.7635H144.797C144.734 15.274 144.524 15.8433 144.167 16.4702C143.812 17.0971 143.412 17.6096 142.97 18.0077C142.23 18.7 141.315 19.1663 140.224 19.4087C139.572 19.5542 138.904 19.6239 138.234 19.6163C136.431 19.6163 134.902 18.9865 133.648 17.7279C132.394 16.4702 131.768 14.7077 131.768 12.4413C131.768 10.2106 132.398 8.39808 133.661 7.00577C134.924 5.61346 136.575 4.91731 138.614 4.91731ZM138.464 6.95385C137.346 6.95385 136.408 7.34038 135.65 8.11538C134.893 8.88942 134.491 9.87308 134.446 11.0673H142.496C142.398 10.0548 142.168 9.24615 141.806 8.64038C141.139 7.51538 140.026 6.95385 138.465 6.95385H138.464Z" fill="black"/>
<path d="M33.8449 4.91731C34.874 4.91731 35.871 5.14808 36.835 5.61058C37.801 6.07404 38.536 6.67308 39.041 7.40865C39.459 8.00865 39.757 8.69423 39.936 9.46635L40.016 9.86058C40.16 10.5 40.232 11.5202 40.232 12.9221H29.6089C29.6539 14.3317 30.0019 15.4625 30.6509 16.3144C31.3009 17.1663 32.3059 17.5923 33.6689 17.5923C34.94 17.5923 35.955 17.1904 36.713 16.3856C37.146 15.9183 37.453 15.3779 37.633 14.7635H40.028C39.965 15.274 39.755 15.8433 39.398 16.4702C39.042 17.0971 38.643 17.6096 38.201 18.0077C37.461 18.7 36.546 19.1663 35.455 19.4087C34.8027 19.5542 34.1345 19.6239 33.4649 19.6163C31.6619 19.6163 30.1329 18.9865 28.8789 17.7279C27.6259 16.4712 26.9989 14.7077 26.9989 12.4423C26.9989 10.2115 27.6299 8.39904 28.8929 7.00673C30.1559 5.61442 31.8069 4.91827 33.8449 4.91827V4.91731ZM33.6969 6.95385C32.5779 6.95385 31.6399 7.34038 30.8819 8.11538C30.1249 8.88942 29.7229 9.87308 29.6779 11.0673H37.728C37.63 10.0548 37.399 9.24615 37.038 8.64038C36.371 7.51538 35.258 6.95385 33.6969 6.95385ZM41.842 5.22788H44.9951L48.3231 10.1192L51.6931 5.22788L54.6552 5.29327L49.7711 12.001L54.8722 19.1231H51.7601L48.1601 13.9077L44.6701 19.1231H41.585L46.6861 12.001L41.842 5.22788ZM62.6662 4.82596C64.2983 4.82596 65.6263 5.20673 66.6503 5.96827C67.6743 6.72885 68.2903 8.03942 68.4973 9.89904H66.1293C65.9853 9.04327 65.6563 8.33173 65.1423 7.76442C64.6273 7.19808 63.8023 6.91442 62.6662 6.91442C61.1142 6.91442 60.0052 7.64135 59.3372 9.09423C58.9042 10.0365 58.6872 11.2 58.6872 12.5846C58.6872 13.9769 58.9942 15.149 59.6072 16.1C60.2212 17.0519 61.1872 17.5269 62.5032 17.5269C63.5133 17.5269 64.3143 17.2308 64.9053 16.6385C65.4953 16.0462 65.9043 15.2346 66.1293 14.2058H68.4973C68.2273 16.0481 67.5503 17.3952 66.4673 18.2471C65.3853 19.099 64.0013 19.526 62.3142 19.526C60.4192 19.526 58.9092 18.8615 57.7812 17.5337C56.6532 16.2067 56.0902 14.5481 56.0902 12.5587C56.0902 10.1192 56.7082 8.22115 57.9432 6.86346C59.1792 5.50481 60.7532 4.82596 62.6662 4.82596ZM70.9333 0H73.3684V7.10962C73.9464 6.40865 74.4644 5.91635 74.9244 5.63077C75.7094 5.1375 76.6884 4.89038 77.8604 4.89038C79.9624 4.89038 81.3874 5.59615 82.1364 7.00577C82.5424 7.775 82.7455 8.84327 82.7455 10.2106V19.1231H80.2424V10.3654C80.2424 9.34615 80.1064 8.59712 79.8364 8.12115C79.3944 7.36058 78.5644 6.97981 77.3464 6.97981C76.3364 6.97981 75.4204 7.3125 74.6004 7.97885C73.7794 8.64423 73.3684 9.90288 73.3684 11.7538V19.1231H70.9333V0ZM92.0275 4.89135C93.7326 4.89135 95.1176 5.20192 96.1816 5.825C97.2366 6.44808 97.7646 7.41635 97.7646 8.73077V16.7356C97.7646 16.9779 97.8166 17.1731 97.9196 17.3192C98.0236 17.4663 98.2426 17.5404 98.5766 17.5404C98.6846 17.5404 98.8066 17.5337 98.9416 17.5212C99.0766 17.5077 99.2216 17.4885 99.3746 17.4625V19.1875L98.9636 19.2933C98.8136 19.3305 98.6618 19.3604 98.5086 19.3827C98.3106 19.4087 98.0386 19.4212 97.6966 19.4212C96.8576 19.4212 96.2486 19.1356 95.8706 18.5654C95.6716 18.2625 95.5316 17.8346 95.4506 17.2808C94.9546 17.9038 94.2416 18.4442 93.3126 18.9029C92.3836 19.3606 91.3595 19.5904 90.2415 19.5904C88.8975 19.5904 87.7995 19.199 86.9465 18.4163C86.0945 17.6337 85.6685 16.6538 85.6685 15.4779C85.6685 14.1894 86.0875 13.1894 86.9265 12.4808C87.7655 11.7712 88.8665 11.3346 90.2275 11.1702L94.1116 10.7029C94.6706 10.6337 95.0446 10.4087 95.2346 10.0288C95.3426 9.82115 95.3966 9.52211 95.3966 9.13365C95.3966 8.3375 95.1016 7.76058 94.5106 7.40096C93.9196 7.04231 93.0736 6.8625 91.9735 6.8625C90.7015 6.8625 89.7995 7.19135 89.2675 7.84904C88.9695 8.2125 88.7755 8.75288 88.6855 9.47115H86.4125C86.4575 7.75769 87.0365 6.56731 88.1505 5.89615C89.2645 5.22596 90.5575 4.89135 92.0275 4.89135ZM95.3286 12.0529C95.0316 12.2337 94.6486 12.3856 94.1786 12.5067C93.7096 12.6279 93.2496 12.7144 92.7986 12.7663L91.3235 12.9471C90.4395 13.0596 89.7765 13.2375 89.3345 13.4798C88.5865 13.8856 88.2115 14.5346 88.2115 15.426C88.2115 16.1 88.4685 16.6317 88.9825 17.0221C89.4975 17.4106 90.1065 17.6048 90.8095 17.6048C91.6665 17.6048 92.4966 17.4144 93.2996 17.0346C94.6526 16.4029 95.3296 15.3692 95.3296 13.9337V12.0529H95.3286ZM101.756 5.22788H104.07V7.2C104.756 6.3875 105.482 5.80385 106.248 5.44904C107.015 5.09423 107.868 4.91731 108.806 4.91731C110.862 4.91731 112.252 5.60481 112.973 6.97981C113.37 7.73269 113.569 8.80865 113.569 10.2106V19.1231H111.092V10.3654C111.092 9.51827 110.962 8.83462 110.7 8.31635C110.267 7.45096 109.482 7.01827 108.346 7.01827C107.768 7.01827 107.295 7.075 106.925 7.1875C106.257 7.37788 105.671 7.75769 105.166 8.32885C104.76 8.7875 104.496 9.26154 104.374 9.75C104.253 10.2385 104.192 10.9365 104.192 11.8452V19.1231H101.756V5.22885V5.22788ZM122.282 4.98173C123.419 4.98173 124.411 5.25 125.259 5.78654C125.719 6.08846 126.188 6.52981 126.666 7.10962V5.35769H128.912V17.9942C128.912 19.7587 128.642 21.151 128.1 22.1721C127.09 24.0567 125.182 25 122.377 25C120.817 25 119.504 24.6644 118.44 23.9942C117.375 23.324 116.78 22.276 116.653 20.8481H119.13C119.247 21.4712 119.481 21.951 119.833 22.2885C120.383 22.8077 121.249 23.0673 122.431 23.0673C124.298 23.0673 125.521 22.4356 126.098 21.1731C126.441 20.4288 126.598 19.101 126.571 17.1904C126.084 17.899 125.498 18.4269 124.812 18.7731C124.127 19.1192 123.22 19.2923 122.092 19.2923C120.523 19.2923 119.15 18.7577 117.972 17.6894C116.796 16.6221 116.207 14.8548 116.207 12.3894C116.207 10.0625 116.8 8.24712 117.987 6.94038C119.172 5.63462 120.604 4.98173 122.282 4.98173ZM122.729 7.04423C121.015 7.04423 119.842 7.81442 119.211 9.35385C118.877 10.176 118.711 11.2519 118.711 12.5846C118.711 14.15 119.041 15.3413 119.705 16.1587C120.368 16.976 121.258 17.3846 122.377 17.3846C124.127 17.3846 125.358 16.6279 126.071 15.1144C126.468 14.2587 126.666 13.2587 126.666 12.1173C126.666 10.3962 126.296 9.12019 125.556 8.29038C124.816 7.45961 123.874 7.04423 122.729 7.04423ZM138.614 4.91731C139.642 4.91731 140.639 5.14808 141.604 5.61058C142.569 6.07404 143.304 6.67308 143.809 7.40865C144.227 8.00865 144.525 8.69423 144.704 9.46635L144.784 9.86058C144.928 10.5 145 11.5202 145 12.9221H134.379C134.424 14.3317 134.771 15.4625 135.42 16.3144C136.07 17.1663 137.076 17.5923 138.438 17.5923C139.71 17.5923 140.724 17.1904 141.482 16.3856C141.915 15.9183 142.222 15.3779 142.402 14.7635H144.797C144.734 15.274 144.524 15.8433 144.167 16.4702C143.812 17.0971 143.412 17.6096 142.97 18.0077C142.23 18.7 141.315 19.1663 140.224 19.4087C139.572 19.5542 138.904 19.6239 138.234 19.6163C136.431 19.6163 134.902 18.9865 133.648 17.7279C132.394 16.4702 131.768 14.7077 131.768 12.4413C131.768 10.2106 132.398 8.39808 133.661 7.00577C134.924 5.61346 136.575 4.91731 138.614 4.91731ZM138.464 6.95385C137.346 6.95385 136.408 7.34038 135.65 8.11538C134.893 8.88942 134.491 9.87308 134.446 11.0673H142.496C142.398 10.0548 142.168 9.24615 141.806 8.64038C141.139 7.51538 140.026 6.95385 138.465 6.95385H138.464Z" fill="white"/>
<path fill-rule="evenodd" clip-rule="evenodd" d="M11.0001 12.5L22.0002 23.0769H0L11.0001 12.5Z" fill="#5A81EA"/>
<path fill-rule="evenodd" clip-rule="evenodd" d="M11.0001 12.4998L22.0002 1.92285H0L11.0001 12.4998Z" fill="#E14B51"/>
</svg>
