<svg width="150" height="26" viewBox="0 0 150 26" fill="none" xmlns="http://www.w3.org/2000/svg">
<path d="M12.3749 25.7671C5.54063 25.7671 0 20.1706 0 13.2666C0 6.36354 5.54063 0.76709 12.3749 0.76709C19.21 0.76709 24.7506 6.36354 24.7506 13.2666C24.7506 20.1706 19.21 25.7671 12.3749 25.7671ZM12.3749 24.7915C18.6763 24.7915 23.7848 19.6315 23.7848 13.2666C23.7848 6.90265 18.6763 1.74268 12.3749 1.74268C6.07436 1.74268 0.965856 6.90265 0.965856 13.2666C0.965856 19.6315 6.07436 24.7915 12.3749 24.7915Z" fill="white"/>
<path d="M12.3949 14.365C12.9824 14.365 13.4587 13.8843 13.4587 13.2914C13.4587 12.6984 12.9824 12.2178 12.3949 12.2178C11.8073 12.2178 11.3311 12.6984 11.3311 13.2914C11.3311 13.8843 11.8073 14.365 12.3949 14.365Z" fill="white"/>
<path d="M41.3298 18.1726C40.4628 18.1726 39.68 17.972 38.9833 17.5716C38.2956 17.1799 37.7285 16.6039 37.3446 15.9071C36.9482 15.1978 36.7495 14.4025 36.7495 13.524C36.7495 12.6446 36.9482 11.8503 37.3446 11.1401C37.7297 10.442 38.2993 9.86575 38.9897 9.47558C39.691 9.07518 40.4747 8.87451 41.3426 8.87451C41.9926 8.87451 42.5941 8.98825 43.1443 9.21389C43.6814 9.43077 44.1612 9.77076 44.5459 10.207L43.9582 10.8201C43.2743 10.0979 42.411 9.73636 41.3673 9.73636C40.6752 9.73636 40.0453 9.90281 39.4777 10.2329C38.9196 10.5549 38.459 11.0245 38.1457 11.5914C37.8243 12.1647 37.6632 12.8102 37.6632 13.524C37.6632 14.2379 37.8243 14.8815 38.1457 15.4567C38.4661 16.031 38.911 16.4832 39.4777 16.8142C40.0453 17.1453 40.6752 17.3108 41.3673 17.3108C42.4192 17.3108 43.2825 16.9455 43.9582 16.2141L44.5459 16.8272C44.1623 17.2627 43.6927 17.5956 43.1379 17.8259C42.5637 18.0606 41.9492 18.1784 41.3298 18.1726ZM50.2514 8.95311H51.1769V18.094H50.2514V8.95311ZM65.0788 8.95311V18.094H64.3153L58.6841 10.6768V18.094H57.7576V8.95311H58.5211L64.1652 16.3704V8.95311H65.0788ZM71.6595 8.95311H75.2254C76.1519 8.95311 76.9694 9.14731 77.6789 9.53384C78.3705 9.90417 78.9434 10.4658 79.3305 11.153C79.7223 11.8457 79.9182 12.6354 79.9182 13.524C79.9182 14.4118 79.7223 15.2015 79.3305 15.8941C78.9433 16.581 78.3704 17.1423 77.6789 17.5124C76.9694 17.9008 76.1519 18.095 75.2254 18.095H71.6595V8.95219V8.95311ZM75.175 17.2581C75.944 17.2581 76.6151 17.1 77.191 16.7819C77.7514 16.4788 78.2155 16.0216 78.5294 15.4632C78.8462 14.901 79.0055 14.2546 79.0055 13.524C79.0055 12.7926 78.8462 12.1462 78.5294 11.584C78.2155 11.0256 77.7514 10.5684 77.191 10.2653C76.6142 9.94812 75.9431 9.78907 75.1759 9.78907H72.5851V17.2581H75.1759H75.175ZM85.7234 8.95311H86.6499V18.094H85.7234V8.95311ZM97.0345 18.1726C96.1666 18.1726 95.3848 17.972 94.6881 17.5716C94.0004 17.1799 93.4332 16.6039 93.0493 15.9071C92.6529 15.1978 92.4542 14.4025 92.4542 13.524C92.4542 12.6446 92.6529 11.8503 93.0493 11.1401C93.4344 10.442 94.004 9.86575 94.6945 9.47558C95.3948 9.07518 96.1794 8.87451 97.0473 8.87451C97.6973 8.87451 98.2988 8.98825 98.849 9.21389C99.3861 9.43077 99.8659 9.77076 100.251 10.207L99.6629 10.8201C98.9781 10.0979 98.1157 9.73636 97.072 9.73636C96.3799 9.73636 95.75 9.90281 95.1824 10.2329C94.624 10.5547 94.1631 11.0244 93.8495 11.5914C93.529 12.1647 93.3679 12.8102 93.3679 13.524C93.3679 14.2379 93.529 14.8815 93.8495 15.4567C94.1708 16.031 94.6148 16.4832 95.1824 16.8142C95.75 17.1453 96.3799 17.3108 97.072 17.3108C98.123 17.3108 98.9863 16.9455 99.6629 16.2141L100.251 16.8272C99.8661 17.2627 99.3974 17.5956 98.8426 17.8259C98.2684 18.0606 97.6539 18.1784 97.0345 18.1726ZM111.225 15.6518H106.343L105.292 18.094H104.328L108.334 8.95311H109.246L113.251 18.094H112.275L111.224 15.6528L111.225 15.6518ZM110.886 14.8686L108.784 9.95829L106.681 14.8686H110.886ZM119.694 9.78907H116.616V8.95311H123.699V9.78907H120.621V18.094H119.694V9.78907ZM132.607 18.1726C131.739 18.1726 130.953 17.9701 130.248 17.5651C129.557 17.1739 128.985 16.598 128.596 15.9006C128.2 15.195 128.001 14.4025 128.001 13.524C128.001 12.6446 128.2 11.8521 128.596 11.1475C128.985 10.4497 129.557 9.8735 130.248 9.48206C130.953 9.07703 131.74 8.87451 132.607 8.87451C133.475 8.87451 134.257 9.07518 134.954 9.47558C135.642 9.86818 136.211 10.4439 136.599 11.1401C137 11.8503 137.199 12.6446 137.199 13.524C137.199 14.4025 137 15.1978 136.599 15.9071C136.211 16.6033 135.642 17.179 134.954 17.5716C134.257 17.972 133.475 18.1726 132.607 18.1726ZM132.607 17.3108C133.299 17.3108 133.926 17.1471 134.484 16.8207C135.038 16.4997 135.493 16.0298 135.799 15.4632C136.116 14.8843 136.274 14.2379 136.274 13.524C136.274 12.8102 136.116 12.1638 135.798 11.584C135.493 11.0175 135.038 10.5476 134.484 10.2265C133.913 9.89667 133.265 9.72743 132.607 9.73636C131.915 9.73636 131.287 9.90003 130.724 10.2265C130.166 10.5469 129.707 11.0166 129.397 11.584C129.072 12.1774 128.906 12.8461 128.916 13.524C128.916 14.2379 129.076 14.8834 129.398 15.4632C129.718 16.0421 130.161 16.4943 130.724 16.8207C131.287 17.1471 131.914 17.3108 132.607 17.3108ZM148.987 18.094L146.984 15.1562C146.752 15.1826 146.517 15.1956 146.283 15.195H143.93V18.094H143.006V8.95311H146.283C147.402 8.95311 148.277 9.23146 148.911 9.78907C149.546 10.3458 149.863 11.1114 149.863 12.087C149.863 12.8009 149.689 13.4038 149.344 13.8958C148.997 14.3877 148.502 14.7428 147.86 14.9601L150 18.095H148.987V18.094ZM146.258 14.3729C147.126 14.3729 147.789 14.1723 148.249 13.7719C148.706 13.3715 148.936 12.8102 148.936 12.087C148.936 11.3472 148.707 10.7794 148.249 10.3827C147.789 9.98696 147.126 9.78907 146.258 9.78907H143.931V14.3729H146.258Z" fill="white"/>
</svg>
