<svg width="138" height="36" viewBox="0 0 138 36" fill="none" xmlns="http://www.w3.org/2000/svg">
<path d="M15.5737 12.6167L13.7447 16.0108L10.4006 17.8664L13.7447 19.7221L15.5737 23.1148L17.4027 19.7221L20.7468 17.8664L17.4027 16.0108L15.5737 12.6167Z" fill="white"/>
<path d="M29.5112 17.8801C30.9741 15.2532 31.4672 12.0868 30.8419 8.99767L30.8499 8.99225C30.8499 8.99225 30.8433 8.98547 30.8392 8.98276C30.8392 8.97733 30.8379 8.97327 30.8365 8.96785L30.8285 8.97327C28.4985 6.85736 25.5338 5.69572 22.5412 5.66726C21.0274 3.0417 18.5531 1.00712 15.5777 0.00948836V0C15.5777 0 15.5684 0.00271096 15.5644 0.00542191C15.5604 0.00406643 15.555 0.00271096 15.551 0V0.00948836C12.5757 1.00712 10.1 3.04305 8.58498 5.66997C5.58158 5.69708 2.60625 6.86686 0.272205 8.99496L0.264189 8.98954C0.264189 8.98954 0.262853 8.99902 0.261517 9.00445C0.257509 9.00716 0.254838 9.01122 0.250829 9.01394L0.258845 9.01936C-0.357064 12.1057 0.139939 15.2641 1.60289 17.8855C0.139939 20.5138 -0.353056 23.6789 0.272205 26.7693L0.264189 26.7748C0.264189 26.7748 0.272205 26.7816 0.274877 26.7842C0.274877 26.7897 0.276214 26.7938 0.27755 26.7991L0.285565 26.7938C2.6156 28.9097 5.58158 30.0713 8.57295 30.0997C10.0866 32.7253 12.5623 34.7599 15.5363 35.7575V35.767C15.5363 35.767 15.5457 35.7643 15.5496 35.7616C15.555 35.763 15.559 35.7643 15.5631 35.767V35.7575C18.5397 34.7599 21.014 32.7239 22.5291 30.0971C25.5325 30.0699 28.5078 28.9002 30.8419 26.772L30.8499 26.7775C30.8499 26.7775 30.8512 26.768 30.8526 26.7626C30.8566 26.7599 30.8606 26.7558 30.8632 26.753L30.8552 26.7477C31.4712 23.6613 30.9741 20.503 29.5112 17.8815M29.6942 9.65237C30.1084 12.118 29.7397 14.5632 28.731 16.6602C27.7891 15.3643 26.5799 14.2488 25.1264 13.4057C24.787 13.2092 24.4423 13.0316 24.0909 12.873C24.1297 12.4799 24.151 12.0814 24.151 11.6774C24.151 10.0061 23.8077 8.41346 23.1864 6.96038C25.5472 7.12711 27.8225 8.06375 29.6929 9.65101M22.8885 24.0909C22.8885 25.7609 22.497 27.3657 21.789 28.8134C20.183 28.7145 18.6159 28.2441 17.221 27.4363C16.9953 27.3061 16.7761 27.1665 16.5624 27.0188C17.5364 26.1201 18.3407 25.0709 18.9619 23.9242C19.0741 23.9269 19.1877 23.9296 19.3 23.9296C20.4984 23.9296 21.6994 23.7466 22.8644 23.3712C22.8805 23.6111 22.8885 23.851 22.8885 24.0923M19.3 22.6636C19.1984 22.6636 19.0982 22.6623 18.9967 22.6595L18.2351 22.6378L17.869 23.3156C17.2678 24.4271 16.4822 25.4125 15.555 26.2326C14.6252 25.4112 13.8396 24.4244 13.237 23.3116L12.871 22.6338L12.1094 22.6554C12.0079 22.6582 11.9077 22.6595 11.8062 22.6595C10.6424 22.6595 9.49214 22.463 8.40194 22.0861C8.63976 20.8392 9.09801 19.6355 9.76338 18.5349L10.1615 17.8761L9.76465 17.216C9.10603 16.1194 8.65177 14.9211 8.4153 13.6795C9.50283 13.304 10.6518 13.1075 11.8128 13.1075C11.9143 13.1075 12.0159 13.1075 12.1161 13.1116L12.8776 13.1333L13.2437 12.4555C13.8449 11.344 14.6305 10.3585 15.5577 9.53851C16.4876 10.3599 17.2732 11.3467 17.8757 12.4595L18.2418 13.1373L19.0033 13.1156C19.1048 13.1129 19.205 13.1116 19.3066 13.1116C20.4703 13.1116 21.6206 13.3081 22.7095 13.685C22.4717 14.9319 22.0134 16.1356 21.3494 17.2362L20.9513 17.8964L21.3481 18.5565C22.0067 19.6531 22.4609 20.8514 22.6975 22.093C21.61 22.4697 20.461 22.665 19.3 22.665M8.20821 24.0937C8.20821 23.851 8.21623 23.6084 8.2336 23.3657C9.40129 23.7425 10.6037 23.9269 11.8048 23.9269C11.9171 23.9269 12.0306 23.9256 12.1428 23.9215C12.7654 25.0709 13.571 26.1215 14.5477 27.0215C14.3379 27.1652 14.1242 27.3021 13.9051 27.4294C12.5036 28.2455 10.927 28.7212 9.31044 28.8189C8.60101 27.3712 8.20821 25.7636 8.20821 24.0923M7.22223 21.5955C7.01247 21.4925 6.80672 21.3827 6.60498 21.2661C5.15272 20.4244 3.95697 19.26 3.06584 17.8896C3.95296 16.522 5.14337 15.359 6.59028 14.5145C6.80137 14.3912 7.01648 14.2773 7.23425 14.1702C7.51482 15.4945 8.01582 16.7416 8.69586 17.8747C8.00915 19.012 7.50413 20.2644 7.22089 21.5968M8.22024 11.6801C8.22024 10.0102 8.6117 8.40533 9.31979 6.95767C10.9257 7.05526 12.4928 7.52697 13.8876 8.33484C14.1134 8.46496 14.3326 8.60458 14.5463 8.75233C13.5724 9.65101 12.7681 10.7001 12.1469 11.8469C12.0346 11.8442 11.9211 11.8415 11.8088 11.8415C10.6104 11.8415 9.4093 12.0245 8.24429 12.3999C8.22826 12.16 8.22024 11.9201 8.22024 11.6788M22.9006 11.6788C22.9006 11.9214 22.8925 12.1641 22.8751 12.4067C21.7074 12.0298 20.505 11.8455 19.3053 11.8455C19.193 11.8455 19.0795 11.8469 18.9672 11.8509C18.3447 10.7015 17.539 9.65101 16.5624 8.75097C16.7721 8.6073 16.986 8.47039 17.205 8.34298C18.6066 7.52562 20.183 7.0512 21.7996 6.95361C22.5091 8.40126 22.9018 10.0089 22.9018 11.6801M22.4129 17.8991C23.0996 16.7618 23.6046 15.5094 23.8878 14.177C24.0976 14.28 24.3034 14.3898 24.5051 14.5063C25.9574 15.3481 27.1531 16.5124 28.0442 17.8828C27.1571 19.2505 25.9667 20.4148 24.5198 21.2579C24.3087 21.3813 24.0936 21.4952 23.8758 21.6023C23.5952 20.2779 23.0942 19.0309 22.4142 17.8977M15.5644 1.34599C17.9011 2.21892 19.8223 3.78179 21.1129 5.74045C19.5565 5.91666 18.02 6.40734 16.5877 7.24233C16.2297 7.45107 15.8864 7.67608 15.559 7.91735C15.225 7.67337 14.8763 7.44429 14.5116 7.23284C13.0874 6.40734 11.559 5.92073 10.0145 5.74452C11.3051 3.78314 13.2277 2.21892 15.5657 1.34599M1.40783 9.67134C3.28361 8.07187 5.56689 7.12847 7.93834 6.96309C7.31842 8.41481 6.97506 10.0061 6.97506 11.6761C6.97506 12.0773 6.99644 12.4732 7.03518 12.8648C6.67446 13.0275 6.31907 13.2105 5.97036 13.4138C4.52212 14.2583 3.31835 15.3725 2.38046 16.6643C1.37176 14.5714 1.00034 12.1329 1.40783 9.66998M1.41985 26.1147C1.00568 23.6491 1.37443 21.2038 2.38313 19.1068C3.32503 20.4027 4.53413 21.5182 5.98774 22.3613C6.32708 22.5579 6.67179 22.7354 7.02182 22.8941C6.98308 23.2871 6.9617 23.6856 6.9617 24.0896C6.9617 25.7609 7.30506 27.3535 7.92631 28.8067C5.56555 28.6399 3.29029 27.7033 1.41985 26.116M15.5496 34.421C13.2129 33.5481 11.2918 31.9853 10.0012 30.0266C11.5576 29.8504 13.094 29.3597 14.5263 28.5247C14.8843 28.316 15.2277 28.0909 15.555 27.8497C15.8891 28.0937 16.2378 28.3227 16.6025 28.5342C18.0267 29.3597 19.5537 29.8463 21.0996 30.0225C19.809 31.9839 17.8864 33.5481 15.5484 34.421M29.7036 26.0957C27.8278 27.6951 25.5446 28.6386 23.1731 28.8039C23.793 27.3522 24.1363 25.7609 24.1363 24.0909C24.1363 23.6897 24.115 23.2939 24.0762 22.9022C24.437 22.7395 24.7923 22.5566 25.1411 22.3532C26.5893 21.5087 27.7931 20.3946 28.731 19.1028C29.7397 21.1956 30.1111 23.6342 29.7036 26.097" fill="white"/>
<path d="M88.7882 28.1296C88.8697 27.9452 88.9806 27.7893 89.1182 27.6619C89.2558 27.5332 89.4161 27.4342 89.5965 27.3651C89.7769 27.2946 89.9666 27.2607 90.1657 27.2607C90.3648 27.2607 90.5532 27.2959 90.7335 27.3651C90.9152 27.4356 91.0742 27.5346 91.2118 27.6619C91.3494 27.7907 91.4603 27.9466 91.5418 28.1296C91.6232 28.3126 91.6647 28.5173 91.6647 28.7423C91.6647 28.9672 91.6232 29.1706 91.5418 29.3522C91.4603 29.5352 91.3494 29.6911 91.2118 29.8199C91.0742 29.9486 90.9139 30.0489 90.7335 30.1194C90.5532 30.1899 90.3634 30.2237 90.1657 30.2237C89.9679 30.2237 89.7782 30.1886 89.5965 30.1194C89.4148 30.0489 89.2558 29.95 89.1182 29.8199C88.9806 29.6897 88.8697 29.5338 88.7882 29.3522C88.7068 29.1692 88.6653 28.9659 88.6653 28.7423C88.6653 28.5186 88.7068 28.3139 88.7882 28.1296ZM89.1503 29.2098C89.2078 29.3522 89.2853 29.4755 89.3854 29.5785C89.4843 29.6816 89.6005 29.7629 89.7355 29.8212C89.869 29.8795 90.0134 29.908 90.167 29.908C90.3206 29.908 90.461 29.8795 90.5946 29.8212C90.7281 29.7629 90.8457 29.683 90.9446 29.5785C91.0435 29.4755 91.1223 29.3522 91.1811 29.2098C91.2398 29.0676 91.2693 28.9117 91.2693 28.7423C91.2693 28.5728 91.2398 28.4169 91.1811 28.2746C91.1223 28.1323 91.0435 28.009 90.9446 27.9059C90.8457 27.8029 90.7295 27.7215 90.5946 27.6633C90.4596 27.605 90.318 27.5765 90.167 27.5765C90.016 27.5765 89.869 27.605 89.7355 27.6633C89.6005 27.7215 89.4843 27.8015 89.3854 27.9059C89.2865 28.009 89.2078 28.1323 89.1503 28.2746C89.0929 28.4169 89.0648 28.5728 89.0648 28.7423C89.0648 28.9117 89.0929 29.0676 89.1503 29.2098ZM90.9326 28.9876C90.9165 29.0879 90.8872 29.176 90.8444 29.2533C90.8016 29.3306 90.7482 29.3956 90.6841 29.4498C90.6199 29.504 90.5478 29.5447 90.469 29.5732C90.3901 29.6016 90.3073 29.6152 90.2205 29.6152C90.0922 29.6152 89.9773 29.5922 89.8744 29.5474C89.7716 29.5026 89.6834 29.4403 89.6099 29.3604C89.5364 29.2804 89.4803 29.1882 89.4402 29.0811C89.4002 28.9741 89.3801 28.8588 89.3801 28.7341C89.3801 28.6095 89.3988 28.4901 89.4362 28.3816C89.4736 28.2732 89.5284 28.1798 89.6005 28.0998C89.6727 28.0211 89.7595 27.9588 89.8624 27.9127C89.9653 27.868 90.0815 27.8449 90.2125 27.8449C90.3006 27.8449 90.3861 27.8584 90.4662 27.8842C90.5464 27.9113 90.6186 27.9493 90.6814 28.0008C90.7442 28.0523 90.7963 28.116 90.8376 28.1933C90.8791 28.2706 90.9071 28.3587 90.9192 28.4589H90.6146C90.5932 28.3667 90.5464 28.2936 90.4743 28.2408C90.4008 28.1879 90.314 28.1621 90.2125 28.1621C90.0641 28.1621 89.9506 28.2149 89.8731 28.3207C89.7943 28.4264 89.7555 28.5606 89.7555 28.7246C89.7555 28.8019 89.7662 28.8751 89.7889 28.9442C89.8116 29.0147 89.8423 29.0743 89.8825 29.1272C89.9225 29.18 89.9719 29.2194 90.0294 29.2506C90.0868 29.2804 90.151 29.2967 90.2205 29.2967C90.33 29.2967 90.4196 29.2696 90.4903 29.2139C90.5612 29.1584 90.6026 29.0839 90.6159 28.9876H90.9326Z" fill="white"/>
<path d="M52.6956 11.8883C52.4377 11.6076 52.1211 11.3772 51.7523 11.205C51.3823 11.0315 50.9641 10.9448 50.5099 10.9448H43.8738C43.6907 10.9448 43.5238 10.9082 43.3755 10.8377C43.2245 10.7659 43.0923 10.671 42.984 10.5557C42.8758 10.4419 42.7916 10.3104 42.7342 10.1627C42.6754 10.015 42.646 9.85906 42.646 9.69912C42.646 9.53918 42.6754 9.38194 42.7342 9.23554C42.7916 9.0878 42.8771 8.95225 42.9854 8.83297C43.0935 8.71504 43.2245 8.6188 43.3755 8.54696C43.5238 8.47648 43.6921 8.43988 43.8738 8.43988H51.9434L52.3763 6.71436H43.8738C43.4276 6.71436 43.0147 6.80246 42.6447 6.97461C42.2759 7.14675 41.9592 7.37583 41.7014 7.65777C41.4449 7.93835 41.2431 8.2596 41.1029 8.61338C40.9626 8.96716 40.8904 9.33314 40.8904 9.69912C40.8904 10.0651 40.9626 10.4284 41.1029 10.7781C41.2431 11.1278 41.4449 11.4463 41.7014 11.7255C41.9592 12.0075 42.2759 12.2366 42.6447 12.4087C43.0147 12.5809 43.4276 12.669 43.8738 12.669H50.5099C50.6929 12.669 50.8599 12.7055 51.0082 12.7761C51.1578 12.8479 51.2901 12.9441 51.3983 13.062C51.5079 13.1813 51.592 13.3169 51.6495 13.4646C51.7083 13.6124 51.7377 13.7682 51.7377 13.9282C51.7377 14.0881 51.7083 14.244 51.6495 14.3918C51.592 14.5382 51.5079 14.671 51.3996 14.7849C51.2901 14.9 51.1592 14.9936 51.0082 15.0669C50.8612 15.1373 50.6929 15.1739 50.5099 15.1739H42.4536L42.0207 16.9129H50.5099C50.9655 16.9129 51.3836 16.8262 51.7523 16.6527C52.1211 16.4806 52.4377 16.2515 52.6956 15.9696C52.9521 15.689 53.1538 15.3677 53.2942 15.0139C53.4344 14.6588 53.5065 14.2942 53.5065 13.9282C53.5065 13.5623 53.4358 13.1976 53.2942 12.8424C53.1538 12.4887 52.9521 12.1674 52.6956 11.8869" fill="#FFF7F7"/>
<path d="M62.4443 12.009L58.1744 6.71582H55.8456L61.5665 13.6979V16.9131H63.3221V13.6979L69.043 6.71582H66.7143L62.4443 12.009Z" fill="#FFF7F7"/>
<path d="M82.6779 14.4394L73.315 6.71582H71.816V16.9131H73.5728V9.18957L82.9344 16.9131H84.4334V6.71582H82.6779V14.4394Z" fill="#FFF7F7"/>
<path d="M90.2342 12.6709H98.3187L98.7514 10.9453H88.4786V16.9135H100.73L101.162 15.1745H90.2342V12.6709Z" fill="#FFF7F7"/>
<path d="M88.4786 8.43999H100.73L101.162 6.71582H88.4786V8.43999Z" fill="#FFF7F7"/>
<path d="M115.618 11.8883C115.362 11.6076 115.044 11.3772 114.675 11.205C114.305 11.0315 113.886 10.9448 113.432 10.9448H106.795C106.612 10.9448 106.445 10.9082 106.296 10.8377C106.145 10.7659 106.015 10.671 105.905 10.5557C105.797 10.4419 105.712 10.3104 105.655 10.1627C105.596 10.015 105.567 9.85906 105.567 9.69912C105.567 9.53918 105.596 9.38194 105.655 9.23554C105.714 9.0878 105.798 8.95225 105.906 8.83297C106.015 8.71504 106.145 8.6188 106.296 8.54696C106.445 8.47648 106.612 8.43988 106.795 8.43988H114.865L115.297 6.71436H106.795C106.349 6.71436 105.936 6.80246 105.565 6.97461C105.197 7.14675 104.88 7.37583 104.623 7.65777C104.366 7.93835 104.164 8.2596 104.024 8.61338C103.883 8.96716 103.811 9.33314 103.811 9.69912C103.811 10.0651 103.882 10.4284 104.024 10.7781C104.164 11.1278 104.366 11.4463 104.623 11.7255C104.88 12.0075 105.197 12.2366 105.565 12.4087C105.936 12.5809 106.349 12.669 106.795 12.669H113.432C113.615 12.669 113.783 12.7055 113.931 12.7761C114.08 12.8479 114.213 12.9441 114.321 13.062C114.43 13.1813 114.515 13.3169 114.572 13.4646C114.631 13.6124 114.66 13.7682 114.66 13.9282C114.66 14.0881 114.631 14.244 114.572 14.3918C114.515 14.5382 114.43 14.671 114.322 14.7849C114.213 14.9 114.082 14.9936 113.931 15.0669C113.784 15.1373 113.615 15.1739 113.432 15.1739H105.376L104.944 16.9129H113.432C113.886 16.9129 114.306 16.8262 114.675 16.6527C115.044 16.4806 115.361 16.2515 115.618 15.9696C115.874 15.689 116.076 15.3677 116.216 15.0139C116.357 14.6588 116.429 14.2942 116.429 13.9282C116.429 13.5623 116.359 13.1976 116.216 12.8424C116.076 12.4887 115.874 12.1674 115.618 11.8869" fill="#FFF7F7"/>
<path d="M121.947 6.71582H120.19V16.9145H121.947V6.71582Z" fill="#FFF7F7"/>
<path d="M137.201 12.8438C137.061 12.49 136.859 12.1688 136.603 11.8883C136.345 11.6076 136.028 11.3772 135.659 11.205C135.289 11.0315 134.871 10.9448 134.416 10.9448H127.778C127.595 10.9448 127.428 10.9082 127.28 10.8377C127.129 10.7659 126.997 10.671 126.888 10.5557C126.78 10.4419 126.697 10.3104 126.639 10.1627C126.581 10.0163 126.55 9.85906 126.55 9.69912C126.55 9.53918 126.579 9.38194 126.639 9.23554C126.697 9.0878 126.781 8.95225 126.889 8.83433C126.997 8.71639 127.129 8.62016 127.28 8.54696C127.428 8.47648 127.595 8.43988 127.778 8.43988H135.847L136.28 6.71436H127.778C127.332 6.71436 126.919 6.80246 126.549 6.97461C126.18 7.14675 125.863 7.37583 125.606 7.65777C125.348 7.93835 125.146 8.2596 125.007 8.61338C124.867 8.96851 124.795 9.33314 124.795 9.69912C124.795 10.0651 124.865 10.4284 125.007 10.7781C125.148 11.1264 125.35 11.4463 125.606 11.7255C125.862 12.0061 126.18 12.2366 126.549 12.4087C126.919 12.5809 127.332 12.669 127.778 12.669H134.416C134.598 12.669 134.766 12.7055 134.914 12.7761C135.065 12.8479 135.195 12.9441 135.303 13.062C135.412 13.1813 135.497 13.3169 135.554 13.4646C135.613 13.6124 135.642 13.7682 135.642 13.9282C135.642 14.0881 135.613 14.244 135.554 14.3918C135.497 14.5395 135.412 14.671 135.304 14.7849C135.196 14.8988 135.063 14.9936 134.913 15.0669C134.766 15.1373 134.597 15.1739 134.414 15.1739H126.358L125.925 16.9129H134.414C134.87 16.9129 135.288 16.8249 135.658 16.6527C136.027 16.4806 136.344 16.2515 136.601 15.9696C136.858 15.689 137.06 15.3677 137.2 15.0139C137.341 14.6588 137.413 14.2928 137.413 13.9282C137.413 13.5636 137.341 13.1989 137.2 12.8424" fill="#FFF7F7"/>
<path d="M52.5684 21.4344C52.3212 21.1646 52.018 20.945 51.6652 20.7797C51.3099 20.6142 50.909 20.5303 50.4735 20.5303H44.126C43.6891 20.5303 43.2884 20.6142 42.9343 20.7797C42.5816 20.945 42.277 21.1646 42.0298 21.4344C41.7839 21.7027 41.5903 22.0117 41.4553 22.3506C41.3203 22.6909 41.2522 23.0406 41.2522 23.3903V27.4445C41.2522 27.7943 41.3203 28.144 41.4553 28.4842C41.5903 28.8231 41.7827 29.1321 42.0298 29.4005C42.277 29.6702 42.5802 29.8898 42.9343 30.0552C43.2884 30.2206 43.6891 30.3046 44.126 30.3046H50.4735C50.909 30.3046 51.3099 30.2206 51.6652 30.0552C52.018 29.8898 52.3225 29.6702 52.5684 29.4005C52.8142 29.1321 53.008 28.8244 53.1429 28.4842C53.2778 28.144 53.3459 27.7943 53.3459 27.4445V23.3903C53.3459 23.0406 53.2778 22.6909 53.1429 22.3506C53.008 22.0117 52.8156 21.7041 52.5684 21.4344ZM50.9505 28.5357C50.8089 28.6035 50.6485 28.6374 50.4735 28.6374H44.126C43.951 28.6374 43.7894 28.6021 43.6478 28.5343C43.5034 28.4652 43.3766 28.3744 43.2723 28.2646C43.1681 28.1548 43.0853 28.0273 43.0251 27.8851C42.965 27.7455 42.9357 27.5963 42.9357 27.4431V23.389C42.9357 23.2371 42.965 23.088 43.0251 22.947C43.0853 22.8048 43.1695 22.6732 43.2736 22.5594C43.3766 22.4469 43.5021 22.3547 43.6464 22.2842C43.788 22.2165 43.9497 22.1812 44.1247 22.1812H50.4721C50.6472 22.1812 50.8075 22.2165 50.9491 22.2829C51.0934 22.352 51.219 22.4442 51.3219 22.5581C51.4274 22.6732 51.5102 22.8048 51.5717 22.947C51.6319 23.088 51.6612 23.2358 51.6612 23.389V27.4431C51.6612 27.5963 51.6305 27.7441 51.5717 27.8851C51.5116 28.0273 51.4288 28.1548 51.3246 28.2646C51.2203 28.3744 51.0948 28.4652 50.9491 28.5343" fill="white"/>
<path d="M67.2671 27.9325L58.2944 20.5303H56.8569V30.3046H58.5402V22.9023L67.513 30.3046H68.9506V20.5303H67.2671V27.9325Z" fill="white"/>
<path d="M74.5068 26.2377H82.2544L82.6699 24.584H72.8234V30.3055H84.5658L84.9812 28.6383H74.5068V26.2377Z" fill="white"/>
<path d="M84.9812 20.5303H72.8234V22.1826H84.5658L84.9812 20.5303Z" fill="white"/>
</svg>
