<svg width="174" height="32" viewBox="0 0 174 32" fill="none" xmlns="http://www.w3.org/2000/svg">
<path d="M15.9984 0.999999L1 16L15.9984 31L30.9969 16L15.9984 0.999999Z" fill="#121924"/>
<path d="M15.9984 0.999999L1 16L15.9984 31L30.9969 16L15.9984 0.999999Z" stroke="url(#paint0_linear_1458_767)" stroke-width="0.388254" stroke-miterlimit="10"/>
<path d="M15.9969 6.63063L6.62851 16L15.9969 25.3694L25.3653 16L15.9969 6.63063Z" fill="#121924"/>
<path d="M15.9969 6.63063L6.62851 16L15.9969 25.3694L25.3653 16L15.9969 6.63063Z" stroke="url(#paint1_linear_1458_767)" stroke-width="0.388254" stroke-miterlimit="10"/>
<path d="M45.7777 27.4627C44.0483 27.4874 42.3226 27.2978 40.6398 26.8983C39.2327 26.5441 37.857 26.075 36.5266 25.4957V19.441H37.1075C38.3587 20.5106 39.7854 21.3559 41.3245 21.9394C42.7546 22.4998 44.2748 22.7951 45.8107 22.8108C46.2945 22.8013 46.7771 22.7611 47.2557 22.6903C47.7536 22.639 48.2409 22.5124 48.7008 22.3149C49.1319 22.1313 49.5167 21.8537 49.827 21.5025C50.1522 21.1195 50.3208 20.6278 50.2993 20.1258C50.3066 19.8252 50.2421 19.5272 50.1111 19.2565C49.9801 18.9859 49.7864 18.7504 49.5461 18.5697C49.0146 18.1582 48.4036 17.8615 47.7516 17.6983C46.8843 17.4685 45.9587 17.252 44.9749 17.0489C44.0387 16.8578 43.1159 16.6062 42.2123 16.2957C40.24 15.6014 38.8233 14.6671 37.9622 13.4927C37.1012 12.3183 36.6738 10.844 36.6801 9.06976C36.6801 6.68947 37.6891 4.76099 39.7071 3.28433C41.7251 1.80767 44.2437 1.06934 47.2628 1.06934C48.783 1.0723 50.2988 1.23054 51.7868 1.54162C53.1693 1.81263 54.5189 2.23061 55.8126 2.78844V8.59748H55.2553C54.2176 7.73421 53.0492 7.04154 51.7939 6.54542C50.4629 5.99368 49.0365 5.70886 47.5957 5.70713C47.0918 5.70268 46.5885 5.74298 46.0917 5.82756C45.6058 5.92403 45.1344 6.08277 44.6892 6.29984C44.2858 6.48508 43.9315 6.76252 43.655 7.1098C43.3708 7.4459 43.2144 7.87159 43.2134 8.31175C43.2011 8.60588 43.2572 8.89886 43.3772 9.16765C43.4973 9.43644 43.678 9.67372 43.9053 9.86083C44.3665 10.2402 45.2582 10.585 46.5805 10.8951C47.4352 11.0872 48.2584 11.2745 49.0502 11.4571C49.91 11.6595 50.7575 11.911 51.5885 12.2104C53.3562 12.8401 54.6698 13.6973 55.5292 14.782C56.3887 15.8667 56.8192 17.289 56.8208 19.049C56.8208 21.5805 55.8267 23.6152 53.8386 25.1533C51.8506 26.6913 49.1636 27.4611 45.7777 27.4627Z" fill="white"/>
<path d="M83.2686 14.279C83.2686 18.3926 82.1667 21.6301 79.9629 23.9915C77.7592 26.3529 74.7448 27.5336 70.9197 27.5336C67.0789 27.5336 64.0637 26.3387 61.8741 23.949C59.6846 21.5592 58.5906 18.3367 58.5921 14.2814C58.5921 10.1883 59.6861 6.95398 61.8741 4.57841C64.0621 2.20284 67.0773 1.01427 70.9197 1.0127C74.7495 1.0127 77.7639 2.1934 79.9629 4.5548C82.162 6.9162 83.2638 10.1576 83.2686 14.279ZM76.6691 14.2649C76.694 12.9574 76.535 11.653 76.1969 10.3898C75.9411 9.44579 75.5146 8.5566 74.9384 7.76631C74.4539 7.12158 73.8171 6.60717 73.0849 6.26918C72.4098 5.97759 71.6832 5.82442 70.9479 5.81874C70.2126 5.81307 69.4836 5.95499 68.8041 6.23612C68.0801 6.58395 67.4477 7.09672 66.9577 7.73324C66.3694 8.52166 65.9374 9.41539 65.685 10.3662C65.3356 11.6412 65.171 12.9597 65.1963 14.2814C65.1675 15.5937 65.3265 16.9034 65.6685 18.1706C65.9257 19.107 66.354 19.9877 66.9317 20.7682C67.4142 21.4236 68.0563 21.9447 68.797 22.2818C69.4756 22.5808 70.2089 22.7352 70.9504 22.7352C71.707 22.7342 72.4541 22.5674 73.1392 22.2464C73.8662 21.905 74.4949 21.3851 74.9667 20.7351C75.5362 19.9493 75.9645 19.0704 76.2323 18.1376C76.5235 17.1489 76.6691 15.858 76.6691 14.2649Z" fill="white"/>
<path d="M104.042 27.0003H87.0417V1.54199H93.4358V22.1452H104.035L104.042 27.0003Z" fill="white"/>
<path d="M117.376 27.5316C113.957 27.5316 111.327 26.7043 109.485 25.0497C107.643 23.3952 106.724 20.981 106.727 17.8073V1.54199H113.121V17.4248C113.121 19.1911 113.454 20.508 114.12 21.3754C114.786 22.2428 115.872 22.6757 117.379 22.6742C118.847 22.6742 119.927 22.2578 120.618 21.425C121.309 20.5922 121.654 19.2588 121.652 17.4248V1.54199H128.046V17.7837C128.046 20.9196 127.149 23.3283 125.355 25.0096C123.56 26.6909 120.901 27.5316 117.376 27.5316Z" fill="white"/>
<path d="M140.816 27.4627C139.086 27.4872 137.361 27.2977 135.678 26.8983C134.271 26.5441 132.897 26.075 131.567 25.4957V19.441H132.148C133.4 20.5113 134.829 21.3566 136.37 21.9394C137.8 22.4998 139.32 22.7951 140.856 22.8107C141.339 22.8014 141.822 22.7612 142.301 22.6903C142.799 22.6397 143.286 22.513 143.746 22.3149C144.178 22.1313 144.563 21.8538 144.874 21.5025C145.2 21.1195 145.368 20.6278 145.347 20.1258C145.353 19.8254 145.288 19.5278 145.157 19.2573C145.026 18.9868 144.833 18.7512 144.593 18.5697C144.062 18.1582 143.451 17.8615 142.799 17.6983C141.932 17.4685 141.005 17.252 140.02 17.0489C139.085 16.8578 138.163 16.6062 137.26 16.2956C135.287 15.6014 133.871 14.6671 133.01 13.4927C132.149 12.3183 131.719 10.844 131.72 9.06976C131.72 6.68947 132.729 4.76099 134.747 3.28433C136.765 1.80767 139.284 1.06934 142.303 1.06934C143.822 1.07241 145.338 1.23066 146.825 1.54162C148.203 1.8131 149.549 2.23107 150.839 2.78844V8.59748H150.274C149.237 7.73322 148.069 7.04044 146.813 6.54542C145.482 5.99537 144.057 5.71214 142.617 5.71185C142.113 5.7075 141.61 5.7478 141.113 5.83228C140.628 5.92841 140.157 6.08716 139.713 6.30456C139.309 6.48888 138.955 6.76648 138.679 7.11452C138.395 7.45263 138.241 7.88004 138.242 8.3212C138.23 8.61525 138.286 8.90805 138.406 9.17676C138.526 9.44546 138.707 9.68281 138.934 9.87027C139.393 10.2497 140.285 10.5944 141.609 10.9046C142.464 11.0966 143.288 11.284 144.081 11.4666C144.945 11.6661 145.796 11.9144 146.631 12.2104C148.397 12.8401 149.711 13.6973 150.572 14.782C151.433 15.8667 151.863 17.289 151.863 19.049C151.863 21.5805 150.869 23.6152 148.879 25.1533C146.889 26.6913 144.202 27.4611 140.816 27.4627Z" fill="white"/>
<path d="M158.321 26.8213H154.17V22.2051H158.321V26.8213Z" fill="url(#paint2_linear_1458_767)"/>
<path d="M169.802 20.1261C169.802 18.8105 169.603 17.8708 169.204 17.307C168.805 16.7432 168.192 16.4613 167.363 16.4613C166.996 16.4613 166.628 16.52 166.261 16.6375C165.901 16.7549 165.545 16.9311 165.194 17.166V23.7908C165.467 23.9005 165.741 23.9748 166.014 24.014C166.296 24.0532 166.573 24.0727 166.847 24.0727C167.84 24.0727 168.579 23.7438 169.063 23.0861C169.556 22.4283 169.802 21.4416 169.802 20.1261ZM174 20.0438C174 22.1425 173.469 23.8417 172.405 25.1416C171.342 26.4337 170.025 27.0797 168.454 27.0797C167.797 27.0797 167.226 27.0053 166.741 26.8565C166.257 26.7078 165.741 26.4768 165.194 26.1635L165.018 26.8213H161.089V8.54443H165.194V15.0048C165.796 14.4879 166.409 14.069 167.035 13.7479C167.66 13.4269 168.383 13.2664 169.204 13.2664C170.736 13.2664 171.917 13.8654 172.745 15.0635C173.582 16.2616 174 17.9217 174 20.0438Z" fill="url(#paint3_linear_1458_767)"/>
<defs>
<linearGradient id="paint0_linear_1458_767" x1="0.871261" y1="16.0016" x2="31.1254" y2="16.0016" gradientUnits="userSpaceOnUse">
<stop stop-color="#C31100"/>
<stop offset="1" stop-color="#FFC500"/>
</linearGradient>
<linearGradient id="paint1_linear_1458_767" x1="1625.3" y1="504.519" x2="2603.18" y2="-473.261" gradientUnits="userSpaceOnUse">
<stop stop-color="#C31100"/>
<stop offset="1" stop-color="#FFC500"/>
</linearGradient>
<linearGradient id="paint2_linear_1458_767" x1="164.201" y1="7.03164" x2="164.201" y2="26.8778" gradientUnits="userSpaceOnUse">
<stop stop-color="#FCC501"/>
<stop offset="1" stop-color="#C21500"/>
</linearGradient>
<linearGradient id="paint3_linear_1458_767" x1="164.201" y1="7.03164" x2="164.201" y2="26.8778" gradientUnits="userSpaceOnUse">
<stop stop-color="#FCC501"/>
<stop offset="1" stop-color="#C21500"/>
</linearGradient>
</defs>
</svg>
