<svg width="159" height="39" viewBox="0 0 159 39" fill="none" xmlns="http://www.w3.org/2000/svg">
<path fill-rule="evenodd" clip-rule="evenodd" d="M24.2316 0.991612L24.2328 0.991986C24.9421 1.21137 25.4802 2.01579 25.5536 2.96646C25.6709 4.49684 25.7937 6.03282 25.9168 7.57171C26.0505 9.24387 26.1845 10.9195 26.3119 12.5951C26.3853 13.4726 25.9939 14.3258 25.2846 14.6914C23.7436 15.4958 23.8903 18.1528 25.5781 18.7379C26.3608 19.006 26.8989 19.7617 26.9723 20.6636C27.1679 23.1126 27.3636 25.5678 27.5592 28.0229L27.5594 28.0252C27.755 30.4811 27.9507 32.937 28.1464 35.3868C28.2198 36.3375 27.6817 37.215 26.8256 37.5563C25.7751 37.9702 24.7003 38.384 23.6254 38.7979L23.6213 38.7995C22.276 39.287 20.8328 38.312 20.7839 36.8494C20.7092 34.5921 20.6282 32.3411 20.5473 30.0932L20.5473 30.0922C20.4692 27.9225 20.3912 25.7556 20.3191 23.5887C20.2947 22.6868 19.7566 21.9068 18.9983 21.6143C17.5062 21.0292 16.0386 20.4198 14.571 19.8104C13.1034 20.4442 11.6358 21.0292 10.1437 21.6143C9.38543 21.9068 8.84731 22.6868 8.82285 23.5887C8.74817 25.846 8.66717 28.097 8.58628 30.3449L8.58626 30.3455C8.50817 32.5154 8.43019 34.6824 8.3581 36.8494C8.30918 38.312 6.86603 39.3114 5.52072 38.7995L5.51665 38.7979C4.44176 38.384 3.36689 37.9702 2.31643 37.5563C1.43586 37.215 0.922201 36.3375 0.995582 35.3868C1.19126 32.937 1.38694 30.4811 1.58263 28.0252L1.58281 28.0229C1.77843 25.5678 1.97405 23.1126 2.16967 20.6636C2.24305 19.7617 2.80564 19.006 3.5639 18.7379C5.25166 18.1285 5.39842 15.4958 3.85742 14.6914C3.17254 14.3258 2.75672 13.497 2.8301 12.5951C2.94732 11.0647 3.07016 9.52878 3.19323 7.98993L3.19324 7.98983C3.32698 6.31767 3.46099 4.64207 3.58836 2.96646C3.66175 2.01579 4.19987 1.23575 4.90921 0.991986C5.46869 0.821621 6.0183 0.631576 6.57058 0.440607C6.88753 0.331009 7.20537 0.221106 7.52646 0.114445C8.6027 -0.275575 9.65449 0.796976 9.60557 2.25955C9.55668 3.62388 9.50778 4.98213 9.45889 6.34037C9.40994 7.70007 9.361 9.05978 9.31205 10.4256C9.28759 11.3275 9.70341 12.1563 10.4128 12.4976C11.7825 13.1557 13.1768 13.8139 14.571 14.4233L14.5712 14.4232C15.9653 13.7894 17.3595 13.1557 18.7292 12.4976C19.4141 12.1563 19.8544 11.3275 19.8299 10.4256C19.781 9.06052 19.7321 7.70155 19.6832 6.34258C19.6343 4.9836 19.5853 3.62462 19.5364 2.25955C19.4875 0.821352 20.5393 -0.275575 21.6155 0.114445C22.4712 0.406825 23.3514 0.699202 24.2316 0.991582L24.2316 0.991612ZM51.2849 8.50021H46.4418V27.3674H51.2849V19.6889H59.0632V27.3674H63.9064V8.50021H59.0632V15.9106H51.2849V8.50021ZM70.2906 8.50017H75.0848V19.7864C75.0848 20.9077 75.4028 21.7852 76.0143 22.419C76.6258 23.0528 77.5064 23.3697 78.6316 23.3697C79.7323 23.3697 80.6129 23.0528 81.2488 22.4434C81.8848 21.834 82.2028 20.932 82.2028 19.7864V8.50017H87.0459V20.0789C87.0459 22.4434 86.2876 24.296 84.7466 25.6367C83.2056 26.9773 81.1754 27.6355 78.6071 27.6355C77.1884 27.6355 75.941 27.4649 74.8892 27.0992C73.8129 26.7336 72.9323 26.2217 72.2719 25.5391C71.6115 24.8566 71.0978 24.0766 70.7798 23.1747C70.4619 22.2727 70.2906 21.2246 70.2906 20.0789V8.50017ZM99.3213 8.50017H93.3774V27.3674H98.0983V20.2983L97.8292 15.1549H98.0493L103.553 27.0992L109.056 15.1549H109.252L108.983 20.2495V27.3674H113.679V8.50017H107.711L103.651 17.9094H103.455L99.3213 8.50017ZM124.864 8.50017H130.515L137.363 27.3674H132.031L131.126 24.5153H124.302L123.372 27.3674H118.358L124.864 8.50017ZM129.952 20.8102L129.389 19.0551L127.873 13.5704H127.702L126.063 19.0551L125.5 20.8102H129.952ZM147.095 8.50017H141.567V27.3674H146.41V20.6395L146.166 15.4961H146.361L153.064 27.3674H158.592V8.50017H153.773V15.1793L154.042 20.4933H153.846L147.095 8.50017Z" fill="url(#paint0_linear_1458_841)"/>
<defs>
<linearGradient id="paint0_linear_1458_841" x1="150.067" y1="0.419207" x2="150.067" y2="39.2579" gradientUnits="userSpaceOnUse">
<stop stop-color="#43536D"/>
<stop offset="1" stop-color="#43536D" stop-opacity="0.2"/>
</linearGradient>
</defs>
</svg>
