<svg width="141" height="34" viewBox="0 0 141 34" fill="none" xmlns="http://www.w3.org/2000/svg">
<path fill-rule="evenodd" clip-rule="evenodd" d="M0.0376558 16.0015C2.42061 18.5912 6.63316 20.6675 12.5762 22.2167L13.1211 22.3561L13.6757 22.4926L14.2397 22.6262L14.486 22.6838L14.971 22.7997L15.5637 22.9463L16.1411 23.0944L16.592 23.2141L17.033 23.3346L17.4643 23.4563L17.8858 23.5788L18.2973 23.7024L18.6991 23.8269L18.8964 23.8895L19.2833 24.0154L19.5672 24.1103L19.8455 24.2059L20.2969 24.3661L20.3853 24.3982L20.8183 24.5601L21.2359 24.7232L21.3984 24.7889L21.7164 24.9207L21.8717 24.9869L22.1747 25.1199C23.8641 25.8757 25.0759 26.6685 25.8041 27.4855C26.867 28.678 26.8435 29.9474 25.5309 31.5582C23.1857 32.977 20.4669 33.8392 17.5569 33.9621C17.2929 33.315 16.905 32.6362 16.3902 31.929C16.1251 31.565 15.8249 31.1901 15.4893 30.8046L15.3187 30.6109L15.0928 30.3618L14.8576 30.1098L14.6127 29.8549C14.2205 29.452 13.793 29.0383 13.3301 28.6137L13.0957 28.4004L12.7888 28.1264L12.4724 27.8495L12.1464 27.5696L11.8108 27.2867L11.6395 27.1442L11.2896 26.8567L10.9302 26.5665L10.4674 26.1993L9.98964 25.8276L9.59667 25.5267L9.1941 25.2229L8.78194 24.9161L8.25328 24.5283L7.70957 24.1358L7.26383 23.8185L6.80851 23.498L6.34353 23.1746L5.62809 22.6837L5.13912 22.3526L4.64052 22.0185L4.1323 21.6813L3.48348 21.2554L2.81961 20.8247L2.0031 20.3017L1.44672 19.9491L0.594054 19.4144L0.115563 19.1178C0.0392446 18.4671 0 17.805 0 17.1338C0 16.8547 0.00678289 16.5771 0.0201936 16.3015L0.0376558 16.0015Z" fill="white"/>
<path fill-rule="evenodd" clip-rule="evenodd" d="M0.972656 22.5327L1.25953 22.716L2.04066 23.2209L2.54948 23.5535L3.04877 23.8829L3.53851 24.2091L4.0187 24.5322L4.48933 24.852L4.9504 25.1686L5.40191 25.4821L5.84387 25.7923L6.27627 26.0993L6.69909 26.403L7.11231 26.7035L7.51598 27.0007L7.91009 27.2949L8.48327 27.7298L9.03485 28.1574L9.39057 28.4384L9.73674 28.7162L10.0733 28.9906L10.4003 29.2617L10.56 29.3961L10.8726 29.6623L11.1755 29.9253L11.4689 30.1849L11.7526 30.4413L11.8908 30.5682L12.16 30.8195L12.4196 31.0676L12.6696 31.3123C12.7786 31.4203 12.8848 31.5274 12.988 31.6335L13.1407 31.7918L13.3618 32.0265C13.8305 32.5315 14.2311 33.0128 14.5637 33.4704C14.6871 33.6401 14.7994 33.8039 14.9014 33.9623C8.36909 33.1599 2.99233 28.6144 0.972656 22.5327Z" fill="white"/>
<path fill-rule="evenodd" clip-rule="evenodd" d="M4.14681 5.87891C4.07507 7.0365 4.36313 8.14847 5.02842 9.20544C6.02233 10.7845 7.83571 12.1364 10.4717 13.2951L10.6709 13.3816L11.0185 13.5277C11.6858 13.8029 12.4018 14.0667 13.1662 14.3197L13.4969 14.4276L13.9119 14.5585L14.1229 14.6231L14.5515 14.751L14.7692 14.8143L15.2113 14.9393L15.4358 15.0011L15.6625 15.0624L16.1228 15.1835L16.3562 15.2434L16.8299 15.3617L17.3126 15.4782L17.9173 15.6206L18.4408 15.7477C18.6134 15.7904 18.7846 15.8333 18.954 15.8766L19.4571 16.0076C19.6232 16.0517 19.7876 16.0959 19.9503 16.1405L20.4333 16.2755L20.9063 16.4125L21.3693 16.5514C27.9342 18.5561 31.4194 21.171 32.0691 24.4298C31.2955 26.0218 30.2812 27.4736 29.0736 28.7379C28.9798 27.7162 28.5277 26.7286 27.7002 25.797C26.9802 24.9866 25.9749 24.2316 24.6811 23.526L24.4943 23.4256L24.1929 23.2691C24.0227 23.1827 23.8481 23.0968 23.669 23.0118L23.3969 22.8849L23.0615 22.7341L22.8901 22.6593L22.7163 22.5848L22.3615 22.4371L22.1804 22.3638L21.8109 22.2185C21.276 22.0119 20.7115 21.81 20.1169 21.6127L19.8171 21.5143L19.389 21.3779L18.9511 21.243L18.5035 21.1094L17.8135 20.9117L17.3413 20.7817L16.7372 20.621L16.1178 20.4625L15.8657 20.3997L15.3541 20.2752L14.4728 20.067L13.9949 19.9511L13.5253 19.8337L13.0643 19.7146C12.9882 19.6945 12.9124 19.6745 12.8369 19.6543L12.3884 19.5328L11.9482 19.4096L11.5164 19.2847C11.4452 19.2638 11.3743 19.2427 11.3037 19.2217L10.8844 19.0943L10.4734 18.9654C10.3378 18.9221 10.2036 18.8785 10.0707 18.8347L9.6763 18.7025L9.29016 18.5686C9.22648 18.5461 9.16316 18.5235 9.10018 18.5009L8.72644 18.3646C8.54161 18.2959 8.35991 18.2267 8.18124 18.1568L7.82806 18.0162C7.59534 17.9219 7.36809 17.8266 7.14629 17.7301L6.81767 17.5845C6.76358 17.5601 6.70981 17.5357 6.65642 17.5111L6.34003 17.363C3.321 15.9236 1.44277 14.2496 0.648438 12.3334C1.32522 9.95978 2.50437 7.7995 4.063 5.97562L4.14681 5.87891Z" fill="white"/>
<path fill-rule="evenodd" clip-rule="evenodd" d="M16.7927 0C16.9506 0 17.108 0.00215976 17.2647 0.00645132C16.0098 1.69334 16.288 3.87903 18.2484 6.37984C18.5274 6.73583 18.8422 7.10124 19.1927 7.47622L19.371 7.66452L19.6065 7.90645C19.7134 8.01458 19.823 8.12345 19.9356 8.23306L20.1066 8.39812L20.3712 8.64782L20.6455 8.90012C20.9431 9.17068 21.2574 9.44565 21.5881 9.7251L21.8394 9.93553L22.1621 10.2009L22.4944 10.469L22.8365 10.7397L23.1884 11.013L23.5499 11.2889L23.9212 11.5675L24.4963 11.9905L24.8919 12.2758L25.5035 12.7087L25.9235 13.0006L26.1371 13.1477L26.5715 13.4436L26.7924 13.5927L27.2416 13.8927L27.7005 14.1955L28.1691 14.501L28.6475 14.8091L29.1357 15.12L29.6337 15.4335L30.1413 15.7498L30.6588 16.069L31.1861 16.3907L31.723 16.7153L32.2699 17.0426L32.8265 17.3727L33.3929 17.7054L33.6861 17.8761C33.6277 18.9116 33.4756 19.9222 33.2386 20.8997C31.6434 18.5244 28.6669 16.5317 24.3733 14.9301L23.9537 14.7763C23.3887 14.573 22.8019 14.376 22.1933 14.1857L21.7327 14.0442L21.264 13.9051L20.7873 13.7685C20.707 13.7459 20.6266 13.7235 20.5457 13.701L20.0567 13.5681C19.9746 13.5462 19.8921 13.5243 19.8092 13.5026L19.3081 13.3734C19.0554 13.3093 18.7998 13.2463 18.5412 13.1841L17.5513 12.9505L17.0925 12.8383L16.6433 12.7245L16.2037 12.6093L15.7739 12.4924L15.5625 12.4335L15.1473 12.3144L14.9432 12.2543L14.5423 12.133L14.3456 12.0718L13.9593 11.9484L13.7698 11.8861L13.398 11.7605L13.2158 11.6972L12.8586 11.5695L12.6835 11.5051L12.3409 11.3753L12.1731 11.3099L12.0078 11.2442L11.6846 11.1118L11.5265 11.0451L11.2177 10.9107C10.9898 10.8095 10.7701 10.7071 10.5586 10.6037L10.3497 10.5L10.0797 10.3606C8.57748 9.56733 7.54276 8.71587 6.97701 7.82133C6.04273 6.34413 6.3903 4.54801 8.24174 2.31487C10.7507 0.843463 13.673 0 16.7927 0Z" fill="white"/>
<path fill-rule="evenodd" clip-rule="evenodd" d="M20.6859 0.327148C27.5877 1.90666 32.8815 7.77707 33.6859 15.0223L33.0892 14.6612L32.339 14.2011L31.8502 13.8977L31.3705 13.5971L30.8998 13.2992L30.4383 13.004L29.9857 12.7115L29.5423 12.4218L29.108 12.1348L28.6827 11.8506L28.2665 11.5691L27.8595 11.2904L27.4615 11.0143L27.0727 10.7411L26.6929 10.4707L26.3222 10.203L25.9607 9.93803L25.6083 9.67589L25.265 9.41652L24.9308 9.15994L24.6057 8.90619L24.2897 8.65521L23.983 8.40702L23.6853 8.16165L23.5399 8.04001L23.2558 7.79889L22.981 7.56054L22.7153 7.32505L22.4588 7.09238L22.2114 6.86255L22.0318 6.69204L21.8575 6.52311L21.633 6.30039L21.5241 6.19011L21.4176 6.08052L21.2114 5.86349C21.0233 5.66229 20.8472 5.46479 20.6829 5.27107L20.562 5.1265L20.3972 4.92236L20.2359 4.71386C19.1596 3.28986 18.9068 2.26965 19.2568 1.56705C19.4607 1.15778 19.8885 0.763265 20.5483 0.400746L20.6859 0.327148Z" fill="white"/>
<path d="M62.1312 31.6027C61.7786 31.8396 61.2986 32.1062 60.6914 32.4024C60.0843 32.6987 59.3693 32.9456 58.5466 33.143C57.7434 33.3404 56.8619 33.4391 55.9022 33.4391C54.2567 33.4194 52.7681 33.1232 51.4359 32.5506C50.1238 31.9779 49.0071 31.1979 48.0866 30.2105C47.1657 29.2231 46.4509 28.0876 45.9417 26.8041C45.4519 25.5008 45.207 24.1184 45.207 22.6571C45.207 21.0576 45.4616 19.5864 45.9708 18.2437C46.4998 16.881 47.2345 15.706 48.1748 14.7188C49.115 13.7116 50.2217 12.9316 51.4948 12.3787C52.7875 11.8258 54.1978 11.5493 55.7258 11.5493C56.9989 11.5493 58.1546 11.7271 59.1928 12.0824C60.231 12.4182 61.1225 12.823 61.8666 13.2969L60.7208 15.9628C60.1331 15.5678 59.4181 15.1926 58.5761 14.8372C57.7531 14.4817 56.8325 14.304 55.814 14.304C54.7759 14.304 53.7966 14.5114 52.8757 14.926C51.9552 15.3408 51.1422 15.9233 50.4372 16.6737C49.7318 17.4241 49.1735 18.3029 48.7622 19.31C48.3706 20.2973 48.1748 21.3636 48.1748 22.5091C48.1748 23.6742 48.3508 24.7602 48.7034 25.7674C49.0755 26.7548 49.5948 27.6138 50.2608 28.3444C50.9464 29.075 51.769 29.6476 52.729 30.0624C53.6886 30.4771 54.7659 30.6845 55.9608 30.6845C57.0384 30.6845 57.998 30.5166 58.8403 30.1808C59.6827 29.8452 60.378 29.47 60.9263 29.0552L62.1312 31.6027Z" fill="white"/>
<path d="M69.7812 11.7861H72.6315V33.2022H69.7812V11.7861Z" fill="white"/>
<path d="M87.2352 11.7861C88.3125 11.7861 89.3015 11.9343 90.2026 12.2305C91.1232 12.5069 91.9167 12.9316 92.5827 13.5042C93.2684 14.0572 93.797 14.7483 94.1692 15.5776C94.5611 16.3873 94.757 17.3352 94.757 18.4213C94.757 19.2704 94.6297 20.0998 94.3749 20.9094C94.1398 21.7191 93.7385 22.4596 93.1702 23.131C92.6021 23.7827 91.858 24.3158 90.9371 24.7305C90.0362 25.1255 88.9197 25.3229 87.5878 25.3229H84.4439V33.2022H81.5938V11.7861H87.2352ZM87.5289 22.5681C88.3712 22.5681 89.0666 22.4399 89.6149 22.1831C90.183 21.9264 90.6236 21.6006 90.9371 21.2056C91.2505 20.7909 91.4761 20.3467 91.613 19.8727C91.7501 19.3988 91.8185 18.9545 91.8185 18.5398C91.8185 18.1053 91.7403 17.661 91.5837 17.2068C91.4466 16.7329 91.2115 16.2984 90.8787 15.9035C90.5652 15.5086 90.1439 15.1827 89.6149 14.926C89.1057 14.6693 88.4789 14.5409 87.7344 14.5409H84.4439V22.5681H87.5289ZM91.0253 24.1974L96.5786 33.2022H93.2877L87.6466 24.2863L91.0253 24.1974Z" fill="white"/>
<path d="M106.375 25.6192C106.375 26.5867 106.601 27.4556 107.051 28.2259C107.521 28.9762 108.138 29.5686 108.902 30.0031C109.666 30.4376 110.528 30.6547 111.487 30.6547C112.487 30.6547 113.378 30.4376 114.161 30.0031C114.944 29.5686 115.562 28.9762 116.013 28.2259C116.464 27.4556 116.688 26.5867 116.688 25.6192V11.7861H119.48V25.708C119.48 27.268 119.117 28.6306 118.393 29.7957C117.687 30.9608 116.728 31.8593 115.513 32.4913C114.319 33.1232 112.976 33.4391 111.487 33.4391C109.999 33.4391 108.657 33.1232 107.462 32.4913C106.268 31.8593 105.318 30.9608 104.613 29.7957C103.907 28.6306 103.555 27.268 103.555 25.708V11.7861H106.375V25.6192Z" fill="white"/>
<path d="M139.16 15.6076C138.435 15.2323 137.642 14.9065 136.78 14.63C135.918 14.3536 135.076 14.2153 134.253 14.2153C133.117 14.2153 132.206 14.4819 131.521 15.0151C130.855 15.5482 130.522 16.2592 130.522 17.1478C130.522 17.8192 130.738 18.3919 131.168 18.8657C131.599 19.32 132.167 19.715 132.872 20.0507C133.577 20.3863 134.312 20.7023 135.076 20.9986C135.742 21.2552 136.398 21.5416 137.044 21.8576C137.691 22.1735 138.269 22.5684 138.778 23.0424C139.307 23.5163 139.718 24.0988 140.013 24.7901C140.326 25.4812 140.482 26.3402 140.482 27.367C140.482 28.4926 140.198 29.5195 139.631 30.4477C139.082 31.3757 138.288 32.1064 137.25 32.6396C136.212 33.1728 134.978 33.4394 133.548 33.4394C132.608 33.4394 131.707 33.3307 130.844 33.1136C130.003 32.8963 129.22 32.6199 128.495 32.2841C127.769 31.9286 127.123 31.5633 126.555 31.1882L127.819 28.9369C128.288 29.2727 128.828 29.5985 129.434 29.9145C130.042 30.2106 130.678 30.4575 131.344 30.655C132.011 30.8327 132.657 30.9216 133.284 30.9216C133.95 30.9216 134.606 30.803 135.252 30.5661C135.918 30.3093 136.467 29.9243 136.898 29.4109C137.328 28.8974 137.544 28.2161 137.544 27.367C137.544 26.6364 137.348 26.0341 136.957 25.5602C136.585 25.0665 136.085 24.6517 135.458 24.3161C134.831 23.9606 134.166 23.6446 133.46 23.3682C132.794 23.1114 132.119 22.835 131.432 22.5388C130.747 22.2229 130.111 21.8477 129.523 21.4132C128.935 20.959 128.465 20.4061 128.113 19.7544C127.76 19.1028 127.584 18.3128 127.584 17.3848C127.584 16.2592 127.848 15.2816 128.377 14.4523C128.925 13.6031 129.669 12.9417 130.61 12.4677C131.55 11.974 132.627 11.7074 133.842 11.668C135.213 11.668 136.418 11.8357 137.457 12.1715C138.514 12.5072 139.444 12.9218 140.247 13.4155L139.16 15.6076Z" fill="white"/>
<path d="M70.6445 0.230469H74.014V1.09122H71.5364V2.6667H73.6939V3.51978H71.5364V5.82539H70.6445V0.230469Z" fill="white"/>
<path d="M76.6641 3.03607C76.6641 2.64667 76.7377 2.28034 76.8853 1.93706C77.0327 1.58865 77.2358 1.2838 77.495 1.02251C77.7544 0.756092 78.0541 0.54856 78.3946 0.400009C78.7401 0.24627 79.1087 0.169434 79.4999 0.169434C79.8862 0.169434 80.2497 0.24627 80.5902 0.400009C80.9357 0.54856 81.238 0.756092 81.4974 1.02251C81.7616 1.2838 81.9674 1.58865 82.1149 1.93706C82.2672 2.28034 82.3434 2.64667 82.3434 3.03607C82.3434 3.43058 82.2672 3.79947 82.1149 4.14275C81.9674 4.48604 81.7616 4.78832 81.4974 5.04962C81.238 5.31092 80.9357 5.51585 80.5902 5.66444C80.2497 5.81302 79.8862 5.88746 79.4999 5.88746C79.1087 5.88746 78.7401 5.81571 78.3946 5.67212C78.0541 5.52354 77.7544 5.32115 77.495 5.06499C77.2358 4.80368 77.0327 4.5014 76.8853 4.15811C76.7377 3.80971 76.6641 3.43571 76.6641 3.03607ZM77.579 3.03607C77.579 3.40495 77.6651 3.74055 77.838 4.04284C78.011 4.34001 78.2422 4.57823 78.532 4.75757C78.8266 4.93688 79.1571 5.02654 79.5229 5.02654C79.8784 5.02654 80.1989 4.93688 80.4832 4.75757C80.7729 4.57823 81.0019 4.34001 81.1696 4.04284C81.3423 3.74055 81.4285 3.40495 81.4285 3.03607C81.4285 2.66202 81.3423 2.3239 81.1696 2.0216C80.9968 1.71932 80.7656 1.4785 80.4759 1.29916C80.1862 1.11986 79.8608 1.03019 79.4999 1.03019C79.139 1.03019 78.8139 1.11986 78.5242 1.29916C78.2346 1.4785 78.0033 1.72187 77.8305 2.02929C77.6628 2.33157 77.579 2.66715 77.579 3.03607Z" fill="white"/>
<path d="M86.2321 3.81183C86.2321 4.03216 86.288 4.23454 86.3999 4.41897C86.5114 4.59831 86.6614 4.74434 86.8496 4.85704C87.0428 4.96464 87.2562 5.01843 87.4898 5.01843C87.7337 5.01843 87.9523 4.96464 88.1453 4.85704C88.3384 4.74434 88.4912 4.59831 88.6028 4.41897C88.7147 4.23454 88.7706 4.03216 88.7706 3.81183V0.230469H89.6473V3.8349C89.6473 4.24478 89.5508 4.60343 89.3576 4.91084C89.1645 5.21825 88.9052 5.45905 88.5801 5.63324C88.2546 5.80248 87.8914 5.88703 87.4898 5.88703C87.0885 5.88703 86.7249 5.80248 86.3999 5.63324C86.0794 5.45905 85.8228 5.21825 85.6297 4.91084C85.4419 4.60343 85.3477 4.24478 85.3477 3.8349V0.230469H86.2321V3.81183Z" fill="white"/>
<path d="M97.8673 6.02587L93.865 2.11409L93.8878 5.82612H92.9883V0.0390625H93.034L97.0209 4.0047L97.0055 0.231202H97.89V6.02587H97.8673Z" fill="white"/>
<path d="M101.324 5.82539V0.230469H102.902C103.456 0.230469 103.926 0.315019 104.313 0.484084C104.699 0.64803 105.011 0.870924 105.25 1.1527C105.489 1.42939 105.662 1.73936 105.769 2.08264C105.88 2.42081 105.936 2.7615 105.936 3.10478C105.936 3.5249 105.863 3.90406 105.715 4.24222C105.568 4.57523 105.365 4.8596 105.105 5.0953C104.851 5.33096 104.557 5.51285 104.221 5.64092C103.891 5.76374 103.54 5.82539 103.169 5.82539H101.324ZM102.216 4.96464H103.009C103.4 4.96464 103.746 4.89036 104.046 4.74177C104.351 4.59318 104.59 4.37798 104.762 4.09619C104.935 3.80927 105.021 3.4583 105.021 3.04331C105.021 2.6949 104.963 2.39774 104.846 2.15179C104.734 1.90074 104.584 1.69836 104.397 1.54466C104.213 1.38583 104.013 1.27056 103.794 1.19881C103.576 1.12198 103.36 1.08354 103.146 1.08354H102.216V4.96464Z" fill="white"/>
<path d="M108.125 5.82546L110.58 0H110.633L113.088 5.82546H112.067L111.556 4.51127H109.535L109.002 5.82546H108.125ZM109.848 3.74274H111.258L110.564 1.9828L109.848 3.74274Z" fill="white"/>
<path d="M115.102 0.230469H118.814V1.09122H117.38V5.82539H116.497V1.09122H115.102V0.230469Z" fill="white"/>
<path d="M121.852 0.230469H122.744V5.82539H121.852V0.230469Z" fill="white"/>
<path d="M125.832 3.03607C125.832 2.64667 125.906 2.28034 126.053 1.93706C126.201 1.58865 126.404 1.2838 126.663 1.02251C126.922 0.756092 127.222 0.54856 127.562 0.400009C127.908 0.24627 128.277 0.169434 128.668 0.169434C129.054 0.169434 129.417 0.24627 129.759 0.400009C130.104 0.54856 130.406 0.756092 130.666 1.02251C130.93 1.2838 131.135 1.58865 131.284 1.93706C131.435 2.28034 131.512 2.64667 131.512 3.03607C131.512 3.43058 131.435 3.79947 131.284 4.14275C131.135 4.48604 130.93 4.78832 130.666 5.04962C130.406 5.31092 130.104 5.51585 129.759 5.66444C129.417 5.81302 129.054 5.88746 128.668 5.88746C128.277 5.88746 127.908 5.81571 127.562 5.67212C127.222 5.52354 126.922 5.32115 126.663 5.06499C126.404 4.80368 126.201 4.5014 126.053 4.15811C125.906 3.80971 125.832 3.43571 125.832 3.03607ZM126.748 3.03607C126.748 3.40495 126.833 3.74055 127.006 4.04284C127.179 4.34001 127.411 4.57823 127.699 4.75757C127.995 4.93688 128.325 5.02654 128.69 5.02654C129.047 5.02654 129.367 4.93688 129.651 4.75757C129.941 4.57823 130.17 4.34001 130.337 4.04284C130.511 3.74055 130.597 3.40495 130.597 3.03607C130.597 2.66202 130.511 2.3239 130.337 2.0216C130.164 1.71932 129.933 1.4785 129.644 1.29916C129.354 1.11986 129.029 1.03019 128.668 1.03019C128.307 1.03019 127.983 1.11986 127.693 1.29916C127.403 1.4785 127.171 1.72187 126.998 2.02929C126.831 2.33157 126.748 2.66715 126.748 3.03607Z" fill="white"/>
<path d="M139.485 6.02587L135.483 2.11409L135.505 5.82612H134.605V0.0390625H134.652L138.639 4.0047L138.623 0.231202H139.508V6.02587H139.485Z" fill="white"/>
</svg>
