<svg width="149" height="28" viewBox="0 0 149 28" fill="none" xmlns="http://www.w3.org/2000/svg">
<path d="M0 8.13673C0 5.12667 2.42464 2.68652 5.41558 2.68652H27.0779C27.0779 5.69659 24.6533 8.13673 21.6623 8.13673H0Z" fill="#6B5CEA"/>
<path d="M0 17.9471C0 14.937 2.40792 12.4969 5.37823 12.4969H13.4456C13.4456 15.507 11.0377 17.9471 8.06734 17.9471H0Z" fill="#6B5CEA"/>
<path d="M0 27.7575C0 24.7474 2.42464 22.3073 5.41558 22.3073H27.0779C27.0779 25.3173 24.6533 27.7575 21.6623 27.7575H0Z" fill="#6B5CEA"/>
<path d="M145.855 25.1015C144.999 25.1015 144.295 24.83 143.744 24.287C143.212 23.7231 142.945 23.0339 142.945 22.2193C142.945 21.3839 143.212 20.6842 143.744 20.1203C144.295 19.5564 144.999 19.2744 145.855 19.2744C146.691 19.2744 147.376 19.5564 147.908 20.1203C148.46 20.6842 148.735 21.3839 148.735 22.2193C148.735 23.0339 148.46 23.7231 147.908 24.287C147.376 24.83 146.691 25.1015 145.855 25.1015Z" fill="#6B5CEA"/>
<path d="M58.3706 15.1954C58.3706 15.7333 58.3372 16.2936 58.2704 16.8763H45.3428C45.4319 18.0417 45.7994 18.9382 46.4452 19.5657C47.1133 20.1708 47.9261 20.4734 48.8837 20.4734C50.309 20.4734 51.3 19.8683 51.8567 18.658H57.9363C57.6245 19.8907 57.0567 21.0001 56.2327 21.9862C55.431 22.9724 54.4177 23.7456 53.1929 24.3059C51.968 24.8662 50.5985 25.1463 49.0841 25.1463C47.258 25.1463 45.6323 24.7541 44.2071 23.9697C42.7818 23.1853 41.6683 22.0647 40.8666 20.6079C40.0649 19.1511 39.6641 17.4478 39.6641 15.4979C39.6641 13.5481 40.0538 11.8448 40.8332 10.388C41.6349 8.9312 42.7484 7.8106 44.1737 7.02618C45.5989 6.24176 47.2357 5.84954 49.0841 5.84954C50.888 5.84954 52.4914 6.23055 53.8944 6.99256C55.2974 7.75457 56.3886 8.84156 57.168 10.2535C57.9697 11.6655 58.3706 13.3128 58.3706 15.1954ZM52.5248 13.6826C52.5248 12.6964 52.1907 11.912 51.5227 11.3293C50.8546 10.7466 50.0195 10.4552 49.0173 10.4552C48.0597 10.4552 47.2469 10.7354 46.5788 11.2957C45.933 11.856 45.5321 12.6516 45.3762 13.6826H52.5248Z" fill="white"/>
<path d="M86.1701 5.91678C88.4862 5.91678 90.3234 6.62276 91.6819 8.03472C93.0626 9.44668 93.753 11.4077 93.753 13.9179V24.8774H88.0742V14.6911C88.0742 13.4809 87.7513 12.5508 87.1055 11.9008C86.4819 11.2284 85.6134 10.8923 84.4999 10.8923C83.3864 10.8923 82.5068 11.2284 81.861 11.9008C81.2374 12.5508 80.9256 13.4809 80.9256 14.6911V24.8774H75.2469V14.6911C75.2469 13.4809 74.924 12.5508 74.2781 11.9008C73.6546 11.2284 72.7861 10.8923 71.6726 10.8923C70.5591 10.8923 69.6795 11.2284 69.0336 11.9008C68.4101 12.5508 68.0983 13.4809 68.0983 14.6911V24.8774H62.3862V6.11849H68.0983V8.47176C68.6773 7.68733 69.4345 7.071 70.3698 6.62276C71.3052 6.15211 72.363 5.91678 73.5433 5.91678C74.9462 5.91678 76.1933 6.21934 77.2845 6.82447C78.398 7.42959 79.2666 8.29246 79.8901 9.41306C80.5359 8.38211 81.4156 7.54165 82.5291 6.89171C83.6425 6.24176 84.8562 5.91678 86.1701 5.91678Z" fill="white"/>
<path d="M97.6143 15.4979C97.6143 13.5481 98.004 11.8448 98.7835 10.388C99.5852 8.9312 100.688 7.8106 102.09 7.02618C103.516 6.24176 105.141 5.84954 106.968 5.84954C109.306 5.84954 111.254 6.46588 112.813 7.69854C114.394 8.9312 115.43 10.6681 115.92 12.9093H109.84C109.328 11.475 108.337 10.7578 106.867 10.7578C105.821 10.7578 104.986 11.1724 104.362 12.0017C103.738 12.8085 103.427 13.9739 103.427 15.4979C103.427 17.022 103.738 18.1986 104.362 19.0278C104.986 19.8347 105.821 20.2381 106.867 20.2381C108.337 20.2381 109.328 19.5209 109.84 18.0865H115.92C115.43 20.2829 114.394 22.0086 112.813 23.2637C111.232 24.5188 109.284 25.1463 106.968 25.1463C105.141 25.1463 103.516 24.7541 102.09 23.9697C100.688 23.1853 99.5852 22.0647 98.7835 20.6079C98.004 19.1511 97.6143 17.4478 97.6143 15.4979Z" fill="white"/>
<path d="M118.842 15.4643C118.842 13.5369 119.198 11.8448 119.911 10.388C120.646 8.9312 121.637 7.8106 122.884 7.02618C124.131 6.24176 125.523 5.84954 127.059 5.84954C128.284 5.84954 129.398 6.10728 130.4 6.62276C131.424 7.13824 132.226 7.83301 132.805 8.70708V0H138.517V24.8774H132.805V22.1879C132.27 23.0844 131.502 23.8016 130.5 24.3395C129.52 24.8774 128.373 25.1463 127.059 25.1463C125.523 25.1463 124.131 24.7541 122.884 23.9697C121.637 23.1629 120.646 22.031 119.911 20.5743C119.198 19.0951 118.842 17.3918 118.842 15.4643ZM132.805 15.4979C132.805 14.0636 132.404 12.9318 131.602 12.1025C130.823 11.2733 129.865 10.8586 128.73 10.8586C127.594 10.8586 126.625 11.2733 125.823 12.1025C125.044 12.9093 124.654 14.0299 124.654 15.4643C124.654 16.8987 125.044 18.0417 125.823 18.8934C126.625 19.7226 127.594 20.1372 128.73 20.1372C129.865 20.1372 130.823 19.7226 131.602 18.8934C132.404 18.0641 132.805 16.9323 132.805 15.4979Z" fill="white"/>
</svg>
