<svg width="176" height="196" viewBox="0 0 176 196" fill="none" xmlns="http://www.w3.org/2000/svg">
<path d="M137.46 137.712C127.366 145.695 113.235 151.683 99.1032 151.683C66.803 151.683 44.5965 127.733 44.5965 95.7996C44.5965 63.8664 66.803 41.9123 99.1032 41.9123C113.235 41.9123 127.366 45.904 137.46 55.8831L143.516 61.8706L175.816 31.9332L167.741 25.9457C149.572 9.97909 125.347 0 99.1032 0C42.5778 0 0.183655 41.9123 0.183655 97.7955C0.183655 153.679 42.5778 195.591 99.1032 195.591C125.347 195.591 149.572 185.612 167.741 169.645L175.816 163.658L143.516 131.724L137.46 137.712Z" fill="white" fill-opacity="0.05"/>
</svg>
