<svg width="168" height="28" viewBox="0 0 168 28" fill="none" xmlns="http://www.w3.org/2000/svg">
<path fill-rule="evenodd" clip-rule="evenodd" d="M14.4127 27.9337C6.82752 27.9337 0.678101 21.7134 0.678101 14.0398C0.678101 6.36726 6.82752 0.146973 14.4127 0.146973C21.9989 0.146973 28.1483 6.36726 28.1483 14.0398C28.1483 21.7134 21.9989 27.9337 14.4127 27.9337ZM14.4127 26.8494C21.4065 26.8494 27.0763 21.1142 27.0763 14.0398C27.0763 6.96647 21.4065 1.23131 14.4127 1.23131C7.4199 1.23131 1.75008 6.96647 1.75008 14.0398C1.75008 21.1142 7.4199 26.8494 14.4127 26.8494ZM14.435 15.2606C15.0871 15.2606 15.6157 14.7262 15.6157 14.0671C15.6157 13.4079 15.0871 12.8736 14.435 12.8736C13.7829 12.8736 13.2543 13.4079 13.2543 14.0671C13.2543 14.7262 13.7829 15.2606 14.435 15.2606ZM43.945 18.8245C44.7182 19.2695 45.587 19.4925 46.5492 19.4925C47.2367 19.499 47.9187 19.368 48.556 19.1071C49.1718 18.8512 49.693 18.4812 50.1188 17.9971L49.4664 17.3156C48.7166 18.1286 47.7584 18.5346 46.5909 18.5346C45.8227 18.5346 45.1236 18.3506 44.4937 17.9827C43.8647 17.6147 43.3709 17.1121 43.0152 16.4739C42.6586 15.8346 42.4798 15.1192 42.4798 14.3258C42.4798 13.5323 42.6586 12.8149 43.0152 12.1776C43.363 11.5476 43.8742 11.0256 44.4937 10.6678C45.1236 10.3009 45.8227 10.1159 46.5909 10.1159C47.7492 10.1159 48.7074 10.5177 49.4664 11.3204L50.1188 10.639C49.6918 10.1541 49.1592 9.7762 48.5631 9.53515C47.9525 9.28436 47.2849 9.15794 46.5635 9.15794C45.6002 9.15794 44.7304 9.38098 43.9521 9.82602C43.1858 10.2597 42.5536 10.9002 42.1262 11.6761C41.6862 12.4654 41.4657 13.3483 41.4657 14.3258C41.4657 15.3022 41.6862 16.1861 42.1262 16.9744C42.5523 17.7489 43.1817 18.3891 43.945 18.8245ZM57.4784 9.24531H56.4511V19.4052H57.4784V9.24531ZM72.9078 19.4052V9.24531H71.8937V17.4893L65.6295 9.24531H64.7821V19.4052H65.8104V11.1611L72.0604 19.4052H72.9078ZM84.1692 9.24531H80.2115V19.4062H84.1692C85.1975 19.4062 86.1049 19.1904 86.8923 18.7587C87.6598 18.3474 88.2956 17.7235 88.7254 16.96C89.1603 16.1902 89.3777 15.3124 89.3777 14.3258C89.3777 13.338 89.1603 12.4603 88.7254 11.6905C88.2958 10.9266 87.66 10.3024 86.8923 9.89077C86.1049 9.46114 85.1975 9.24531 84.1692 9.24531ZM86.3508 17.9467C85.7116 18.3003 84.9668 18.476 84.1133 18.476H81.2388V10.1744H84.1143C84.9658 10.1744 85.7106 10.3512 86.3508 10.7038C86.9728 11.0406 87.4879 11.5488 87.8363 12.1694C88.1879 12.7943 88.3647 13.5128 88.3647 14.3258C88.3647 15.1377 88.1879 15.8562 87.8363 16.4811C87.4879 17.1017 86.9728 17.6099 86.3508 17.9467ZM96.8491 9.24531H95.8208V19.4052H96.8491V9.24531ZM105.77 18.8245C106.544 19.2695 107.411 19.4925 108.375 19.4925C109.062 19.499 109.744 19.368 110.381 19.1071C110.997 18.8512 111.517 18.4812 111.944 17.9971L111.292 17.3156C110.541 18.1286 109.583 18.5346 108.416 18.5346C107.648 18.5346 106.949 18.3506 106.319 17.9827C105.689 17.6147 105.196 17.1121 104.84 16.4739C104.484 15.8346 104.305 15.1192 104.305 14.3258C104.305 13.5323 104.484 12.8149 104.84 12.1776C105.188 11.5475 105.699 11.0254 106.319 10.6678C106.949 10.3009 107.648 10.1159 108.416 10.1159C109.575 10.1159 110.532 10.5177 111.292 11.3204L111.944 10.639C111.517 10.1541 110.985 9.7762 110.389 9.53515C109.778 9.28436 109.11 9.15794 108.389 9.15794C107.426 9.15794 106.555 9.38098 105.778 9.82602C105.011 10.2597 104.379 10.9002 103.952 11.6761C103.512 12.4654 103.291 13.3483 103.291 14.3258C103.291 15.3022 103.512 16.1861 103.952 16.9744C104.378 17.7489 105.007 18.3891 105.77 18.8245ZM117.54 19.4052L118.706 16.6907H124.124L124.123 16.6918L125.29 19.4052H126.373L121.928 9.24531H120.915L116.47 19.4052H117.54ZM121.415 10.3625L123.748 15.8202H119.081L121.415 10.3625ZM130.108 10.1744H133.524V19.4052H134.552V10.1744H137.969V9.24531H130.108V10.1744ZM145.238 18.8173C146.02 19.2674 146.893 19.4925 147.856 19.4925C148.819 19.4925 149.687 19.2695 150.46 18.8245C151.225 18.3881 151.856 17.7483 152.286 16.9744C152.731 16.1861 152.953 15.3022 152.953 14.3258C152.953 13.3483 152.731 12.4654 152.286 11.6761C151.856 10.9022 151.225 10.2624 150.46 9.82602C149.687 9.38098 148.819 9.15794 147.856 9.15794C146.894 9.15794 146.02 9.38303 145.238 9.83321C144.47 10.2683 143.836 10.9087 143.405 11.6843C142.965 12.4675 142.744 13.3483 142.744 14.3258C142.744 15.3022 142.965 16.183 143.405 16.9672C143.836 17.7424 144.47 18.3825 145.238 18.8173ZM149.939 17.9899C149.319 18.3527 148.624 18.5346 147.856 18.5346C147.087 18.5346 146.391 18.3527 145.766 17.9899C145.141 17.6271 144.649 17.1245 144.294 16.4811C143.937 15.8366 143.759 15.1192 143.759 14.3258C143.749 13.5723 143.932 12.829 144.293 12.1694C144.637 11.5388 145.147 11.0167 145.766 10.6606C146.391 10.2978 147.088 10.1159 147.856 10.1159C148.586 10.1059 149.305 10.294 149.939 10.6606C150.554 11.0175 151.058 11.5398 151.397 12.1694C151.75 12.8138 151.926 13.5323 151.926 14.3258C151.926 15.1192 151.75 15.8377 151.398 16.4811C151.059 17.1108 150.554 17.6331 149.939 17.9899ZM163.813 16.1398L166.035 19.4052V19.4062H167.16L164.785 15.9219C165.498 15.6804 166.046 15.2857 166.431 14.7389C166.814 14.1921 167.008 13.522 167.008 12.7285C167.008 11.6442 166.656 10.7932 165.952 10.1744C165.248 9.55468 164.276 9.24531 163.035 9.24531H159.397V19.4052H160.423V16.183H163.035C163.295 16.1836 163.554 16.1692 163.813 16.1398ZM165.216 14.6012C164.706 15.0462 163.97 15.2693 163.007 15.2693H160.424V10.1744H163.007C163.97 10.1744 164.706 10.3944 165.216 10.8343C165.725 11.2752 165.979 11.9063 165.979 12.7285C165.979 13.5323 165.724 14.1562 165.216 14.6012Z" fill="url(#paint0_linear_1458_874)"/>
<defs>
<linearGradient id="paint0_linear_1458_874" x1="104.313" y1="-0.0323746" x2="104.313" y2="27.7096" gradientUnits="userSpaceOnUse">
<stop stop-color="#43536D"/>
<stop offset="1" stop-color="#43536D" stop-opacity="0.2"/>
</linearGradient>
</defs>
</svg>
