<svg width="200" height="25" viewBox="0 0 200 25" fill="none" xmlns="http://www.w3.org/2000/svg">
<path d="M3.6769 0.12963L8.54562 14.0519L13.3636 0.12963H17.0405L10.0164 18.537H7.07486L0 0.12963H3.6769Z" fill="white"/>
<path d="M18.9386 18.537V0.155555H22.438V18.537H18.9386Z" fill="white"/>
<path d="M26.1943 18.537V0.12963H34.1567C34.9851 0.12963 35.7458 0.311111 36.4389 0.674075C37.149 1.01975 37.7575 1.48642 38.2647 2.07407C38.7719 2.64444 39.1691 3.30123 39.4565 4.04444C39.7439 4.77037 39.8876 5.50494 39.8876 6.24815C39.8876 7.44074 39.5918 8.52963 39.0001 9.51481C38.4253 10.4827 37.6392 11.1827 36.6418 11.6148L40.8766 18.537H36.9207L33.1424 12.3667H29.6937V18.537H26.1943ZM29.6937 9.22963H34.0807C34.4018 9.22963 34.6977 9.15185 34.9682 8.9963C35.2556 8.84074 35.5007 8.63333 35.7036 8.37407C35.9064 8.09753 36.067 7.77778 36.1854 7.41481C36.3037 7.05185 36.3629 6.66296 36.3629 6.24815C36.3629 5.81605 36.2952 5.41852 36.16 5.05556C36.0248 4.69259 35.8388 4.38148 35.6021 4.12222C35.3824 3.84568 35.1203 3.63827 34.816 3.5C34.5286 3.34444 34.2328 3.26667 33.9285 3.26667H29.6937V9.22963Z" fill="white"/>
<path d="M55.7827 15.4V18.537H43.2812V0.12963H55.5544V3.26667H46.7806V7.7H54.3626V10.6037H46.7806V15.4H55.7827Z" fill="white"/>
<path d="M69.114 4.95185C68.9957 4.83086 68.7759 4.66667 68.4547 4.45926C68.1504 4.25185 67.77 4.05309 67.3136 3.86296C66.8741 3.65556 66.3923 3.48272 65.8682 3.34444C65.3441 3.20617 64.8116 3.13704 64.2706 3.13704C63.307 3.13704 62.5886 3.31852 62.1152 3.68148C61.6419 4.04444 61.4052 4.55432 61.4052 5.21111C61.4052 5.59136 61.4897 5.91111 61.6588 6.17037C61.8447 6.41235 62.1068 6.6284 62.4449 6.81852C62.783 7.00864 63.2056 7.18148 63.7128 7.33704C64.2368 7.49259 64.837 7.65679 65.5132 7.82963C66.3923 8.0716 67.1868 8.33086 67.8968 8.60741C68.6237 8.88395 69.2323 9.22963 69.7226 9.64445C70.2298 10.0593 70.6186 10.5605 70.8891 11.1481C71.1595 11.7185 71.2948 12.4272 71.2948 13.2741C71.2948 14.2593 71.1088 15.1062 70.7369 15.8148C70.3819 16.5062 69.9001 17.0679 69.2915 17.5C68.6829 17.9321 67.9729 18.2519 67.1614 18.4593C66.35 18.6494 65.5047 18.7444 64.6257 18.7444C63.2732 18.7444 61.9377 18.537 60.6191 18.1222C59.3005 17.7074 58.1171 17.1198 57.069 16.3593L58.6158 13.2741C58.768 13.4296 59.0385 13.637 59.4273 13.8963C59.833 14.1383 60.3064 14.3889 60.8473 14.6481C61.3883 14.8901 61.9884 15.0975 62.6477 15.2704C63.307 15.4432 63.9832 15.5296 64.6764 15.5296C66.6036 15.5296 67.5672 14.8988 67.5672 13.637C67.5672 13.2222 67.4573 12.8765 67.2375 12.6C67.0178 12.3235 66.705 12.0815 66.2993 11.8741C65.8935 11.6667 65.4033 11.4765 64.8285 11.3037C64.2537 11.1309 63.6113 10.9494 62.9013 10.7593C62.0391 10.5173 61.2869 10.258 60.6445 9.98148C60.019 9.68766 59.4949 9.35062 59.0723 8.97037C58.6496 8.59012 58.3284 8.14074 58.1087 7.62222C57.9058 7.1037 57.8044 6.49012 57.8044 5.78148C57.8044 4.84815 57.9734 4.01852 58.3115 3.29259C58.6496 2.56667 59.1145 1.96173 59.7062 1.47778C60.3148 0.993827 61.0164 0.630864 61.8109 0.388889C62.6055 0.12963 63.4592 0 64.3721 0C65.64 0 66.8064 0.207407 67.8715 0.622222C68.9365 1.01975 69.8663 1.49506 70.6608 2.04815L69.114 4.95185Z" fill="white"/>
<path d="M74.4252 15.2963C74.4252 13.2508 76.0471 11.5926 78.0478 11.5926C80.0485 11.5926 81.6703 13.2508 81.6703 15.2963C81.6703 17.3418 80.0485 19 78.0478 19C76.0471 19 74.4252 17.3418 74.4252 15.2963Z" fill="#7EE989"/>
<path d="M92.9759 18.5111V0.103705H105.072V3.24074H96.4753V7.98518H103.626V10.8889H96.4753V18.5111H92.9759Z" fill="white"/>
<path d="M107.463 18.5111V0.12963H110.962V18.5111H107.463Z" fill="white"/>
<path d="M118.218 6.71482V18.5111H114.718V0.103705H117.432L126.814 12.1852V0.12963H130.313V18.5111H127.473L118.218 6.71482Z" fill="white"/>
<path d="M132.233 18.5111L139.333 0.103705H142.173L149.248 18.5111H145.546L143.898 13.9222H137.583L135.935 18.5111H132.233ZM140.753 3.96667L138.167 11.4074H143.264L140.753 3.96667Z" fill="white"/>
<path d="M154.67 6.71482V18.5111H151.17V0.103705H153.884L163.266 12.1852V0.12963H166.765V18.5111H163.925L154.67 6.71482Z" fill="white"/>
<path d="M169.446 9.17778C169.446 8.05433 169.64 6.94815 170.029 5.85926C170.418 4.75309 170.976 3.7679 171.703 2.9037C172.446 2.03951 173.351 1.33951 174.416 0.803705C175.481 0.267902 176.698 0 178.067 0C179.673 0 181.06 0.371606 182.226 1.11482C183.409 1.85803 184.28 2.82593 184.838 4.01852L182.15 5.91111C181.947 5.39259 181.685 4.9605 181.364 4.61482C181.043 4.25186 180.688 3.96667 180.299 3.75926C179.927 3.55186 179.538 3.40494 179.132 3.31852C178.727 3.21482 178.338 3.16296 177.966 3.16296C177.138 3.16296 176.411 3.34445 175.785 3.70741C175.16 4.07037 174.636 4.54568 174.213 5.13333C173.807 5.7037 173.495 6.3605 173.275 7.10371C173.072 7.82963 172.97 8.55556 172.97 9.28149C172.97 10.0938 173.089 10.8802 173.325 11.6407C173.579 12.384 173.926 13.0407 174.365 13.6111C174.822 14.1815 175.363 14.6395 175.988 14.9852C176.614 15.3309 177.298 15.5037 178.042 15.5037C178.431 15.5037 178.828 15.4519 179.234 15.3482C179.64 15.2444 180.028 15.0803 180.4 14.8556C180.789 14.6309 181.144 14.3457 181.465 14C181.787 13.637 182.049 13.2049 182.251 12.7037L185.117 14.3889C184.846 15.0802 184.449 15.6938 183.925 16.2296C183.418 16.7481 182.835 17.1889 182.175 17.5519C181.516 17.9148 180.823 18.1914 180.096 18.3815C179.369 18.5716 178.651 18.6667 177.941 18.6667C176.69 18.6667 175.54 18.3901 174.492 17.837C173.461 17.2839 172.565 16.5667 171.804 15.6852C171.06 14.7864 170.477 13.7753 170.054 12.6519C169.649 11.5111 169.446 10.3531 169.446 9.17778Z" fill="white"/>
<path d="M200 15.3741V18.5111H187.499V0.103705H199.772V3.24074H190.998V7.67408H198.58V10.5778H190.998V15.3741H200Z" fill="white"/>
</svg>
