<svg width="131" height="54" viewBox="0 0 131 54" fill="none" xmlns="http://www.w3.org/2000/svg">
<path d="M4.69559 0.149204L10.4019 16.1738L16.0488 0.149204H20.3583L12.1257 21.3363H8.67814L0.386108 0.149204H4.69559Z" fill="url(#paint0_linear_1458_931)"/>
<path d="M22.5829 21.3363V0.179045H26.6844V21.3363H22.5829Z" fill="url(#paint1_linear_1458_931)"/>
<path d="M31.087 21.3363V0.149204H40.4192C41.3901 0.149204 42.2817 0.358091 43.094 0.775865C43.9262 1.17374 44.6395 1.71088 45.2339 2.38727C45.8283 3.04377 46.2939 3.79974 46.6308 4.65518C46.9676 5.49073 47.136 6.33622 47.136 7.19166C47.136 8.56435 46.7893 9.81766 46.0958 10.9516C45.4222 12.0657 44.5008 12.8714 43.3318 13.3687L48.2951 21.3363H43.6587L39.2304 14.2341H35.1884V21.3363H31.087ZM35.1884 10.6234H40.33C40.7065 10.6234 41.0532 10.5338 41.3703 10.3548C41.7071 10.1758 41.9944 9.93703 42.2321 9.63862C42.4699 9.32032 42.6581 8.95228 42.7968 8.5345C42.9355 8.11673 43.0049 7.66912 43.0049 7.19166C43.0049 6.69431 42.9256 6.23675 42.7671 5.81898C42.6086 5.40121 42.3907 5.04312 42.1133 4.74471C41.8557 4.4264 41.5486 4.18768 41.1919 4.02852C40.8551 3.84948 40.5084 3.75996 40.1517 3.75996H35.1884V10.6234Z" fill="url(#paint2_linear_1458_931)"/>
<path d="M65.7657 17.7255V21.3363H51.1135V0.149204H65.4982V3.75996H55.2149V8.86275H64.1014V12.2049H55.2149V17.7255H65.7657Z" fill="url(#paint3_linear_1458_931)"/>
<path d="M81.3906 5.69962C81.2519 5.56036 80.9943 5.37137 80.6178 5.13264C80.2612 4.89391 79.8154 4.66513 79.2804 4.4463C78.7653 4.20757 78.2006 4.00863 77.5863 3.84948C76.9721 3.69033 76.348 3.61075 75.714 3.61075C74.5846 3.61075 73.7425 3.81964 73.1877 4.23741C72.6329 4.65518 72.3555 5.24206 72.3555 5.99803C72.3555 6.43569 72.4546 6.80373 72.6527 7.10214C72.8707 7.38065 73.1778 7.62933 73.5741 7.84816C73.9703 8.067 74.4657 8.26594 75.0601 8.44498C75.6743 8.62403 76.3777 8.81302 77.1702 9.01196C78.2006 9.29047 79.1318 9.58888 79.964 9.90719C80.816 10.2255 81.5293 10.6234 82.1039 11.1008C82.6983 11.5783 83.154 12.1552 83.471 12.8316C83.788 13.4881 83.9465 14.3037 83.9465 15.2786C83.9465 16.4125 83.7286 17.3873 83.2927 18.203C82.8766 18.9987 82.3119 19.6453 81.5986 20.1426C80.8853 20.64 80.0531 21.008 79.1021 21.2467C78.151 21.4656 77.1603 21.575 76.13 21.575C74.5449 21.575 72.9797 21.3363 71.4342 20.8588C69.8887 20.3813 68.5018 19.705 67.2733 18.8296L69.0863 15.2786C69.2646 15.4576 69.5816 15.6963 70.0373 15.9947C70.5129 16.2732 71.0676 16.5617 71.7017 16.8601C72.3357 17.1386 73.0391 17.3774 73.8118 17.5763C74.5846 17.7752 75.3771 17.8747 76.1895 17.8747C78.4482 17.8747 79.5776 17.1486 79.5776 15.6963C79.5776 15.2189 79.4488 14.821 79.1913 14.5027C78.9337 14.1844 78.5671 13.9059 78.0916 13.6671C77.6161 13.4284 77.0415 13.2096 76.3678 13.0106C75.6941 12.8117 74.9412 12.6028 74.109 12.384C73.0985 12.1055 72.2168 11.8071 71.4639 11.4888C70.7308 11.1506 70.1166 10.7626 69.6212 10.325C69.1259 9.88729 68.7494 9.37005 68.4919 8.77323C68.2541 8.17641 68.1352 7.47018 68.1352 6.65453C68.1352 5.58025 68.3333 4.62534 68.7296 3.7898C69.1259 2.95425 69.6708 2.25796 70.3643 1.70093C71.0775 1.1439 71.8998 0.726129 72.8311 0.447613C73.7623 0.149204 74.7629 0 75.8328 0C77.3189 0 78.686 0.238727 79.9343 0.716182C81.1825 1.17374 82.2723 1.72083 83.2035 2.35743L81.3906 5.69962Z" fill="url(#paint4_linear_1458_931)"/>
<path d="M87.6155 17.6061C87.6155 15.2518 89.5164 13.3432 91.8613 13.3432C94.2062 13.3432 96.1071 15.2518 96.1071 17.6061C96.1071 19.9605 94.2062 21.8691 91.8613 21.8691C89.5164 21.8691 87.6155 19.9605 87.6155 17.6061Z" fill="url(#paint5_linear_1458_931)"/>
<path d="M4.80518 53.1715V31.9845H18.9819V35.5952H8.90662V41.0561H17.2878V44.3983H8.90662V53.1715H4.80518Z" fill="url(#paint6_linear_1458_931)"/>
<path d="M21.7842 53.1715V32.0143H25.8856V53.1715H21.7842Z" fill="url(#paint7_linear_1458_931)"/>
<path d="M34.3896 39.5939V53.1715H30.2882V31.9845H33.4683L44.4649 45.8903V32.0143H48.5663V53.1715H45.2376L34.3896 39.5939Z" fill="url(#paint8_linear_1458_931)"/>
<path d="M50.816 53.1715L59.1378 31.9845H62.4665L70.7585 53.1715H66.4193L64.4875 47.8897H57.0871L55.1552 53.1715H50.816ZM60.8021 36.4308L57.7706 44.9951H63.7445L60.8021 36.4308Z" fill="url(#paint9_linear_1458_931)"/>
<path d="M77.1129 39.5939V53.1715H73.0115V31.9845H76.1916L87.1882 45.8903V32.0143H91.2896V53.1715H87.9609L77.1129 39.5939Z" fill="url(#paint10_linear_1458_931)"/>
<path d="M94.4309 42.4288C94.4309 41.1357 94.6588 39.8625 95.1145 38.6091C95.5702 37.3359 96.2241 36.202 97.076 35.2073C97.9478 34.2126 99.0079 33.4069 100.256 32.7902C101.504 32.1734 102.931 31.8651 104.536 31.8651C106.418 31.8651 108.043 32.2928 109.41 33.1483C110.797 34.0037 111.817 35.1177 112.471 36.4904L109.321 38.6688C109.083 38.072 108.776 37.5747 108.4 37.1768C108.023 36.759 107.607 36.4308 107.151 36.192C106.715 35.9533 106.26 35.7842 105.784 35.6847C105.309 35.5654 104.853 35.5057 104.417 35.5057C103.446 35.5057 102.594 35.7146 101.861 36.1323C101.128 36.5501 100.514 37.0972 100.018 37.7736C99.5429 38.4301 99.1763 39.1861 98.9187 40.0415C98.681 40.8771 98.5621 41.7126 98.5621 42.5481C98.5621 43.4832 98.7008 44.3883 98.9782 45.2637C99.2754 46.1191 99.6815 46.8751 100.197 47.5316C100.732 48.1881 101.366 48.7153 102.099 49.1131C102.832 49.511 103.634 49.71 104.506 49.71C104.962 49.71 105.428 49.6503 105.903 49.5309C106.379 49.4116 106.834 49.2226 107.27 48.9639C107.726 48.7053 108.142 48.3771 108.518 47.9792C108.895 47.5614 109.202 47.0641 109.44 46.4871L112.798 48.4268C112.481 49.2226 112.016 49.9288 111.401 50.5455C110.807 51.1423 110.123 51.6496 109.351 52.0674C108.578 52.4852 107.766 52.8035 106.914 53.0223C106.062 53.2411 105.219 53.3506 104.387 53.3506C102.921 53.3506 101.574 53.0322 100.345 52.3956C99.1367 51.759 98.0865 50.9334 97.1949 49.9188C96.3231 48.8844 95.6395 47.7206 95.1442 46.4275C94.6687 45.1145 94.4309 43.7816 94.4309 42.4288Z" fill="url(#paint11_linear_1458_931)"/>
<path d="M130.242 49.5608V53.1715H115.59V31.9845H129.974V35.5952H119.691V40.698H128.577V44.0402H119.691V49.5608H130.242Z" fill="url(#paint12_linear_1458_931)"/>
<defs>
<linearGradient id="paint0_linear_1458_931" x1="65.314" y1="0" x2="65.314" y2="53.3506" gradientUnits="userSpaceOnUse">
<stop stop-color="#43536D"/>
<stop offset="1" stop-color="#43536D" stop-opacity="0.2"/>
</linearGradient>
<linearGradient id="paint1_linear_1458_931" x1="65.314" y1="0" x2="65.314" y2="53.3506" gradientUnits="userSpaceOnUse">
<stop stop-color="#43536D"/>
<stop offset="1" stop-color="#43536D" stop-opacity="0.2"/>
</linearGradient>
<linearGradient id="paint2_linear_1458_931" x1="65.314" y1="0" x2="65.314" y2="53.3506" gradientUnits="userSpaceOnUse">
<stop stop-color="#43536D"/>
<stop offset="1" stop-color="#43536D" stop-opacity="0.2"/>
</linearGradient>
<linearGradient id="paint3_linear_1458_931" x1="65.314" y1="0" x2="65.314" y2="53.3506" gradientUnits="userSpaceOnUse">
<stop stop-color="#43536D"/>
<stop offset="1" stop-color="#43536D" stop-opacity="0.2"/>
</linearGradient>
<linearGradient id="paint4_linear_1458_931" x1="65.314" y1="0" x2="65.314" y2="53.3506" gradientUnits="userSpaceOnUse">
<stop stop-color="#43536D"/>
<stop offset="1" stop-color="#43536D" stop-opacity="0.2"/>
</linearGradient>
<linearGradient id="paint5_linear_1458_931" x1="65.314" y1="0" x2="65.314" y2="53.3506" gradientUnits="userSpaceOnUse">
<stop stop-color="#43536D"/>
<stop offset="1" stop-color="#43536D" stop-opacity="0.2"/>
</linearGradient>
<linearGradient id="paint6_linear_1458_931" x1="65.314" y1="0" x2="65.314" y2="53.3506" gradientUnits="userSpaceOnUse">
<stop stop-color="#43536D"/>
<stop offset="1" stop-color="#43536D" stop-opacity="0.2"/>
</linearGradient>
<linearGradient id="paint7_linear_1458_931" x1="65.314" y1="0" x2="65.314" y2="53.3506" gradientUnits="userSpaceOnUse">
<stop stop-color="#43536D"/>
<stop offset="1" stop-color="#43536D" stop-opacity="0.2"/>
</linearGradient>
<linearGradient id="paint8_linear_1458_931" x1="65.314" y1="0" x2="65.314" y2="53.3506" gradientUnits="userSpaceOnUse">
<stop stop-color="#43536D"/>
<stop offset="1" stop-color="#43536D" stop-opacity="0.2"/>
</linearGradient>
<linearGradient id="paint9_linear_1458_931" x1="65.314" y1="0" x2="65.314" y2="53.3506" gradientUnits="userSpaceOnUse">
<stop stop-color="#43536D"/>
<stop offset="1" stop-color="#43536D" stop-opacity="0.2"/>
</linearGradient>
<linearGradient id="paint10_linear_1458_931" x1="65.314" y1="0" x2="65.314" y2="53.3506" gradientUnits="userSpaceOnUse">
<stop stop-color="#43536D"/>
<stop offset="1" stop-color="#43536D" stop-opacity="0.2"/>
</linearGradient>
<linearGradient id="paint11_linear_1458_931" x1="65.314" y1="0" x2="65.314" y2="53.3506" gradientUnits="userSpaceOnUse">
<stop stop-color="#43536D"/>
<stop offset="1" stop-color="#43536D" stop-opacity="0.2"/>
</linearGradient>
<linearGradient id="paint12_linear_1458_931" x1="65.314" y1="0" x2="65.314" y2="53.3506" gradientUnits="userSpaceOnUse">
<stop stop-color="#43536D"/>
<stop offset="1" stop-color="#43536D" stop-opacity="0.2"/>
</linearGradient>
</defs>
</svg>
