<svg width="131" height="34" viewBox="0 0 131 34" fill="none" xmlns="http://www.w3.org/2000/svg">
<path d="M0 0H6.60156V32.9693H0V0Z" fill="#4737FF"/>
<path d="M9.67053 16.4406C10.0323 10.2869 15.5487 8.44531 20.9745 8.44531C25.7675 8.44531 31.5099 9.52333 31.5099 15.2278V27.6251C31.5099 29.7811 31.736 31.982 32.3239 32.9253H25.6319C25.4057 32.2067 25.2249 31.3981 25.1797 30.6345C23.0998 32.7906 20.025 33.5991 17.086 33.5991C12.5192 33.5991 8.90186 31.3533 8.90186 26.4573C8.90186 21.0671 12.9713 19.7645 17.086 19.2255C21.1101 18.6416 24.9084 18.7764 24.9084 16.0812C24.9084 13.2515 22.964 12.8472 20.6128 12.8472C18.1259 12.8472 16.4982 13.8803 16.2269 16.4406H9.67053ZM24.9084 21.2917C23.778 22.2799 21.4719 22.3248 19.4372 22.6842C17.4026 23.0885 15.5487 23.8071 15.5487 26.1876C15.5487 28.6132 17.4477 29.242 19.5728 29.242C24.7275 29.242 24.9084 25.1996 24.9084 23.7621V21.2917Z" fill="#4737FF"/>
<path d="M34.7173 0H41.3189V11.993H41.4093C43.0371 9.56742 46.0214 8.44449 48.9604 8.44449C53.7533 8.44449 58.9079 12.2625 58.9079 20.9765C58.9079 29.7354 53.7533 33.5534 48.9604 33.5534C45.4336 33.5534 42.4946 32.4753 41.0476 29.8702H40.9571V32.9246H34.7173V0ZM46.6996 13.3854C42.811 13.3854 41.0927 17.0237 41.0927 21.0662C41.0927 25.019 42.811 28.7022 46.6996 28.7022C50.5882 28.7022 52.3064 25.0639 52.3064 21.0662C52.3516 17.0237 50.6334 13.3854 46.6996 13.3854Z" fill="#4737FF"/>
<path d="M72.9263 8.44531C80.4775 8.44531 85.3608 13.4311 85.3608 21.0222C85.3608 28.5684 80.4775 33.5541 72.9263 33.5541C65.4205 33.5541 60.5371 28.5684 60.5371 21.0222C60.5371 13.4311 65.3752 8.44531 72.9263 8.44531ZM72.9263 28.6581C77.4481 28.6581 78.7592 24.8402 78.7592 21.0222C78.7592 17.2043 77.4028 13.3413 72.9263 13.3413C68.45 13.3413 67.1387 17.1593 67.1387 21.0222C67.0935 24.8402 68.45 28.6581 72.9263 28.6581Z" fill="#4737FF"/>
<path d="M86.8579 9.1181H93.143V13.5649H93.2334C94.4543 10.5555 97.7098 8.48926 100.92 8.48926C101.372 8.48926 101.96 8.57909 102.367 8.71385V14.8226C101.779 14.6879 100.784 14.598 100.016 14.598C95.1777 14.598 93.5048 18.0567 93.5048 22.2789V33.0142H86.9032V9.1181H86.8579Z" fill="#4737FF"/>
<path d="M119.19 13.6998L128.459 0H120.321L115.121 7.68089L119.19 13.6998Z" fill="#4737FF"/>
<path d="M106.124 32.9693L118.106 15.3168L107.706 0H107.752H99.6126L109.967 15.2719L97.9849 32.9693H106.124Z" fill="#4737FF"/>
<path d="M119.191 16.9346L115.167 22.9087L121.949 32.9701H130.088L119.191 16.9346Z" fill="#4737FF"/>
</svg>
