<svg width="109" height="35" viewBox="0 0 109 35" fill="none" xmlns="http://www.w3.org/2000/svg">
<path d="M108.946 24.9759C109.252 20.3775 108.249 16.7162 106.026 14.3407C104.064 12.2485 101.23 11.1807 97.6116 11.1807C90.5055 11.1807 85.71 15.9534 85.71 23.0363C85.71 30.1627 90.4401 34.7612 97.786 34.7612C101.84 34.7612 105.263 33.3446 107.66 30.6858L107.682 30.664L104.173 27.1117L104.151 27.1334C102.581 28.7026 100.511 29.5742 98.3308 29.5742C95.4754 29.5742 93.2738 27.9399 92.4673 25.1721L92.4237 24.9977H108.968L108.946 24.9759ZM92.2711 21.0531L92.2929 20.8787C92.8814 17.8712 94.865 16.0842 97.6334 16.0842C100.554 16.0842 102.538 17.9802 102.691 20.9005V21.0531H92.2711Z" fill="white"/>
<path d="M55.279 17.9577C55.8022 17.9577 56.5651 17.9795 57.4152 18.1539V11.3543C56.9357 11.2236 56.2817 11.1582 55.6714 11.1582C53.6224 11.1582 50.8323 12.0299 49.6988 14.4708L49.4372 15.0592V11.3761H42.7671V34.5643H49.6552V24.4521C49.6552 18.5897 53.6006 17.9577 55.279 17.9577Z" fill="white"/>
<path d="M66.6581 11.376H59.77V34.5642H66.6581V11.376Z" fill="white"/>
<path d="M63.1705 0C60.9471 0 59.1597 1.83064 59.1597 4.05357C59.1597 6.2765 60.9689 8.10715 63.1705 8.10715C65.4374 8.10715 67.2903 6.2765 67.2903 4.05357C67.2903 1.83064 65.4374 0 63.1705 0Z" fill="white"/>
<path d="M80.7602 34.9999C82.8092 34.9999 83.9644 34.564 84.3568 34.3897V28.7016C83.8991 28.7888 83.2669 28.8977 82.6131 28.8977C81.3269 28.8977 79.8665 28.5926 79.8665 26.3043V17.369H84.444V11.3758H79.8665V4.53271H73.7195V7.40944C73.7195 9.85031 72.2808 11.3758 69.9485 11.3758H68.8804V17.369H73.0438V27.5683C73.0438 32.1667 76.0083 34.9999 80.7602 34.9999Z" fill="white"/>
<path d="M28.9693 34.7821C35.465 34.7821 40.7619 29.4864 40.7619 22.9919C40.7619 16.4975 35.465 11.2017 28.9693 11.2017C22.8877 11.2017 18.1576 15.9526 17.1767 23.0355C16.8279 25.6071 14.67 28.3748 11.7926 28.3748C8.82812 28.3748 6.40856 25.9558 6.40856 22.9919C6.40856 20.028 8.82812 17.6089 11.7926 17.6089C12.5991 17.6089 13.7545 17.8486 14.6046 18.4153C15.2584 16.3667 16.2394 14.5578 17.787 12.858C15.8252 11.6811 13.689 11.2017 11.7926 11.2017C5.29687 11.2017 0 16.4975 0 22.9919C0 29.4864 5.29687 34.7821 11.7926 34.7821C14.9969 34.7821 17.9831 33.5399 20.2066 31.2952L20.4028 31.099L20.5989 31.2952C22.8442 33.5399 25.8087 34.7821 28.9693 34.7821ZM28.9693 17.6089C31.9339 17.6089 34.3534 20.028 34.3534 22.9919C34.3534 25.9558 31.9339 28.3748 28.9693 28.3748C26.0048 28.3748 23.5852 25.9558 23.5852 22.9919C23.5852 20.028 25.9831 17.6089 28.9693 17.6089Z" fill="white"/>
</svg>
