<svg width="130" height="31" viewBox="0 0 130 31" fill="none" xmlns="http://www.w3.org/2000/svg">
<path fill-rule="evenodd" clip-rule="evenodd" d="M110.024 15.7275L101.014 6.48923C100.711 6.17799 100.541 5.75629 100.541 5.31665C100.541 4.87701 100.711 4.45532 101.014 4.14408L103.62 1.47278C103.923 1.16228 104.334 0.9879 104.763 0.9879C105.192 0.9879 105.603 1.16228 105.907 1.47278L114.913 10.7061L123.918 1.47247C124.222 1.16149 124.634 0.986816 125.063 0.986816C125.492 0.986816 125.904 1.16149 126.207 1.47247L128.814 4.14377C129.118 4.45481 129.288 4.87658 129.288 5.31634C129.288 5.75611 129.118 6.17788 128.814 6.48892L119.806 15.725L119.813 15.7322L119.809 15.736L128.819 24.9731C129.121 25.2843 129.291 25.706 129.291 26.1456C129.291 26.5853 129.121 27.007 128.819 27.3182L126.213 29.9895C125.909 30.3 125.498 30.4744 125.069 30.4744C124.64 30.4744 124.229 30.3 123.926 29.9895L114.916 20.7528L105.908 29.9895C105.604 30.3 105.193 30.4744 104.764 30.4744C104.335 30.4744 103.924 30.3 103.62 29.9895L101.015 27.3182C100.712 27.0072 100.541 26.5854 100.541 26.1456C100.541 25.7059 100.712 25.2841 101.015 24.9731L110.023 15.7363L110.019 15.7322L110.024 15.7275ZM26.6891 3.19794C26.6891 2.28163 27.4117 1.54081 28.304 1.5377L31.9851 1.52838C32.198 1.52757 32.409 1.5698 32.6059 1.65268C32.8029 1.73555 32.982 1.85744 33.133 2.01136C33.284 2.16528 33.4038 2.34821 33.4858 2.54969C33.5677 2.75117 33.6101 2.96723 33.6105 3.18552V29.3238C33.6105 30.2402 32.8864 30.9825 31.9926 30.9825H28.3085C27.4148 30.9825 26.6907 30.2402 26.6907 29.3238V3.19794H26.6891ZM89.9417 23.902C90.8355 23.902 91.5596 24.6429 91.5611 25.5576L91.5672 29.3347C91.5672 29.7752 91.3966 30.1976 91.0929 30.5092C90.7893 30.8208 90.3774 30.9961 89.9478 30.9965H70.9455C70.0517 30.9965 69.3261 30.2541 69.3261 29.3363V25.5623C69.3261 24.646 70.0517 23.9005 70.9455 23.9005H89.9417V23.902ZM58.4638 16.2535C58.4638 12.1223 55.0872 8.61853 50.7471 8.61853V8.62009H39.1934C38.2996 8.62009 37.5755 7.87461 37.5755 6.95829V3.18431C37.5755 2.26644 38.2996 1.52252 39.1934 1.52252H50.7471C58.7425 1.52252 65.3791 8.03768 65.3791 16.2535C65.3791 24.4662 58.7516 30.9829 50.7486 30.9829V30.9844H39.1949C38.3011 30.9844 37.577 30.2389 37.577 29.3226V25.5486C37.577 24.6308 38.3011 23.8884 39.1949 23.8884H50.7471V23.8869C55.0932 23.8869 58.4638 20.3847 58.4638 16.2535ZM100.208 14.3676C100.205 13.4513 99.4822 12.712 98.5884 12.712V12.7104H70.9409C70.0456 12.7104 69.32 13.4559 69.32 14.3722V18.1462C69.32 19.0641 70.0456 19.8065 70.9394 19.8065H98.599C98.812 19.8063 99.0227 19.763 99.2193 19.6792C99.4159 19.5954 99.5945 19.4726 99.7448 19.318C99.895 19.1634 100.014 18.9798 100.095 18.778C100.176 18.5761 100.217 18.3598 100.217 18.1416L100.208 14.3676ZM22.7792 3.15723C22.778 2.71799 22.6071 2.29713 22.3039 1.98683C22.0006 1.67652 21.5898 1.50206 21.1614 1.50165H2.16515C1.73579 1.50206 1.32413 1.67711 1.02052 1.98838C0.716919 2.29965 0.546177 2.7217 0.545776 3.16189V6.93588C0.545776 7.85375 1.27139 8.59767 2.16515 8.59767H8.20486V29.3235C8.20486 30.2398 8.93048 30.9822 9.82424 30.9822H13.5068C14.4006 30.9822 15.1262 30.2398 15.1262 29.3235V8.59767H21.169C22.0627 8.59767 22.7898 7.85219 22.7868 6.93432L22.7792 3.15723ZM91.558 3.18064C91.5565 2.26432 90.8339 1.52351 89.9402 1.52351H70.9409C70.0456 1.52351 69.32 2.26743 69.32 3.18375V6.95928C69.32 7.8756 70.0456 8.61797 70.9394 8.61797H89.9462C90.1591 8.61777 90.3698 8.57458 90.5664 8.49088C90.763 8.40718 90.9416 8.2846 91.0919 8.13014C91.2423 7.97569 91.3615 7.79238 91.4428 7.59068C91.5241 7.38899 91.5658 7.17285 91.5656 6.95462L91.558 3.18064Z" fill="url(#paint0_linear_1458_878)"/>
<defs>
<linearGradient id="paint0_linear_1458_878" x1="110.172" y1="1.05129" x2="110.172" y2="31.0126" gradientUnits="userSpaceOnUse">
<stop stop-color="#43536D"/>
<stop offset="1" stop-color="#43536D" stop-opacity="0.2"/>
</linearGradient>
</defs>
</svg>
