<svg width="134" height="32" viewBox="0 0 134 32" fill="none" xmlns="http://www.w3.org/2000/svg">
<path fill-rule="evenodd" clip-rule="evenodd" d="M9.50525 2.91072C9.51535 2.28561 9.28017 1.65733 8.79978 1.1803C7.85864 0.245889 6.3328 0.245889 5.39165 1.1803C4.45053 2.11477 4.45053 3.62978 5.39165 4.56427C5.87205 5.0412 6.50482 5.27471 7.13446 5.26471L13.4287 11.5143C13.4186 12.1394 13.6537 12.7676 14.1342 13.2447C15.0753 14.179 16.6012 14.179 17.5423 13.2447C18.0227 12.7676 18.2579 12.1394 18.2478 11.5143L20.9117 8.86929C21.5413 8.8793 22.1741 8.64578 22.6544 8.16885C23.5956 7.23437 23.5956 5.71939 22.6544 4.78491C21.7133 3.85042 20.1875 3.85042 19.2463 4.78491C18.7659 5.26194 18.5308 5.89022 18.5408 6.5153L15.8383 9.1987L9.50525 2.91072ZM4.50261 9.27225C5.44375 8.33776 6.96959 8.33776 7.91073 9.27225C8.39111 9.74928 8.62629 10.3776 8.61624 11.0026L11.2801 13.6476C11.9096 13.6376 12.5424 13.8711 13.0229 14.3481C13.964 15.2826 13.964 16.7975 13.0229 17.732C12.5424 18.2089 11.9096 18.4426 11.2801 18.4326L4.98585 24.682C4.9959 25.3072 4.76075 25.9355 4.28034 26.4125C3.33921 27.3469 1.81335 27.3469 0.872224 26.4125C-0.068899 25.478 -0.068899 23.9631 0.872224 23.0286C1.35264 22.5515 1.98541 22.318 2.61501 22.328L8.94798 16.04L6.24537 13.3566C5.61577 13.3666 4.98304 13.1331 4.50261 12.6561C3.56148 11.7217 3.56148 10.2066 4.50261 9.27225ZM18.2478 20.5659L24.5421 26.8154C25.1716 26.8055 25.8044 27.0389 26.2849 27.5159C27.226 28.4504 27.226 29.9654 26.2849 30.8999C25.3437 31.8342 23.8178 31.8342 22.8768 30.8999C22.3963 30.4228 22.1611 29.7945 22.1712 29.1694L15.8383 22.8815L13.1357 25.5648C13.1457 26.19 12.9106 26.8182 12.4301 27.2952C11.4891 28.2297 9.96315 28.2297 9.02204 27.2952C8.0809 26.3608 8.0809 24.8457 9.02204 23.9113C9.50244 23.4343 10.1353 23.2008 10.7648 23.2108L13.4287 20.5659C13.4186 19.9407 13.6537 19.3124 14.1342 18.8355C15.0753 17.901 16.6012 17.901 17.5423 18.8355C18.0228 19.3124 18.2579 19.9407 18.2478 20.5659ZM29.0615 9.75205C29.6911 9.76206 30.3239 9.52865 30.8043 9.05161C31.7454 8.11713 31.7454 6.60215 30.8043 5.66767C29.8631 4.73329 28.3373 4.73329 27.3962 5.66767C26.9158 6.1447 26.6806 6.77298 26.6906 7.39806L20.3965 13.6476C19.7668 13.6376 19.1341 13.8711 18.6536 14.3481C17.7126 15.2826 17.7126 16.7975 18.6536 17.732C19.1341 18.2089 19.7668 18.4426 20.3965 18.4326L23.0602 21.0774C23.0502 21.7026 23.2854 22.3308 23.7658 22.8078C24.707 23.7423 26.2328 23.7423 27.174 22.8078C28.115 21.8734 28.115 20.3584 27.174 19.424C26.6935 18.947 26.0607 18.7134 25.4311 18.7234L22.7286 16.04L29.0615 9.75205ZM47.3294 15.9849L38.3319 29.3121H43.8078L50.0766 19.7378L56.3269 29.3121H61.766L52.8054 15.9849L61.5447 2.95067H56.0688L50.0766 12.2321L44.0291 2.95067H38.59L47.3294 15.9849ZM63.2327 2.95067V29.3121H71.6955C71.9168 29.3121 72.3592 29.3061 73.0229 29.2938C73.6868 29.2816 74.3196 29.2389 74.922 29.1657C77.0239 28.8971 78.7999 28.1588 80.2505 26.9506C81.7131 25.7301 82.8193 24.1802 83.5693 22.3007C84.3192 20.4212 84.694 18.3648 84.694 16.1314C84.694 13.898 84.3192 11.8416 83.5693 9.96208C82.8193 8.08257 81.7131 6.53875 80.2505 5.33052C78.7999 4.11005 77.0239 3.36565 74.922 3.09712C74.3076 3.02389 73.6684 2.98121 73.0045 2.96897C72.3532 2.95673 71.9168 2.95067 71.6955 2.95067H63.2327ZM71.6955 25.1565H67.7499V7.10626H71.6955C72.0642 7.10626 72.5312 7.1185 73.0967 7.14287C73.6743 7.15511 74.1845 7.21003 74.6271 7.30763C75.8564 7.53955 76.864 8.08257 77.6508 8.93691C78.4497 9.79126 79.0396 10.8469 79.4208 12.1039C79.8021 13.361 79.9924 14.7035 79.9924 16.1314C79.9924 17.5105 79.8021 18.8285 79.4208 20.0856C79.0521 21.3427 78.4745 22.4105 77.6876 23.2893C76.9009 24.168 75.8809 24.7232 74.6271 24.9552C74.1845 25.0406 73.6743 25.0955 73.0967 25.1199C72.5312 25.1443 72.0642 25.1565 71.6955 25.1565ZM93.384 2.95067L85.0134 29.3121H89.5858L91.398 23.6005H101.856L103.691 29.3121H108.263L99.8925 2.95067H93.384ZM100.533 19.4815L96.5952 7.21941L92.7048 19.4815H100.533ZM113.807 28.1405C115.7 29.2878 117.974 29.8613 120.63 29.8613C123.285 29.8613 125.559 29.2878 127.451 28.1405C129.357 26.9811 130.814 25.3701 131.821 23.3076C132.841 21.245 133.352 18.853 133.352 16.1314C133.352 13.4098 132.841 11.0178 131.821 8.95522C130.814 6.89265 129.357 5.28784 127.451 4.14059C125.559 2.98121 123.285 2.40147 120.63 2.40147C117.974 2.40147 115.7 2.98121 113.807 4.14059C111.916 5.28784 110.459 6.89265 109.438 8.95522C108.43 11.0178 107.926 13.4098 107.926 16.1314C107.926 18.853 108.43 21.245 109.438 23.3076C110.459 25.3701 111.916 26.9811 113.807 28.1405ZM125.073 24.5341C123.893 25.3274 122.412 25.718 120.63 25.7057C118.848 25.6814 117.36 25.2724 116.168 24.4792C114.988 23.6859 114.102 22.5814 113.512 21.1657C112.922 19.7378 112.627 18.0597 112.627 16.1314C112.627 14.2031 112.922 12.5189 113.512 11.0788C114.115 9.63863 115.006 8.52193 116.186 7.72868C117.366 6.93543 118.848 6.54482 120.63 6.55706C122.412 6.58143 123.893 6.99035 125.073 7.7836C126.265 8.57685 127.156 9.68748 127.746 11.1154C128.349 12.5311 128.649 14.2031 128.649 16.1314C128.649 18.0597 128.349 19.7439 127.746 21.184C127.156 22.6242 126.265 23.7409 125.073 24.5341Z" fill="url(#paint0_linear_1458_932)"/>
<defs>
<linearGradient id="paint0_linear_1458_932" x1="15.8383" y1="0.479492" x2="15.8383" y2="31.9287" gradientUnits="userSpaceOnUse">
<stop stop-color="#43536D"/>
<stop offset="1" stop-color="#43536D" stop-opacity="0.2"/>
</linearGradient>
</defs>
</svg>
