<svg width="157" height="39" viewBox="0 0 157 39" fill="none" xmlns="http://www.w3.org/2000/svg">
<path fill-rule="evenodd" clip-rule="evenodd" d="M19.3799 0.627296C19.2053 0.62252 19.0299 0.620117 18.8541 0.620117C15.3789 0.620117 12.1235 1.55864 9.32859 3.19588C7.26615 5.68071 6.87896 7.67927 7.91972 9.32295C8.54995 10.3183 9.70259 11.2657 11.3761 12.1484L11.6768 12.3035L11.9095 12.419C12.1451 12.534 12.3898 12.6479 12.6438 12.7606L12.9877 12.9101L13.1638 12.9843L13.5239 13.1316L13.708 13.2047L13.8949 13.2775L14.2766 13.4219L14.4716 13.4935L14.8695 13.6356L15.0725 13.706L15.4867 13.8458L15.6978 13.9151L16.1281 14.0524L16.3473 14.1206L16.7938 14.2555L17.0211 14.3224L17.4837 14.4549L17.7191 14.5205L18.198 14.6505L18.6876 14.7787L19.188 14.9053L19.6992 15.0302L20.8018 15.2902C21.09 15.3593 21.3747 15.4295 21.6562 15.5008L22.2144 15.6445C22.3068 15.6687 22.3986 15.693 22.4901 15.7174L23.0348 15.8653C23.1249 15.8903 23.2146 15.9152 23.3039 15.9404L23.835 16.0924L24.3571 16.2471L24.8702 16.4046C25.5482 16.6163 26.2019 16.8355 26.8312 17.0617L27.2987 17.2329C32.0815 19.015 35.3973 21.2323 37.1743 23.8753C37.4383 22.7876 37.6077 21.6631 37.6728 20.5109L37.3461 20.321L36.7152 19.9508L36.0952 19.5834L35.486 19.2193L34.8879 18.8581L34.3005 18.5001L33.724 18.145L33.1585 17.7931L32.6038 17.4442L32.06 17.0983L31.5271 16.7554L31.005 16.4155L30.4939 16.0786L29.9935 15.7448L29.7474 15.5789L29.2634 15.2496L29.0255 15.086L28.5576 14.7611L27.8764 14.2794L27.4357 13.962L26.795 13.4914L26.3814 13.1814L25.9787 12.8743L25.5867 12.5702L25.2056 12.269L24.8354 11.9708L24.4759 11.6754L24.1961 11.4413C23.8276 11.1303 23.4775 10.8244 23.146 10.5233L22.8404 10.2426L22.5457 9.96474L22.3552 9.78109C22.2298 9.65911 22.1076 9.53797 21.9886 9.41766L21.7263 9.14846L21.5276 8.93894C21.1371 8.5217 20.7864 8.11511 20.4757 7.719C18.2919 4.93633 17.982 2.50431 19.3799 0.627296ZM4.76707 7.16204C4.68716 8.4501 5.00804 9.68739 5.74915 10.8635C6.85635 12.6205 8.87639 14.1248 11.8128 15.4141L12.0348 15.5103L12.4219 15.6729C13.1653 15.9791 13.9628 16.2726 14.8144 16.5542L15.1828 16.6742L15.6451 16.8198L15.8802 16.8918L16.3575 17.0341L16.6001 17.1045L17.0926 17.2436L17.3427 17.3124L17.5952 17.3805L18.1079 17.5153L18.368 17.5819L18.8957 17.7136L19.4333 17.8432L20.107 18.0016L20.6901 18.1431C20.8825 18.1906 21.0731 18.2383 21.2618 18.2866L21.8223 18.4323C22.0073 18.4813 22.1904 18.5306 22.3716 18.5802L22.9097 18.7303L23.4366 18.8828L23.9524 19.0373C31.2655 21.268 35.1478 24.1776 35.8716 27.8038C35.0099 29.5751 33.88 31.1906 32.5347 32.5974C32.4302 31.4605 31.9266 30.3616 31.0048 29.325C30.2028 28.4233 29.0828 27.5832 27.6416 26.798L27.4336 26.6863L27.0978 26.5122C26.9082 26.416 26.7137 26.3205 26.5142 26.2259L26.211 26.0847L25.8374 25.9169L25.6466 25.8337L25.4529 25.7508L25.0577 25.5864L24.8559 25.5049L24.4443 25.3431C23.8485 25.1133 23.2196 24.8887 22.5572 24.6691L22.2233 24.5596L21.7464 24.4079L21.2586 24.2577L20.7599 24.1091L19.9913 23.8891L19.4653 23.7444L18.7924 23.5657L18.1024 23.3893L17.8215 23.3194L17.2517 23.1808L16.2699 22.9492L15.7375 22.8202L15.2144 22.6896L14.7009 22.557C14.6161 22.5348 14.5317 22.5125 14.4476 22.49L13.9479 22.3547L13.4576 22.2177L12.9766 22.0788C12.8972 22.0555 12.8183 22.032 12.7397 22.0086L12.2726 21.8669L11.8147 21.7234C11.6637 21.6753 11.5141 21.6268 11.3661 21.578L10.9267 21.4309L10.4966 21.2819C10.4257 21.2568 10.3551 21.2318 10.285 21.2066L9.86864 21.0549C9.66274 20.9785 9.46033 20.9015 9.2613 20.8238L8.86787 20.6673C8.60863 20.5624 8.35548 20.4563 8.1084 20.3489L7.74233 20.1869C7.68207 20.1598 7.62218 20.1326 7.5627 20.1053L7.21025 19.9405C3.84714 18.3388 1.75485 16.4762 0.869995 14.344C1.62391 11.7029 2.93744 9.29909 4.67371 7.26965L4.76707 7.16204ZM14.1568 25.3411C7.53647 23.6173 2.84383 21.307 0.189286 18.4254L0.169834 18.7592C0.154895 19.0659 0.147339 19.3748 0.147339 19.6853C0.147339 20.4321 0.191056 21.1689 0.276072 21.893L0.809096 22.223L1.75894 22.8179L2.37873 23.2103L3.28829 23.7923L4.02783 24.2714L4.75059 24.7453L5.31673 25.1206L5.87215 25.4923L6.41685 25.8607L7.21383 26.4069L7.73181 26.7668L8.23902 27.1234L8.73555 27.4765L9.34123 27.9132L9.93015 28.3448L10.3893 28.6861L10.8377 29.0241L11.2755 29.3589L11.8077 29.7726L12.3232 30.1811L12.7236 30.5041L13.1133 30.8239L13.3042 30.9825L13.6781 31.2973L14.0412 31.6088L14.3936 31.9169L14.7355 32.2217L14.9966 32.4591C15.5123 32.9316 15.9885 33.3918 16.4255 33.8401L16.6982 34.1238L16.9603 34.4042L17.2118 34.6813L17.402 34.8969C17.7758 35.3259 18.1102 35.743 18.4055 36.1481C18.979 36.935 19.411 37.6903 19.7052 38.4103C22.9468 38.2735 25.9754 37.3141 28.5879 35.7354C30.0501 33.9431 30.0763 32.5306 28.8923 31.2037C28.0811 30.2946 26.7312 29.4125 24.8492 28.5715L24.5117 28.4235L24.3387 28.3498L23.9845 28.2032L23.8034 28.1301L23.3383 27.9486L22.8559 27.7685L22.7574 27.7327L22.2545 27.5545L21.9445 27.4482L21.6284 27.3425L21.1973 27.2024L20.9775 27.1327L20.53 26.9943L20.0715 26.8567L19.602 26.7205L19.1215 26.585L18.6303 26.4509L18.128 26.3177L17.4848 26.153L16.8246 25.9899L16.2843 25.8609L16.0099 25.7967L15.3816 25.6481L14.7638 25.4962L14.1568 25.3411ZM1.55041 25.8968L1.23083 25.6929C3.48069 32.46 9.47023 37.5177 16.747 38.4106C16.6334 38.2344 16.5082 38.0521 16.3708 37.8633C16.0003 37.3541 15.554 36.8185 15.032 36.2567L14.7857 35.9954L14.6156 35.8193C14.5005 35.7013 14.3823 35.5822 14.2609 35.462L13.9824 35.1896L13.6931 34.9137L13.3933 34.634L13.2393 34.4928L12.9233 34.2075L12.5965 33.9187L12.2591 33.626L11.9109 33.3298L11.7329 33.1802L11.3686 32.8786L10.9937 32.5732L10.6081 32.2641L10.2119 31.9515L9.59742 31.4757L8.95891 30.9917L8.51989 30.6645L8.07021 30.3337L7.6099 29.9994L7.1389 29.6614L6.65722 29.3198L6.16489 28.9746L5.66192 28.6258L5.1483 28.2735L4.62403 27.9177L4.08912 27.5582L3.54356 27.1953L2.98737 26.8287L2.42056 26.4586L1.55041 25.8968ZM23.1908 0.984296C30.8792 2.74182 36.7763 9.27386 37.6724 17.3356L37.0076 16.9338L36.172 16.4219L35.6275 16.0843L35.0931 15.7499L34.5688 15.4183L34.0546 15.0899L33.5505 14.7644L33.0566 14.4421L32.5727 14.1228L32.099 13.8065L31.6354 13.4933L31.1819 13.1831L30.7386 12.876L30.3054 12.572L29.8824 12.271L29.4695 11.9732L29.0667 11.6784L28.6742 11.3867L28.2917 11.0981L27.9195 10.8126L27.5573 10.5302L27.2053 10.251L26.8637 9.9748L26.532 9.70179L26.37 9.56644L26.0536 9.29814L25.7475 9.03292L25.4515 8.77089L25.1657 8.51201L24.8901 8.25627L24.6901 8.06654L24.4959 7.87858L24.2458 7.63075L24.1245 7.50804L24.0059 7.3861L23.7762 7.14461C23.5667 6.92074 23.3704 6.70098 23.1875 6.48542L23.0528 6.32455L22.8692 6.09741L22.6896 5.86541C21.4905 4.28092 21.2089 3.14573 21.5988 2.36394C21.826 1.90855 22.3026 1.46956 23.0375 1.06619L23.1908 0.984296ZM67.7558 36.6748C68.4322 36.3452 68.967 36.0486 69.3597 35.7849L68.0175 32.9503C67.4067 33.4119 66.6321 33.8293 65.6938 34.2028C64.7554 34.5764 63.6865 34.7632 62.486 34.7632C61.155 34.7632 59.9549 34.5325 58.8859 34.0711C57.8166 33.6095 56.9002 32.9724 56.1364 32.1594C55.3946 31.3464 54.8161 30.3906 54.4016 29.2919C54.0088 28.1712 53.8127 26.9628 53.8127 25.6664C53.8127 24.3919 54.0308 23.2054 54.467 22.1067C54.9252 20.9862 55.5472 20.0083 56.3329 19.1734C57.1183 18.3384 58.024 17.6903 59.0494 17.2287C60.0752 16.7673 61.1661 16.5366 62.3226 16.5366C63.4572 16.5366 64.4826 16.7343 65.3994 17.1299C66.3373 17.5254 67.1339 17.9428 67.7886 18.3823L69.065 15.416C68.236 14.8887 67.2429 14.4382 66.0864 14.0646C64.9299 13.6692 63.6425 13.4714 62.2243 13.4714C60.5222 13.4714 58.9511 13.7791 57.5111 14.3943C56.0929 15.0095 54.86 15.8774 53.8127 16.9981C52.7652 18.0966 51.9468 19.404 51.3576 20.9203C50.7903 22.4144 50.5067 24.0514 50.5067 25.8312C50.5067 27.4571 50.7794 28.9953 51.3251 30.4455C51.8924 31.8737 52.6886 33.1372 53.7144 34.2358C54.7399 35.3345 55.9838 36.2024 57.4455 36.8397C58.9295 37.4768 60.5877 37.8064 62.4208 37.8284C63.4898 37.8284 64.4718 37.7185 65.3666 37.4988C66.283 37.2791 67.0796 37.0044 67.7558 36.6748ZM77.8817 13.7351H81.0568V37.5648H77.8817V13.7351ZM100.63 14.2295C99.6266 13.9 98.5249 13.7351 97.3248 13.7351H91.0404V37.5648H94.2153V28.7975H97.7176C97.9862 28.7975 98.247 28.7903 98.5 28.7759L104.067 37.5648H107.733L101.808 27.9674C102.67 27.5334 103.379 26.9972 103.936 26.3586C104.569 25.6115 105.016 24.7875 105.278 23.8866C105.562 22.9857 105.704 22.0629 105.704 21.118C105.704 19.9095 105.486 18.8548 105.049 17.9539C104.634 17.0311 104.046 16.2621 103.282 15.6467C102.54 15.0096 101.656 14.5371 100.63 14.2295ZM99.9757 25.3039C99.3649 25.5895 98.5903 25.7323 97.652 25.7323H94.2153V16.8003H97.8809C98.7102 16.8003 99.4085 16.9432 99.9757 17.2288C100.565 17.5144 101.034 17.8771 101.384 18.3164C101.754 18.7559 102.016 19.2394 102.169 19.7667C102.343 20.272 102.43 20.7665 102.43 21.2499C102.43 21.7113 102.354 22.2057 102.202 22.733C102.049 23.2604 101.798 23.7547 101.449 24.2161C101.099 24.6556 100.609 25.0182 99.9757 25.3039ZM118.646 29.1272C118.646 30.2038 118.897 31.1706 119.399 32.0276C119.923 32.8625 120.61 33.5217 121.461 34.0052C122.312 34.4886 123.272 34.7302 124.341 34.7302C125.455 34.7302 126.447 34.4886 127.32 34.0052C128.192 33.5217 128.881 32.8625 129.382 32.0276C129.884 31.1706 130.135 30.2038 130.135 29.1272V13.7351H133.245V29.226C133.245 30.9618 132.841 32.478 132.033 33.7744C131.247 35.0708 130.178 36.0706 128.825 36.7738C127.495 37.4769 125.999 37.8285 124.341 37.8285C122.683 37.8285 121.188 37.4769 119.857 36.7738C118.526 36.0706 117.468 35.0708 116.683 33.7744C115.897 32.478 115.504 30.9618 115.504 29.226V13.7351H118.646V29.1272ZM152.516 16.8991C153.476 17.2067 154.36 17.5693 155.167 17.9869L156.379 15.5478C155.484 14.9984 154.447 14.537 153.27 14.1636C152.113 13.7899 150.77 13.6033 149.243 13.6033C147.89 13.6471 146.69 13.9437 145.642 14.4931C144.595 15.0205 143.766 15.7565 143.155 16.7014C142.566 17.6242 142.272 18.7119 142.272 19.9644C142.272 20.997 142.468 21.876 142.861 22.6011C143.253 23.3263 143.778 23.9415 144.432 24.4469C145.087 24.9303 145.795 25.3478 146.559 25.6993C147.323 26.0289 148.076 26.3365 148.818 26.6222C149.604 26.9298 150.345 27.2813 151.043 27.6769C151.741 28.0504 152.298 28.5119 152.713 29.0612C153.148 29.5885 153.367 30.2586 153.367 31.0716C153.367 32.0165 153.127 32.7746 152.648 33.3459C152.167 33.9172 151.556 34.3456 150.814 34.6313C150.094 34.8949 149.363 35.0268 148.621 35.0268C147.923 35.0268 147.203 34.9279 146.461 34.7302C145.719 34.5105 145.01 34.2358 144.333 33.9062C143.657 33.5547 143.057 33.1921 142.533 32.8185L141.125 35.3235C141.759 35.7409 142.478 36.1474 143.287 36.5429C144.094 36.9165 144.967 37.2242 145.904 37.4659C146.865 37.7075 147.869 37.8284 148.915 37.8284C150.509 37.8284 151.883 37.5318 153.039 36.9385C154.196 36.3452 155.081 35.5322 155.692 34.4995C156.324 33.4667 156.64 32.3241 156.64 31.0716C156.64 29.9291 156.466 28.9733 156.117 28.2043C155.789 27.4351 155.331 26.7869 154.742 26.2596C154.175 25.7322 153.531 25.2928 152.81 24.9413C152.091 24.5897 151.36 24.271 150.618 23.9854C149.766 23.6558 148.948 23.3042 148.163 22.9307C147.377 22.5573 146.745 22.1178 146.264 21.6123C145.785 21.085 145.545 20.4477 145.545 19.7007C145.545 18.7119 145.915 17.9208 146.657 17.3277C147.421 16.7344 148.436 16.4377 149.701 16.4377C150.618 16.4377 151.556 16.5915 152.516 16.8991ZM78.8431 0.876722H82.5966V1.83449H79.8367V3.58753H82.24V4.53676H79.8367V7.10222H78.8431V0.876722ZM85.7955 2.77582C85.631 3.1578 85.549 3.56541 85.549 3.9987C85.549 4.44338 85.631 4.85953 85.7955 5.2472C85.9597 5.62918 86.186 5.96553 86.4747 6.25628C86.7636 6.54132 87.0975 6.76652 87.4767 6.93185C87.8616 7.09162 88.2722 7.17146 88.7081 7.17146C89.1384 7.17146 89.5433 7.08863 89.9226 6.9233C90.3075 6.75797 90.6443 6.52993 90.9332 6.23919C91.2275 5.94844 91.4568 5.61209 91.621 5.23011C91.7907 4.84814 91.8756 4.43767 91.8756 3.9987C91.8756 3.56541 91.7907 3.1578 91.621 2.77582C91.4568 2.38815 91.2275 2.04894 90.9332 1.7582C90.6443 1.46176 90.3075 1.23084 89.9226 1.06554C89.5433 0.894477 89.1384 0.808981 88.7081 0.808981C88.2722 0.808981 87.8616 0.894477 87.4767 1.06554C87.0975 1.23084 86.7636 1.46176 86.4747 1.7582C86.186 2.04894 85.9597 2.38815 85.7955 2.77582ZM86.8567 5.11894C86.6642 4.78258 86.5682 4.40915 86.5682 3.9987C86.5682 3.5882 86.6616 3.2148 86.8484 2.87845C87.0409 2.53639 87.2985 2.26559 87.6212 2.06603C87.9438 1.86652 88.306 1.76675 88.7081 1.76675C89.1101 1.76675 89.4725 1.86652 89.7953 2.06603C90.118 2.26559 90.3756 2.53354 90.5681 2.86989C90.7604 3.20626 90.8564 3.58249 90.8564 3.9987C90.8564 4.40915 90.7604 4.78258 90.5681 5.11894C90.3812 5.4496 90.1261 5.71467 89.8035 5.91423C89.4867 6.11374 89.1297 6.21351 88.7337 6.21351C88.3262 6.21351 87.958 6.11374 87.6298 5.91423C87.307 5.71467 87.0494 5.4496 86.8567 5.11894ZM96.2072 4.86172C96.2072 5.10689 96.2694 5.33208 96.3941 5.53729C96.5184 5.73684 96.6855 5.89932 96.8951 6.02473C97.1103 6.14445 97.3481 6.20431 97.6083 6.20431C97.88 6.20431 98.1235 6.14445 98.3385 6.02473C98.5536 5.89932 98.7238 5.73684 98.8481 5.53729C98.9728 5.33208 99.035 5.10689 99.035 4.86172V0.876722H100.012V4.88739C100.012 5.34346 99.9041 5.74253 99.6889 6.08459C99.4738 6.42665 99.1849 6.69459 98.8228 6.88842C98.4602 7.07672 98.0556 7.1708 97.6083 7.1708C97.1612 7.1708 96.7562 7.07672 96.3941 6.88842C96.0371 6.69459 95.7513 6.42665 95.5361 6.08459C95.327 5.74253 95.222 5.34346 95.222 4.88739V0.876722H96.2072V4.86172ZM104.71 2.97264L109.169 7.3253H109.194V0.877538H108.209L108.226 5.07632L103.785 0.663743H103.734V7.10303H104.736L104.71 2.97264ZM113.02 7.10222V0.876722H114.778C115.395 0.876722 115.918 0.970802 116.349 1.15892C116.779 1.34134 117.127 1.58936 117.393 1.9029C117.659 2.21077 117.852 2.55567 117.97 2.93764C118.095 3.31392 118.157 3.69301 118.157 4.07498C118.157 4.54245 118.075 4.96434 117.911 5.34062C117.747 5.71116 117.52 6.02758 117.232 6.28984C116.949 6.55206 116.62 6.75445 116.247 6.89696C115.878 7.03362 115.488 7.10222 115.075 7.10222H113.02ZM114.013 6.14445H114.896C115.332 6.14445 115.717 6.06181 116.051 5.89646C116.391 5.73113 116.657 5.49167 116.85 5.17813C117.042 4.85887 117.138 4.46834 117.138 4.00658C117.138 3.61891 117.073 3.28825 116.943 3.01459C116.818 2.73524 116.651 2.51005 116.442 2.33903C116.238 2.1623 116.014 2.03404 115.771 1.9542C115.528 1.86871 115.287 1.82594 115.049 1.82594H114.013V6.14445ZM123.33 0.620117L120.595 7.10213H121.572L122.166 5.63982H124.417L124.986 7.10213H126.124L123.389 0.620117H123.33ZM124.085 4.78468H122.514L123.313 2.82639L124.085 4.78468ZM128.367 0.876722H132.502V1.83449H130.905V7.10222H129.922V1.83449H128.367V0.876722ZM136.88 0.876722H135.886V7.10222H136.88V0.876722ZM140.321 3.9987C140.321 3.56541 140.403 3.1578 140.567 2.77582C140.731 2.38815 140.958 2.04894 141.247 1.7582C141.535 1.46176 141.869 1.23084 142.248 1.06554C142.633 0.894477 143.044 0.808981 143.48 0.808981C143.91 0.808981 144.314 0.894477 144.695 1.06554C145.079 1.23084 145.416 1.46176 145.705 1.7582C145.999 2.04894 146.228 2.38815 146.393 2.77582C146.562 3.1578 146.647 3.56541 146.647 3.9987C146.647 4.43767 146.562 4.84814 146.393 5.23011C146.228 5.61209 145.999 5.94844 145.705 6.23919C145.416 6.52993 145.079 6.75797 144.695 6.9233C144.314 7.08863 143.91 7.17146 143.48 7.17146C143.044 7.17146 142.633 7.09162 142.248 6.93185C141.869 6.76652 141.535 6.54132 141.247 6.25628C140.958 5.96553 140.731 5.62918 140.567 5.2472C140.403 4.85953 140.321 4.44338 140.321 3.9987ZM141.341 3.9987C141.341 4.40915 141.436 4.78258 141.628 5.11894C141.821 5.4496 142.079 5.71467 142.401 5.91423C142.73 6.11374 143.098 6.21351 143.505 6.21351C143.901 6.21351 144.258 6.11374 144.575 5.91423C144.898 5.71467 145.153 5.4496 145.339 5.11894C145.532 4.78258 145.629 4.40915 145.629 3.9987C145.629 3.58249 145.532 3.20626 145.339 2.86989C145.147 2.53354 144.889 2.26559 144.567 2.06603C144.244 1.86652 143.881 1.76675 143.48 1.76675C143.078 1.76675 142.716 1.86652 142.393 2.06603C142.07 2.26559 141.812 2.53639 141.62 2.87845C141.433 3.2148 141.341 3.5882 141.341 3.9987ZM151.071 2.97264L155.529 7.3253H155.554V0.877538H154.569L154.587 5.07632L150.145 0.663743H150.094V7.10303H151.096L151.071 2.97264Z" fill="url(#paint0_linear_1458_887)"/>
<defs>
<linearGradient id="paint0_linear_1458_887" x1="97.2618" y1="0.851482" x2="97.2618" y2="38.5807" gradientUnits="userSpaceOnUse">
<stop stop-color="#43536D"/>
<stop offset="1" stop-color="#43536D" stop-opacity="0.2"/>
</linearGradient>
</defs>
</svg>
