<svg width="153" height="41" viewBox="0 0 153 41" fill="none" xmlns="http://www.w3.org/2000/svg">
<path fill-rule="evenodd" clip-rule="evenodd" d="M33.1026 20.6716C34.7214 17.7329 35.267 14.1905 34.5751 10.7347L34.5839 10.7287C34.5839 10.7287 34.5766 10.7211 34.5721 10.718C34.5721 10.7128 34.571 10.7087 34.5698 10.7038L34.5691 10.7014L34.5603 10.7074C31.982 8.34034 28.7015 7.0408 25.3899 7.00896C23.7149 4.07172 20.9769 1.79562 17.6846 0.67956V0.668945C17.6846 0.668945 17.6742 0.671978 17.6698 0.675011L17.6671 0.674112C17.6631 0.672845 17.6586 0.671386 17.655 0.668945V0.67956C14.3627 1.79562 11.6232 4.07323 9.94681 7.01199C6.62342 7.04232 3.33107 8.35097 0.748351 10.7317L0.739481 10.7256C0.739481 10.7256 0.738003 10.7362 0.736524 10.7423C0.734306 10.7438 0.732459 10.7457 0.730611 10.7476C0.728763 10.7495 0.726915 10.7514 0.724697 10.7529L0.733567 10.759C0.0520366 14.2118 0.601992 17.745 2.22082 20.6776C0.601992 23.6179 0.056471 27.1587 0.748351 30.6161L0.739481 30.6222C0.739481 30.6222 0.748351 30.6297 0.751308 30.6327C0.751308 30.6378 0.752339 30.6418 0.75354 30.6465L0.754265 30.6494L0.763135 30.6434C3.34142 33.0105 6.62342 34.31 9.9335 34.3418C11.6085 37.2791 14.3479 39.5552 17.6388 40.6712V40.6819C17.6388 40.6819 17.6491 40.6789 17.6535 40.6757L17.6596 40.6776C17.6628 40.6787 17.6656 40.68 17.6684 40.6819V40.6712C20.9622 39.5552 23.7001 37.2775 25.3766 34.3388C28.7 34.3085 31.9923 32.9998 34.5751 30.6191L34.5839 30.6252L34.5852 30.6169C34.5858 30.614 34.5863 30.6109 34.5869 30.6085C34.5914 30.6055 34.5958 30.6009 34.5987 30.5978L34.5899 30.5918C35.2714 27.139 34.7214 23.6058 33.1026 20.6732V20.6716ZM33.3052 11.4671C33.7635 14.2254 33.3554 16.961 32.2393 19.3068C31.197 17.8572 29.859 16.6092 28.2506 15.666C27.8751 15.4462 27.4937 15.2475 27.1048 15.07C27.1477 14.6303 27.1713 14.1845 27.1713 13.7326C27.1713 11.8629 26.7914 10.0812 26.104 8.45559C28.7163 8.64211 31.234 9.68993 33.3036 11.4656L33.3052 11.4671ZM25.7743 27.6204C25.7742 29.4884 25.341 31.2835 24.5576 32.9028C22.7805 32.7921 21.0465 32.2659 19.503 31.3622C19.2532 31.2166 19.0107 31.0604 18.7742 30.8951C19.8519 29.8897 20.7419 28.716 21.4293 27.4331C21.5535 27.4362 21.6792 27.4393 21.8034 27.4393C23.1295 27.4393 24.4585 27.2345 25.7476 26.8145C25.7654 27.0827 25.7743 27.3508 25.7743 27.6204ZM21.8034 26.0229C21.691 26.0229 21.5802 26.0215 21.4678 26.0183L20.6252 25.9941L20.22 26.7524C19.5547 27.9958 18.6854 29.0981 17.6595 30.0156C16.6306 29.0967 15.7613 27.9928 15.0945 26.7478L14.6894 25.9896L13.8468 26.0138C13.7344 26.0169 13.6236 26.0183 13.5112 26.0183C12.2235 26.0183 10.9506 25.7985 9.74426 25.3769C10.0074 23.9819 10.5145 22.6354 11.2508 21.4041L11.6913 20.6671L11.2522 19.9286C10.5234 18.7019 10.0207 17.3613 9.75905 15.9723C10.9625 15.5523 12.2338 15.3325 13.5185 15.3325C13.6309 15.3325 13.7433 15.3325 13.8541 15.337L14.6968 15.3612L15.1019 14.603C15.7672 13.3596 16.6365 12.2571 17.6625 11.3398C18.6914 12.2587 19.5607 13.3626 20.2274 14.6076L20.6325 15.3658L21.4751 15.3415C21.5875 15.3385 21.6984 15.337 21.8107 15.337C23.0985 15.337 24.3713 15.5569 25.5762 15.9784C25.3131 17.3734 24.806 18.72 24.0712 19.9513L23.6306 20.6898L24.0698 21.4283C24.7985 22.655 25.3012 23.9956 25.5629 25.3846C24.3595 25.8061 23.0881 26.0245 21.8034 26.0245V26.0229ZM9.5299 27.622C9.52992 27.3508 9.53879 27.0797 9.55799 26.8084C10.8501 27.23 12.1807 27.4362 13.5097 27.4362C13.6339 27.4362 13.7595 27.4347 13.8837 27.4301C14.5727 28.716 15.4641 29.8913 16.5448 30.8981C16.3126 31.0589 16.0762 31.212 15.8337 31.3545C14.2829 32.2675 12.5384 32.7996 10.7496 32.9089C9.96465 31.2896 9.53002 29.4914 9.5299 27.622ZM7.75585 24.4595C7.97875 24.5898 8.20607 24.7124 8.4378 24.8275C8.7513 23.3377 9.30996 21.9372 10.0695 20.6655C9.31701 19.3979 8.76263 18.0028 8.45217 16.5213C8.21119 16.6411 7.97317 16.7685 7.73959 16.9064C6.13851 17.8512 4.82127 19.1522 3.83963 20.6822C4.82571 22.2153 6.14886 23.5179 7.75585 24.4595ZM9.54321 13.7349C9.54332 11.867 9.97648 10.0719 10.7599 8.45256C12.537 8.56174 14.271 9.08944 15.8144 9.99321C16.0643 10.1388 16.3068 10.295 16.5433 10.4603C15.4656 11.4656 14.5756 12.6393 13.8882 13.9222C13.764 13.9191 13.6383 13.9161 13.5141 13.9161C12.188 13.9161 10.859 14.1208 9.56982 14.5409C9.5521 14.2727 9.54322 14.0045 9.54321 13.7349ZM25.7877 13.7342C25.7877 14.0056 25.7787 14.277 25.7595 14.5484C24.4674 14.1268 23.1368 13.9207 21.8093 13.9207C21.6851 13.9207 21.5595 13.9222 21.4352 13.9267C20.7464 12.6408 19.8549 11.4656 18.7742 10.4587C19.0063 10.298 19.2429 10.1448 19.4853 10.0023C21.0361 9.08793 22.7805 8.55719 24.5694 8.44801C25.3545 10.0675 25.7891 11.866 25.7891 13.7356L25.7877 13.7342ZM25.248 20.6929C26.0079 19.4206 26.5667 18.0194 26.8801 16.5288C27.1123 16.6441 27.3399 16.7669 27.5631 16.8973C29.1702 17.839 30.4932 19.1416 31.4793 20.6746C30.4977 22.2047 29.1805 23.5072 27.5794 24.4504C27.3458 24.5884 27.1078 24.7158 26.8668 24.8356C26.5563 23.354 26.0019 21.959 25.2494 20.6913L25.248 20.6929ZM11.5287 7.0954C12.9566 4.90139 15.0837 3.15161 17.6706 2.17501C20.2559 3.15161 22.3816 4.89988 23.8096 7.09084C22.0872 7.28797 20.387 7.8369 18.8022 8.771C18.406 9.00452 18.0261 9.25625 17.6639 9.52616C17.2943 9.25322 16.9085 8.99694 16.5049 8.76039C14.929 7.8369 13.2377 7.29253 11.5287 7.0954ZM2.00497 11.4884C4.08061 9.69903 6.60715 8.64363 9.23127 8.45863C8.5453 10.0827 8.16536 11.8629 8.16536 13.7312C8.16536 14.18 8.18902 14.6228 8.23189 15.0609C7.83273 15.243 7.43948 15.4476 7.05362 15.6751C5.45107 16.6199 4.11904 17.8663 3.08123 19.3114C1.96505 16.9701 1.55407 14.2421 2.00497 11.4868V11.4884ZM2.01827 29.8837C1.55998 27.1254 1.96801 24.3898 3.08418 22.044C4.12644 23.4936 5.46437 24.7416 7.07285 25.6848C7.44835 25.9046 7.82977 26.1033 8.2171 26.2808C8.17424 26.7205 8.15058 27.1663 8.15058 27.6182C8.15058 29.4879 8.53052 31.2696 9.21796 32.8952C6.60568 32.7087 4.088 31.6608 2.01827 29.8852V29.8837ZM11.5139 34.26C12.9419 36.451 15.0675 38.1992 17.6528 39.1758C20.2397 38.1992 22.3668 36.4494 23.7948 34.2554C22.0842 34.0583 20.3945 33.5139 18.8185 32.5905C18.415 32.3538 18.0291 32.0976 17.6595 31.8247C17.2973 32.0945 16.9173 32.3463 16.5211 32.5798C14.9363 33.5139 13.2362 34.0628 11.5139 34.26ZM33.3155 29.8625C31.2398 31.6517 28.7133 32.7072 26.0892 32.8921C26.7751 31.2682 27.1551 29.4879 27.1551 27.6196C27.1551 27.1708 27.1314 26.728 27.0885 26.2899C27.4877 26.1078 27.8809 25.9032 28.2669 25.6757C29.8694 24.7309 31.2014 23.4845 32.2393 22.0394C33.3554 24.3807 33.7664 27.1087 33.3155 29.8639V29.8625ZM17.6798 14.7833L15.6559 18.5804L11.9554 20.6562L15.6559 22.7322L17.6798 26.5277L19.7036 22.7322L23.404 20.6562L19.7036 18.5804L17.6798 14.7833ZM99.0611 31.6145C98.9088 31.757 98.7861 31.9315 98.6959 32.1378C98.6058 32.344 98.5599 32.573 98.5599 32.8234C98.5599 33.0736 98.6058 33.301 98.6959 33.5058C98.7861 33.709 98.9088 33.8834 99.0611 34.0291C99.2133 34.1747 99.3892 34.2853 99.5903 34.3643C99.7914 34.4416 100.001 34.481 100.22 34.481C100.439 34.481 100.649 34.4431 100.848 34.3643C101.048 34.2853 101.225 34.1732 101.378 34.0291C101.53 33.885 101.653 33.7106 101.743 33.5058C101.833 33.3026 101.879 33.075 101.879 32.8234C101.879 32.5716 101.833 32.3426 101.743 32.1378C101.653 31.933 101.53 31.7586 101.378 31.6145C101.225 31.472 101.05 31.3613 100.848 31.2824C100.649 31.205 100.44 31.1656 100.22 31.1656C99.9998 31.1656 99.79 31.2035 99.5903 31.2824C99.3907 31.3597 99.2133 31.4705 99.0611 31.6145ZM99.3568 33.7591C99.2459 33.6438 99.1602 33.5058 99.0965 33.3465C99.033 33.1873 99.002 33.0129 99.002 32.8234C99.002 32.6337 99.033 32.4593 99.0965 32.3001C99.1602 32.1408 99.2473 32.0028 99.3568 31.8876C99.4661 31.7707 99.5948 31.6812 99.7441 31.6161C99.8919 31.5508 100.054 31.5189 100.222 31.5189C100.389 31.5189 100.545 31.5508 100.695 31.6161C100.844 31.6812 100.973 31.7723 101.082 31.8876C101.191 32.0028 101.279 32.1408 101.344 32.3001C101.409 32.4593 101.441 32.6337 101.441 32.8234C101.441 33.0129 101.409 33.1873 101.344 33.3465C101.279 33.5058 101.191 33.6438 101.082 33.7591C100.973 33.8759 100.842 33.9654 100.695 34.0305C100.547 34.0958 100.392 34.1277 100.222 34.1277C100.052 34.1277 99.8919 34.0958 99.7441 34.0305C99.5948 33.9654 99.4661 33.8743 99.3568 33.7591ZM100.971 33.3951C101.018 33.3086 101.051 33.2101 101.069 33.0978H100.718C100.704 33.2056 100.658 33.2889 100.579 33.3511C100.501 33.4133 100.402 33.4437 100.281 33.4437C100.204 33.4437 100.133 33.4254 100.069 33.3921C100.006 33.3572 99.9511 33.3132 99.9067 33.254C99.8623 33.1949 99.8283 33.1282 99.8032 33.0493C99.7781 32.972 99.7662 32.8901 99.7662 32.8036C99.7662 32.62 99.8092 32.47 99.8964 32.3517C99.9821 32.2333 100.108 32.1741 100.272 32.1741C100.384 32.1741 100.48 32.2031 100.562 32.2622C100.641 32.3213 100.693 32.4032 100.717 32.5063H101.054C101.041 32.3941 101.01 32.2955 100.964 32.2091C100.918 32.1226 100.86 32.0513 100.791 31.9937C100.721 31.936 100.641 31.8936 100.553 31.8632C100.464 31.8344 100.369 31.8193 100.272 31.8193C100.127 31.8193 99.9984 31.8451 99.8845 31.8951C99.7707 31.9467 99.6746 32.0164 99.5948 32.1044C99.515 32.1939 99.4544 32.2985 99.4129 32.4198C99.3715 32.5412 99.3508 32.6747 99.3508 32.8142C99.3508 32.9538 99.373 33.0827 99.4174 33.2024C99.4617 33.3223 99.5238 33.4254 99.6051 33.5149C99.6864 33.6044 99.784 33.6741 99.8978 33.7243C100.012 33.7743 100.139 33.8001 100.281 33.8001C100.377 33.8001 100.468 33.7848 100.556 33.7531C100.643 33.7211 100.723 33.6757 100.794 33.615C100.865 33.5544 100.924 33.4816 100.971 33.3951ZM58.7576 13.9684C58.4723 13.6544 58.1219 13.3967 57.7139 13.204C57.3044 13.01 56.8417 12.9129 56.339 12.9129H48.9959C48.7934 12.9129 48.6086 12.872 48.4445 12.7931C48.2775 12.7128 48.1311 12.6066 48.0113 12.4777C47.8916 12.3503 47.7984 12.2033 47.7349 12.038C47.6698 11.8727 47.6373 11.6983 47.6373 11.5194C47.6373 11.3404 47.6698 11.1645 47.7349 11.0008C47.7984 10.8355 47.893 10.6838 48.0128 10.5504C48.1325 10.4185 48.2775 10.3108 48.4445 10.2304C48.6086 10.1516 48.7949 10.1107 48.9959 10.1107H57.9253L58.4044 8.18029H48.9959C48.5022 8.18029 48.0453 8.27886 47.6358 8.47144C47.2277 8.66402 46.8774 8.92029 46.592 9.2357C46.3082 9.54959 46.085 9.90898 45.9298 10.3047C45.7745 10.7005 45.6947 11.11 45.6947 11.5194C45.6947 11.9288 45.7745 12.3352 45.9298 12.7264C46.085 13.1177 46.3082 13.474 46.592 13.7863C46.8774 14.1018 47.2277 14.3581 47.6358 14.5506C48.0453 14.7432 48.5022 14.8418 48.9959 14.8418H56.339C56.5415 14.8418 56.7264 14.8827 56.8904 14.9616C57.056 15.042 57.2024 15.1496 57.3221 15.2815C57.4434 15.415 57.5365 15.5666 57.6001 15.7319C57.6651 15.8972 57.6977 16.0715 57.6977 16.2505C57.6977 16.4294 57.6651 16.6038 57.6001 16.7691C57.5365 16.9329 57.4434 17.0815 57.3236 17.2089C57.2024 17.3377 57.0576 17.4424 56.8904 17.5243C56.7278 17.6031 56.5415 17.644 56.339 17.644H47.4244L46.9454 19.5895H56.339C56.8432 19.5895 57.3059 19.4925 57.7139 19.2984C58.1219 19.1058 58.4723 18.8496 58.7576 18.5342C59.0415 18.2203 59.2647 17.8609 59.42 17.4651C59.5752 17.0678 59.655 16.6599 59.655 16.2505C59.655 15.8411 59.5767 15.4332 59.42 15.0359C59.2647 14.6401 59.0415 14.2807 58.7576 13.9668V13.9684ZM64.8199 8.18176L69.5448 14.1033L74.2696 8.18176H76.8465L70.5161 15.9927V19.5895H68.5734V15.9927L62.243 8.18176H64.8199ZM91.9336 16.8222L81.5731 8.18176H79.9144V19.5895H81.8585V10.9492L92.2174 19.5895H93.8762V8.18176H91.9336V16.8222ZM109.241 14.844H100.296V17.6448H112.388L111.909 19.5903H98.3529V12.9136H109.72L109.241 14.844ZM98.3529 10.111H111.909L112.388 8.18176H98.3529V10.111ZM127.34 13.204C127.749 13.3967 128.1 13.6544 128.384 13.9684V13.9668C128.668 14.2807 128.891 14.6401 129.046 15.0359C129.204 15.4332 129.281 15.8411 129.281 16.2505C129.281 16.6599 129.201 17.0678 129.046 17.4651C128.891 17.8609 128.668 18.2203 128.384 18.5342C128.099 18.8496 127.749 19.1058 127.34 19.2984C126.932 19.4925 126.468 19.5895 125.965 19.5895H116.572L117.051 17.644H125.965C126.168 17.644 126.354 17.6031 126.517 17.5243C126.684 17.4424 126.829 17.3377 126.95 17.2089C127.069 17.0815 127.163 16.9329 127.227 16.7691C127.292 16.6038 127.324 16.4294 127.324 16.2505C127.324 16.0715 127.292 15.8972 127.227 15.7319C127.163 15.5666 127.069 15.415 126.949 15.2815C126.829 15.1496 126.682 15.042 126.517 14.9616C126.353 14.8827 126.168 14.8418 125.965 14.8418H118.621C118.127 14.8418 117.67 14.7432 117.26 14.5506C116.853 14.3581 116.502 14.1018 116.218 13.7863C115.933 13.474 115.71 13.1177 115.554 12.7264C115.398 12.3352 115.319 11.9288 115.319 11.5194C115.319 11.11 115.399 10.7005 115.554 10.3047C115.71 9.90898 115.933 9.54959 116.218 9.2357C116.502 8.92029 116.853 8.66402 117.26 8.47144C117.67 8.27886 118.127 8.18029 118.621 8.18029H128.029L127.55 10.1107H118.621C118.419 10.1107 118.234 10.1516 118.069 10.2304C117.902 10.3108 117.757 10.4185 117.638 10.5504C117.518 10.6838 117.425 10.8355 117.36 11.0008C117.295 11.1645 117.262 11.3404 117.262 11.5194C117.262 11.6983 117.295 11.8727 117.36 12.038C117.423 12.2033 117.517 12.3503 117.637 12.4777C117.757 12.6066 117.902 12.7128 118.069 12.7931C118.234 12.872 118.419 12.9129 118.621 12.9129H125.965C126.468 12.9129 126.931 13.01 127.34 13.204ZM135.387 8.18176H133.443V19.5911H135.387V8.18176ZM151.604 13.9684C151.887 14.2823 152.111 14.6416 152.266 15.0374L152.265 15.0359C152.421 15.4346 152.5 15.8426 152.5 16.2505C152.5 16.6584 152.42 17.0678 152.265 17.4651C152.11 17.8609 151.886 18.2203 151.602 18.5342C151.317 18.8496 150.966 19.1058 150.559 19.2984C150.149 19.4911 149.686 19.5895 149.182 19.5895H139.789L140.268 17.644H149.182C149.384 17.644 149.571 17.6031 149.734 17.5243C149.9 17.4424 150.047 17.3363 150.166 17.2089C150.286 17.0815 150.38 16.9344 150.443 16.7691C150.508 16.6038 150.541 16.4294 150.541 16.2505C150.541 16.0715 150.508 15.8972 150.443 15.7319C150.38 15.5666 150.286 15.415 150.165 15.2815C150.046 15.1496 149.902 15.042 149.735 14.9616C149.571 14.8827 149.386 14.8418 149.184 14.8418H141.839C141.345 14.8418 140.888 14.7432 140.479 14.5506C140.07 14.3581 139.719 14.1002 139.435 13.7863C139.152 13.474 138.928 13.1161 138.773 12.7264C138.616 12.3352 138.538 11.9288 138.538 11.5194C138.538 11.11 138.618 10.702 138.773 10.3047C138.926 9.90898 139.149 9.54959 139.435 9.2357C139.72 8.92029 140.07 8.66402 140.479 8.47144C140.888 8.27886 141.345 8.18029 141.839 8.18029H151.247L150.768 10.1107H141.839C141.636 10.1107 141.452 10.1516 141.288 10.2304C141.121 10.3123 140.975 10.42 140.855 10.5519C140.736 10.6838 140.643 10.8355 140.578 11.0008C140.513 11.1645 140.48 11.3404 140.48 11.5194C140.48 11.6983 140.515 11.8742 140.578 12.038C140.643 12.2033 140.735 12.3503 140.854 12.4777C140.974 12.6066 141.121 12.7128 141.288 12.7931C141.452 12.872 141.636 12.9129 141.839 12.9129H149.184C149.688 12.9129 150.15 13.01 150.56 13.204C150.968 13.3967 151.318 13.6544 151.604 13.9684ZM58.616 24.6477C58.3424 24.3459 58.007 24.1002 57.6166 23.9152C57.2234 23.7302 56.7798 23.6362 56.2979 23.6362H49.2741C48.7906 23.6362 48.3472 23.7302 47.9554 23.9152C47.5652 24.1002 47.2281 24.3459 46.9546 24.6477C46.6825 24.9479 46.4682 25.2936 46.3189 25.6727C46.1695 26.0534 46.0941 26.4446 46.0941 26.8358V31.3713C46.0941 31.7625 46.1695 32.1538 46.3189 32.5343C46.4682 32.9135 46.6811 33.2592 46.9546 33.5594C47.2281 33.8612 47.5636 34.1068 47.9554 34.2919C48.3472 34.4768 48.7906 34.5709 49.2741 34.5709H56.2979C56.7798 34.5709 57.2234 34.4768 57.6166 34.2919C58.007 34.1068 58.344 33.8612 58.616 33.5594C58.888 33.2592 59.1024 32.915 59.2517 32.5343C59.401 32.1538 59.4764 31.7625 59.4764 31.3713V26.8358C59.4764 26.4446 59.401 26.0534 59.2517 25.6727C59.1024 25.2936 58.8895 24.9494 58.616 24.6477ZM56.8257 32.592C56.669 32.6678 56.4916 32.7057 56.2979 32.7057H49.2741C49.0804 32.7057 48.9016 32.6663 48.7449 32.5905C48.5852 32.5131 48.4448 32.4115 48.3294 32.2887C48.2141 32.1659 48.1225 32.0233 48.0559 31.8641C47.9894 31.708 47.9569 31.5411 47.9569 31.3697V26.8343C47.9569 26.6644 47.9894 26.4976 48.0559 26.3399C48.1225 26.1807 48.2156 26.0336 48.3309 25.9062C48.4448 25.7804 48.5837 25.6772 48.7434 25.5984C48.9001 25.5226 49.079 25.4832 49.2727 25.4832H56.2964C56.4901 25.4832 56.6675 25.5226 56.8242 25.5969C56.9839 25.6742 57.1229 25.7774 57.2366 25.9047C57.3534 26.0336 57.4451 26.1807 57.5132 26.3399C57.5797 26.4976 57.6121 26.6629 57.6121 26.8343V31.3697C57.6121 31.5411 57.5782 31.7064 57.5132 31.8641C57.4466 32.0233 57.3549 32.1659 57.2397 32.2887C57.1243 32.4115 56.9854 32.5131 56.8242 32.5905L56.8257 32.592ZM64.9523 23.6362L74.8811 31.9171V23.6362H76.7439V34.5709H75.1532L65.2244 26.2899V34.5709H63.3617V23.6362H64.9523ZM82.892 30.0213H91.465L91.9249 28.1713H81.0292V34.572H94.0227L94.4824 32.7069H82.892V30.0213ZM81.0292 23.6362H94.4824L94.0227 25.4851H81.0292V23.6362Z" fill="url(#paint0_linear_1458_858)"/>
<defs>
<linearGradient id="paint0_linear_1458_858" x1="87.7559" y1="0.658109" x2="87.7559" y2="40.6065" gradientUnits="userSpaceOnUse">
<stop stop-color="#43536D"/>
<stop offset="1" stop-color="#43536D" stop-opacity="0.2"/>
</linearGradient>
</defs>
</svg>
