<svg width="158" height="34" viewBox="0 0 158 34" fill="none" xmlns="http://www.w3.org/2000/svg">
<path d="M54.8634 26.3512C53.2932 26.3512 51.8712 26.0005 50.5975 25.2991C49.3384 24.5825 48.346 23.5989 47.6202 22.3485C46.9092 21.0981 46.5537 19.6877 46.5537 18.117C46.5537 16.5465 46.9165 15.136 47.6423 13.8856C48.3681 12.6352 49.3606 11.6593 50.6196 10.9579C51.8935 10.2413 53.3155 9.88279 54.8855 9.88279C56.1594 9.88279 57.3222 10.1116 58.3739 10.569C59.4255 11.0265 60.3142 11.6898 61.04 12.5589L59.1737 14.3659C58.0481 13.1156 56.663 12.4904 55.0188 12.4904C53.9525 12.4904 52.997 12.7343 52.1527 13.2222C51.3084 13.695 50.6493 14.3583 50.1753 15.2122C49.7013 16.0661 49.4643 17.0344 49.4643 18.117C49.4643 19.1997 49.7013 20.1679 50.1753 21.022C50.6493 21.8759 51.3084 22.5468 52.1527 23.0346C52.997 23.5074 53.9525 23.7438 55.0188 23.7438C56.663 23.7438 58.0481 23.1109 59.1737 21.8452L61.04 23.6751C60.3142 24.5442 59.4181 25.2076 58.3516 25.665C57.2999 26.1225 56.1372 26.3512 54.8634 26.3512Z" fill="url(#paint0_linear_2052_1092)"/>
<path d="M74.7025 13.9083V26.1224H72.0585V24.5671C71.6141 25.116 71.0587 25.5429 70.3922 25.8479C69.7256 26.1376 69.0072 26.2825 68.237 26.2825C66.6521 26.2825 65.4005 25.8326 64.4821 24.933C63.5785 24.018 63.1267 22.6686 63.1267 20.8846V13.9083H65.9041V20.4956C65.9041 21.5936 66.1411 22.417 66.615 22.9659C67.1038 23.4996 67.7926 23.7665 68.6814 23.7665C69.6738 23.7665 70.4587 23.4539 71.0364 22.8287C71.6289 22.1882 71.9252 21.2734 71.9252 20.084V13.9083H74.7025Z" fill="url(#paint1_linear_2052_1092)"/>
<path d="M84.9154 13.7706C86.0708 13.7706 87.1003 14.0299 88.0038 14.5483C88.9221 15.0667 89.6406 15.7988 90.1591 16.7441C90.6775 17.6896 90.9367 18.7798 90.9367 20.015C90.9367 21.2501 90.6775 22.3479 90.1591 23.3086C89.6406 24.254 88.9221 24.9859 88.0038 25.5044C87.1003 26.0228 86.0708 26.2821 84.9154 26.2821C84.1007 26.2821 83.3528 26.1372 82.6714 25.8475C82.0048 25.5577 81.442 25.1232 80.9828 24.5437V26.122H78.3388V9.15034H81.1161V15.3946C81.5901 14.8609 82.1456 14.4569 82.7826 14.1824C83.4342 13.9078 84.1452 13.7706 84.9154 13.7706ZM84.6044 23.8346C85.6264 23.8346 86.4634 23.4839 87.1152 22.7825C87.7816 22.0811 88.1149 21.1585 88.1149 20.015C88.1149 18.8713 87.7816 17.9487 87.1152 17.2473C86.4634 16.5459 85.6264 16.1952 84.6044 16.1952C83.9378 16.1952 83.338 16.3553 82.8047 16.6755C82.2715 16.9805 81.8494 17.4226 81.5383 18.0022C81.2272 18.5816 81.0716 19.2525 81.0716 20.015C81.0716 20.7773 81.2272 21.4483 81.5383 22.0277C81.8494 22.6072 82.2715 23.0571 82.8047 23.3771C83.338 23.6821 83.9378 23.8346 84.6044 23.8346Z" fill="url(#paint2_linear_2052_1092)"/>
<path d="M104.724 20.0839C104.724 20.2821 104.709 20.5643 104.68 20.9302H95.3702C95.5332 21.8298 95.9554 22.5466 96.6367 23.0803C97.3328 23.5987 98.192 23.8579 99.214 23.8579C100.518 23.8579 101.591 23.4158 102.436 22.5312L103.924 24.2925C103.391 24.9482 102.717 25.4438 101.902 25.7793C101.088 26.1148 100.17 26.2825 99.1474 26.2825C97.8439 26.2825 96.6959 26.0156 95.7036 25.4819C94.7112 24.9482 93.9409 24.2086 93.3928 23.2633C92.8596 22.3026 92.593 21.22 92.593 20.0154C92.593 18.8259 92.8521 17.7585 93.3706 16.8132C93.9038 15.8525 94.6371 15.1052 95.5703 14.5716C96.5033 14.0379 97.555 13.771 98.7252 13.771C99.8806 13.771 100.91 14.0379 101.814 14.5716C102.732 15.09 103.443 15.8296 103.947 16.7902C104.465 17.7357 104.724 18.8336 104.724 20.0839ZM98.7252 16.0583C97.8365 16.0583 97.081 16.3328 96.459 16.8817C95.8517 17.4154 95.4814 18.1321 95.3481 19.0318H102.08C101.962 18.1473 101.599 17.4307 100.992 16.8817C100.384 16.3328 99.6288 16.0583 98.7252 16.0583Z" fill="url(#paint3_linear_2052_1092)"/>
<path d="M110.036 15.6924C110.836 14.4114 112.243 13.771 114.258 13.771V16.493C114.021 16.4471 113.806 16.4243 113.613 16.4243C112.532 16.4243 111.688 16.7521 111.08 17.4078C110.473 18.0483 110.169 18.9784 110.169 20.1983V26.1224H107.392V13.9082H110.036V15.6924Z" fill="url(#paint4_linear_2052_1092)"/>
<path d="M116.614 13.9079H119.391V26.1221H116.614V13.9079ZM118.013 11.8951C117.51 11.8951 117.088 11.735 116.747 11.4149C116.406 11.0795 116.236 10.6677 116.236 10.1797C116.236 9.69174 116.406 9.28771 116.747 8.96747C117.088 8.63201 117.51 8.46427 118.013 8.46427C118.517 8.46427 118.939 8.62439 119.28 8.94462C119.62 9.24962 119.791 9.63841 119.791 10.1111C119.791 10.6143 119.62 11.0412 119.28 11.3919C118.954 11.7274 118.532 11.8951 118.013 11.8951Z" fill="url(#paint5_linear_2052_1092)"/>
<path d="M134.523 13.9083V26.1224H131.879V24.5671C131.435 25.116 130.879 25.5429 130.213 25.8479C129.546 26.1376 128.828 26.2825 128.057 26.2825C126.473 26.2825 125.221 25.8326 124.303 24.933C123.399 24.018 122.947 22.6686 122.947 20.8846V13.9083H125.724V20.4956C125.724 21.5936 125.961 22.417 126.435 22.9659C126.924 23.4996 127.613 23.7665 128.502 23.7665C129.494 23.7665 130.279 23.4539 130.857 22.8287C131.449 22.1882 131.746 21.2734 131.746 20.084V13.9083H134.523Z" fill="url(#paint6_linear_2052_1092)"/>
<path d="M153.135 13.771C154.63 13.771 155.815 14.2209 156.69 15.1205C157.563 16.005 158 17.3392 158 19.1232V26.1224H155.223V19.4892C155.223 18.4218 154.994 17.6212 154.534 17.0876C154.076 16.5387 153.415 16.2641 152.556 16.2641C151.624 16.2641 150.876 16.5844 150.313 17.2248C149.75 17.8501 149.468 18.7497 149.468 19.9238V26.1224H146.691V19.4892C146.691 18.4218 146.462 17.6212 146.002 17.0876C145.544 16.5387 144.883 16.2641 144.024 16.2641C143.076 16.2641 142.322 16.5767 141.759 17.202C141.21 17.8272 140.937 18.7344 140.937 19.9238V26.1224H138.159V13.9082H140.803V15.4637C141.248 14.9146 141.802 14.4954 142.47 14.2056C143.136 13.9159 143.876 13.771 144.692 13.771C145.58 13.771 146.365 13.9465 147.046 14.2972C147.743 14.6326 148.29 15.1358 148.691 15.8068C149.179 15.1663 149.81 14.6707 150.58 14.32C151.35 13.9541 152.201 13.771 153.135 13.771Z" fill="url(#paint7_linear_2052_1092)"/>
<path d="M14.7805 17.2843L1.32782 10.3443C0.722768 10.0321 0 10.4683 0 11.1456V25.2156C0 25.829 0.341402 26.392 0.887176 26.6788L14.3449 33.7508C14.9502 34.0689 15.6789 33.633 15.6789 32.9527V18.7534C15.6789 18.1355 15.3325 17.5691 14.7805 17.2843Z" fill="url(#paint8_linear_2052_1092)"/>
<path d="M19.0768 17.2843L32.5295 10.3443C33.1346 10.0321 33.8573 10.4683 33.8573 11.1456V25.2156C33.8573 25.829 33.5159 26.392 32.9701 26.6788L19.5124 33.7508C18.9071 34.0689 18.1784 33.633 18.1784 32.9527V18.7534C18.1784 18.1355 18.5247 17.5691 19.0768 17.2843Z" fill="url(#paint9_linear_2052_1092)"/>
<path d="M1.7331 8.07974L15.9379 15.5352C16.5578 15.8605 17.2995 15.8605 17.9194 15.5352L32.1242 8.07974C32.7371 7.7581 32.7095 6.87682 32.0776 6.59355L17.7698 0.179792C17.235 -0.0599308 16.6222 -0.0599308 16.0874 0.179792L1.77963 6.59355C1.14774 6.87682 1.12015 7.7581 1.7331 8.07974Z" fill="url(#paint10_linear_2052_1092)"/>
<defs>
<linearGradient id="paint0_linear_2052_1092" x1="79.0002" y1="0" x2="79.0002" y2="42.5" gradientUnits="userSpaceOnUse">
<stop stop-color="#43536D"/>
<stop offset="1" stop-color="#43536D" stop-opacity="0"/>
</linearGradient>
<linearGradient id="paint1_linear_2052_1092" x1="79.0002" y1="0" x2="79.0002" y2="42.5" gradientUnits="userSpaceOnUse">
<stop stop-color="#43536D"/>
<stop offset="1" stop-color="#43536D" stop-opacity="0"/>
</linearGradient>
<linearGradient id="paint2_linear_2052_1092" x1="79.0002" y1="0" x2="79.0002" y2="42.5" gradientUnits="userSpaceOnUse">
<stop stop-color="#43536D"/>
<stop offset="1" stop-color="#43536D" stop-opacity="0"/>
</linearGradient>
<linearGradient id="paint3_linear_2052_1092" x1="79.0002" y1="0" x2="79.0002" y2="42.5" gradientUnits="userSpaceOnUse">
<stop stop-color="#43536D"/>
<stop offset="1" stop-color="#43536D" stop-opacity="0"/>
</linearGradient>
<linearGradient id="paint4_linear_2052_1092" x1="79.0002" y1="0" x2="79.0002" y2="42.5" gradientUnits="userSpaceOnUse">
<stop stop-color="#43536D"/>
<stop offset="1" stop-color="#43536D" stop-opacity="0"/>
</linearGradient>
<linearGradient id="paint5_linear_2052_1092" x1="79.0002" y1="0" x2="79.0002" y2="42.5" gradientUnits="userSpaceOnUse">
<stop stop-color="#43536D"/>
<stop offset="1" stop-color="#43536D" stop-opacity="0"/>
</linearGradient>
<linearGradient id="paint6_linear_2052_1092" x1="79.0002" y1="0" x2="79.0002" y2="42.5" gradientUnits="userSpaceOnUse">
<stop stop-color="#43536D"/>
<stop offset="1" stop-color="#43536D" stop-opacity="0"/>
</linearGradient>
<linearGradient id="paint7_linear_2052_1092" x1="79.0002" y1="0" x2="79.0002" y2="42.5" gradientUnits="userSpaceOnUse">
<stop stop-color="#43536D"/>
<stop offset="1" stop-color="#43536D" stop-opacity="0"/>
</linearGradient>
<linearGradient id="paint8_linear_2052_1092" x1="79.0002" y1="0" x2="79.0002" y2="42.5" gradientUnits="userSpaceOnUse">
<stop stop-color="#43536D"/>
<stop offset="1" stop-color="#43536D" stop-opacity="0"/>
</linearGradient>
<linearGradient id="paint9_linear_2052_1092" x1="79.0002" y1="0" x2="79.0002" y2="42.5" gradientUnits="userSpaceOnUse">
<stop stop-color="#43536D"/>
<stop offset="1" stop-color="#43536D" stop-opacity="0"/>
</linearGradient>
<linearGradient id="paint10_linear_2052_1092" x1="79.0002" y1="0" x2="79.0002" y2="42.5" gradientUnits="userSpaceOnUse">
<stop stop-color="#43536D"/>
<stop offset="1" stop-color="#43536D" stop-opacity="0"/>
</linearGradient>
</defs>
</svg>
