<svg width="128" height="62" viewBox="0 0 128 62" fill="none" xmlns="http://www.w3.org/2000/svg">
<path d="M39.1983 0H33.3242V36.2638H39.1983V0Z" fill="#D9D9D9"/>
<path d="M59.5958 36.2642H65.4699V11.6982H59.5958V24.6719H59.7018C59.7018 30.0963 55.003 30.6263 53.7218 30.6263C50.3043 30.6263 49.5576 27.329 49.5576 25.3098V11.6982H43.6836V25.5232C43.6836 28.9261 44.8589 31.6911 46.5664 33.7126C48.168 35.3074 50.7306 36.2642 53.6158 36.2642C55.646 36.2642 58.3145 35.7318 59.5958 34.2426V36.2642Z" fill="#D9D9D9"/>
<path d="M71.1284 36.2639H77.0025V17.5469H81.275V11.698H77.0025V2.97852H71.1284V11.698H66.75V17.5469H71.1284V36.2639Z" fill="#D9D9D9"/>
<path d="M94.9453 36.1584C98.2568 36.1584 101.354 34.9881 103.702 32.861L104.557 32.0097L100.499 27.9689L99.644 29.0313C98.3628 30.2016 96.7612 30.8395 94.9453 30.8395C90.8871 30.8395 87.8959 27.9689 87.8959 23.7147C87.8959 19.4605 90.7788 16.6956 94.9453 16.6956C96.7612 16.6956 98.3628 17.2279 99.644 18.5037L100.499 19.2471L104.343 15.4198L103.488 14.5685C101.031 12.5469 98.1484 11.2711 94.9429 11.2711C87.6816 11.1656 82.3398 16.3766 82.3398 23.7124C82.3422 30.6284 87.7899 36.1584 94.9453 36.1584Z" fill="#D9D9D9"/>
<path d="M113.209 22.544C113.209 17.1196 117.267 16.5895 118.548 16.5895C121.966 16.5895 121.966 19.8869 121.966 21.9061V36.2634H127.84V21.8006C127.946 18.6111 127.199 15.7382 125.277 13.8246C123.676 12.2298 121.54 11.273 118.869 11.273C116.838 11.273 114.705 11.8053 113.101 13.2945V0.00195312H107.227V36.2658H113.101V22.5464H113.209V22.544Z" fill="#D9D9D9"/>
<path d="M90.4609 23.7147C90.4609 26.0552 92.3828 27.861 94.6251 27.861C96.9756 27.861 98.7892 25.9473 98.7892 23.7147C98.7892 21.3742 96.8673 19.5684 94.6251 19.5684C92.3828 19.5684 90.4609 21.3765 90.4609 23.7147Z" fill="#E52421"/>
<path d="M16.7672 36.1584C21.4659 36.1584 25.9527 34.3503 28.9416 31.0529L29.7965 30.2016L25.9527 26.1608L25.2061 27.2232C23.0699 29.3503 19.8667 30.6261 16.7695 30.6261C10.1489 30.6261 5.44774 25.5206 5.44774 18.6093C5.44774 11.5901 10.1465 6.59248 16.6612 6.59248C19.7584 6.59248 22.6412 7.86827 25.0978 9.99537L25.9527 10.8467L29.7965 7.01931L28.9416 6.168C25.7384 2.76512 21.3576 1.0625 16.7672 1.0625C7.15531 1.16803 0 8.61404 0 18.6093C0 28.6045 7.15531 36.1584 16.7672 36.1584Z" fill="#D9D9D9"/>
<path d="M9.50585 54.7673H7.36962V56.681H4.69874L8.97121 50.7266H6.623L1.92188 57V58.4892H7.26363V60.6163H9.50585V58.4892H11.1074V56.681H9.50585V54.7673Z" fill="#D9D9D9"/>
<path d="M13.3478 57.957C12.9216 57.957 12.6014 58.0626 12.3871 58.3815C12.1729 58.5949 11.9609 58.9139 11.9609 59.3384C11.9609 59.7628 12.0669 60.0818 12.3871 60.2952C12.6014 60.5086 13.0276 60.7197 13.3478 60.7197C13.774 60.7197 14.0943 60.6141 14.3085 60.2952C14.5228 60.0818 14.7347 59.6573 14.7347 59.3384C14.7347 58.9139 14.6288 58.5949 14.3085 58.3815C14.0966 58.0649 13.7764 57.957 13.3478 57.957Z" fill="#D9D9D9"/>
<path d="M22.5342 51.7895C21.7876 50.9382 20.6123 50.5137 19.2227 50.5137C18.4761 50.5137 17.9414 50.6192 17.3008 50.9382C16.7662 51.2571 16.2339 51.5761 15.9136 52.1084C15.5932 52.6408 15.3789 53.1708 15.3789 53.811C15.3789 54.4489 15.4849 54.9813 15.8052 55.4058C16.1255 55.8302 16.5518 56.2571 17.0865 56.4681C17.6211 56.6815 18.1534 56.8926 18.7964 56.8926C19.8633 56.8926 20.7183 56.5737 21.253 56.0413C21.253 56.9981 20.9326 57.636 20.5063 58.1684C19.9717 58.7008 19.3311 58.9118 18.4761 58.9118C17.7295 58.9118 17.0888 58.6984 16.6602 58.3795L15.8052 60.0821C16.1255 60.2955 16.5518 60.5066 17.0865 60.6144C17.6211 60.72 18.0474 60.8279 18.5821 60.8279C19.543 60.8279 20.504 60.6144 21.253 60.19C21.9996 59.7655 22.6402 59.1276 23.0689 58.3818C23.4952 57.5305 23.7095 56.5737 23.7095 55.5113C23.7095 53.811 23.2808 52.6408 22.5342 51.7895ZM20.7183 54.7679C20.398 55.0868 19.9717 55.1923 19.543 55.1923C19.0084 55.1923 18.5821 55.0868 18.3677 54.7679C18.0474 54.4489 17.9414 54.13 17.9414 53.7055C17.9414 53.281 18.0474 52.8542 18.3677 52.6431C18.6881 52.4297 19.1144 52.2186 19.543 52.2186C20.0777 52.2186 20.504 52.3242 20.8243 52.6431C21.1446 52.9621 21.2506 53.281 21.2506 53.7055C21.147 54.13 21.0386 54.4489 20.7183 54.7679Z" fill="#D9D9D9"/>
<path d="M28.1949 48.7051L23.4961 62H25.5263L30.1191 48.7051H28.1949Z" fill="#D9D9D9"/>
<path d="M33.536 54.4484H32.681L32.787 52.5347H36.9512V50.7266H30.8628L30.3281 56.2565H32.8907C33.7456 56.2565 34.3863 56.3621 34.7066 56.5755C35.0269 56.7889 35.2412 57.1078 35.2412 57.5323C35.2412 57.9568 35.0269 58.2758 34.7066 58.4892C34.3863 58.7026 33.96 58.8081 33.3193 58.8081C32.7847 58.8081 32.2524 58.7026 31.8237 58.5947C31.2891 58.4892 30.8628 58.1702 30.5425 57.9568L29.6875 59.6594C30.1138 59.9784 30.7544 60.2973 31.3974 60.4029C32.0381 60.6163 32.7847 60.7218 33.4277 60.7218C34.2826 60.7218 35.1376 60.6163 35.6699 60.2973C36.3105 59.9784 36.7368 59.6594 37.0571 59.1271C37.3775 58.5947 37.4835 58.0647 37.4835 57.5323C37.4835 56.5755 37.1631 55.8297 36.5225 55.2997C35.8842 54.6618 34.9233 54.4484 33.536 54.4484Z" fill="#D9D9D9"/>
<path d="M39.8361 57.957C39.4099 57.957 39.0897 58.0626 38.8754 58.3815C38.6611 58.5949 38.4492 58.9139 38.4492 59.3384C38.4492 59.7628 38.5552 60.0818 38.8754 60.2952C39.0897 60.5086 39.5159 60.7197 39.8361 60.7197C40.2623 60.7197 40.5825 60.6141 40.7968 60.2952C41.0111 60.0818 41.223 59.6573 41.223 59.3384C41.223 58.9139 41.117 58.5949 40.7968 58.3815C40.5825 58.0649 40.2623 57.957 39.8361 57.957Z" fill="#D9D9D9"/>
<path d="M48.4873 51.1516C47.8467 50.7271 47.1001 50.5137 46.2451 50.5137C45.3902 50.5137 44.6435 50.7271 44.0029 51.1516C43.3623 51.576 42.8276 52.1084 42.5073 52.9597C42.187 53.7031 41.9727 54.6623 41.9727 55.7247C41.9727 56.7871 42.187 57.7463 42.5073 58.4897C42.8276 59.2331 43.3623 59.871 44.0029 60.2978C44.6435 60.7247 45.3902 60.9357 46.2451 60.9357C47.1001 60.9357 47.8467 60.7223 48.4873 60.2978C49.128 59.8734 49.6626 59.341 49.9829 58.4897C50.3033 57.7463 50.5176 56.7871 50.5176 55.7247C50.5176 54.6623 50.3033 53.7031 49.9829 52.9597C49.6626 52.1084 49.128 51.5784 48.4873 51.1516ZM47.7407 58.0652C47.4204 58.5976 46.8858 58.8086 46.3535 58.8086C45.7128 58.8086 45.2865 58.5952 44.9662 58.0652C44.6459 57.5329 44.4316 56.7894 44.4316 55.6192C44.4316 54.4489 44.6459 53.7055 44.9662 53.1731C45.2865 52.6408 45.8212 52.4297 46.3535 52.4297C46.9941 52.4297 47.4204 52.6431 47.7407 53.1731C48.061 53.7031 48.2754 54.4489 48.2754 55.6192C48.273 56.7894 48.061 57.5329 47.7407 58.0652Z" fill="#D9D9D9"/>
<path d="M69.5274 52.7459H65.0407C64.9347 52.7459 64.7203 52.6403 64.7203 52.5325L63.3331 48.2783C63.2271 47.9593 62.6924 47.9593 62.5865 48.2783L61.1992 52.5325C61.1992 52.638 60.9849 52.7459 60.8789 52.7459H56.3921C56.0718 52.7459 55.8574 53.1704 56.1778 53.3838L59.8096 56.0432C59.9156 56.1488 60.0239 56.2566 59.9156 56.4677L58.5283 60.7219C58.4223 61.0408 58.8486 61.3598 59.063 61.1464L62.6948 58.4869C62.8008 58.3814 63.0151 58.3814 63.1211 58.4869L66.7529 61.1464C67.0733 61.3598 67.3936 61.0408 67.2876 60.7219L65.9003 56.4677C65.9003 56.3622 65.9003 56.1488 66.0063 56.0432L69.6381 53.3838C70.0621 53.1727 69.9537 52.7459 69.5274 52.7459Z" fill="#E52421"/>
<path d="M83.9454 52.7459H79.4586C79.3526 52.7459 79.1383 52.6403 79.1383 52.5325L77.7511 48.2783C77.6451 47.9593 77.1104 47.9593 77.0044 48.2783L75.6172 52.5325C75.6172 52.638 75.4028 52.7459 75.2969 52.7459H70.8101C70.4897 52.7459 70.2754 53.1704 70.5957 53.3838L74.2276 56.0432C74.3336 56.1488 74.4419 56.2566 74.3335 56.4677L72.9463 60.7219C72.8403 61.0408 73.2666 61.3598 73.4809 61.1464L77.1128 58.4869C77.2188 58.3814 77.4331 58.3814 77.5391 58.4869L81.1709 61.1464C81.4912 61.3598 81.8115 61.0408 81.7056 60.7219L80.3183 56.4677C80.3183 56.3622 80.3183 56.1488 80.4243 56.0432L84.0561 53.3838C84.3717 53.1727 84.2657 52.7459 83.9454 52.7459Z" fill="#E52421"/>
<path d="M98.6837 52.7459H94.1969C94.0909 52.7459 93.8766 52.6403 93.8766 52.5325L92.4893 48.2783C92.3833 47.9593 91.8487 47.9593 91.7427 48.2783L90.3555 52.5325C90.3555 52.638 90.1411 52.7459 90.0351 52.7459H85.5483C85.228 52.7459 85.0137 53.1704 85.334 53.3838L88.9658 56.0432C89.0718 56.1488 89.1802 56.2566 89.0718 56.4677L87.6846 60.7219C87.5786 61.0408 88.0049 61.3598 88.2192 61.1464L91.851 58.4869C91.957 58.3814 92.1714 58.3814 92.2774 58.4869L95.9092 61.1464C96.2295 61.3598 96.5498 61.0408 96.4438 60.7219L95.0566 56.4677C95.0566 56.3622 95.0566 56.1488 95.1626 56.0432L98.7944 53.3838C99.1124 53.1727 99.004 52.7459 98.6837 52.7459Z" fill="#E52421"/>
<path d="M113.317 52.7459H108.83C108.724 52.7459 108.509 52.6403 108.509 52.5325L107.122 48.2783C107.016 47.9593 106.482 47.9593 106.376 48.2783L104.988 52.5325C104.988 52.638 104.774 52.7459 104.668 52.7459H100.181C99.8608 52.7459 99.6465 53.1704 99.9668 53.3838L103.599 56.0432C103.705 56.1488 103.813 56.2566 103.705 56.4677L102.317 60.7219C102.211 61.0408 102.638 61.3598 102.852 61.1464L106.484 58.4869C106.59 58.3814 106.804 58.3814 106.91 58.4869L110.542 61.1464C110.862 61.3598 111.183 61.0408 111.077 60.7219L109.689 56.4677C109.689 56.3622 109.689 56.1488 109.795 56.0432L113.427 53.3838C113.743 53.1727 113.637 52.7459 113.317 52.7459Z" fill="#E52421"/>
<path d="M127.843 53.3857C128.164 53.1723 127.949 52.7478 127.629 52.7478H123.142C123.036 52.7478 122.822 52.6423 122.822 52.5344L121.435 48.2802C121.329 47.9613 120.794 47.9613 120.688 48.2802L119.301 52.5344C119.301 52.6399 119.086 52.7478 118.98 52.7478H114.494C114.173 52.7478 113.959 53.1723 114.279 53.3857L117.911 56.0452C118.017 56.1507 118.125 56.2586 118.017 56.4697L116.63 60.7239C116.524 61.0428 116.95 61.3617 117.165 61.1483L120.796 58.4889C120.902 58.3833 121.117 58.3833 121.223 58.4889L124.854 61.1483C125.175 61.3617 125.495 61.0428 125.389 60.7239L124.002 56.4697C124.002 56.3641 124.002 56.1507 124.108 56.0452L127.843 53.3857Z" fill="#E52421"/>
</svg>
