<svg width="135" height="32" viewBox="0 0 135 32" fill="none" xmlns="http://www.w3.org/2000/svg">
<path fill-rule="evenodd" clip-rule="evenodd" d="M12.2292 0L24.4542 20.8981L12.2292 32L0.00439453 20.8981L12.2292 0ZM12.2292 7.72139L7.12746 16.4428C8.65313 16.0087 10.4028 15.6835 12.2292 15.6835C14.0558 15.6835 15.8054 16.0087 17.331 16.4428L12.2292 7.72139ZM18.5551 20.9919C18.466 20.9548 18.375 20.9175 18.2823 20.8803C16.6043 20.2071 14.4288 19.5763 12.2292 19.5763C10.0297 19.5763 7.85413 20.2071 6.17627 20.8803C6.08345 20.9175 5.99248 20.9548 5.90345 20.9919L12.2292 26.7367L18.5551 20.9919ZM36.6606 24.1333V9.68H31.6297V24.1333H36.6606ZM31.9211 7.30667C32.4859 7.82221 33.2273 8.08 34.1452 8.08C35.0631 8.08 35.8045 7.82221 36.3694 7.30667C36.9343 6.77333 37.2167 6.10667 37.2167 5.30667C37.2167 4.54221 36.9343 3.92 36.3694 3.44C35.8045 2.94221 35.0631 2.69333 34.1452 2.69333C33.2273 2.69333 32.4859 2.95111 31.9211 3.46667C31.3561 3.98221 31.0738 4.62221 31.0738 5.38667C31.0738 6.15111 31.3561 6.79111 31.9211 7.30667ZM52.7721 11.04C51.6953 9.97333 50.2655 9.44 48.4826 9.44C47.5647 9.44 46.7173 9.6 45.9407 9.92C45.164 10.2222 44.4932 10.6667 43.9284 11.2533V9.68H39.1357V24.1333H44.1666V17.1467C44.1666 16.0089 44.4226 15.1556 44.9345 14.5867C45.464 14.0177 46.1614 13.7333 47.0263 13.7333C48.5974 13.7333 49.3829 14.72 49.3829 16.6933V24.1333H54.4138V15.8667C54.4138 13.7156 53.8665 12.1067 52.7721 11.04ZM66.6808 23.5467C66.2572 23.8133 65.7365 24.0177 65.1186 24.16C64.5184 24.3023 63.8742 24.3733 63.1857 24.3733C61.3146 24.3733 59.8759 23.9111 58.8698 22.9867C57.8636 22.0623 57.3604 20.6844 57.3604 18.8533V14H55.2687V10.2133H57.3604V6.45333H62.3913V10.2133H65.6747V14H62.3913V18.8C62.3913 19.3156 62.5237 19.7244 62.7885 20.0267C63.071 20.3111 63.4416 20.4533 63.9006 20.4533C64.4832 20.4533 64.9951 20.3023 65.4363 20L66.6808 23.5467ZM74.6049 9.94667C73.7928 10.2667 73.1309 10.7555 72.619 11.4133V9.68H67.8265V24.1333H72.8574V17.4933C72.8574 16.2844 73.1574 15.3867 73.7576 14.8C74.3755 14.2133 75.2227 13.92 76.2994 13.92C76.5996 13.92 76.9791 13.9467 77.438 14V9.44C76.3789 9.44 75.4346 9.60888 74.6049 9.94667ZM85.7925 24.3733C84.2569 24.3733 82.8712 24.0533 81.6355 23.4133C80.3998 22.7733 79.429 21.8844 78.7228 20.7467C78.0345 19.6089 77.6902 18.32 77.6902 16.88C77.6902 15.4577 78.0345 14.1777 78.7228 13.04C79.429 11.9022 80.391 11.0222 81.6091 10.4C82.8447 9.76 84.2392 9.44 85.7925 9.44C87.346 9.44 88.7405 9.76 89.9761 10.4C91.2118 11.0222 92.1739 11.9022 92.8622 13.04C93.5507 14.16 93.895 15.44 93.895 16.88C93.895 18.32 93.5507 19.6089 92.8622 20.7467C92.1739 21.8844 91.2118 22.7733 89.9761 23.4133C88.7405 24.0533 87.346 24.3733 85.7925 24.3733ZM85.7925 20.3467C86.6752 20.3467 87.3989 20.0444 87.9639 19.44C88.5287 18.8177 88.8111 17.9644 88.8111 16.88C88.8111 15.8133 88.5287 14.9777 87.9639 14.3733C87.3989 13.7689 86.6752 13.4667 85.7925 13.4667C84.91 13.4667 84.1863 13.7689 83.6213 14.3733C83.0565 14.9777 82.774 15.8133 82.774 16.88C82.774 17.9644 83.0565 18.8177 83.6213 19.44C84.1863 20.0444 84.91 20.3467 85.7925 20.3467ZM108.008 10.3733C106.949 9.75111 105.766 9.44 104.46 9.44C102.571 9.44 101.159 10 100.224 11.12V9.68H95.4312V29.3067H100.462V22.8533C101.451 23.8667 102.783 24.3733 104.46 24.3733C105.766 24.3733 106.949 24.0711 108.008 23.4667C109.085 22.8444 109.932 21.9733 110.55 20.8533C111.186 19.7156 111.503 18.4 111.503 16.9067C111.503 15.4133 111.186 14.1067 110.55 12.9867C109.932 11.8489 109.085 10.9778 108.008 10.3733ZM105.572 19.44C105.007 20.0444 104.284 20.3467 103.401 20.3467C102.518 20.3467 101.795 20.0444 101.23 19.44C100.665 18.8177 100.383 17.9733 100.383 16.9067C100.383 15.84 100.665 15.0044 101.23 14.4C101.795 13.7777 102.518 13.4667 103.401 13.4667C104.284 13.4667 105.007 13.7777 105.572 14.4C106.137 15.0044 106.42 15.84 106.42 16.9067C106.42 17.9733 106.137 18.8177 105.572 19.44ZM115.563 8.08C114.645 8.08 113.904 7.82221 113.339 7.30667C112.774 6.79111 112.491 6.15111 112.491 5.38667C112.491 4.62221 112.774 3.98221 113.339 3.46667C113.904 2.95111 114.645 2.69333 115.563 2.69333C116.481 2.69333 117.222 2.94221 117.787 3.44C118.352 3.92 118.634 4.54221 118.634 5.30667C118.634 6.10667 118.352 6.77333 117.787 7.30667C117.222 7.82221 116.481 8.08 115.563 8.08ZM132.124 11.0933C130.871 9.99111 129.053 9.44 126.67 9.44C125.522 9.44 124.375 9.59111 123.228 9.89333C122.098 10.1778 121.136 10.5867 120.342 11.12L122.036 14.56C122.531 14.1689 123.131 13.8667 123.837 13.6533C124.543 13.4223 125.24 13.3067 125.928 13.3067C127.87 13.3067 128.885 14.0711 128.973 15.6H126.114C123.943 15.6 122.336 15.9823 121.295 16.7467C120.253 17.4933 119.733 18.5511 119.733 19.92C119.733 20.7733 119.936 21.5377 120.342 22.2133C120.765 22.8711 121.383 23.3956 122.195 23.7867C123.007 24.1777 123.969 24.3733 125.081 24.3733C127.182 24.3733 128.594 23.6711 129.318 22.2667V24.1333H134.004V16.1067C134.004 13.8489 133.378 12.1778 132.124 11.0933ZM128.02 20.7467C127.579 21.0311 127.067 21.1733 126.485 21.1733C125.902 21.1733 125.443 21.04 125.108 20.7733C124.772 20.5067 124.605 20.1511 124.605 19.7067C124.605 18.7289 125.337 18.24 126.802 18.24H128.973V19.4933C128.779 20.0444 128.462 20.4623 128.02 20.7467ZM113.047 9.68H118.078V24.1333H113.047V9.68Z" fill="url(#paint0_linear_2066_1824)"/>
<defs>
<linearGradient id="paint0_linear_2066_1824" x1="67.0044" y1="0" x2="67.0044" y2="36.5" gradientUnits="userSpaceOnUse">
<stop stop-color="#F5D08D"/>
<stop offset="1" stop-color="#E78738"/>
</linearGradient>
</defs>
</svg>
