<svg width="159" height="34" viewBox="0 0 159 34" fill="none" xmlns="http://www.w3.org/2000/svg">
<path d="M54.8678 26.3512C53.2976 26.3512 51.8756 26.0005 50.6019 25.2991C49.3428 24.5825 48.3504 23.5989 47.6246 22.3485C46.9136 21.0981 46.5581 19.6877 46.5581 18.117C46.5581 16.5465 46.9209 15.136 47.6467 13.8856C48.3725 12.6352 49.365 11.6593 50.624 10.9579C51.8979 10.2413 53.3199 9.88279 54.8899 9.88279C56.1638 9.88279 57.3266 10.1116 58.3783 10.569C59.4299 11.0265 60.3186 11.6898 61.0444 12.5589L59.1781 14.3659C58.0525 13.1156 56.6674 12.4904 55.0232 12.4904C53.9569 12.4904 53.0014 12.7343 52.1571 13.2222C51.3127 13.695 50.6537 14.3583 50.1797 15.2122C49.7057 16.0661 49.4687 17.0344 49.4687 18.117C49.4687 19.1997 49.7057 20.1679 50.1797 21.022C50.6537 21.8759 51.3127 22.5468 52.1571 23.0346C53.0014 23.5074 53.9569 23.7438 55.0232 23.7438C56.6674 23.7438 58.0525 23.1109 59.1781 21.8452L61.0444 23.6751C60.3186 24.5442 59.4225 25.2076 58.356 25.665C57.3043 26.1225 56.1416 26.3512 54.8678 26.3512Z" fill="white"/>
<path d="M74.7068 13.9083V26.1224H72.0629V24.5671C71.6185 25.116 71.0631 25.5429 70.3965 25.8479C69.73 26.1376 69.0116 26.2825 68.2414 26.2825C66.6564 26.2825 65.4049 25.8326 64.4865 24.933C63.5829 24.018 63.1311 22.6686 63.1311 20.8846V13.9083H65.9085V20.4956C65.9085 21.5936 66.1455 22.417 66.6193 22.9659C67.1082 23.4996 67.797 23.7665 68.6858 23.7665C69.6782 23.7665 70.4631 23.4539 71.0408 22.8287C71.6333 22.1882 71.9296 21.2734 71.9296 20.084V13.9083H74.7068Z" fill="white"/>
<path d="M84.9198 13.7706C86.0752 13.7706 87.1047 14.0299 88.0082 14.5483C88.9265 15.0667 89.645 15.7988 90.1635 16.7441C90.6819 17.6896 90.941 18.7798 90.941 20.015C90.941 21.2501 90.6819 22.3479 90.1635 23.3086C89.645 24.254 88.9265 24.9859 88.0082 25.5044C87.1047 26.0228 86.0752 26.2821 84.9198 26.2821C84.1051 26.2821 83.3572 26.1372 82.6758 25.8475C82.0092 25.5577 81.4464 25.1232 80.9872 24.5437V26.122H78.3432V9.15034H81.1205V15.3946C81.5945 14.8609 82.15 14.4569 82.787 14.1824C83.4386 13.9078 84.1496 13.7706 84.9198 13.7706ZM84.6088 23.8346C85.6308 23.8346 86.4678 23.4839 87.1196 22.7825C87.786 22.0811 88.1193 21.1585 88.1193 20.015C88.1193 18.8713 87.786 17.9487 87.1196 17.2473C86.4678 16.5459 85.6308 16.1952 84.6088 16.1952C83.9422 16.1952 83.3424 16.3553 82.8091 16.6755C82.2759 16.9805 81.8538 17.4226 81.5427 18.0022C81.2316 18.5816 81.076 19.2525 81.076 20.015C81.076 20.7773 81.2316 21.4483 81.5427 22.0277C81.8538 22.6072 82.2759 23.0571 82.8091 23.3771C83.3424 23.6821 83.9422 23.8346 84.6088 23.8346Z" fill="white"/>
<path d="M104.729 20.0839C104.729 20.2821 104.714 20.5643 104.684 20.9302H95.3746C95.5376 21.8298 95.9598 22.5466 96.641 23.0803C97.3372 23.5987 98.1964 23.8579 99.2184 23.8579C100.522 23.8579 101.596 23.4158 102.44 22.5312L103.929 24.2925C103.396 24.9482 102.722 25.4438 101.907 25.7793C101.092 26.1148 100.174 26.2825 99.1518 26.2825C97.8483 26.2825 96.7003 26.0156 95.708 25.4819C94.7156 24.9482 93.9453 24.2086 93.3972 23.2633C92.864 22.3026 92.5974 21.22 92.5974 20.0154C92.5974 18.8259 92.8565 17.7585 93.3749 16.8132C93.9082 15.8525 94.6415 15.1052 95.5747 14.5716C96.5077 14.0379 97.5594 13.771 98.7296 13.771C99.885 13.771 100.914 14.0379 101.818 14.5716C102.736 15.09 103.447 15.8296 103.951 16.7902C104.469 17.7357 104.729 18.8336 104.729 20.0839ZM98.7296 16.0583C97.8409 16.0583 97.0854 16.3328 96.4634 16.8817C95.8561 17.4154 95.4858 18.1321 95.3525 19.0318H102.085C101.966 18.1473 101.603 17.4307 100.996 16.8817C100.389 16.3328 99.6332 16.0583 98.7296 16.0583Z" fill="white"/>
<path d="M110.04 15.6924C110.84 14.4114 112.247 13.771 114.262 13.771V16.493C114.025 16.4471 113.81 16.4243 113.617 16.4243C112.536 16.4243 111.692 16.7521 111.085 17.4078C110.477 18.0483 110.174 18.9784 110.174 20.1983V26.1224H107.396V13.9082H110.04V15.6924Z" fill="white"/>
<path d="M116.618 13.9079H119.395V26.1221H116.618V13.9079ZM118.018 11.8951C117.514 11.8951 117.092 11.735 116.751 11.4149C116.411 11.0795 116.24 10.6677 116.24 10.1797C116.24 9.69174 116.411 9.28771 116.751 8.96747C117.092 8.63201 117.514 8.46427 118.018 8.46427C118.521 8.46427 118.943 8.62439 119.284 8.94462C119.625 9.24962 119.795 9.63841 119.795 10.1111C119.795 10.6143 119.625 11.0412 119.284 11.3919C118.958 11.7274 118.536 11.8951 118.018 11.8951Z" fill="white"/>
<path d="M134.527 13.9083V26.1224H131.883V24.5671C131.439 25.116 130.884 25.5429 130.217 25.8479C129.55 26.1376 128.832 26.2825 128.062 26.2825C126.477 26.2825 125.225 25.8326 124.307 24.933C123.403 24.018 122.952 22.6686 122.952 20.8846V13.9083H125.729V20.4956C125.729 21.5936 125.966 22.417 126.44 22.9659C126.929 23.4996 127.618 23.7665 128.506 23.7665C129.499 23.7665 130.284 23.4539 130.861 22.8287C131.454 22.1882 131.75 21.2734 131.75 20.084V13.9083H134.527Z" fill="white"/>
<path d="M153.139 13.771C154.634 13.771 155.819 14.2209 156.694 15.1205C157.567 16.005 158.005 17.3392 158.005 19.1232V26.1224H155.227V19.4892C155.227 18.4218 154.998 17.6212 154.539 17.0876C154.08 16.5387 153.42 16.2641 152.561 16.2641C151.628 16.2641 150.881 16.5844 150.318 17.2248C149.755 17.8501 149.473 18.7497 149.473 19.9238V26.1224H146.695V19.4892C146.695 18.4218 146.466 17.6212 146.007 17.0876C145.548 16.5387 144.888 16.2641 144.029 16.2641C143.081 16.2641 142.326 16.5767 141.763 17.202C141.214 17.8272 140.941 18.7344 140.941 19.9238V26.1224H138.164V13.9082H140.808V15.4637C141.252 14.9146 141.807 14.4954 142.474 14.2056C143.14 13.9159 143.881 13.771 144.696 13.771C145.585 13.771 146.369 13.9465 147.05 14.2972C147.747 14.6326 148.295 15.1358 148.695 15.8068C149.183 15.1663 149.814 14.6707 150.584 14.32C151.355 13.9541 152.205 13.771 153.139 13.771Z" fill="white"/>
<path d="M14.7849 17.2843L1.33222 10.3443C0.727163 10.0321 0.00439453 10.4683 0.00439453 11.1456V25.2156C0.00439453 25.829 0.345797 26.392 0.891571 26.6788L14.3493 33.7508C14.9546 34.0689 15.6832 33.633 15.6832 32.9527V18.7534C15.6832 18.1355 15.3369 17.5691 14.7849 17.2843Z" fill="white"/>
<path d="M19.0812 17.2843L32.5339 10.3443C33.139 10.0321 33.8617 10.4683 33.8617 11.1456V25.2156C33.8617 25.829 33.5203 26.392 32.9745 26.6788L19.5168 33.7508C18.9114 34.0689 18.1828 33.633 18.1828 32.9527V18.7534C18.1828 18.1355 18.5291 17.5691 19.0812 17.2843Z" fill="white"/>
<path d="M1.7375 8.07974L15.9423 15.5352C16.5621 15.8605 17.3039 15.8605 17.9238 15.5352L32.1286 8.07974C32.7415 7.7581 32.7139 6.87682 32.082 6.59355L17.7742 0.179792C17.2394 -0.0599308 16.6266 -0.0599308 16.0918 0.179792L1.78402 6.59355C1.15213 6.87682 1.12454 7.7581 1.7375 8.07974Z" fill="white"/>
</svg>
