<svg width="280" height="168" viewBox="0 0 280 168" fill="none" xmlns="http://www.w3.org/2000/svg">
<path d="M67.538 20.234C63.884 20.234 61.112 17.516 61.112 13.754C61.112 9.974 63.884 7.256 67.556 7.256C70.778 7.256 72.758 9.236 73.424 11.342L70.85 12.386C70.418 10.82 69.32 9.794 67.484 9.794C65.342 9.794 63.83 11.378 63.83 13.754C63.83 16.112 65.342 17.696 67.502 17.696C69.338 17.696 70.418 16.688 70.85 15.104L73.424 16.148C72.74 18.326 70.742 20.234 67.538 20.234ZM79.3352 20.234C76.3292 20.234 74.2052 18.092 74.2052 15.266C74.2052 12.422 76.3292 10.298 79.3352 10.298C82.3232 10.298 84.4652 12.422 84.4652 15.266C84.4652 18.092 82.3232 20.234 79.3352 20.234ZM79.3532 17.858C80.7932 17.858 81.8012 16.778 81.8012 15.248C81.8012 13.736 80.8292 12.674 79.3532 12.674C77.8772 12.674 76.8872 13.736 76.8872 15.266C76.8872 16.778 77.8772 17.858 79.3532 17.858ZM92.1148 10.514H94.7788V20H92.2768V19.1C91.6108 19.784 90.6388 20.234 89.5048 20.234C87.0928 20.234 85.8328 18.578 85.8328 16.418V10.514H88.4968V16.076C88.4968 17.12 89.1808 17.858 90.2968 17.858C91.3948 17.858 92.1148 17.12 92.1148 16.13V10.514ZM96.6806 20V6.842H99.3446V20H96.6806ZM108.253 6.842H110.917V20H108.451V19.028C107.749 19.784 106.759 20.234 105.535 20.234C102.799 20.234 100.819 18.092 100.819 15.266C100.819 12.422 102.745 10.298 105.463 10.298C106.597 10.298 107.551 10.676 108.253 11.342V6.842ZM105.913 17.876C107.371 17.876 108.361 16.814 108.361 15.266C108.361 13.718 107.371 12.638 105.913 12.638C104.491 12.638 103.465 13.754 103.465 15.266C103.465 16.778 104.491 17.876 105.913 17.876ZM121.804 10.298C124.54 10.298 126.448 12.422 126.448 15.266C126.448 18.092 124.468 20.234 121.732 20.234C120.508 20.234 119.518 19.784 118.816 19.01V20H116.35V6.842H119.014V11.342C119.716 10.676 120.67 10.298 121.804 10.298ZM121.372 17.876C122.776 17.876 123.802 16.778 123.802 15.266C123.802 13.754 122.776 12.638 121.372 12.638C119.896 12.638 118.906 13.718 118.906 15.266C118.906 16.814 119.896 17.876 121.372 17.876ZM130.041 16.076C130.347 17.318 131.319 18.02 132.579 18.02C133.749 18.02 134.343 17.606 134.757 16.85L136.791 18.2C136.053 19.28 134.829 20.234 132.507 20.234C129.429 20.234 127.431 18.092 127.431 15.266C127.431 12.512 129.609 10.298 132.327 10.298C135.387 10.298 137.205 12.692 137.205 15.068C137.205 15.482 137.187 15.842 137.151 16.076H130.041ZM130.005 14.33H134.703C134.451 13.088 133.623 12.314 132.399 12.314C131.175 12.314 130.275 13.034 130.005 14.33ZM146.983 8.714C146.029 8.714 145.489 9.272 145.489 10.244V10.514H147.541V12.782H145.489V20H142.825V12.782H141.385V10.514H142.825C142.825 8.12 144.229 6.626 146.893 6.626H147.559V8.714H146.983ZM153.146 20.234C150.14 20.234 148.016 18.092 148.016 15.266C148.016 12.422 150.14 10.298 153.146 10.298C156.134 10.298 158.276 12.422 158.276 15.266C158.276 18.092 156.134 20.234 153.146 20.234ZM153.164 17.858C154.604 17.858 155.612 16.778 155.612 15.248C155.612 13.736 154.64 12.674 153.164 12.674C151.688 12.674 150.698 13.736 150.698 15.266C150.698 16.778 151.688 17.858 153.164 17.858ZM165.925 10.514H168.589V20H166.087V19.1C165.421 19.784 164.449 20.234 163.315 20.234C160.903 20.234 159.643 18.578 159.643 16.418V10.514H162.307V16.076C162.307 17.12 162.991 17.858 164.107 17.858C165.205 17.858 165.925 17.12 165.925 16.13V10.514ZM175.873 10.28C178.141 10.28 179.581 11.81 179.581 14.024V20H176.935V14.546C176.935 13.34 176.143 12.656 175.063 12.656C174.001 12.656 173.173 13.412 173.155 14.384V20H170.491V10.514H173.011V11.396C173.659 10.73 174.649 10.28 175.873 10.28ZM188.409 6.842H191.073V20H188.607V19.028C187.905 19.784 186.915 20.234 185.691 20.234C182.955 20.234 180.975 18.092 180.975 15.266C180.975 12.422 182.901 10.298 185.619 10.298C186.753 10.298 187.707 10.676 188.409 11.342V6.842ZM186.069 17.876C187.527 17.876 188.517 16.814 188.517 15.266C188.517 13.718 187.527 12.638 186.069 12.638C184.647 12.638 183.621 13.754 183.621 15.266C183.621 16.778 184.647 17.876 186.069 17.876ZM203.707 10.514H206.173V20H203.707V18.956C203.023 19.766 202.033 20.234 200.791 20.234C198.055 20.234 196.075 18.092 196.075 15.266C196.075 12.422 198.055 10.46 200.791 10.46C202.033 10.46 203.023 10.892 203.707 11.666V10.514ZM201.169 17.876C202.627 17.876 203.617 16.814 203.617 15.266C203.617 13.718 202.627 12.638 201.169 12.638C199.747 12.638 198.721 13.754 198.721 15.266C198.721 16.778 199.747 17.876 201.169 17.876ZM212.501 20C210.143 20 208.937 18.596 208.937 16.454V12.782H207.317V10.514H208.127C208.775 10.514 209.099 10.172 209.099 9.488V8.012H211.691V10.514H213.995V12.782H211.601V16.13C211.601 17.138 212.123 17.678 213.059 17.678H214.067V20H212.501ZM216.683 14.6C215.837 14.6 215.189 13.952 215.189 13.106C215.189 12.242 215.837 11.594 216.683 11.594C217.529 11.594 218.177 12.242 218.177 13.106C218.177 13.952 217.529 14.6 216.683 14.6ZM216.683 20.18C215.837 20.18 215.189 19.532 215.189 18.704C215.189 17.822 215.837 17.174 216.683 17.174C217.529 17.174 218.177 17.822 218.177 18.704C218.177 19.532 217.529 20.18 216.683 20.18Z" fill="white"/>
<g filter="url(#filter0_b_13745_2524)">
<path d="M12.6094 71.3623L13.8294 77.4953H15.8628L14.6427 71.3623H12.6094Z" fill="white"/>
<path fill-rule="evenodd" clip-rule="evenodd" d="M9.06385 61.2581L9.03843 61.2837C9.33327 60.2564 10.2737 59.5051 11.387 59.5C11.387 60.6194 10.6413 61.5615 9.62649 61.8573C9.03326 62.4448 8.22725 62.7758 7.39131 62.7758H1.83004C1.27086 62.7758 0.813349 63.2358 0.813349 63.798C0.813349 64.3602 1.27086 64.8201 1.83004 64.8201H3.64482C3.51686 64.896 3.39525 64.9804 3.27726 65.0719C4.12235 64.4257 5.18148 64.1184 6.24496 64.2272L8.13091 64.4163H10.571C10.571 65.229 10.7387 66.0365 11.0691 66.7775C11.0717 66.7801 11.0729 66.7839 11.0742 66.7878C11.0755 66.7916 11.0768 66.7954 11.0793 66.798C11.1047 66.8593 11.1352 66.9206 11.1657 66.982C11.5622 67.7793 12.1316 68.4743 12.8331 69.0161L13.0923 69.2154L13.1228 69.2358L17.4844 72.5885V75.8595H18.2978C18.7451 75.8595 19.1111 76.2274 19.106 76.6823V77.5H15.8526L14.6326 71.3671H11.3792L9.32315 70.9893L7.32024 73.4058L8.13359 75.859H8.94694C9.39428 75.859 9.76029 76.227 9.76029 76.6767V77.4944H6.50689L4.88019 73.8147V72.6443C5.67121 72.0784 6.36107 71.3752 6.90942 70.55L6.9058 70.5493C5.85353 72.1286 4.27767 73.2887 2.4578 73.81L2.43238 73.8202L2.83906 75.8646H3.65241C4.09975 75.8646 4.46576 76.2325 4.46576 76.6823V77.5H1.21236L0.399009 73.4114L1.61903 71.3671V68.4334C1.61903 67.4266 1.97996 66.4504 2.63064 65.6838C2.64361 65.6684 2.65672 65.653 2.66996 65.6379H1.83004C0.818433 65.6379 0 64.815 0 63.8031C0 62.786 0.818433 61.9632 1.83004 61.9632H7.39131C8.02162 61.9632 8.62652 61.7128 9.06877 61.2631L9.06385 61.2581ZM23.3121 66.077L23.3132 66.077L22.9159 67.1569C22.8397 67.4737 22.5804 67.7139 22.2602 67.7651L20.7046 68.0257C20.4759 68.0666 20.2726 68.1995 20.1506 68.3937L17.497 72.5846L13.1303 69.2319L13.0998 69.2114L12.8406 69.0121C12.134 68.4703 11.5646 67.7753 11.1732 66.978L11.1732 66.9779L11.1732 66.9779C11.1427 66.9166 11.1122 66.8553 11.0868 66.794C11.0843 66.7914 11.083 66.7876 11.0817 66.7838L11.0817 66.7838L11.0817 66.7838C11.0804 66.7799 11.0792 66.7761 11.0766 66.7736C10.7462 66.0274 10.5784 65.225 10.5784 64.4124L14.5232 60.7735C15.123 60.2215 15.9059 59.9148 16.7192 59.9148H19.7337C20.3488 59.9148 20.9131 60.2675 21.1876 60.8195L21.5988 61.5766L21.5993 61.5768L22.3733 62.7755L24 64.0021L23.3135 66.0768L23.3121 66.077Z" fill="white"/>
<path d="M20.9157 65.6377H19.4314C18.8417 65.6377 18.2927 65.9341 17.9673 66.4248L15.2731 70.401C15.2274 70.4674 15.207 70.5492 15.207 70.6259C15.207 70.8507 15.39 71.0347 15.6137 71.0347C15.751 71.0347 15.878 70.9683 15.9543 70.8507L18.6485 66.8745C18.8214 66.6087 19.1213 66.4503 19.4364 66.4503H21.1546C21.3783 66.4503 21.5613 66.2663 21.5613 66.0414H21.1546L20.9157 65.6377Z" fill="white"/>
<path d="M19.7512 63.5947H18.0279C17.306 63.5947 16.6249 63.9372 16.1826 64.5096L13.102 68.6595C13.0461 68.7311 13.0156 68.818 13.0156 68.91C13.0156 69.1349 13.1986 69.3188 13.4223 69.3188C13.5494 69.3188 13.6663 69.2575 13.7426 69.1604L16.8231 65.0104C17.1129 64.6373 17.5551 64.4176 18.0279 64.4125H19.9291C20.0206 64.4125 20.107 64.3818 20.1731 64.3307L19.7512 63.5947Z" fill="white"/>
<path d="M19.0874 61.4105C19.0314 61.2521 18.8789 61.1396 18.7061 61.1396H17.3793C16.5609 61.1396 15.773 61.4667 15.1935 62.0494L11.1013 66.1636C11.025 66.2402 10.9844 66.3425 10.9844 66.4549C10.9844 66.6798 11.1674 66.8638 11.391 66.8638C11.4978 66.8638 11.6046 66.8229 11.6808 66.7462L15.773 62.632C16.2 62.2027 16.7795 61.9625 17.3844 61.9625H18.5129C18.5994 61.6763 18.823 61.4821 19.0874 61.4105Z" fill="white"/>
</g>
<path d="M34.4 61.8V71.944H39.52V73H33.28V61.8H34.4ZM43.9238 71.896L46.7238 65H47.8438L44.5638 73H43.2838L40.0038 65H41.1238L43.9238 71.896ZM50.416 62.536C50.416 62.7493 50.3413 62.9307 50.192 63.08C50.0427 63.2293 49.8613 63.304 49.648 63.304C49.4347 63.304 49.2533 63.2293 49.104 63.08C48.9547 62.9307 48.88 62.7493 48.88 62.536C48.88 62.3227 48.9547 62.1413 49.104 61.992C49.2533 61.8427 49.4347 61.768 49.648 61.768C49.8613 61.768 50.0427 61.8427 50.192 61.992C50.3413 62.1413 50.416 62.3227 50.416 62.536ZM50.176 73H49.12V65H50.176V73ZM55.3769 71.896L58.1769 65H59.2969L56.0169 73H54.7369L51.4569 65H52.5769L55.3769 71.896ZM59.6156 71.64H60.8956L59.9356 75.24H58.9756L59.6156 71.64ZM66.9794 69.192V61.8H68.0994V69.192C68.0994 70.0987 68.366 70.8133 68.8994 71.336C69.4434 71.848 70.19 72.104 71.1394 72.104C72.0887 72.104 72.83 71.848 73.3634 71.336C73.9074 70.8133 74.1794 70.0987 74.1794 69.192V61.8H75.2994V69.192C75.2994 70.408 74.9154 71.3787 74.1474 72.104C73.3687 72.8293 72.366 73.192 71.1394 73.192C69.9127 73.192 68.91 72.8293 68.1314 72.104C67.3634 71.3787 66.9794 70.408 66.9794 69.192ZM86.0294 73H84.8454L83.8054 70.248H78.4934L77.4534 73H76.2694L80.5734 61.8H81.7254L86.0294 73ZM81.1494 63.192L78.8934 69.192H83.4054L81.1494 63.192Z" fill="white"/>
<g filter="url(#filter1_b_13745_2524)">
<path d="M20 108.847L16.1219 107.779L10.7875 114.585L13.8296 105.446L10 102L6.16505 105.446L9.20712 114.585L3.8781 107.779L0 108.847V113.31L8.92125 116.217H1.71521L0.544768 120.668L4.70334 121.984L9.41208 117.521L8.86731 124H11.1327L10.5825 117.521L15.2913 121.984L19.4498 120.668L18.2848 116.217H11.0787L20 113.31V108.847Z" fill="white"/>
</g>
<path d="M31.584 111.74L37.12 117.5H35.648L30.4 112.076V117.5H29.28V106.3H30.4V111.42L35.488 106.3H36.96L31.584 111.74ZM40.7724 116.204L43.3644 109.5H44.4844L41.0604 118.236C40.7404 119.047 40.2924 119.671 39.7164 120.108C39.151 120.556 38.5217 120.753 37.8284 120.7V119.708C38.7884 119.825 39.519 119.271 40.0204 118.044L40.2284 117.548L36.6444 109.5H37.7644L40.7724 116.204ZM47.0566 107.036C47.0566 107.249 46.982 107.431 46.8326 107.58C46.6833 107.729 46.502 107.804 46.2886 107.804C46.0753 107.804 45.894 107.729 45.7446 107.58C45.5953 107.431 45.5206 107.249 45.5206 107.036C45.5206 106.823 45.5953 106.641 45.7446 106.492C45.894 106.343 46.0753 106.268 46.2886 106.268C46.502 106.268 46.6833 106.343 46.8326 106.492C46.982 106.641 47.0566 106.823 47.0566 107.036ZM46.8166 117.5H45.7606V109.5H46.8166V117.5ZM52.0175 116.396L54.8175 109.5H55.9375L52.6575 117.5H51.3775L48.0975 109.5H49.2175L52.0175 116.396ZM56.2563 116.14H57.5363L56.5763 119.74H55.6163L56.2563 116.14ZM63.62 113.692V106.3H64.74V113.692C64.74 114.599 65.0067 115.313 65.54 115.836C66.084 116.348 66.8307 116.604 67.78 116.604C68.7293 116.604 69.4707 116.348 70.004 115.836C70.548 115.313 70.82 114.599 70.82 113.692V106.3H71.94V113.692C71.94 114.908 71.556 115.879 70.788 116.604C70.0093 117.329 69.0067 117.692 67.78 117.692C66.5533 117.692 65.5507 117.329 64.772 116.604C64.004 115.879 63.62 114.908 63.62 113.692ZM82.67 117.5H81.486L80.446 114.748H75.134L74.094 117.5H72.91L77.214 106.3H78.366L82.67 117.5ZM77.79 107.692L75.534 113.692H80.046L77.79 107.692Z" fill="white"/>
<g filter="url(#filter2_b_13745_2524)">
<path d="M191.096 71.6429C190.139 73.6544 188.05 74.0324 188.05 74.0324L187.551 63.7857H191.946V62.4492H182.05V63.7857H186.445L185.946 74.0324C185.946 74.0324 183.857 73.6544 182.9 71.6429C181.268 71.6429 179.098 71.6429 179.098 71.6429V72.8579H180.351C180.351 72.8579 181.16 77.6235 186.998 77.6235C192.836 77.6235 193.645 72.8579 193.645 72.8579H194.898V71.6429C194.898 71.6429 192.728 71.6429 191.096 71.6429Z" fill="white"/>
<path d="M181.66 66.0554L175 71.8335L177.063 73.305L177.75 71.442C177.845 71.172 178.087 70.983 178.384 70.9425C179.152 70.8615 180.662 70.6995 181.242 70.659C182.038 70.5915 182.846 70.011 182.846 68.9984C182.846 68.3639 182.846 67.9859 182.846 67.9859H184.734C184.923 67.9859 185.071 67.8374 185.071 67.6484C185.071 67.5539 185.03 67.4594 184.95 67.3919C184.613 67.1084 183.682 66.2984 183.48 66.1364C183.183 65.8799 182.213 65.7044 181.66 66.0554Z" fill="white"/>
<path d="M192.339 66.0554L198.999 71.8335L196.936 73.305L196.262 71.442C196.168 71.172 195.925 70.983 195.628 70.9425C194.86 70.8615 193.35 70.6995 192.77 70.659C191.975 70.5915 191.166 70.011 191.166 68.9984C191.166 68.3639 191.166 67.9859 191.166 67.9859H189.278C189.09 67.9859 188.941 67.8374 188.941 67.6484C188.941 67.5539 188.982 67.4594 189.063 67.3919C189.4 67.1084 190.33 66.2984 190.532 66.1364C190.829 65.8799 191.786 65.7044 192.339 66.0554Z" fill="white"/>
<path d="M185.789 59.0135V61.619H189.308C189.564 61.619 189.658 61.2815 189.443 61.1465L188.108 60.3095L189.443 59.4725C189.658 59.3375 189.564 59 189.308 59H185.789V59.0135Z" fill="white"/>
<path d="M193.146 78.3934C192.957 78.2044 192.66 78.2179 192.472 78.3934C192.04 78.8255 191.461 79.0685 190.854 79.0685C190.247 79.0685 189.667 78.8255 189.236 78.3934C189.223 78.3799 189.209 78.3664 189.182 78.3529C189.169 78.3529 189.169 78.3394 189.155 78.3394C189.142 78.3259 189.115 78.3124 189.088 78.3124C189.074 78.3124 189.074 78.2989 189.074 78.2989C189.047 78.2854 189.034 78.2854 189.007 78.2719H188.993C188.966 78.2719 188.939 78.2719 188.926 78.2584H188.912C188.886 78.2584 188.859 78.2584 188.845 78.2584H188.832C188.805 78.2584 188.791 78.2719 188.764 78.2854H188.751C188.724 78.2989 188.71 78.3124 188.683 78.3124C188.683 78.3124 188.67 78.3124 188.67 78.3259C188.656 78.3394 188.629 78.3529 188.616 78.3664L188.602 78.3799C188.171 78.812 187.591 79.055 186.985 79.055C186.378 79.055 185.798 78.812 185.367 78.3799C185.353 78.3664 185.326 78.3529 185.313 78.3394L185.299 78.3259C185.272 78.3124 185.259 78.2989 185.232 78.2854C185.232 78.2854 185.218 78.2854 185.218 78.2719C185.192 78.2584 185.178 78.2584 185.151 78.2449H185.138C185.111 78.2449 185.097 78.2449 185.07 78.2314H185.057C185.03 78.2314 185.003 78.2314 184.989 78.2314H184.976C184.949 78.2314 184.922 78.2449 184.908 78.2584H184.895C184.868 78.2719 184.854 78.2854 184.827 78.2989C184.827 78.2989 184.814 78.2989 184.814 78.3124C184.787 78.3259 184.774 78.3394 184.747 78.3664C184.747 78.3664 184.733 78.3664 184.733 78.3799C184.302 78.812 183.722 79.055 183.115 79.055C182.509 79.055 181.929 78.812 181.497 78.3799C181.309 78.1909 181.012 78.1909 180.837 78.3799C180.648 78.569 180.648 78.866 180.837 79.0415C181.444 79.6625 182.252 80 183.129 80C183.843 80 184.517 79.7705 185.084 79.3385C185.636 79.7705 186.324 80 187.039 80C187.753 80 188.427 79.7705 188.993 79.3385C189.546 79.7705 190.234 80 190.948 80C191.811 80 192.62 79.6625 193.24 79.0415C193.335 78.8795 193.335 78.5825 193.146 78.3934Z" fill="white"/>
</g>
<path d="M209.4 62.8V72.944H214.52V74H208.28V62.8H209.4ZM217.26 63.536C217.26 63.7493 217.185 63.9307 217.036 64.08C216.886 64.2293 216.705 64.304 216.492 64.304C216.278 64.304 216.097 64.2293 215.948 64.08C215.798 63.9307 215.724 63.7493 215.724 63.536C215.724 63.3227 215.798 63.1413 215.948 62.992C216.097 62.8427 216.278 62.768 216.492 62.768C216.705 62.768 216.886 62.8427 217.036 62.992C217.185 63.1413 217.26 63.3227 217.26 63.536ZM217.02 74H215.964V66H217.02V74ZM220.093 68.096C220.093 68.7147 220.642 69.168 221.741 69.456C222.05 69.5307 222.253 69.584 222.349 69.616C222.445 69.6373 222.631 69.696 222.909 69.792C223.197 69.8773 223.394 69.952 223.501 70.016C223.618 70.08 223.778 70.1813 223.981 70.32C224.183 70.448 224.327 70.5813 224.413 70.72C224.498 70.848 224.578 71.0187 224.653 71.232C224.727 71.4347 224.765 71.6533 224.765 71.888C224.765 72.5707 224.493 73.1253 223.949 73.552C223.426 73.9787 222.733 74.192 221.869 74.192C221.122 74.192 220.477 74.0267 219.933 73.696C219.389 73.3547 219.005 72.9067 218.781 72.352L219.677 71.824C219.826 72.24 220.093 72.5707 220.477 72.816C220.871 73.0507 221.335 73.168 221.869 73.168C222.413 73.168 222.855 73.0613 223.197 72.848C223.538 72.6347 223.709 72.3147 223.709 71.888C223.709 71.2693 223.159 70.816 222.061 70.528C221.751 70.4533 221.549 70.4053 221.453 70.384C221.357 70.352 221.165 70.2933 220.877 70.208C220.599 70.112 220.402 70.032 220.285 69.968C220.178 69.904 220.023 69.808 219.821 69.68C219.618 69.5413 219.474 69.408 219.389 69.28C219.303 69.1413 219.223 68.9707 219.149 68.768C219.074 68.5547 219.037 68.3307 219.037 68.096C219.037 67.4453 219.293 66.9013 219.805 66.464C220.338 66.0267 220.994 65.808 221.773 65.808C222.413 65.808 222.978 65.952 223.469 66.24C223.97 66.528 224.338 66.928 224.573 67.44L223.693 67.952C223.394 67.2053 222.754 66.832 221.773 66.832C221.293 66.832 220.893 66.944 220.573 67.168C220.253 67.392 220.093 67.7013 220.093 68.096ZM230.736 65.808C231.877 65.808 232.848 66.2133 233.648 67.024C234.459 67.8347 234.864 68.8267 234.864 70C234.864 71.1733 234.459 72.1653 233.648 72.976C232.848 73.7867 231.877 74.192 230.736 74.192C229.317 74.192 228.24 73.6053 227.504 72.432V74H226.448V62.8H227.504V67.568C228.24 66.3947 229.317 65.808 230.736 65.808ZM228.416 72.256C229.024 72.864 229.771 73.168 230.656 73.168C231.541 73.168 232.288 72.864 232.896 72.256C233.504 71.6267 233.808 70.8747 233.808 70C233.808 69.1147 233.504 68.368 232.896 67.76C232.288 67.1413 231.541 66.832 230.656 66.832C229.771 66.832 229.024 67.1413 228.416 67.76C227.808 68.368 227.504 69.1147 227.504 70C227.504 70.8747 227.808 71.6267 228.416 72.256ZM243.324 72.992C242.503 73.792 241.511 74.192 240.348 74.192C239.164 74.192 238.167 73.792 237.356 72.992C236.545 72.1813 236.14 71.184 236.14 70C236.14 68.816 236.545 67.824 237.356 67.024C238.167 66.2133 239.164 65.808 240.348 65.808C241.521 65.808 242.513 66.2133 243.324 67.024C244.145 67.824 244.556 68.816 244.556 70C244.556 71.1733 244.145 72.1707 243.324 72.992ZM238.108 72.256C238.716 72.864 239.463 73.168 240.348 73.168C241.233 73.168 241.98 72.864 242.588 72.256C243.196 71.6267 243.5 70.8747 243.5 70C243.5 69.1147 243.196 68.368 242.588 67.76C241.98 67.1413 241.233 66.832 240.348 66.832C239.463 66.832 238.716 67.1413 238.108 67.76C237.5 68.368 237.196 69.1147 237.196 70C237.196 70.8747 237.5 71.6267 238.108 72.256ZM250.067 65.808C251.027 65.808 251.79 66.1067 252.355 66.704C252.92 67.2907 253.203 68.0853 253.203 69.088V74H252.147V69.088C252.147 68.3733 251.955 67.8187 251.571 67.424C251.198 67.0293 250.664 66.832 249.971 66.832C249.171 66.832 248.536 67.0827 248.067 67.584C247.608 68.0853 247.379 68.8267 247.379 69.808V74H246.323V66H247.379V67.248C247.976 66.288 248.872 65.808 250.067 65.808ZM255.725 72.64H257.005L256.045 76.24H255.085L255.725 72.64ZM263.249 62.8H267.249C268.251 62.8 269.089 63.136 269.761 63.808C270.433 64.48 270.769 65.3173 270.769 66.32C270.769 67.3227 270.433 68.16 269.761 68.832C269.089 69.504 268.251 69.84 267.249 69.84H264.369V74H263.249V62.8ZM264.369 68.784H267.249C267.942 68.784 268.513 68.5547 268.961 68.096C269.419 67.6373 269.649 67.0453 269.649 66.32C269.649 65.6053 269.419 65.0187 268.961 64.56C268.513 64.0907 267.942 63.856 267.249 63.856H264.369V68.784ZM271.414 62.8H279.414V63.856H275.974V74H274.854V63.856H271.414V62.8Z" fill="white"/>
<path d="M183.504 111.746C187.94 111.679 188.734 113.401 190.72 113.666V111.944C190.455 111.944 188.469 111.812 187.344 111.481C185.821 111.282 183.835 109.296 177.348 110.157V112.341C178.407 112.209 182.246 111.679 183.504 111.746Z" fill="white"/>
<path d="M188.469 113.798C185.49 113.07 177.546 114.658 177.281 114.658C177.281 114.658 177.281 116.512 177.281 116.976C185.027 115.784 188.205 115.056 190.72 115.519V114.791C190.72 114.725 189.793 114.063 188.469 113.798Z" fill="white"/>
<path d="M190.72 106.648V104.794C190.72 104.794 188.006 104 184.034 104C180.062 104 177.281 104.794 177.281 104.794V105.456C178.009 105.589 189.992 106.582 190.72 106.648Z" fill="white"/>
<path d="M185.689 107.906C181.915 107.84 178.539 106.781 177.281 106.714V108.171C180.989 107.906 183.901 109.561 186.285 109.76C187.145 109.826 190.058 110.024 190.654 110.091V108.369C189.33 108.105 186.483 107.972 185.689 107.906Z" fill="white"/>
<path d="M177.943 118.895C178.076 119.094 178.738 120.882 184.034 123C184.232 122.934 188.205 121.477 189.661 119.558C190.389 118.564 190.654 117.571 190.72 116.976C190.389 117.042 178.009 118.895 177.943 118.895Z" fill="white"/>
<path d="M199.039 106.8H207.039V107.856H203.599V118H202.479V107.856H199.039V106.8ZM213.922 111.568V110H214.978V118H213.922V116.432C213.186 117.605 212.109 118.192 210.69 118.192C209.549 118.192 208.573 117.787 207.762 116.976C206.962 116.165 206.562 115.173 206.562 114C206.562 112.827 206.962 111.835 207.762 111.024C208.573 110.213 209.549 109.808 210.69 109.808C212.109 109.808 213.186 110.395 213.922 111.568ZM208.53 116.256C209.138 116.864 209.885 117.168 210.77 117.168C211.655 117.168 212.402 116.864 213.01 116.256C213.618 115.627 213.922 114.875 213.922 114C213.922 113.115 213.618 112.368 213.01 111.76C212.402 111.141 211.655 110.832 210.77 110.832C209.885 110.832 209.138 111.141 208.53 111.76C207.922 112.368 207.618 113.115 207.618 114C207.618 114.875 207.922 115.627 208.53 116.256ZM218.27 118H217.214V106.32H218.27V118ZM221.567 118H220.511V106.32H221.567V118ZM225.104 107.536C225.104 107.749 225.029 107.931 224.88 108.08C224.73 108.229 224.549 108.304 224.336 108.304C224.122 108.304 223.941 108.229 223.792 108.08C223.642 107.931 223.568 107.749 223.568 107.536C223.568 107.323 223.642 107.141 223.792 106.992C223.941 106.843 224.122 106.768 224.336 106.768C224.549 106.768 224.73 106.843 224.88 106.992C225.029 107.141 225.104 107.323 225.104 107.536ZM224.864 118H223.808V110H224.864V118ZM230.848 109.808C231.808 109.808 232.571 110.107 233.136 110.704C233.702 111.291 233.984 112.085 233.984 113.088V118H232.928V113.088C232.928 112.373 232.736 111.819 232.352 111.424C231.979 111.029 231.446 110.832 230.752 110.832C229.952 110.832 229.318 111.083 228.848 111.584C228.39 112.085 228.16 112.827 228.16 113.808V118H227.104V110H228.16V111.248C228.758 110.288 229.654 109.808 230.848 109.808ZM239.77 109.808C240.73 109.808 241.493 110.107 242.058 110.704C242.624 111.291 242.906 112.085 242.906 113.088V118H241.85V113.088C241.85 112.373 241.658 111.819 241.274 111.424C240.901 111.029 240.368 110.832 239.674 110.832C238.874 110.832 238.24 111.083 237.77 111.584C237.312 112.085 237.082 112.827 237.082 113.808V118H236.026V110H237.082V111.248C237.68 110.288 238.576 109.808 239.77 109.808ZM245.428 116.64H246.708L245.748 120.24H244.788L245.428 116.64ZM254.072 112.88V116.944H259.512V118H252.952V106.8H259.432V107.856H254.072V111.824H259.032V112.88H254.072ZM264.956 118.192C263.932 118.192 263.052 117.952 262.316 117.472C261.591 116.981 261.084 116.309 260.796 115.456L261.756 114.896C261.959 115.6 262.332 116.144 262.876 116.528C263.431 116.912 264.13 117.104 264.972 117.104C265.794 117.104 266.439 116.923 266.908 116.56C267.378 116.197 267.612 115.707 267.612 115.088C267.612 114.501 267.399 114.059 266.972 113.76C266.556 113.461 265.852 113.152 264.86 112.832C263.676 112.437 262.908 112.128 262.556 111.904C261.703 111.392 261.276 110.651 261.276 109.68C261.276 108.731 261.607 107.984 262.268 107.44C262.919 106.885 263.735 106.608 264.716 106.608C265.559 106.608 266.306 106.832 266.956 107.28C267.607 107.717 268.092 108.299 268.412 109.024L267.468 109.552C266.956 108.315 266.039 107.696 264.716 107.696C264.012 107.696 263.447 107.872 263.02 108.224C262.604 108.565 262.396 109.035 262.396 109.632C262.396 110.197 262.588 110.613 262.972 110.88C263.367 111.157 264.002 111.44 264.876 111.728L265.74 112.032C265.922 112.085 266.178 112.181 266.508 112.32C266.871 112.459 267.122 112.576 267.26 112.672C267.826 113.013 268.183 113.328 268.332 113.616C268.599 114.043 268.732 114.523 268.732 115.056C268.732 116.005 268.386 116.768 267.692 117.344C266.999 117.909 266.087 118.192 264.956 118.192ZM269.289 106.8H277.289V107.856H273.849V118H272.729V107.856H269.289V106.8Z" fill="white"/>
<path d="M86.1957 157.986C86.3197 157.712 86.4447 157.44 86.5585 157.192C87.2099 155.773 87.2069 155.761 87.1695 155.612C86.6672 153.609 84.5445 152.668 84.0091 152.46C83.727 151.814 83.1995 151.084 82.2151 150.532C80.5899 149.621 79.962 148.259 79.9561 148.246C79.9113 148.145 79.817 148.073 79.7055 148.055C79.6695 148.049 78.8121 147.912 77.8053 148.094C76.9275 148.252 76.2082 148.603 75.6748 149.127C75.102 148.678 74.3238 148.513 73.7703 148.454C73.221 148.396 72.6813 148.421 72.551 148.464C72.4423 148.499 72.3564 148.589 72.33 148.698C72.2501 149.027 72.0012 149.396 71.7605 149.754C71.38 150.32 70.9875 150.903 71.073 151.528C69.7216 152.221 68.2892 153.53 68.0748 153.729C68.0362 153.765 68.0071 153.809 67.9898 153.858C67.9785 153.89 67.7137 154.648 67.5783 155.657C67.3933 157.036 67.5365 158.172 68.0041 159.032C68.018 159.058 68.033 159.083 68.0475 159.108C67.62 159.868 67.7852 160.561 67.9312 161.174C68.045 161.65 68.1432 162.062 67.9829 162.475C67.9464 162.569 67.9578 162.677 68.0127 162.762C68.1321 162.948 69.6874 164.028 71.3245 164.194C71.3519 164.301 71.3871 164.41 71.4333 164.519C71.8058 165.402 72.709 166.105 74.1177 166.611C74.8386 166.869 75.3479 167.115 75.7973 167.331C76.3537 167.599 76.8342 167.83 77.4642 167.95C77.6399 167.983 77.819 168 78.0003 168C78.855 168 79.7601 167.633 80.6003 166.936C80.7686 166.797 81.0094 166.66 81.2643 166.516C82.1401 166.019 83.3339 165.34 83.2658 163.607C83.4191 163.525 83.5694 163.436 83.716 163.339C83.7374 163.361 83.762 163.38 83.7901 163.395C83.9232 163.469 84.0556 163.502 84.1874 163.502C84.7759 163.502 85.3513 162.842 85.911 162.2C86.3306 161.719 86.8062 161.173 87.1931 161.023C87.2922 160.985 87.4634 160.876 87.4949 160.58C87.5596 159.976 86.9978 158.604 86.1957 157.986ZM86.5018 155.69C86.4307 155.88 86.1766 156.434 85.9497 156.928C85.6117 157.664 85.3168 158.312 85.1081 158.812C85.0715 158.701 85.0338 158.59 84.9958 158.478C84.8102 157.93 84.6182 157.363 84.5439 156.801C84.4738 156.272 84.3248 155.816 84.0997 155.435C84.3481 154.803 84.4074 154.025 84.2663 153.293C84.9878 153.662 86.1492 154.434 86.5018 155.69ZM82.1733 163.411C81.4976 163.72 80.7318 164.07 79.9538 164.733C78.9503 165.59 77.6798 165.296 76.8521 164.637C77.0755 164.479 77.2858 164.289 77.4798 164.066C78.2613 163.97 79.0625 163.698 79.8175 163.258C81.1906 162.458 82.2376 161.197 82.6903 159.8C83.2743 157.997 82.6524 156.022 81.6694 154.763C82.019 154.771 82.5378 154.847 82.9857 155.167C83.4767 155.519 83.7785 156.096 83.8828 156.884C83.9652 157.507 84.1672 158.104 84.3627 158.68C84.6656 159.575 84.9517 160.419 84.6709 161.108C84.0894 162.535 83.2439 162.922 82.1733 163.411ZM71.564 161.564C71.2799 160.964 70.9267 160.569 70.615 160.221C70.1859 159.741 69.8469 159.362 69.7367 158.569C69.4815 156.731 70.6707 154.958 71.9191 154.222C72.2627 154.019 72.5866 153.911 72.854 153.902C72.1279 154.689 71.3201 155.99 71.3467 157.267C71.3626 158.037 71.6787 158.67 72.286 159.151C72.4462 159.278 72.6118 159.389 72.7817 159.486C72.5917 160.058 72.6793 160.902 73.0234 161.675C73.3133 162.327 74.0408 163.488 75.6556 163.944C75.9257 164.02 76.2065 164.068 76.4941 164.09C76.0173 164.439 75.4737 164.586 74.8926 164.517C73.6319 164.368 72.3565 163.237 71.564 161.564ZM73.3204 151.182C73.8571 150.787 74.9665 150.244 76.367 151.045C77.3809 151.625 78.3638 151.845 79.1536 152.022C80.2408 152.265 80.8186 152.422 81.0412 153.066C81.1895 153.496 80.8981 153.778 80.7622 153.882C80.0743 153.399 79.3376 153.255 78.6851 153.486C78.3491 153.185 77.9492 152.944 77.4942 152.776C76.1332 152.271 74.5705 152.501 73.4452 153.357C73.0307 153.186 72.5097 153.227 71.9507 153.473C71.9775 152.68 72.6253 151.693 73.3204 151.182ZM75.8413 163.321C74.4889 162.94 73.8786 161.965 73.6352 161.418C73.3453 160.767 73.2974 160.14 73.3934 159.761C73.5406 159.811 73.6901 159.85 73.8415 159.879C74.192 160.726 75.0914 161.406 76.1326 161.597C76.3355 161.634 76.5383 161.653 76.7396 161.653C77.7988 161.653 78.8174 161.145 79.6027 160.208C80.5116 159.123 81.3533 157.633 79.8346 155.694C79.7444 155.066 79.5193 154.504 79.1783 154.033C79.7898 153.961 80.3524 154.361 80.6578 154.635C81.8032 155.661 82.6388 157.801 82.0544 159.605C81.65 160.853 80.7098 161.982 79.4747 162.702C78.267 163.406 76.9426 163.632 75.8413 163.321ZM73.7047 153.989C74.6408 153.184 76.0683 152.94 77.2566 153.381C77.7319 153.557 78.4642 153.957 78.8858 154.818C78.3553 154.473 77.7423 154.257 77.1038 154.202C76.2624 154.13 75.4706 154.357 74.9309 154.825C73.9511 155.675 73.5921 156.72 73.9458 157.691C74.1963 158.38 74.7886 158.929 75.4386 159.118C74.7665 159.355 73.7428 159.469 72.707 158.649C72.2584 158.294 72.025 157.825 72.0132 157.254C71.9952 156.391 72.5819 154.953 73.7047 153.989ZM76.0689 158.612C75.8704 158.455 75.7468 158.232 75.7208 157.985C75.6948 157.737 75.7694 157.495 75.931 157.302C76.0926 157.109 76.3218 156.989 76.5764 156.963C76.6096 156.96 76.6427 156.958 76.6757 156.958C76.8952 156.958 77.1063 157.031 77.2789 157.168C77.6886 157.492 77.7504 158.08 77.4168 158.478C77.2552 158.671 77.026 158.791 76.7714 158.816C76.517 158.842 76.2673 158.769 76.0689 158.612ZM76.6709 159.469C76.7267 159.469 76.783 159.466 76.8393 159.461C77.271 159.418 77.6597 159.214 77.9338 158.887C78.4995 158.212 78.3946 157.215 77.6999 156.665C77.3634 156.399 76.9402 156.276 76.5086 156.319C76.0768 156.362 75.6881 156.565 75.4141 156.893C75.14 157.22 75.0134 157.631 75.0576 158.05C75.0627 158.099 75.0703 158.147 75.0798 158.195C74.8589 158.007 74.6763 157.755 74.5743 157.475C74.3116 156.754 74.5959 155.984 75.3749 155.309C75.7778 154.959 76.3864 154.791 77.0451 154.848C77.9047 154.921 78.7099 155.35 79.2541 156.023C80.475 157.533 80.0698 158.625 79.0858 159.799C78.0242 161.066 76.8574 161.07 76.2561 160.96C75.5621 160.833 74.9519 160.441 74.6176 159.934C74.7216 159.929 74.826 159.92 74.9307 159.906C75.2634 159.86 75.7723 159.74 76.3157 159.431C76.4314 159.456 76.5504 159.469 76.6709 159.469ZM77.9085 148.734C78.5599 148.614 79.1537 148.647 79.4305 148.674C79.6652 149.107 80.3952 150.26 81.8821 151.093C82.9817 151.709 83.4048 152.584 83.5661 153.208C83.7194 153.802 83.6932 154.373 83.5935 154.816C83.5259 154.756 83.4554 154.699 83.381 154.646C82.6836 154.146 81.8772 154.1 81.4507 154.118C81.6853 153.821 81.8551 153.387 81.673 152.86C81.3214 151.842 80.3861 151.633 79.3032 151.39C78.5191 151.215 77.6305 151.016 76.7051 150.487C76.3718 150.296 76.0517 150.167 75.747 150.087C76.1849 149.373 76.9099 148.918 77.9085 148.734ZM72.3185 150.109C72.544 149.774 72.7759 149.429 72.9095 149.071C73.3752 149.05 74.563 149.088 75.2553 149.63C75.1799 149.742 75.1106 149.858 75.0478 149.98C74.0999 149.941 73.3564 150.343 72.9181 150.665C72.7409 150.796 72.5742 150.942 72.4201 151.1C72.2087 151.108 71.9785 151.158 71.7379 151.24C71.7881 150.898 72.0469 150.512 72.3185 150.109ZM68.596 154.142C68.783 153.973 69.3802 153.444 70.089 152.925C70.8503 152.368 71.4029 152.067 71.7973 151.91C71.411 152.555 71.2187 153.26 71.3089 153.837C69.9531 154.773 68.7977 156.652 69.076 158.656C69.1268 159.021 69.2215 159.321 69.3431 159.579C69.032 159.36 68.7837 159.079 68.5944 158.731C67.713 157.111 68.4486 154.603 68.596 154.142ZM68.5807 161.027C68.4699 160.562 68.3714 160.149 68.5032 159.718C68.9139 160.146 69.4461 160.45 70.0938 160.626C70.0999 160.633 70.1059 160.639 70.1119 160.646C70.4081 160.977 70.7144 161.32 70.9585 161.835C71.1075 162.149 71.274 162.448 71.4546 162.73C71.4502 162.737 71.4458 162.745 71.4418 162.753C71.3443 162.955 71.2695 163.226 71.2558 163.533C70.1216 163.378 69.0696 162.747 68.6793 162.474C68.8046 161.965 68.691 161.489 68.5807 161.027ZM80.9285 165.956C80.6471 166.116 80.3813 166.266 80.1678 166.444C79.3072 167.157 78.3926 167.466 77.5923 167.314C77.0501 167.211 76.6279 167.008 76.0934 166.75C75.6291 166.527 75.1028 166.273 74.3486 166.003C73.1395 165.569 72.3446 164.971 72.0501 164.274C71.9045 163.929 71.9016 163.62 71.9369 163.395C72.1626 163.67 72.4037 163.919 72.6568 164.138C73.3313 164.72 74.0765 165.074 74.812 165.161C74.9309 165.175 75.049 165.182 75.1659 165.182C75.5376 165.182 75.8979 165.111 76.2379 164.974C76.242 164.978 76.2459 164.982 76.2503 164.986C76.7727 165.461 77.4583 165.787 78.1311 165.882C78.2738 165.902 78.4148 165.912 78.5539 165.912C79.2294 165.912 79.8588 165.677 80.3936 165.22C81.1007 164.617 81.7902 164.302 82.457 163.997C82.5035 163.976 82.55 163.955 82.5963 163.933C82.5159 165.055 81.7102 165.513 80.9285 165.956ZM85.4026 161.781C85.1031 162.125 84.6927 162.596 84.3958 162.775C84.7345 162.422 85.0381 161.967 85.2906 161.347C85.4809 160.88 85.4875 160.401 85.4029 159.909C85.4263 159.876 85.4444 159.838 85.454 159.796C85.5023 159.586 85.689 159.13 85.9175 158.609C86.478 159.14 86.8383 160.149 86.8362 160.469C86.336 160.711 85.862 161.254 85.4026 161.781Z" fill="white"/>
<path d="M97.9 151.3V161.444H103.02V162.5H96.78V151.3H97.9ZM110.018 158.692V154.5H111.074V162.5H110.018V161.252C109.42 162.212 108.524 162.692 107.33 162.692C106.37 162.692 105.607 162.399 105.042 161.812C104.476 161.215 104.194 160.415 104.194 159.412V154.5H105.25V159.412C105.25 160.127 105.436 160.681 105.81 161.076C106.194 161.471 106.732 161.668 107.426 161.668C108.226 161.668 108.855 161.417 109.314 160.916C109.783 160.415 110.018 159.673 110.018 158.692ZM116.908 158.356L120.028 162.5H118.764L116.268 159.204L113.772 162.5H112.508L115.644 158.356L112.715 154.5H113.98L116.268 157.524L118.556 154.5H119.82L116.908 158.356ZM124.597 154.308C125.792 154.308 126.747 154.729 127.461 155.572C128.197 156.404 128.565 157.391 128.565 158.532C128.565 158.585 128.555 158.751 128.533 159.028H121.509C121.616 159.828 121.957 160.468 122.533 160.948C123.109 161.428 123.829 161.668 124.693 161.668C125.909 161.668 126.768 161.215 127.269 160.308L128.197 160.852C127.845 161.428 127.36 161.881 126.741 162.212C126.133 162.532 125.445 162.692 124.677 162.692C123.419 162.692 122.395 162.297 121.605 161.508C120.816 160.719 120.421 159.716 120.421 158.5C120.421 157.295 120.811 156.297 121.589 155.508C122.368 154.708 123.371 154.308 124.597 154.308ZM124.597 155.332C123.765 155.332 123.067 155.577 122.501 156.068C121.947 156.559 121.616 157.204 121.509 158.004H127.477C127.36 157.151 127.035 156.495 126.501 156.036C125.947 155.567 125.312 155.332 124.597 155.332ZM138.773 154.308C139.68 154.308 140.405 154.596 140.949 155.172C141.493 155.748 141.765 156.527 141.765 157.508V162.5H140.709V157.508C140.709 156.825 140.533 156.292 140.181 155.908C139.829 155.524 139.354 155.332 138.757 155.332C138.064 155.332 137.52 155.561 137.125 156.02C136.73 156.479 136.533 157.161 136.533 158.068V162.5H135.477V157.508C135.477 156.815 135.312 156.281 134.981 155.908C134.65 155.524 134.192 155.332 133.605 155.332C132.933 155.332 132.378 155.567 131.941 156.036C131.514 156.505 131.301 157.183 131.301 158.068V162.5H130.245V154.5H131.301V155.668C131.877 154.761 132.693 154.308 133.749 154.308C134.912 154.308 135.722 154.793 136.181 155.764C136.757 154.793 137.621 154.308 138.773 154.308ZM148.096 154.308C149.237 154.308 150.208 154.713 151.008 155.524C151.818 156.335 152.224 157.327 152.224 158.5C152.224 159.673 151.818 160.665 151.008 161.476C150.208 162.287 149.237 162.692 148.096 162.692C146.677 162.692 145.6 162.105 144.864 160.932V162.5H143.808V151.3H144.864V156.068C145.6 154.895 146.677 154.308 148.096 154.308ZM145.776 160.756C146.384 161.364 147.13 161.668 148.016 161.668C148.901 161.668 149.648 161.364 150.256 160.756C150.864 160.127 151.168 159.375 151.168 158.5C151.168 157.615 150.864 156.868 150.256 156.26C149.648 155.641 148.901 155.332 148.016 155.332C147.13 155.332 146.384 155.641 145.776 156.26C145.168 156.868 144.864 157.615 144.864 158.5C144.864 159.375 145.168 160.127 145.776 160.756ZM160.683 161.492C159.862 162.292 158.87 162.692 157.707 162.692C156.523 162.692 155.526 162.292 154.715 161.492C153.905 160.681 153.499 159.684 153.499 158.5C153.499 157.316 153.905 156.324 154.715 155.524C155.526 154.713 156.523 154.308 157.707 154.308C158.881 154.308 159.873 154.713 160.683 155.524C161.505 156.324 161.915 157.316 161.915 158.5C161.915 159.673 161.505 160.671 160.683 161.492ZM155.467 160.756C156.075 161.364 156.822 161.668 157.707 161.668C158.593 161.668 159.339 161.364 159.947 160.756C160.555 160.127 160.859 159.375 160.859 158.5C160.859 157.615 160.555 156.868 159.947 156.26C159.339 155.641 158.593 155.332 157.707 155.332C156.822 155.332 156.075 155.641 155.467 156.26C154.859 156.868 154.555 157.615 154.555 158.5C154.555 159.375 154.859 160.127 155.467 160.756ZM169.315 158.692V154.5H170.371V162.5H169.315V161.252C168.717 162.212 167.821 162.692 166.627 162.692C165.667 162.692 164.904 162.399 164.339 161.812C163.773 161.215 163.491 160.415 163.491 159.412V154.5H164.547V159.412C164.547 160.127 164.733 160.681 165.107 161.076C165.491 161.471 166.029 161.668 166.723 161.668C167.523 161.668 168.152 161.417 168.611 160.916C169.08 160.415 169.315 159.673 169.315 158.692ZM173.66 154.5V155.828C174.151 154.857 174.994 154.372 176.188 154.372V155.396C175.42 155.396 174.807 155.62 174.348 156.068C173.89 156.505 173.66 157.167 173.66 158.052V162.5H172.604V154.5H173.66ZM184.031 156.068V154.5H185.087V162.18C185.087 163.332 184.693 164.239 183.903 164.9C183.114 165.561 182.17 165.892 181.071 165.892C179.205 165.892 177.941 165.241 177.279 163.94L178.207 163.412C178.687 164.383 179.642 164.868 181.071 164.868C181.989 164.868 182.709 164.628 183.231 164.148C183.765 163.668 184.031 163.012 184.031 162.18V160.932C183.295 162.105 182.218 162.692 180.799 162.692C179.658 162.692 178.682 162.287 177.871 161.476C177.071 160.665 176.671 159.673 176.671 158.5C176.671 157.327 177.071 156.335 177.871 155.524C178.682 154.713 179.658 154.308 180.799 154.308C182.218 154.308 183.295 154.895 184.031 156.068ZM178.639 160.756C179.247 161.364 179.994 161.668 180.879 161.668C181.765 161.668 182.511 161.364 183.119 160.756C183.727 160.127 184.031 159.375 184.031 158.5C184.031 157.615 183.727 156.868 183.119 156.26C182.511 155.641 181.765 155.332 180.879 155.332C179.994 155.332 179.247 155.641 178.639 156.26C178.031 156.868 177.727 157.615 177.727 158.5C177.727 159.375 178.031 160.127 178.639 160.756ZM187.803 161.14H189.083L188.123 164.74H187.163L187.803 161.14ZM196.447 151.3V161.444H201.567V162.5H195.327V151.3H196.447ZM202.854 158.692V151.3H203.974V158.692C203.974 159.599 204.241 160.313 204.774 160.836C205.318 161.348 206.065 161.604 207.014 161.604C207.964 161.604 208.705 161.348 209.238 160.836C209.782 160.313 210.054 159.599 210.054 158.692V151.3H211.174V158.692C211.174 159.908 210.79 160.879 210.022 161.604C209.244 162.329 208.241 162.692 207.014 162.692C205.788 162.692 204.785 162.329 204.006 161.604C203.238 160.879 202.854 159.908 202.854 158.692Z" fill="white"/>
<defs>
<filter id="filter0_b_13745_2524" x="-48.0079" y="11.4921" width="120.016" height="114.016" filterUnits="userSpaceOnUse" color-interpolation-filters="sRGB">
<feFlood flood-opacity="0" result="BackgroundImageFix"/>
<feGaussianBlur in="BackgroundImageFix" stdDeviation="24.0039"/>
<feComposite in2="SourceAlpha" operator="in" result="effect1_backgroundBlur_13745_2524"/>
<feBlend mode="normal" in="SourceGraphic" in2="effect1_backgroundBlur_13745_2524" result="shape"/>
</filter>
<filter id="filter1_b_13745_2524" x="-48.0079" y="53.9921" width="116.016" height="118.016" filterUnits="userSpaceOnUse" color-interpolation-filters="sRGB">
<feFlood flood-opacity="0" result="BackgroundImageFix"/>
<feGaussianBlur in="BackgroundImageFix" stdDeviation="24.0039"/>
<feComposite in2="SourceAlpha" operator="in" result="effect1_backgroundBlur_13745_2524"/>
<feBlend mode="normal" in="SourceGraphic" in2="effect1_backgroundBlur_13745_2524" result="shape"/>
</filter>
<filter id="filter2_b_13745_2524" x="126.992" y="10.9921" width="120.016" height="117.016" filterUnits="userSpaceOnUse" color-interpolation-filters="sRGB">
<feFlood flood-opacity="0" result="BackgroundImageFix"/>
<feGaussianBlur in="BackgroundImageFix" stdDeviation="24.0039"/>
<feComposite in2="SourceAlpha" operator="in" result="effect1_backgroundBlur_13745_2524"/>
<feBlend mode="normal" in="SourceGraphic" in2="effect1_backgroundBlur_13745_2524" result="shape"/>
</filter>
</defs>
</svg>
