<svg width="149" height="28" viewBox="0 0 149 28" fill="none" xmlns="http://www.w3.org/2000/svg">
<mask id="mask0_2066_1825" style="mask-type:luminance" maskUnits="userSpaceOnUse" x="0" y="0" width="149" height="28">
<path d="M148.004 0H0.00439453V27.75H148.004V0Z" fill="white"/>
</mask>
<g mask="url(#mask0_2066_1825)">
<path fill-rule="evenodd" clip-rule="evenodd" d="M0.00439453 0.891566C0.00439453 0.399168 0.403562 0 0.89596 0H25.8964C26.3887 0 26.7879 0.399166 26.7879 0.891565V20.5781C26.7879 20.9188 26.5939 21.2297 26.2878 21.3792L13.6494 27.5552C13.3984 27.6778 13.1042 27.6758 12.8551 27.5495L0.492978 21.2855C0.193275 21.1337 0.00439453 20.8263 0.00439453 20.4903V0.891566ZM22.2579 10.4709V11.1125V16.5051V17.1709L17.4124 19.6463V15.107L19.1629 13.6665H7.56996L9.47787 15.3249V15.9483V19.6463L4.63842 17.0317V13.6665V11.1125V10.4951V10.4286V4.35807L9.47787 6.83347V8.45551V9.04258V11.0701L13.4391 11.0338V11.0399L17.4124 11.0701V9.04258V6.80926L22.2579 4.19466V8.84891V10.4286V10.4709Z" fill="white"/>
<path d="M40.8461 13.6604V17.0436H36.9818V7.14203H40.8461V10.5011H46.6485V7.14203H50.5189V17.0436H46.6485V13.6604H40.8461Z" fill="white"/>
<path d="M56.1296 7.15445H60.7207L66.0386 17.0561H61.6897L60.9266 15.3432H55.9661L55.1847 17.038H50.8116L56.1296 7.15445ZM57.0684 12.9466H59.7879L58.4312 10.0233L57.0684 12.9466Z" fill="white"/>
<path d="M78.9132 12.9223C78.671 16.2632 75.7395 17.2678 72.1658 17.2678C68.453 17.2678 65.3821 16.1844 65.4004 12.4259V11.7118C65.4004 7.97143 68.4288 6.8699 72.1658 6.8699C75.7395 6.8699 78.671 7.88064 78.9132 11.2215H74.9581C74.5947 10.2471 73.4923 10.0111 72.1658 10.0111C70.5911 10.0111 69.2464 10.3137 69.2707 11.9418V12.1839C69.2707 13.7999 70.5911 14.0965 72.1658 14.1146C73.4923 14.1146 74.5886 13.8785 74.9581 12.9041L78.9132 12.9223Z" fill="white"/>
<path d="M83.9421 13.6594V17.0426H80.0656V7.14099H83.9421V10.5H85.6319L89.266 7.12283H94.3417L89.1994 12.0736L94.3417 17.0244H89.266L85.6319 13.6412L83.9421 13.6594Z" fill="white"/>
<path d="M98.7203 7.14203V13.9026H106.455V17.0436H94.8439V7.14203H98.7203Z" fill="white"/>
<path d="M107.757 7.15445H119.356V9.69038H111.621V10.9553H119.356V13.2492H111.621V14.5141H119.356V17.0561H107.757V7.15445Z" fill="white"/>
<path d="M127.198 10.9738C129.96 11.113 133.86 11.3006 133.86 13.7881C133.86 16.6145 130.614 17.2864 127.132 17.2864C123.648 17.2864 120.777 16.8567 120.408 13.7881H124.454C124.902 14.5508 125.926 14.7504 127.132 14.7504C128.337 14.7504 129.808 14.5508 129.808 13.7881C129.808 13.3524 128.597 13.2858 127.052 13.1829C124.284 13.0437 120.39 12.85 120.39 10.3746C120.39 7.54212 123.636 6.86426 127.113 6.86426C130.59 6.86426 133.473 7.28187 133.843 10.3746H129.79C129.348 9.59388 128.324 9.40625 127.113 9.40625C125.901 9.40625 124.435 9.58782 124.435 10.3746C124.435 10.8407 125.641 10.8951 127.198 10.9738Z" fill="white"/>
<path d="M141.362 10.9738C144.124 11.113 148.024 11.3006 148.024 13.7881C148.024 16.6145 144.778 17.2864 141.296 17.2864C137.812 17.2864 134.941 16.8567 134.572 13.7881H138.618C139.067 14.5508 140.09 14.7504 141.296 14.7504C142.501 14.7504 143.973 14.5508 143.973 13.7881C143.973 13.3524 142.761 13.2858 141.216 13.1829C138.448 13.0437 134.554 12.85 134.554 10.3746C134.554 7.54212 137.8 6.86426 141.277 6.86426C144.754 6.86426 147.637 7.28187 148.007 10.3746H143.954C143.512 9.59388 142.488 9.40625 141.277 9.40625C140.066 9.40625 138.599 9.58782 138.599 10.3746C138.599 10.8407 139.805 10.8951 141.362 10.9738Z" fill="white"/>
</g>
</svg>
