<svg width="156" height="57" viewBox="0 0 156 57" fill="none" xmlns="http://www.w3.org/2000/svg">
<g filter="url(#filter0_d_1817_751)">
<path d="M14.3667 36.9302C11.733 36.9302 9.41511 36.6747 7.41293 36.1638C5.42614 35.6528 3.57797 35.018 1.86841 34.2593V26.0373H2.65388C4.37884 27.5083 6.28092 28.6386 8.36012 29.4283C10.4393 30.218 12.4569 30.6128 14.4129 30.6128C14.9057 30.6128 15.5526 30.5586 16.3535 30.4502C17.1697 30.3418 17.8243 30.1715 18.3171 29.9393C18.9178 29.676 19.4261 29.3122 19.8419 28.8477C20.2577 28.3677 20.4656 27.7406 20.4656 26.9664C20.4656 26.0993 20.1268 25.3948 19.4492 24.8528C18.7715 24.3109 17.9629 23.9161 17.0234 23.6683C15.8529 23.3586 14.5977 23.0645 13.2578 22.7857C11.9332 22.507 10.6934 22.1664 9.53833 21.7638C6.87388 20.8193 4.9641 19.5496 3.80899 17.9548C2.65388 16.36 2.07633 14.3625 2.07633 11.9625C2.07633 8.72643 3.43936 6.10966 6.16541 4.11225C8.89146 2.09935 12.2952 1.0929 16.3766 1.0929C18.425 1.0929 20.4579 1.30193 22.4755 1.72C24.5085 2.13806 27.5078 2.8742 29.1096 3.58645V11.4627H27.9043C26.626 10.3633 24.3237 9.28385 22.4755 8.52514C20.6428 7.76643 18.7561 7.38708 16.8155 7.38708C16.0608 7.38708 15.3832 7.44127 14.7825 7.54966C14.1819 7.65804 13.5504 7.86708 12.8881 8.17675C12.3491 8.42449 11.8793 8.7961 11.4789 9.29159C11.0939 9.77159 10.9014 10.3135 10.9014 10.9174C10.9014 11.8 11.2094 12.5045 11.8254 13.0309C12.4569 13.5419 13.6659 14.0064 15.4525 14.4245C16.6076 14.6877 17.7165 14.9432 18.7792 15.1909C19.8573 15.4387 21.0047 15.7793 22.2214 16.2129C24.6086 17.08 26.3798 18.249 27.5349 19.7199C28.7054 21.1754 29.2907 23.1032 29.2907 25.5032C29.2907 28.9406 27.943 31.7044 25.2478 33.7947C22.5679 35.8851 18.9409 36.9302 14.3667 36.9302Z" fill="white"/>
<path d="M64.1066 19.0232C64.1066 24.6128 62.6203 29.0102 59.6478 32.2154C56.6754 35.4205 52.6017 37.0231 47.4268 37.0231C42.2365 37.0231 38.1628 35.4051 35.2057 32.1689C32.2487 28.9173 30.7701 24.5354 30.7701 19.0232C30.7701 13.4645 32.2487 9.07481 35.2057 5.85418C38.1628 2.61806 42.2365 1 47.4268 1C52.6017 1 56.6754 2.61032 59.6478 5.83095C62.6203 9.03611 64.1066 13.4335 64.1066 19.0232ZM55.1891 18.9999C55.1891 16.9406 54.9735 15.1909 54.5423 13.7509C54.1264 12.2954 53.5643 11.1032 52.8558 10.1742C52.1165 9.22965 51.2772 8.55611 50.3377 8.15353C49.4136 7.73546 48.451 7.52643 47.4499 7.52643C46.3872 7.52643 45.4246 7.71998 44.5621 8.10708C43.6996 8.47869 42.868 9.15223 42.0671 10.1277C41.3586 11.0258 40.7811 12.218 40.3344 13.7045C39.9032 15.1909 39.6876 16.9638 39.6876 19.0232C39.6876 21.1445 39.8955 22.9096 40.3113 24.3186C40.7272 25.7122 41.297 26.8812 42.0209 27.8257C42.7602 28.7857 43.5995 29.4748 44.539 29.8928C45.4785 30.2954 46.4488 30.4967 47.4499 30.4967C48.4664 30.4967 49.4521 30.2799 50.407 29.8464C51.3619 29.3973 52.1858 28.7083 52.8789 27.7793C53.6182 26.7728 54.188 25.6038 54.5885 24.2722C54.9889 22.9251 55.1891 21.1677 55.1891 18.9999Z" fill="white"/>
<path d="M91.2525 36.3031H68.289V1.72H76.9292V29.707H91.2525V36.3031Z" fill="white"/>
<path d="M108.326 37.0231C103.706 37.0231 100.148 35.9005 97.6527 33.6554C95.1731 31.4102 93.9333 28.1277 93.9333 23.8077V1.72H102.574V23.2967C102.574 25.6967 103.02 27.4851 103.913 28.6619C104.822 29.8386 106.293 30.427 108.326 30.427C110.313 30.427 111.768 29.8618 112.692 28.7315C113.632 27.6012 114.101 25.7896 114.101 23.2967V1.72H122.742V23.7844C122.742 28.0425 121.525 31.3173 119.092 33.6089C116.674 35.8851 113.085 37.0231 108.326 37.0231Z" fill="white"/>
<path d="M139.076 36.9302C136.442 36.9302 134.124 36.6747 132.122 36.1638C130.135 35.6528 128.287 35.018 126.578 34.2593V26.0373H127.363C129.088 27.5083 130.99 28.6386 133.069 29.4283C135.148 30.218 137.166 30.6128 139.122 30.6128C139.615 30.6128 140.262 30.5586 141.063 30.4502C141.879 30.3418 142.533 30.1715 143.026 29.9393C143.627 29.676 144.135 29.3122 144.551 28.8477C144.967 28.3677 145.175 27.7406 145.175 26.9664C145.175 26.0993 144.836 25.3948 144.158 24.8528C143.481 24.3109 142.672 23.9161 141.733 23.6683C140.562 23.3586 139.307 23.0645 137.967 22.7857C136.642 22.507 135.403 22.1664 134.247 21.7638C131.583 20.8193 129.673 19.5496 128.518 17.9548C127.363 16.36 126.785 14.3625 126.785 11.9625C126.785 8.72643 128.149 6.10966 130.875 4.11225C133.601 2.09935 137.004 1.0929 141.086 1.0929C143.134 1.0929 145.167 1.30193 147.185 1.72C149.218 2.13806 151.652 2.8742 153.253 3.58645V11.3122H152.048C150.77 10.2129 149.033 9.28385 147.185 8.52514C145.352 7.76643 143.465 7.38708 141.525 7.38708C140.77 7.38708 140.092 7.44127 139.492 7.54966C138.891 7.65804 138.26 7.86708 137.597 8.17675C137.058 8.42449 136.589 8.7961 136.188 9.29159C135.803 9.77159 135.611 10.3135 135.611 10.9174C135.611 11.8 135.919 12.5045 136.535 13.0309C137.166 13.5419 138.375 14.0064 140.162 14.4245C141.317 14.6877 142.426 14.9432 143.488 15.1909C144.566 15.4387 145.714 15.7793 146.931 16.2129C149.318 17.08 151.089 18.249 152.244 19.7199C153.415 21.1754 154 23.1032 154 25.5032C154 28.9406 152.652 31.7044 149.957 33.7947C147.277 35.8851 143.65 36.9302 139.076 36.9302Z" fill="white"/>
</g>
<line y1="-0.477717" x2="66.3493" y2="-0.477717" transform="matrix(1 -1.23654e-07 -6.7413e-08 -1 2.00024 54.0234)" stroke="url(#paint0_linear_1817_751)" stroke-width="0.955433"/>
<line y1="-0.477717" x2="66.3493" y2="-0.477717" transform="matrix(1 -1.23211e-07 -6.75471e-08 -1 2.00024 47.1426)" stroke="url(#paint1_linear_1817_751)" stroke-width="0.955433"/>
<line y1="-0.477717" x2="66.3493" y2="-0.477717" transform="matrix(1 -1.23654e-07 -6.7413e-08 -1 2.00024 50.583)" stroke="url(#paint2_linear_1817_751)" stroke-width="0.955433"/>
<path d="M77.3171 50.9875C77.3171 50.3194 77.4372 49.7189 77.6774 49.186C77.9176 48.6531 78.2404 48.2252 78.6457 47.9024C79.0511 47.5722 79.5014 47.3245 79.9968 47.1593C80.4923 46.9867 81.0102 46.9004 81.5506 46.9004C82.4138 46.9004 83.2095 47.073 83.9376 47.4183L83.9376 48.6681C83.3296 48.2778 82.594 48.0826 81.7308 48.0826C80.8751 48.0826 80.1432 48.3265 79.5352 48.8144C78.9347 49.3023 78.6345 50.0267 78.6345 50.9875C78.6345 51.5279 78.7246 51.9971 78.9047 52.3949C79.0848 52.7852 79.3288 53.0855 79.6366 53.2956C79.9443 53.5058 80.2671 53.6597 80.6048 53.7573C80.9501 53.8548 81.3142 53.9036 81.697 53.9036C82.1624 53.9036 82.5565 53.8286 82.8792 53.6784L82.8792 50.6947L84.129 50.6947L84.129 54.5454C83.3408 54.8982 82.5039 55.0746 81.6182 55.0746C81.0477 55.0746 80.5148 54.9995 80.0194 54.8494C79.524 54.6918 79.0698 54.4553 78.657 54.1401C78.2442 53.8248 77.9176 53.397 77.6774 52.8565C77.4372 52.3161 77.3171 51.6931 77.3171 50.9875ZM96.0199 54.9282L94.7364 54.9282L94.7364 47.0467L97.8889 47.0467C98.2793 47.0467 98.6433 47.088 98.9811 47.1706C99.3264 47.2532 99.6491 47.3883 99.9494 47.5759C100.25 47.7561 100.486 48.0113 100.659 48.3416C100.831 48.6718 100.918 49.0622 100.918 49.5125C100.918 50.1731 100.741 50.6947 100.388 51.0776C100.036 51.4529 99.5741 51.7081 99.0036 51.8432L101.526 54.9282L99.9832 54.9282L97.6187 51.9783L96.0199 51.9783L96.0199 54.9282ZM96.0199 48.2177L96.0199 50.8411L97.9452 50.8411C98.4256 50.8411 98.8235 50.7398 99.1387 50.5371C99.454 50.3344 99.6116 50.0004 99.6116 49.535C99.6116 49.0697 99.454 48.7356 99.1387 48.533C98.8235 48.3228 98.4256 48.2177 97.9452 48.2177L96.0199 48.2177ZM111.292 52.5075C111.119 52.0271 111.033 51.5204 111.033 50.9875C111.033 50.4545 111.119 49.9479 111.292 49.4675C111.472 48.9871 111.727 48.5555 112.057 48.1727C112.388 47.7824 112.823 47.4746 113.363 47.2494C113.904 47.0167 114.508 46.9004 115.176 46.9004C115.844 46.9004 116.445 47.0167 116.978 47.2494C117.518 47.4746 117.953 47.7824 118.284 48.1727C118.622 48.5555 118.877 48.9871 119.049 49.4675C119.23 49.9479 119.32 50.4545 119.32 50.9875C119.32 51.5204 119.23 52.0271 119.049 52.5075C118.877 52.9879 118.622 53.4232 118.284 53.8136C117.953 54.1964 117.518 54.5041 116.978 54.7368C116.445 54.962 115.844 55.0746 115.176 55.0746C114.508 55.0746 113.904 54.962 113.363 54.7368C112.823 54.5041 112.388 54.1964 112.057 53.8136C111.727 53.4232 111.472 52.9879 111.292 52.5075ZM117.27 53.0367C117.766 52.4812 118.014 51.7982 118.014 50.9875C118.014 50.1768 117.766 49.4938 117.27 48.9383C116.783 48.3828 116.084 48.1051 115.176 48.1051C114.275 48.1051 113.577 48.3828 113.082 48.9383C112.587 49.4938 112.339 50.1768 112.339 50.9875C112.339 51.7982 112.587 52.4812 113.082 53.0367C113.577 53.5921 114.275 53.8699 115.176 53.8699C116.084 53.8699 116.783 53.5921 117.27 53.0367ZM135.11 47.0467L136.393 47.0467L136.393 52.0121C136.393 52.56 136.299 53.0404 136.112 53.4533C135.932 53.8586 135.68 54.1776 135.357 54.4103C135.042 54.6355 134.689 54.8044 134.299 54.917C133.916 55.022 133.496 55.0746 133.038 55.0746C132.58 55.0746 132.156 55.022 131.766 54.917C131.375 54.8044 131.019 54.6355 130.696 54.4103C130.373 54.1776 130.118 53.8586 129.93 53.4533C129.75 53.0404 129.66 52.56 129.66 52.0121L129.66 47.0467L130.944 47.0467L130.944 51.9445C130.944 53.2356 131.642 53.8811 133.038 53.8811C134.419 53.8811 135.11 53.2356 135.11 51.9445L135.11 47.0467ZM147.235 47.0467L150.05 47.0467C152.294 47.0467 153.416 47.91 153.416 49.6364C153.416 51.3628 152.294 52.226 150.05 52.226L148.518 52.226L148.518 54.9282L147.235 54.9282L147.235 47.0467ZM151.57 50.751C151.93 50.5409 152.11 50.1693 152.11 49.6364C152.11 49.1034 151.93 48.7356 151.57 48.533C151.217 48.3228 150.733 48.2177 150.117 48.2177L148.518 48.2177L148.518 51.055L150.117 51.055C150.733 51.055 151.217 50.9537 151.57 50.751Z" fill="white"/>
<defs>
<filter id="filter0_d_1817_751" x="0.95057" y="0.0821618" width="154.579" height="38.4705" filterUnits="userSpaceOnUse" color-interpolation-filters="sRGB">
<feFlood flood-opacity="0" result="BackgroundImageFix"/>
<feColorMatrix in="SourceAlpha" type="matrix" values="0 0 0 0 0 0 0 0 0 0 0 0 0 0 0 0 0 0 127 0" result="hardAlpha"/>
<feOffset dx="0.305946" dy="0.305946"/>
<feGaussianBlur stdDeviation="0.611892"/>
<feColorMatrix type="matrix" values="0 0 0 0 0 0 0 0 0 0 0 0 0 0 0 0 0 0 0.25 0"/>
<feBlend mode="normal" in2="BackgroundImageFix" result="effect1_dropShadow_1817_751"/>
<feBlend mode="normal" in="SourceGraphic" in2="effect1_dropShadow_1817_751" result="shape"/>
</filter>
<linearGradient id="paint0_linear_1817_751" x1="67.4932" y1="-0.500001" x2="-5.63263e-08" y2="-0.499993" gradientUnits="userSpaceOnUse">
<stop stop-color="#FFC500"/>
<stop offset="1" stop-color="#C31100"/>
</linearGradient>
<linearGradient id="paint1_linear_1817_751" x1="67.4932" y1="-0.500001" x2="-5.63263e-08" y2="-0.499993" gradientUnits="userSpaceOnUse">
<stop stop-color="#62F11E"/>
<stop offset="1" stop-color="#005F15"/>
</linearGradient>
<linearGradient id="paint2_linear_1817_751" x1="66.3493" y1="-0.499998" x2="-4.45612e-08" y2="-0.499992" gradientUnits="userSpaceOnUse">
<stop stop-color="#15C0D8"/>
<stop offset="1" stop-color="#231071"/>
</linearGradient>
</defs>
</svg>
