<svg width="148" height="28" viewBox="0 0 148 28" fill="none" xmlns="http://www.w3.org/2000/svg">
<path fill-rule="evenodd" clip-rule="evenodd" d="M0 0.891566C0 0.399168 0.399168 0 0.891566 0H25.892C26.3844 0 26.7835 0.399166 26.7835 0.891565V20.5781C26.7835 20.9188 26.5895 21.2297 26.2834 21.3792L13.645 27.5552C13.394 27.6778 13.0999 27.6758 12.8507 27.5495L0.488584 21.2855C0.18888 21.1337 0 20.8263 0 20.4903V0.891566ZM22.2535 10.4709V11.1125V16.5051V17.1709L17.408 19.6463V15.107L19.1585 13.6665H7.56556L9.47348 15.3249V15.9483V19.6463L4.63403 17.0317V13.6665V11.1125V10.4951V10.4286V4.35807L9.47348 6.83347V8.45551V9.04258V11.0701L13.4347 11.0338V11.0399L17.408 11.0701V9.04258V6.80926L22.2535 4.19466V8.84891V10.4286V10.4709Z" fill="url(#paint0_linear_2052_1067)"/>
<path d="M40.8417 13.6604V17.0436H36.9774V7.14203H40.8417V10.5011H46.6441V7.14203H50.5146V17.0436H46.6441V13.6604H40.8417Z" fill="url(#paint1_linear_2052_1067)"/>
<path d="M56.1252 7.15445H60.7163L66.0343 17.0561H61.6854L60.9222 15.3432H55.9617L55.1803 17.038H50.8073L56.1252 7.15445ZM57.0641 12.9466H59.7836L58.4268 10.0233L57.0641 12.9466Z" fill="url(#paint2_linear_2052_1067)"/>
<path d="M78.9089 12.9223C78.6667 16.2632 75.7351 17.2678 72.1615 17.2678C68.4486 17.2678 65.3778 16.1844 65.396 12.4259V11.7118C65.396 7.97143 68.4245 6.8699 72.1615 6.8699C75.7351 6.8699 78.6667 7.88064 78.9089 11.2215H74.9537C74.5903 10.2471 73.4879 10.0111 72.1615 10.0111C70.5868 10.0111 69.2421 10.3137 69.2663 11.9418V12.1839C69.2663 13.7999 70.5868 14.0965 72.1615 14.1146C73.4879 14.1146 74.5843 13.8785 74.9537 12.9041L78.9089 12.9223Z" fill="url(#paint3_linear_2052_1067)"/>
<path d="M83.9377 13.6594V17.0426H80.0613V7.14099H83.9377V10.5H85.6276L89.2617 7.12283H94.3374L89.1951 12.0736L94.3374 17.0244H89.2617L85.6276 13.6412L83.9377 13.6594Z" fill="url(#paint4_linear_2052_1067)"/>
<path d="M98.716 7.14203V13.9026H106.451V17.0436H94.8395V7.14203H98.716Z" fill="url(#paint5_linear_2052_1067)"/>
<path d="M107.753 7.15445H119.352V9.69038H111.617V10.9553H119.352V13.2492H111.617V14.5141H119.352V17.0561H107.753V7.15445Z" fill="url(#paint6_linear_2052_1067)"/>
<path d="M127.193 10.9738C129.956 11.113 133.856 11.3006 133.856 13.7881C133.856 16.6145 130.61 17.2864 127.127 17.2864C123.644 17.2864 120.773 16.8567 120.404 13.7881H124.45C124.898 14.5508 125.921 14.7504 127.127 14.7504C128.332 14.7504 129.804 14.5508 129.804 13.7881C129.804 13.3524 128.592 13.2858 127.048 13.1829C124.28 13.0437 120.385 12.85 120.385 10.3746C120.385 7.54212 123.632 6.86426 127.109 6.86426C130.586 6.86426 133.468 7.28187 133.838 10.3746H129.786C129.344 9.59388 128.319 9.40625 127.109 9.40625C125.897 9.40625 124.431 9.58782 124.431 10.3746C124.431 10.8407 125.637 10.8951 127.193 10.9738Z" fill="url(#paint7_linear_2052_1067)"/>
<path d="M141.357 10.9738C144.12 11.113 148.02 11.3006 148.02 13.7881C148.02 16.6145 144.774 17.2864 141.291 17.2864C137.808 17.2864 134.937 16.8567 134.568 13.7881H138.614C139.062 14.5508 140.085 14.7504 141.291 14.7504C142.496 14.7504 143.968 14.5508 143.968 13.7881C143.968 13.3524 142.756 13.2858 141.212 13.1829C138.444 13.0437 134.549 12.85 134.549 10.3746C134.549 7.54212 137.796 6.86426 141.273 6.86426C144.75 6.86426 147.632 7.28187 148.002 10.3746H143.95C143.508 9.59388 142.484 9.40625 141.273 9.40625C140.061 9.40625 138.595 9.58782 138.595 10.3746C138.595 10.8407 139.801 10.8951 141.357 10.9738Z" fill="url(#paint8_linear_2052_1067)"/>
<defs>
<linearGradient id="paint0_linear_2052_1067" x1="13.3917" y1="0" x2="13.3917" y2="31" gradientUnits="userSpaceOnUse">
<stop stop-color="#43536D"/>
<stop offset="1" stop-color="#43536D" stop-opacity="0"/>
</linearGradient>
<linearGradient id="paint1_linear_2052_1067" x1="141.284" y1="-1.5" x2="141.284" y2="28.5" gradientUnits="userSpaceOnUse">
<stop stop-color="#43536D"/>
<stop offset="1" stop-color="#43536D" stop-opacity="0"/>
</linearGradient>
<linearGradient id="paint2_linear_2052_1067" x1="141.284" y1="-1.5" x2="141.284" y2="28.5" gradientUnits="userSpaceOnUse">
<stop stop-color="#43536D"/>
<stop offset="1" stop-color="#43536D" stop-opacity="0"/>
</linearGradient>
<linearGradient id="paint3_linear_2052_1067" x1="141.284" y1="-1.5" x2="141.284" y2="28.5" gradientUnits="userSpaceOnUse">
<stop stop-color="#43536D"/>
<stop offset="1" stop-color="#43536D" stop-opacity="0"/>
</linearGradient>
<linearGradient id="paint4_linear_2052_1067" x1="141.284" y1="-1.5" x2="141.284" y2="28.5" gradientUnits="userSpaceOnUse">
<stop stop-color="#43536D"/>
<stop offset="1" stop-color="#43536D" stop-opacity="0"/>
</linearGradient>
<linearGradient id="paint5_linear_2052_1067" x1="141.284" y1="-1.5" x2="141.284" y2="28.5" gradientUnits="userSpaceOnUse">
<stop stop-color="#43536D"/>
<stop offset="1" stop-color="#43536D" stop-opacity="0"/>
</linearGradient>
<linearGradient id="paint6_linear_2052_1067" x1="141.284" y1="-1.5" x2="141.284" y2="28.5" gradientUnits="userSpaceOnUse">
<stop stop-color="#43536D"/>
<stop offset="1" stop-color="#43536D" stop-opacity="0"/>
</linearGradient>
<linearGradient id="paint7_linear_2052_1067" x1="141.284" y1="-1.5" x2="141.284" y2="28.5" gradientUnits="userSpaceOnUse">
<stop stop-color="#43536D"/>
<stop offset="1" stop-color="#43536D" stop-opacity="0"/>
</linearGradient>
<linearGradient id="paint8_linear_2052_1067" x1="141.284" y1="-1.5" x2="141.284" y2="28.5" gradientUnits="userSpaceOnUse">
<stop stop-color="#43536D"/>
<stop offset="1" stop-color="#43536D" stop-opacity="0"/>
</linearGradient>
</defs>
</svg>
