<svg width="143" height="43" viewBox="0 0 143 43" fill="none" xmlns="http://www.w3.org/2000/svg">
<path d="M82.5626 13.4258H77.4583V31.4611H82.5626V13.4258Z" fill="white"/>
<path d="M74.1614 20.7929C73.6053 19.7663 72.8307 18.9008 71.8774 18.2365C73.0492 16.8879 73.7443 15.0965 73.6649 13.1239C73.4861 9.23903 70.209 6.21973 66.3758 6.21973H55.7303V31.441H67.9052C71.8377 31.441 75.0353 28.2002 75.0353 24.2148C75.0353 22.9869 74.7175 21.8195 74.1614 20.7929ZM67.1107 27.1737H60.8346V20.9942H67.0908C68.7393 20.9942 70.1296 22.3227 70.1296 24.094C70.0899 25.8452 68.7195 27.1737 67.1107 27.1737ZM65.7601 16.7068H60.8147V10.5273H65.7403C67.3888 10.5273 68.779 11.8558 68.779 13.6271C68.7592 15.3783 67.3689 16.7068 65.7601 16.7068Z" fill="white"/>
<path d="M143 6.98438H137.121L132.533 14.4521L127.945 6.98438H122.066L129.594 19.2226L122.066 31.4609H127.945L132.533 23.9931L137.121 31.4609H143L135.473 19.2226L143 6.98438Z" fill="white"/>
<path d="M100.775 21.437V31.4611H95.671V20.5312C95.671 18.941 94.38 17.6528 92.7911 17.7132C91.2618 17.7534 90.09 19.1021 90.09 20.652V31.4611H84.9857V13.4258H90.09V14.2913C91.242 13.7478 92.5131 13.4258 93.8835 13.4258C94.5588 13.4258 95.2142 13.5063 95.8497 13.6472C98.6899 14.2913 100.676 16.8678 100.755 19.8066C100.775 20.3299 100.775 20.8734 100.775 21.437Z" fill="white"/>
<path d="M82.5626 6.23975H77.4583V11.4128H82.5626V6.23975Z" fill="white"/>
<path d="M120.696 13.4258H111.878C111.858 13.4258 111.818 13.4258 111.798 13.4258C106.892 13.4258 102.9 17.4716 102.9 22.4434C102.9 27.3951 106.853 31.4208 111.719 31.4611C111.739 31.4611 111.758 31.4611 111.798 31.4611C113.685 31.4611 115.592 32.0247 115.592 33.6954C115.592 35.3862 113.884 36.8354 111.798 36.8354C109.713 36.8354 108.005 35.1245 108.005 32.9909H102.9C102.9 37.9626 106.892 42.0085 111.798 42.0085C116.704 42.0085 120.696 37.9626 120.696 32.9909C120.696 32.9909 120.795 30.2936 118.551 28.321C119.902 26.751 120.716 24.6978 120.716 22.4434C120.716 20.7124 120.239 19.0819 119.385 17.7132H120.716V13.4258H120.696ZM111.798 26.288C109.713 26.288 108.005 24.5771 108.005 22.4434C108.005 20.3299 109.693 18.5989 111.798 18.5989C113.884 18.5989 115.592 20.3098 115.592 22.4434C115.592 24.5569 113.884 26.288 111.798 26.288Z" fill="white"/>
<path d="M47.329 0C41.8672 0 36.465 1.40901 31.6983 4.04586C29.1561 5.475 26.7926 7.2262 24.7072 9.27932C24.2107 9.76241 23.734 10.2656 23.2772 10.789C21.7281 12.52 20.3576 14.4121 19.2255 16.4049C18.8085 17.1295 18.3715 17.834 17.875 18.4983C17.8154 18.5788 17.7558 18.6794 17.6764 18.7599C13.446 24.4362 7.01097 27.6769 0 27.6769V38.164C5.4618 38.164 10.864 36.755 15.6307 34.1181C18.1729 32.7091 20.5364 30.9378 22.6218 28.8847C23.1183 28.4016 23.595 27.8983 24.0518 27.375C25.601 25.6439 26.9515 23.772 28.1035 21.7591L28.1829 21.6383C28.5801 20.954 28.9972 20.3098 29.454 19.6859C29.5136 19.6053 29.5732 19.5047 29.6526 19.4242C33.883 13.7479 40.318 10.5072 47.329 10.5072V0Z" fill="#2A54FF"/>
<path opacity="0.3" d="M47.329 0C41.8672 0 36.465 1.40901 31.6983 4.04586C29.1561 5.475 26.7926 7.2262 24.7072 9.27932C24.2107 9.76241 23.734 10.2656 23.2772 10.789C21.7281 12.52 20.3576 14.4121 19.2255 16.4049C18.8085 17.1295 18.3715 17.834 17.875 18.4983C17.8154 18.5788 17.7558 18.6794 17.6764 18.7599C13.446 24.4362 7.01097 27.6769 0 27.6769V38.164C5.4618 38.164 10.864 36.755 15.6307 34.1181C18.1729 32.7091 20.5364 30.9378 22.6218 28.8847C23.1183 28.4016 23.595 27.8983 24.0518 27.375C25.601 25.6439 26.9515 23.772 28.1035 21.7591L28.1829 21.6383C28.5801 20.954 28.9972 20.3098 29.454 19.6859C29.5136 19.6053 29.5732 19.5047 29.6526 19.4242C33.883 13.7479 40.318 10.5072 47.329 10.5072V0Z" fill="url(#paint0_radial_2023_708)"/>
<path d="M47.329 27.6768C40.318 27.6768 33.883 24.416 29.6526 18.7598C29.593 18.6793 29.5335 18.5787 29.454 18.4982C28.9774 17.8339 28.5205 17.1294 28.1035 16.4048C26.9515 14.412 25.5811 12.5199 24.0518 10.7889C23.595 10.2856 23.1183 9.78243 22.6218 9.29934C20.5364 7.24622 18.1729 5.47489 15.6307 4.06589C10.864 1.4089 5.4618 0.0200195 0 0.0200195V10.5071C7.01097 10.5071 13.446 13.7679 17.6764 19.4241C17.736 19.5046 17.7956 19.6052 17.875 19.6857C18.3318 20.3097 18.7489 20.974 19.1461 21.6382L19.2255 21.7791C20.3775 23.7719 21.7281 25.664 23.2772 27.395C23.734 27.8982 24.2107 28.4015 24.7072 28.8845C26.8125 30.9377 29.1561 32.709 31.6983 34.118C36.465 36.775 41.8672 38.1639 47.329 38.1639V27.6768Z" fill="#2A54FF"/>
<defs>
<radialGradient id="paint0_radial_2023_708" cx="0" cy="0" r="1" gradientUnits="userSpaceOnUse" gradientTransform="translate(23.664 19.0846) scale(16.5809 16.8043)">
<stop/>
<stop offset="1" stop-opacity="0"/>
</radialGradient>
</defs>
</svg>
