<svg width="119" height="32" viewBox="0 0 119 32" fill="none" xmlns="http://www.w3.org/2000/svg">
<path d="M53.7789 8.02392V25.1059H48.9727V8.02392H43.2378V3.76074H59.5196V8.02392H53.7789Z" fill="white"/>
<path d="M68.7468 25.1062L68.4256 24.1134C66.6328 25.1062 65.0268 25.4274 63.9697 25.4274C61.0848 25.4274 59.8993 23.3425 59.8993 20.6853C59.8993 17.5434 61.3417 16.2937 64.5479 16.2937H67.9117V15.1082C67.9117 13.5022 67.6256 12.9591 65.1553 12.9591C63.777 12.9591 62.3988 13.1167 60.9213 13.4087L60.3139 9.94564C61.7856 9.49604 64.1274 9.1748 65.9203 9.1748C71.3398 9.1748 72.5253 10.8099 72.5253 15.1374V25.1062H68.7468ZM67.9176 19.4998H65.7042C64.7114 19.4998 64.326 19.7568 64.326 20.6211C64.326 21.4854 64.6764 21.8358 65.5757 21.8358C66.5393 21.8358 67.2109 21.6139 67.9176 21.2927V19.4998Z" fill="white"/>
<path d="M80.0297 19.1436C80.0297 20.7437 80.7013 21.4854 82.5643 21.4854C83.7498 21.4854 84.6491 21.3569 85.7704 21.1L86.3485 24.9485C84.7776 25.2989 83.6563 25.4274 82.5643 25.4274C77.501 25.4274 75.4161 23.5352 75.4161 19.0793V15.5228C75.4161 11.0669 77.501 9.1748 82.5643 9.1748C83.6563 9.1748 84.7776 9.30328 86.3485 9.65364L85.7704 13.5022C84.8068 13.2803 83.4636 13.1167 82.5643 13.1167C80.7071 13.1167 80.0297 13.8526 80.0297 15.4586V19.1436Z" fill="white"/>
<path d="M93.0469 18.9217V19.3714C93.0469 21.1642 93.7535 21.6489 95.8676 21.6489C97.3101 21.6489 99.2314 21.392 100.609 20.9774L101.281 24.4405C99.868 24.9544 97.5963 25.4333 95.418 25.4333C90.3547 25.4333 88.4275 22.9337 88.4275 19.0852V15.4294C88.4275 12.0656 89.9342 9.18066 95.126 9.18066C100.317 9.18066 101.439 12.2583 101.439 15.6571V18.9275H93.0469V18.9217ZM97.0823 14.787C97.0823 13.6949 96.7611 12.8014 95.161 12.8014C93.5608 12.8014 93.0469 13.7007 93.0469 14.787V15.4586H97.0882V14.787H97.0823Z" fill="white"/>
<path d="M113.913 25.1062V14.787C113.913 14.0803 113.592 13.6657 112.791 13.6657C111.956 13.6657 110.42 14.2438 109.428 14.787V25.1062H104.814V9.49605H108.242L108.721 10.6815C110.642 9.75294 113.142 9.1748 114.941 9.1748C117.604 9.1748 118.532 11.1603 118.532 14.1738V25.1062H113.913Z" fill="white"/>
<path d="M10.2818 17.6305L9.20776 17.013V17.0098L10.2818 17.6305Z" fill="white"/>
<path d="M22.714 9.21231V27.6311L15.9577 31.5297L9.20789 27.6311V17.7681L9.95676 18.1984L13.5107 20.2544V25.1481L15.9577 26.5604L18.408 25.1481V11.6986L16.6179 10.664L20.9206 8.17773L22.714 9.21231Z" fill="white"/>
<path d="M10.2818 17.6305L9.20776 17.013V17.0098L10.2818 17.6305Z" fill="white"/>
<path d="M10.2818 17.6305L9.20776 17.013V17.0098L10.2818 17.6305Z" fill="white"/>
<path d="M10.2818 17.6305L9.20776 17.013V17.0098L10.2818 17.6305Z" fill="white"/>
<path d="M17.7509 14.9045V19.8737L15.9575 20.9083L14.1675 19.8737L13.5105 19.4928L11.6581 18.422L10.2851 17.6305L10.2818 17.6305L9.20776 17.0098L8.55084 16.6321L6.75746 15.5975L5.68013 14.9734L0.00439453 11.6989V3.90184L6.75746 0L15.3039 4.93642L11.4807 7.14352H11.4774L10.9979 7.4227L10.2818 7.00886L9.20775 6.38483L6.75746 4.97255L4.31045 6.38483V9.21268L7.83152 11.249L8.55084 11.6628L9.20775 12.0438L11.0603 13.1112L13.5105 14.5268L14.1675 14.9045L15.9575 15.9391L17.7509 14.9045Z" fill="white"/>
<path d="M31.914 3.90184V11.6989L26.235 14.9734L25.1609 15.5975L23.3708 16.6321V11.6595L25.1609 10.6282L27.6112 9.21268V6.38483L25.1609 4.97255L22.7139 6.38483L21.6366 7.00886L20.9205 7.4227L18.4078 8.86782L15.9608 10.2834H15.9575L13.5105 11.6989V13.7681L12.7617 13.3345L11.3887 12.543L9.20776 11.2818V9.21268L10.9979 8.1781L11.6548 7.8004H11.6581L15.9575 5.31412L16.6145 4.93642L25.1609 0L31.914 3.90184Z" fill="white"/>
</svg>
