<svg width="134" height="32" viewBox="0 0 134 32" fill="none" xmlns="http://www.w3.org/2000/svg">
<path fill-rule="evenodd" clip-rule="evenodd" d="M12.2248 0L24.4498 20.8981L12.2248 32L0 20.8981L12.2248 0ZM12.2248 7.72139L7.12306 16.4428C8.64874 16.0087 10.3984 15.6835 12.2248 15.6835C14.0514 15.6835 15.801 16.0087 17.3266 16.4428L12.2248 7.72139ZM18.5507 20.9919C18.4616 20.9548 18.3706 20.9175 18.2779 20.8803C16.5999 20.2071 14.4244 19.5763 12.2248 19.5763C10.0253 19.5763 7.84973 20.2071 6.17188 20.8803C6.07906 20.9175 5.98808 20.9548 5.89906 20.9919L12.2248 26.7367L18.5507 20.9919ZM36.6562 24.1333V9.68H31.6253V24.1333H36.6562ZM31.9167 7.30667C32.4815 7.82221 33.2229 8.08 34.1408 8.08C35.0587 8.08 35.8001 7.82221 36.3651 7.30667C36.9299 6.77333 37.2123 6.10667 37.2123 5.30667C37.2123 4.54221 36.9299 3.92 36.3651 3.44C35.8001 2.94221 35.0587 2.69333 34.1408 2.69333C33.2229 2.69333 32.4815 2.95111 31.9167 3.46667C31.3517 3.98221 31.0694 4.62221 31.0694 5.38667C31.0694 6.15111 31.3517 6.79111 31.9167 7.30667ZM52.7677 11.04C51.6909 9.97333 50.2611 9.44 48.4783 9.44C47.5604 9.44 46.7129 9.6 45.9363 9.92C45.1596 10.2222 44.4888 10.6667 43.924 11.2533V9.68H39.1314V24.1333H44.1623V17.1467C44.1623 16.0089 44.4182 15.1556 44.9301 14.5867C45.4596 14.0177 46.157 13.7333 47.0219 13.7333C48.593 13.7333 49.3785 14.72 49.3785 16.6933V24.1333H54.4094V15.8667C54.4094 13.7156 53.8621 12.1067 52.7677 11.04ZM66.6764 23.5467C66.2528 23.8133 65.7321 24.0177 65.1142 24.16C64.514 24.3023 63.8698 24.3733 63.1813 24.3733C61.3102 24.3733 59.8715 23.9111 58.8654 22.9867C57.8592 22.0623 57.356 20.6844 57.356 18.8533V14H55.2643V10.2133H57.356V6.45333H62.3869V10.2133H65.6703V14H62.3869V18.8C62.3869 19.3156 62.5193 19.7244 62.7841 20.0267C63.0666 20.3111 63.4372 20.4533 63.8962 20.4533C64.4788 20.4533 64.9907 20.3023 65.4319 20L66.6764 23.5467ZM74.6005 9.94667C73.7884 10.2667 73.1265 10.7555 72.6146 11.4133V9.68H67.8221V24.1333H72.853V17.4933C72.853 16.2844 73.153 15.3867 73.7532 14.8C74.3711 14.2133 75.2184 13.92 76.295 13.92C76.5952 13.92 76.9747 13.9467 77.4336 14V9.44C76.3745 9.44 75.4302 9.60888 74.6005 9.94667ZM85.7881 24.3733C84.2525 24.3733 82.8668 24.0533 81.6311 23.4133C80.3955 22.7733 79.4246 21.8844 78.7184 20.7467C78.0301 19.6089 77.6858 18.32 77.6858 16.88C77.6858 15.4577 78.0301 14.1777 78.7184 13.04C79.4246 11.9022 80.3866 11.0222 81.6047 10.4C82.8403 9.76 84.2348 9.44 85.7881 9.44C87.3416 9.44 88.7361 9.76 89.9717 10.4C91.2074 11.0222 92.1695 11.9022 92.8578 13.04C93.5463 14.16 93.8906 15.44 93.8906 16.88C93.8906 18.32 93.5463 19.6089 92.8578 20.7467C92.1695 21.8844 91.2074 22.7733 89.9717 23.4133C88.7361 24.0533 87.3416 24.3733 85.7881 24.3733ZM85.7881 20.3467C86.6708 20.3467 87.3945 20.0444 87.9595 19.44C88.5243 18.8177 88.8068 17.9644 88.8068 16.88C88.8068 15.8133 88.5243 14.9777 87.9595 14.3733C87.3945 13.7689 86.6708 13.4667 85.7881 13.4667C84.9056 13.4667 84.1819 13.7689 83.6169 14.3733C83.0521 14.9777 82.7697 15.8133 82.7697 16.88C82.7697 17.9644 83.0521 18.8177 83.6169 19.44C84.1819 20.0444 84.9056 20.3467 85.7881 20.3467ZM108.004 10.3733C106.945 9.75111 105.762 9.44 104.456 9.44C102.567 9.44 101.155 10 100.219 11.12V9.68H95.4268V29.3067H100.458V22.8533C101.446 23.8667 102.779 24.3733 104.456 24.3733C105.762 24.3733 106.945 24.0711 108.004 23.4667C109.081 22.8444 109.928 21.9733 110.546 20.8533C111.181 19.7156 111.499 18.4 111.499 16.9067C111.499 15.4133 111.181 14.1067 110.546 12.9867C109.928 11.8489 109.081 10.9778 108.004 10.3733ZM105.568 19.44C105.003 20.0444 104.279 20.3467 103.397 20.3467C102.514 20.3467 101.79 20.0444 101.225 19.44C100.661 18.8177 100.378 17.9733 100.378 16.9067C100.378 15.84 100.661 15.0044 101.225 14.4C101.79 13.7777 102.514 13.4667 103.397 13.4667C104.279 13.4667 105.003 13.7777 105.568 14.4C106.133 15.0044 106.415 15.84 106.415 16.9067C106.415 17.9733 106.133 18.8177 105.568 19.44ZM115.559 8.08C114.641 8.08 113.899 7.82221 113.334 7.30667C112.769 6.79111 112.487 6.15111 112.487 5.38667C112.487 4.62221 112.769 3.98221 113.334 3.46667C113.899 2.95111 114.641 2.69333 115.559 2.69333C116.476 2.69333 117.218 2.94221 117.783 3.44C118.348 3.92 118.63 4.54221 118.63 5.30667C118.63 6.10667 118.348 6.77333 117.783 7.30667C117.218 7.82221 116.476 8.08 115.559 8.08ZM132.12 11.0933C130.867 9.99111 129.049 9.44 126.666 9.44C125.518 9.44 124.371 9.59111 123.223 9.89333C122.094 10.1778 121.132 10.5867 120.337 11.12L122.032 14.56C122.526 14.1689 123.126 13.8667 123.832 13.6533C124.538 13.4223 125.236 13.3067 125.924 13.3067C127.866 13.3067 128.881 14.0711 128.969 15.6H126.109C123.938 15.6 122.332 15.9823 121.29 16.7467C120.249 17.4933 119.728 18.5511 119.728 19.92C119.728 20.7733 119.931 21.5377 120.337 22.2133C120.761 22.8711 121.379 23.3956 122.191 23.7867C123.003 24.1777 123.965 24.3733 125.077 24.3733C127.177 24.3733 128.59 23.6711 129.313 22.2667V24.1333H134V16.1067C134 13.8489 133.373 12.1778 132.12 11.0933ZM128.016 20.7467C127.575 21.0311 127.063 21.1733 126.48 21.1733C125.898 21.1733 125.439 21.04 125.103 20.7733C124.768 20.5067 124.6 20.1511 124.6 19.7067C124.6 18.7289 125.333 18.24 126.798 18.24H128.969V19.4933C128.775 20.0444 128.457 20.4623 128.016 20.7467ZM113.043 9.68H118.074V24.1333H113.043V9.68Z" fill="url(#paint0_linear_2052_1063)"/>
<defs>
<linearGradient id="paint0_linear_2052_1063" x1="67" y1="0" x2="65" y2="37" gradientUnits="userSpaceOnUse">
<stop stop-color="#43536D"/>
<stop offset="1" stop-color="#43536D" stop-opacity="0"/>
</linearGradient>
</defs>
</svg>
